# Blender v2.82 (sub 7) OBJ File: ''
# www.blender.org
mtllib warmachine tray.mtl
o warmachine_tray_second_try.001
v -1.197173 0.125009 2.613834
v 1.197175 0.125005 2.613833
v -0.000002 0.125003 2.361498
v -0.390988 0.125004 2.097107
v -0.309185 0.125002 2.152423
v -0.701885 0.125007 2.094845
v 0.426158 0.125004 0.926643
v 1.197175 0.125005 2.613833
v 0.244373 0.125002 2.196253
v 0.146625 0.125001 2.262352
v 0.048872 0.124999 2.328452
v 0.374797 0.125003 2.108059
v 0.279135 0.125002 2.172746
v 1.197175 0.125005 2.613833
v 0.244373 0.125002 2.196253
v 0.390988 0.125001 2.097106
v 0.726800 0.125003 2.069967
v -0.095752 0.125007 2.097105
v -0.362974 0.125003 2.097102
v 1.374999 -0.125004 -2.713677
v 1.374999 -0.125010 2.713688
v 0.000001 -0.125004 -0.000003
v 0.244373 0.125002 2.196253
v 0.279525 0.125002 2.172482
v 0.266424 0.036181 2.181336
v 0.146625 0.125001 2.262352
v 0.193538 0.036192 2.230622
v -1.374991 -0.124995 2.713677
v -1.232496 0.125001 2.552503
v -1.232496 0.125009 -2.552503
v 1.344588 -0.125010 2.774996
v -1.197173 0.125009 2.613834
v -1.240105 0.058294 2.656845
v -1.168658 0.124988 2.512668
v -0.426156 0.125002 0.926644
v -0.438910 0.125008 0.920611
v -1.344597 -0.125005 -2.775008
v 1.344595 -0.124992 -2.775007
v 1.374999 -0.125004 -2.713677
v 1.232499 0.124990 -2.552521
v 1.232502 0.124999 2.552510
v -1.344597 -0.125005 -2.775008
v 1.239302 0.059707 -2.655921
v 1.344595 -0.124992 -2.775007
v 1.197165 0.124999 -2.613824
v -1.240150 0.058227 -2.656891
v -1.374991 -0.124995 -2.713671
v 1.374999 -0.125010 2.713688
v 1.197175 0.125005 2.613833
v 1.232502 0.124999 2.552510
v 1.232499 0.124990 -2.552521
v 1.016193 0.124999 -0.100035
v 0.199207 0.124999 -1.001502
v 1.099390 0.124999 -2.443275
v 0.100080 0.125000 -1.016191
v -0.426155 0.125008 -0.926643
v 0.704507 0.125002 -2.092218
v -0.690505 0.125007 -2.106189
v -1.232496 0.125001 2.552503
v -1.016191 0.124998 -0.100085
v -1.232496 0.125009 -2.552503
v -1.001493 0.125005 -0.199209
v -0.296421 -0.037920 -0.977138
v -0.199206 -0.037911 -1.001493
v -0.199190 0.125001 -1.001494
v 0.420902 -0.037917 -0.420895
v 0.849034 -0.037914 -0.567299
v 0.789317 -0.037926 -0.647777
v 1.001495 0.125003 -0.199219
v 1.001498 -0.037911 -0.199213
v 1.016192 0.108681 -0.100079
v 1.001495 0.125003 -0.199219
v 0.227788 -0.037919 0.549930
v -0.000000 -0.037916 0.000000
v 0.116122 -0.037916 0.583794
v 0.443241 0.125003 0.918561
v 0.438135 0.124994 0.920972
v 1.230336 0.124995 2.574466
v 0.567303 -0.037922 0.849020
v 0.481351 -0.037920 0.900530
v 0.481351 0.108688 0.900532
v -0.116126 -0.037911 0.583799
v -0.227789 -0.037922 0.549929
v -1.001493 0.125005 -0.199209
v -1.016191 0.124998 -0.100085
v -1.016180 0.108675 -0.100083
v -0.197600 -0.037926 0.651423
v 0.481351 -0.037920 0.900530
v 0.390756 0.108680 0.943388
v 0.481351 0.108688 0.900532
v -0.481349 0.108687 0.900540
v -0.438910 0.125008 0.920611
v -0.426156 0.125002 0.926644
v -0.943367 0.124999 0.390808
v -0.900527 0.108688 0.481353
v -0.943385 0.108685 0.390755
v 0.100080 -0.037917 -1.016185
v 0.199207 0.124999 -1.001502
v 0.100080 0.125000 -1.016191
v 0.789317 -0.037926 -0.647777
v 0.849034 -0.037914 -0.567299
v 0.849017 0.125004 -0.567312
v 0.494924 -0.037911 -0.330703
v -0.789328 -0.037922 -0.647789
v -0.722040 -0.037917 -0.722045
v -0.722039 0.125004 -0.722035
v 0.595235 -0.037924 0.000002
v 0.583799 -0.037918 0.116125
v 1.016187 -0.037925 0.100093
v 1.001498 -0.037917 0.199213
v 1.001505 0.124999 0.199204
v -1.107494 0.125008 2.451474
v -0.100054 0.124999 1.016187
v -0.199218 0.125004 1.001490
v -0.100080 -0.037915 1.016188
v -0.199208 -0.037909 1.001499
v -0.199218 0.125004 1.001490
v 0.969617 0.124998 0.317412
v 0.943386 0.124994 0.390762
v 0.977131 -0.037920 0.296411
v 0.943386 0.124994 0.390762
v 0.977135 0.108685 0.296408
v -0.860498 0.125001 0.548157
v -0.900539 0.125001 0.481343
v -0.900527 0.108688 0.481353
v -0.900539 0.125001 0.481343
v -0.860498 0.125001 0.548157
v -0.629861 0.125002 -0.802626
v -0.567290 0.125004 -0.849036
v -0.647782 -0.037920 -0.789332
v -0.567290 0.125004 -0.849036
v -0.647775 0.108683 -0.789327
v 0.132517 0.125000 2.271891
v 0.146625 0.125001 2.262352
v 0.146627 0.036185 2.262354
v 0.048872 0.124999 2.328452
v 0.097748 0.036180 2.295394
v 0.567276 0.124996 -0.849046
v 0.481363 0.125001 -0.900524
v 0.481336 -0.037916 -0.900534
v 0.567290 0.108689 -0.849027
v 0.481347 0.108675 -0.900535
v 0.197611 -0.037924 0.651433
v 0.199199 -0.037924 1.001498
v 0.100098 -0.037925 1.016189
v 0.100095 0.125005 1.016179
v -1.001488 -0.037918 0.199209
v -1.016187 -0.037927 0.100082
v -1.016179 0.108676 0.100091
v -0.494923 -0.037924 -0.330698
v -0.423387 -0.037924 -0.410448
v 0.116125 -0.037914 -0.583803
v 0.296405 -0.037915 -0.977126
v 0.199206 -0.037920 -1.001505
v 0.199206 -0.037920 -1.001505
v 0.296405 -0.037915 -0.977126
v 0.296400 0.108678 -0.977129
v 0.036656 0.036182 2.138418
v 0.060490 0.036186 2.122149
v -0.097745 0.036182 2.097106
v -0.309185 0.125002 2.152423
v -0.296007 0.036183 2.161337
v -0.342111 0.036185 2.130150
v 0.583803 -0.037917 -0.116127
v 0.677466 -0.037923 -0.066723
v -0.390988 0.125004 2.097107
v -0.095752 0.125007 2.097105
v -0.362974 0.125003 2.097102
v -0.390991 0.036190 2.097109
v -0.296406 0.108685 -0.977133
v 0.726801 0.125000 -2.069969
v -0.274769 0.125001 -0.982568
v -0.199190 0.125001 -1.001494
v -0.003810 -0.037919 0.592481
v -0.199208 -0.037909 1.001499
v -0.100080 -0.037915 1.016188
v -0.977141 0.125001 0.296398
v -1.001497 0.125005 0.199208
v -0.977137 -0.037913 0.296410
v -1.001494 0.108685 0.199204
v -0.977141 0.125001 0.296398
v -0.330698 -0.037928 0.494933
v -0.413343 -0.037910 0.417006
v -0.647771 -0.037917 0.789318
v 0.088939 0.036187 2.097108
v -0.027297 0.125004 2.097103
v -0.097745 0.036182 2.097106
v 0.279525 0.125002 2.172482
v 0.390989 0.036182 2.097107
v 0.266424 0.036181 2.181336
v 0.549934 -0.037919 0.227796
v 0.789323 -0.037911 0.647774
v 0.722042 0.108679 0.722041
v 0.789324 0.108687 0.647771
v 0.374797 0.125003 2.108059
v 0.374797 0.125003 2.108059
v 0.279525 0.125002 2.172482
v 0.279135 0.125002 2.172746
v -0.567301 -0.037912 -0.849025
v -0.481345 0.108683 -0.900535
v -0.567290 0.125004 -0.849036
v -0.330700 -0.037919 -0.494927
v -0.227788 -0.037914 -0.549925
v -1.230329 0.125001 2.574459
v -1.232496 0.125001 2.552503
v -1.286984 0.026751 2.631227
v -1.236760 0.113848 2.580903
v 0.549933 -0.037922 -0.227789
v 0.849034 -0.037914 -0.567299
v 0.900533 -0.037923 -0.481339
v 0.900544 0.108688 -0.481341
v -0.708149 0.125006 2.088580
v 0.390765 0.125001 0.943388
v 0.369758 0.124997 0.950904
v 0.390766 -0.037911 0.943385
v 0.296414 0.108679 0.977139
v 0.390756 0.108680 0.943388
v -0.849019 -0.037918 0.567299
v -0.849029 0.125007 0.567296
v -0.494925 -0.037918 0.330698
v -0.900529 -0.037913 0.481354
v -0.849019 -0.037918 0.567299
v -1.344583 -0.124993 2.775011
v -1.372689 -0.124996 2.737137
v -0.526218 -0.037922 0.431861
v -0.789317 0.108682 0.647786
v -0.737023 0.125003 0.705499
v -0.722043 0.108672 0.722032
v 0.977132 -0.037916 -0.296416
v 1.001498 -0.037911 -0.199213
v 1.001495 0.125003 -0.199219
v -0.690501 0.125007 2.106195
v -1.240105 0.058294 2.656845
v -1.197173 0.125009 2.613834
v -1.097046 0.113848 2.513517
v -1.001488 -0.037918 0.199209
v -0.583799 -0.037914 0.116121
v -0.595239 -0.037924 0.000004
v -1.144464 0.125008 2.488427
v -1.236760 0.113848 2.580903
v -1.286984 0.026751 2.631227
v -1.198720 0.124998 2.542788
v -0.943385 -0.037915 0.390765
v -0.977137 -0.037913 0.296410
v -0.977141 0.125001 0.296398
v -0.549927 -0.037917 0.227794
v -0.651415 -0.037925 0.197605
v -0.977137 -0.037913 0.296410
v -1.366094 -0.124990 2.757037
v -1.286188 0.026748 2.639311
v -1.372689 -0.124996 2.737137
v -1.374991 -0.124995 2.713677
v -1.374991 -0.124995 -2.713671
v -0.789323 -0.037914 0.647784
v -0.849019 -0.037918 0.567299
v -0.849029 0.125007 0.567296
v -1.286188 0.026748 2.639311
v -1.133338 0.026753 2.477288
v -1.286984 0.026751 2.631227
v -1.286188 0.026748 2.639311
v -0.481344 -0.037914 -0.900526
v -0.390762 -0.037914 -0.943398
v -0.296421 -0.037920 -0.977138
v -0.296406 0.108685 -0.977133
v -0.943385 -0.037915 0.390765
v -0.600357 -0.037923 0.320893
v 0.048872 0.124999 2.328452
v -0.000002 0.125003 2.361498
v 0.048875 0.036187 2.328449
v -0.726798 0.125007 -2.069968
v -1.168913 0.125008 -2.512927
v -1.259738 0.026752 -2.676518
v -1.356229 -0.124999 -2.770326
v -1.269736 0.026748 -2.672507
v 0.651419 -0.037922 0.197612
v 1.001498 -0.037917 0.199213
v 0.977131 -0.037920 0.296411
v 0.977135 0.108685 0.296408
v -0.919823 0.125008 2.335951
v -0.690508 0.026757 2.106195
v -0.902558 0.026747 2.318646
v -1.133338 0.026753 2.477288
v -0.390762 -0.037914 -0.943398
v -0.481344 -0.037914 -0.900526
v -0.390762 -0.037914 -0.943398
v -0.390768 0.108685 -0.943388
v -0.789328 -0.037922 -0.647789
v -0.849031 -0.037914 -0.567303
v -0.789328 -0.037922 -0.647789
v -0.789328 0.125007 -0.647765
v 0.287424 -0.037919 -0.569771
v 0.567302 -0.037913 -0.849028
v 0.481336 -0.037916 -0.900534
v 0.567302 -0.037913 -0.849028
v 0.199214 0.125001 1.001489
v -0.726806 0.125006 2.069969
v -0.708149 0.125006 2.088580
v -0.726806 0.125006 2.069969
v -0.726801 0.026751 2.069973
v 0.390770 -0.037911 -0.943386
v 0.390770 -0.037911 -0.943386
v 0.481336 -0.037916 -0.900534
v 0.481347 0.108675 -0.900535
v -0.677462 -0.037926 0.066722
v -1.021119 -0.037926 -0.000001
v -1.016180 0.108675 -0.100083
v -1.021116 0.108677 -0.000003
v 0.721957 0.124998 -0.722120
v 0.647785 0.108676 -0.789331
v 0.722036 0.108677 -0.722044
v 0.330697 -0.037919 -0.494925
v 0.431854 -0.037909 -0.526216
v 0.647778 -0.037923 -0.789331
v 0.296405 -0.037915 -0.977126
v 0.390770 -0.037911 -0.943386
v 0.390760 0.124999 -0.943381
v -0.722037 0.124999 0.722030
v -0.647786 0.108687 0.789330
v -0.722043 0.108672 0.722032
v -0.664308 0.124997 0.774341
v -0.722037 0.124999 0.722030
v 0.789327 0.108678 -0.647789
v 0.721957 0.124998 -0.722120
v 0.722036 0.108677 -0.722044
v 0.722033 -0.037920 -0.722038
v -0.849031 -0.037914 -0.567303
v -1.001501 -0.037915 -0.199212
v -0.977136 -0.037922 -0.296410
v -0.977138 0.124998 -0.296416
v 0.567302 -0.037913 -0.849028
v 0.647785 0.108676 -0.789331
v 0.567290 0.108689 -0.849027
v -0.390766 -0.037913 0.943392
v -0.390751 0.125001 0.943384
v -0.199208 -0.037909 1.001499
v -0.296403 0.108691 0.977129
v -0.199218 0.125004 1.001490
v -0.000000 -0.037917 -0.595239
v 0.100080 -0.037917 -1.016185
v -0.000006 -0.037926 -1.021116
v -0.000006 -0.037926 -1.021116
v 0.100080 -0.037917 -1.016185
v 0.100080 0.125000 -1.016191
v 1.016182 -0.037920 -0.100091
v 1.021121 -0.037914 -0.000007
v 1.021111 0.125001 0.000003
v 1.016193 0.124999 -0.100035
v 0.199206 -0.037920 -1.001505
v -1.016189 -0.037912 -0.100083
v -1.021119 -0.037926 -0.000001
v -1.016189 -0.037912 -0.100083
v -1.001501 -0.037915 -0.199212
v -0.116125 -0.037913 -0.583804
v -0.100084 -0.037915 -1.016189
v -0.199206 -0.037911 -1.001493
v -0.199206 -0.037911 -1.001493
v -0.100084 -0.037915 -1.016189
v -0.100091 0.124998 -1.016181
v -0.066723 -0.037924 -0.677456
v -0.100084 -0.037915 -1.016189
v -0.000006 -0.037926 -1.021116
v 0.000007 0.125004 -1.021120
v -0.900537 -0.037909 -0.481343
v -0.900537 -0.037909 -0.481343
v -0.849031 -0.037914 -0.567303
v -0.849034 0.124999 -0.567294
v 0.296411 -0.037915 0.977135
v 0.296411 -0.037915 0.977135
v 0.390766 -0.037911 0.943385
v -0.197610 -0.037923 -0.651419
v -0.296421 -0.037920 -0.977138
v 0.390766 -0.037911 0.943385
v 0.322663 -0.037922 0.498493
v 0.481351 -0.037920 0.900530
v -0.651421 -0.037927 -0.197604
v -0.943399 -0.037917 -0.390766
v -0.977136 -0.037922 -0.296410
v -0.977136 -0.037922 -0.296410
v -0.943399 -0.037917 -0.390766
v -0.943391 0.125000 -0.390750
v 0.296411 -0.037915 0.977135
v 0.199199 -0.037924 1.001498
v 0.199215 0.108690 1.001498
v 0.943388 -0.037919 0.390768
v 0.900531 -0.037920 0.481338
v 0.900531 0.108674 0.481340
v 0.900531 -0.037920 0.481338
v 0.943388 -0.037919 0.390768
v -0.549933 -0.037918 -0.227794
v -0.943399 -0.037917 -0.390766
v -0.900537 -0.037909 -0.481343
v -0.900542 0.108686 -0.481349
v 1.372694 -0.125005 -2.737148
v 1.366102 -0.125002 -2.757039
v 1.267405 0.059703 -2.618076
v 1.366102 -0.125002 -2.757039
v 1.372694 -0.125005 -2.737148
v 0.943388 -0.037919 0.390768
v -0.581173 -0.037925 -0.113864
v -1.001501 -0.037915 -0.199212
v 0.849030 -0.037921 0.567302
v 0.789323 -0.037911 0.647774
v 0.789324 0.108687 0.647771
v 0.494926 -0.037922 0.330698
v 0.789323 -0.037911 0.647774
v 0.849030 -0.037921 0.567302
v 0.900531 -0.037920 0.481338
v 0.849030 -0.037921 0.567302
v 0.849036 0.125002 0.567300
v 1.230331 0.125003 -2.574464
v 1.198724 0.125009 -2.542798
v 0.438942 0.125002 -0.920587
v 1.250937 0.059707 -2.651276
v 1.344595 -0.124992 -2.775007
v 1.239302 0.059707 -2.655921
v 0.722047 -0.037927 0.722036
v 0.647771 -0.037918 0.789318
v 0.647783 0.124998 0.789331
v 0.526216 -0.037920 0.431854
v 0.420900 -0.037925 0.420898
v 0.722047 -0.037927 0.722036
v -0.647771 -0.037917 0.789318
v -0.567305 -0.037913 0.849024
v -0.647771 -0.037917 0.789318
v -0.647786 0.108687 0.789330
v -0.885862 0.125007 -2.301922
v -0.893776 0.026745 -2.309849
v -0.690508 0.026750 -2.106194
v -1.197181 0.125008 -2.613842
v 0.647771 -0.037918 0.789318
v 0.567298 0.108678 0.849024
v 0.647783 0.124998 0.789331
v 0.567303 -0.037922 0.849020
v -0.500482 0.125006 0.889063
v -0.567303 0.125003 0.849022
v -0.567303 0.125003 0.849022
v -0.500482 0.125006 0.889063
v -0.481349 0.108687 0.900540
v 1.250937 0.059707 -2.651276
v 1.239176 0.059709 -2.655920
v 0.893776 0.059708 -2.309848
v 0.690506 0.125002 -2.106196
v 0.916875 0.125001 -2.332997
v 0.431857 -0.037913 0.526209
v 0.647771 -0.037918 0.789318
v -0.296412 -0.037914 0.977138
v -0.390766 -0.037913 0.943392
v -0.390751 0.125001 0.943384
v -0.390766 -0.037913 0.943392
v -1.232496 0.125009 -2.552503
v -1.286985 0.026748 -2.631227
v -1.374991 -0.124995 -2.713671
v -0.726798 0.125007 -2.069968
v -0.913841 0.026751 -2.257372
v -1.197900 0.124995 -2.541971
v 1.230331 0.125003 -2.574464
v 1.267985 0.059702 -2.612190
v 1.144070 0.124999 -2.488041
v 1.372694 -0.125005 -2.737148
v 1.267985 0.059702 -2.612190
v 1.232499 0.124990 -2.552521
v -0.567303 0.108678 0.849028
v -0.567305 -0.037913 0.849024
v -1.021116 0.124998 -0.000087
v -1.016191 0.124998 -0.100085
v -1.021116 0.124998 -0.000087
v -0.320906 -0.037915 0.600358
v -0.481349 -0.037921 0.900534
v 1.197114 0.125001 2.541180
v 0.896205 0.125004 2.312290
v -1.004771 0.125007 0.177141
v -1.016189 0.125006 0.100090
v -1.001494 0.108685 0.199204
v 1.267404 0.059705 2.618071
v 1.374999 -0.125010 2.713688
v 1.267981 0.059705 2.612185
v 1.267404 0.059705 2.618071
v 1.267981 0.059705 2.612185
v 0.726804 0.059705 2.069970
v -0.567301 -0.037912 -0.849025
v -0.567301 -0.037912 -0.849025
v -0.802618 0.125002 0.629862
v -0.849029 0.125007 0.567296
v -0.802618 0.125002 0.629862
v -0.789317 0.108682 0.647786
v -0.722040 -0.037917 -0.722045
v -0.722040 -0.037917 -0.722045
v -0.647782 -0.037920 -0.789332
v -0.647775 0.108683 -0.789327
v 0.849017 0.125004 -0.567312
v 0.900536 0.125001 -0.481349
v 0.849017 0.125004 -0.567312
v -0.431850 -0.037917 -0.526221
v -0.647782 -0.037920 -0.789332
v 1.239188 0.059706 2.655926
v 0.896205 0.125004 2.312290
v 1.197175 0.125005 2.613833
v 1.239188 0.059706 2.655926
v 0.677458 -0.037912 0.066725
v 1.021121 -0.037914 -0.000007
v 1.016187 -0.037925 0.100093
v 1.016190 0.125002 0.100077
v 0.930067 0.059709 -2.273627
v 0.893776 0.059708 -2.309848
v 0.916875 0.125001 -2.332997
v 0.690506 0.125002 -2.106196
v 1.356229 -0.124998 2.770334
v 1.239304 0.059709 2.655924
v 1.344588 -0.125010 2.774996
v 1.356229 -0.124998 2.770334
v 1.344588 -0.125010 2.774996
v -1.017284 0.124997 0.077801
v -1.016187 -0.037927 0.100082
v -1.021116 0.108677 -0.000003
v -1.016179 0.108676 0.100091
v -0.100085 0.108688 1.016189
v 0.000003 -0.037914 1.021121
v -0.100080 -0.037915 1.016188
v -0.100085 0.108688 1.016189
v -0.943367 0.124999 0.390808
v -0.943367 0.124999 0.390808
v -0.943385 0.108685 0.390755
v 1.021121 -0.037914 -0.000007
v 1.016187 -0.037925 0.100093
v -1.021119 -0.037926 -0.000001
v -1.016187 -0.037927 0.100082
v -0.369752 0.125008 -0.950900
v 0.715760 0.125002 -2.080994
v 0.699149 0.059711 -2.097566
v 0.704507 0.125002 -2.092218
v 0.715760 0.125002 -2.080994
v -0.902558 0.026747 2.318646
v -0.690508 0.026757 2.106195
v -1.269730 0.026747 2.672500
v -1.344583 -0.124993 2.775011
v -1.259743 0.026749 2.676517
v -1.269730 0.026747 2.672500
v -0.585222 0.125002 0.835728
v -0.647778 0.125001 0.789319
v -0.585222 0.125002 0.835728
v -0.567303 0.108678 0.849028
v -1.001488 -0.037918 0.199209
v 0.705503 0.124992 0.737023
v 0.647783 0.124998 0.789331
v 0.705503 0.124992 0.737023
v 0.722042 0.108679 0.722041
v 0.699149 0.059711 -2.097566
v 0.716646 0.059706 -2.080111
v 0.983141 0.059707 -2.356987
v 0.716646 0.059706 -2.080111
v 1.267981 0.059705 2.612185
v 1.230336 0.124995 2.574466
v 1.197114 0.125001 2.541180
v 1.232502 0.124999 2.552510
v 1.021111 0.125001 0.000003
v 1.016190 0.125002 0.100077
v 1.021111 0.125001 0.000003
v 0.390760 0.124999 -0.943381
v 1.144070 0.124999 -2.488041
v 0.390760 0.124999 -0.943381
v 0.426699 0.125000 -0.926387
v 1.372693 -0.125001 2.737145
v 1.372693 -0.125001 2.737145
v -0.699700 0.026748 2.097019
v -0.713115 0.026749 2.083624
v -1.279591 0.026754 2.659216
v -0.701885 0.125007 2.094845
v -0.713115 0.026749 2.083624
v -0.699700 0.026748 2.097019
v -0.017693 0.125006 2.349534
v -0.099751 0.125008 2.294044
v -0.099751 0.125008 2.294044
v -0.017693 0.125006 2.349534
v -0.048881 0.036185 2.328451
v -0.737023 0.125003 0.705499
v -0.789325 0.125002 0.647783
v -0.789325 0.125002 0.647783
v -0.146624 0.125001 2.262352
v -0.146624 0.125001 2.262352
v -0.097745 0.036189 2.295399
v 0.443478 0.125003 -0.918442
v 1.230331 0.125003 -2.574464
v -0.160728 0.125009 2.252812
v -0.160728 0.125009 2.252812
v -0.163982 0.036189 2.250616
v -0.910077 0.125002 0.461173
v -0.910077 0.125002 0.461173
v 0.296368 0.125002 0.977153
v 0.296414 0.108679 0.977139
v -1.372686 -0.124992 -2.737138
v -1.372686 -0.124992 -2.737138
v 0.849036 0.125002 0.567300
v 0.835737 0.125008 0.585217
v 0.849036 0.125002 0.567300
v 0.943391 -0.037915 -0.390769
v 0.977132 -0.037916 -0.296416
v 0.977137 0.125000 -0.296399
v 1.001498 -0.037911 -0.199213
v 0.977132 -0.037916 -0.296416
v -1.286192 0.026746 -2.639318
v -1.286985 0.026748 -2.631227
v 0.900533 -0.037923 -0.481339
v 0.943382 0.108687 -0.390768
v 0.900544 0.108688 -0.481341
v 0.943391 -0.037915 -0.390769
v -0.439656 0.125004 -0.920254
v -1.230332 0.125004 -2.574466
v -1.230332 0.125004 -2.574466
v -1.374991 -0.124995 2.713677
v -1.372689 -0.124996 2.737137
v -0.913841 0.026751 -2.257372
v -1.286192 0.026746 -2.639318
v -1.286985 0.026748 -2.631227
v -1.145828 0.026744 -2.552979
v -1.121125 0.026747 -2.508153
v -0.690508 0.026750 -2.106194
v 0.567267 0.124996 0.849055
v 0.567267 0.124996 0.849055
v 0.600360 -0.037927 -0.320891
v -0.698129 0.026752 -2.098589
v -0.690505 0.125007 -2.106189
v -0.690508 0.026750 -2.106194
v -0.698129 0.026752 -2.098589
v 1.267405 0.059703 -2.618076
v 1.260814 0.059706 -2.637969
v 0.930067 0.059709 -2.273627
v 1.267985 0.059702 -2.612190
v -0.100091 0.124998 -1.016181
v 0.000007 0.125004 -1.021120
v 0.926533 0.125000 -2.270085
v -0.100091 0.124998 -1.016181
v 0.481342 0.124996 0.900541
v 0.567267 0.124996 0.849055
v 0.567298 0.108678 0.849024
v 0.296409 0.125000 -0.977133
v 0.317415 0.125002 -0.969617
v 0.296400 0.108678 -0.977129
v 1.230336 0.124995 2.574466
v 0.901064 0.124998 -2.244568
v 0.726801 0.125000 -2.069969
v 0.901064 0.124998 -2.244568
v 0.726797 0.059708 -2.069966
v 0.000007 0.125004 -1.021120
v -0.702351 0.125007 -2.094376
v -0.702351 0.125007 -2.094376
v -0.715277 0.026752 -2.081473
v -0.726798 0.125007 -2.069968
v 1.239176 0.059709 -2.655920
v 1.239176 0.059709 -2.655920
v 0.100098 -0.037925 1.016189
v 0.000003 -0.037914 1.021121
v -0.000005 0.124999 1.021115
v 0.100098 -0.037925 1.016189
v 0.199199 -0.037924 1.001498
v 0.199207 0.124999 -1.001502
v 0.220853 0.124996 -0.996073
v 0.000003 -0.037914 1.021121
v 0.066731 -0.037927 0.677458
v 0.390988 0.125001 2.097106
v 0.236207 0.036183 2.097103
v 0.390989 0.036182 2.097107
v 0.390989 0.036182 2.097107
v 0.149663 0.036182 2.162325
v 0.266424 0.036181 2.181336
v -1.366079 -0.125003 -2.757042
v -1.269736 0.026748 -2.672507
v -1.356229 -0.124999 -2.770326
v -1.366079 -0.125003 -2.757042
v -1.356229 -0.124999 -2.770326
v 0.443241 0.125003 0.918561
v 0.438135 0.124994 0.920972
v -0.481337 0.125002 0.900531
v -0.481337 0.125002 0.900531
v 1.016193 0.124999 -0.100035
v 1.016192 0.108681 -0.100079
v -0.789323 -0.037914 0.647784
v -0.722041 -0.037911 0.722034
v 1.001505 0.124999 0.199204
v 1.016190 0.125002 0.100077
v 0.721957 0.124998 -0.722120
v 0.789329 0.124994 -0.647782
v 0.789329 0.124994 -0.647782
v -1.017284 0.124997 0.077801
v -1.016189 0.125006 0.100090
v -1.016189 0.125006 0.100090
v -1.004771 0.125007 0.177141
v -0.900531 0.125000 -0.481350
v -0.889068 0.125002 -0.500489
v -0.900542 0.108686 -0.481349
v 1.016182 -0.037920 -0.100091
v -0.481345 0.125003 -0.900539
v -0.461174 0.124999 -0.910079
v -0.461174 0.124999 -0.910079
v -0.481345 0.125003 -0.900539
v -0.481345 0.108683 -0.900535
v 0.900531 0.108674 0.481340
v 0.889065 0.124994 0.500492
v -1.021116 0.124998 -0.000087
v 0.426699 0.125000 -0.926387
v 1.356232 -0.125010 -2.770336
v 1.356232 -0.125010 -2.770336
v 0.317415 0.125002 -0.969617
v 0.296409 0.125000 -0.977133
v 0.296409 0.125000 -0.977133
v 0.220853 0.124996 -0.996073
v -0.390768 0.108685 -0.943388
v -0.296414 0.125010 -0.977133
v 0.900533 -0.037923 -0.481339
v -0.647778 0.125001 0.789319
v 0.774345 0.124999 0.664309
v 0.722032 0.124997 0.722045
v 0.722032 0.124997 0.722045
v 0.100095 0.125005 1.016179
v -0.982346 0.125007 2.326002
v 0.100095 0.125005 1.016179
v -0.000005 0.124999 1.021115
v -0.209599 0.125009 2.219767
v -0.258192 0.125004 2.186907
v -0.258192 0.125004 2.186907
v -0.209599 0.125009 2.219767
v -0.825877 0.125006 2.169233
v -0.726804 0.113848 2.069967
v -0.982346 0.125007 2.326002
v -0.930072 0.026743 2.273631
v -0.390763 0.125000 -0.943380
v -0.434845 0.125008 -0.922533
v -0.390763 0.125000 -0.943380
v -1.366094 -0.124990 2.757037
v -1.356233 -0.125007 2.770334
v -0.434845 0.125008 -0.922533
v -1.197900 0.124995 -2.541971
v -1.230332 0.125004 -2.574466
v -1.344583 -0.124993 2.775011
v -1.356233 -0.125007 2.770334
v 0.690510 0.125003 2.106193
v 1.141615 0.125005 2.485574
v 0.726804 0.059705 2.069970
v 1.374999 -0.125004 -2.713677
v -1.168913 0.125008 -2.512927
v -0.726798 0.125007 -2.069968
v -1.197900 0.124995 -2.541971
v -0.430170 0.125004 -0.924746
v -0.664308 0.124997 0.774341
v -0.647778 0.125001 0.789319
v 0.177142 0.124998 1.004771
v 0.199215 0.108690 1.001498
v -0.977138 0.124998 -0.296416
v -0.943391 0.125000 -0.390750
v -0.977138 0.124998 -0.296416
v 0.083229 0.036184 2.233195
v 0.193538 0.036192 2.230622
v -1.197181 0.125008 -2.613842
v -1.197181 0.125008 -2.613842
v -0.481337 0.125002 0.900531
v -1.283410 0.026752 2.647690
v -1.283410 0.026752 2.647690
v -0.722039 0.125004 -0.722035
v -0.789328 0.125007 -0.647765
v -0.789328 0.125007 -0.647765
v 0.726797 0.059708 -2.069966
v 1.250937 0.059707 -2.651276
v 1.260814 0.059706 -2.637969
v 1.356232 -0.125010 -2.770336
v 0.690507 0.059706 -2.106198
v 0.690507 0.059706 -2.106198
v 0.690506 0.125002 -2.106196
v 0.177142 0.124998 1.004771
v 0.199214 0.125001 1.001489
v 0.199214 0.125001 1.001489
v -0.722037 0.124999 0.722030
v 1.001505 0.124999 0.199204
v 0.996070 0.124999 0.220850
v 0.977133 0.125003 0.296407
v 0.977137 0.125000 -0.296399
v 0.977137 0.125000 -0.296399
v -1.356233 -0.125007 2.770334
v -1.279591 0.026754 2.659216
v -1.366094 -0.124990 2.757037
v -0.690501 0.125007 2.106195
v 1.168490 0.125006 -2.512507
v 1.144070 0.124999 -2.488041
v 1.198724 0.125009 -2.542798
v 1.230331 0.125003 -2.574464
v 1.099390 0.124999 -2.443275
v 0.926533 0.125000 -2.270085
v 0.943386 0.124994 0.390762
v 0.933840 0.125001 0.410930
v 0.647795 0.124998 -0.789315
v 0.647795 0.124998 -0.789315
v 0.567276 0.124996 -0.849046
v -0.900539 0.125001 0.481343
v 1.250950 0.059702 2.651275
v 1.250950 0.059702 2.651275
v 0.893771 0.059708 2.309856
v 1.239188 0.059706 2.655926
v 0.943385 0.124998 -0.390769
v 0.943385 0.124998 -0.390769
v 0.037085 0.036185 2.218547
v 1.366102 -0.125002 -2.757039
v -0.439656 0.125004 -0.920254
v 0.647795 0.124998 -0.789315
v -0.220857 0.124997 0.996066
v -0.296409 0.125000 0.977132
v -0.296409 0.125000 0.977132
v -0.220857 0.124997 0.996066
v -0.014836 0.036182 2.153167
v -0.030998 0.036191 2.253229
v -0.296007 0.036183 2.161337
v -0.126033 0.036190 2.134318
v -0.342111 0.036185 2.130150
v -0.000005 0.124999 1.021115
v -0.390751 0.125001 0.943384
v -0.317417 0.125005 0.969616
v -0.317417 0.125005 0.969616
v -0.296403 0.108691 0.977129
v -0.481345 0.125003 -0.900539
v 0.722032 0.124997 0.722045
v -0.722041 -0.037911 0.722034
v -0.722041 -0.037911 0.722034
v -0.900529 -0.037913 0.481354
v -0.900529 -0.037913 0.481354
v -0.144708 0.036181 2.195242
v -0.163982 0.036189 2.250616
v -0.245736 0.036184 2.195330
v -0.726801 0.026751 2.069973
v -0.930072 0.026743 2.273631
v -0.726801 0.026751 2.069973
v 0.048875 0.036187 2.328449
v -0.000003 0.036189 2.361498
v -0.369752 0.125008 -0.950900
v 0.802616 0.124999 -0.629865
v 0.802616 0.124999 -0.629865
v 0.789327 0.108678 -0.647789
v -0.789325 0.125002 0.647783
v 0.247579 0.125003 2.097108
v 0.247579 0.125003 2.097108
v 0.950895 0.124997 -0.369757
v 0.950895 0.124997 -0.369757
v 0.943382 0.108687 -0.390768
v -0.726800 0.026748 -2.069963
v -0.983458 0.026745 -2.342107
v -0.726800 0.026748 -2.069963
v -1.144464 0.125008 2.488427
v -0.410927 0.125000 0.933847
v -0.410927 0.125000 0.933847
v -0.199190 0.125001 -1.001494
v -0.690505 0.125007 -2.106189
v -1.197181 0.125008 -2.613842
v -0.885862 0.125007 -2.301922
v -0.690505 0.125007 -2.106189
v -0.000002 0.125003 2.361498
v -0.196269 0.036186 2.097109
v -0.390991 0.036190 2.097109
v -0.196269 0.036186 2.097109
v 0.690510 0.125003 2.106193
v 0.893771 0.059708 2.309856
v -0.647780 0.125003 -0.789334
v -0.722039 0.125004 -0.722035
v -1.097045 0.026748 2.513515
v -1.240105 0.058294 2.656845
v -1.279587 0.026748 -2.659215
v -1.269736 0.026748 -2.672507
v 1.260814 0.059706 -2.637969
v 1.267405 0.059703 -2.618076
v 0.369758 0.124997 0.950904
v 0.390765 0.125001 0.943388
v 0.390765 0.125001 0.943388
v 0.726800 0.125003 2.069967
v 0.699158 0.059705 2.097566
v 0.717204 0.059707 2.079543
v 1.253963 0.059709 2.647199
v 0.717204 0.059707 2.079543
v 0.699158 0.059705 2.097566
v 0.443478 0.125003 -0.918442
v 0.438942 0.125002 -0.920587
v 0.969617 0.124998 0.317412
v 0.977133 0.125003 0.296407
v 0.996070 0.124999 0.220850
v -0.567303 0.125003 0.849022
v -1.344597 -0.125005 -2.775008
v -0.434845 0.125008 -0.922533
v -0.390763 0.125000 -0.943380
v -0.426155 0.125008 -0.926643
v 0.977133 0.125003 0.296407
v 0.097748 0.036180 2.295394
v 0.146627 0.036185 2.262354
v -0.481344 -0.037914 -0.900526
v 0.726797 0.059708 -2.069966
v 0.726801 0.125000 -2.069969
v -0.715277 0.026752 -2.081473
v -0.726800 0.026748 -2.069963
v 0.943385 0.124998 -0.390769
v -0.703704 0.026746 -2.093020
v -0.703704 0.026746 -2.093020
v 0.148316 0.036190 2.119257
v -0.789323 -0.037914 0.647784
v 0.073309 0.036180 2.113624
v -0.055832 0.036186 2.125449
v -1.001493 0.125005 -0.199209
v -1.230329 0.125001 2.574459
v -1.168658 0.124988 2.512668
v -1.230329 0.125001 2.574459
v 1.260793 0.059706 2.637968
v 1.366090 -0.125009 2.757045
v 1.260793 0.059706 2.637968
v 1.253963 0.059709 2.647199
v -0.943391 0.125000 -0.390750
v 0.789329 0.124994 -0.647782
v 0.567276 0.124996 -0.849046
v 0.390988 0.125001 2.097106
v -1.372686 -0.124992 -2.737138
v -1.279587 0.026748 -2.659215
v -1.366079 -0.125003 -2.757042
v 1.267404 0.059705 2.618071
v 1.260793 0.059706 2.637968
v 1.372693 -0.125001 2.737145
v -0.430170 0.125004 -0.924746
v -0.434845 0.125008 -0.922533
v -0.426155 0.125008 -0.926643
v 0.900530 0.124997 0.481351
v 0.933840 0.125001 0.410930
v -0.296412 -0.037914 0.977138
v 1.001498 -0.037917 0.199213
v 0.977131 -0.037920 0.296411
v -0.982346 0.125007 2.326002
v -1.107494 0.125008 2.451474
v -1.144464 0.125008 2.488427
v -0.073306 0.036180 2.245826
v -0.195495 0.125004 2.229302
v -0.195495 0.125004 2.229302
v -1.269730 0.026747 2.672500
v -1.279587 0.026748 -2.659215
v -1.284073 0.026748 -2.645702
v 1.356229 -0.124998 2.770334
v 1.366090 -0.125009 2.757045
v -0.390763 0.125000 -0.943380
v 0.943391 -0.037915 -0.390769
v 0.690510 0.125003 2.106193
v 0.481363 0.125001 -0.900524
v 0.481363 0.125001 -0.900524
v -0.293243 0.125007 2.163200
v -0.293243 0.125007 2.163200
v -0.000004 0.036179 2.295399
v -0.000003 0.036189 2.361498
v 0.900530 0.124997 0.481351
v 1.366090 -0.125009 2.757045
v 0.889065 0.124994 0.500492
v 0.900530 0.124997 0.481351
v 0.567303 -0.037922 0.849020
v 1.141615 0.125005 2.485574
v 0.726800 0.125003 2.069967
v -0.919823 0.125008 2.335951
v -0.690501 0.125007 2.106195
v -1.240150 0.058227 -2.656891
v -1.240150 0.058227 -2.656891
v -1.259738 0.026752 -2.676518
v -0.849034 0.124999 -0.567294
v -0.849034 0.124999 -0.567294
v 0.647778 -0.037923 -0.789331
v 0.647778 -0.037923 -0.789331
v -1.001497 0.125005 0.199208
v -1.001497 0.125005 0.199208
v -0.245736 0.036184 2.195330
v -0.481349 -0.037921 0.900534
v -0.481349 -0.037921 0.900534
v -0.097745 0.036189 2.295399
v -0.048881 0.036185 2.328451
v 0.722033 -0.037920 -0.722038
v 0.789317 -0.037926 -0.647777
v 0.722033 -0.037920 -0.722038
v -1.016189 -0.037912 -0.100083
v 0.789330 0.124996 0.647774
v 0.835737 0.125008 0.585217
v 1.016182 -0.037920 -0.100091
v 1.250937 0.059707 -2.651276
v 1.239302 0.059707 -2.655921
v 1.239176 0.059709 -2.655920
v -1.230329 0.125001 2.574459
v -1.168658 0.124988 2.512668
v -1.198720 0.124998 2.542788
v -0.567305 -0.037913 0.849024
v -0.296414 0.125010 -0.977133
v -0.690508 0.026757 2.106195
v -0.274769 0.125001 -0.982568
v -0.296414 0.125010 -0.977133
v -1.097045 0.026748 2.513515
v -0.390988 0.125004 2.097107
v -1.259743 0.026749 2.676517
v -1.259743 0.026749 2.676517
v 0.390765 0.125001 0.943388
v 0.426158 0.125004 0.926643
v 0.438135 0.124994 0.920972
v 0.690509 0.059710 2.106189
v 0.690509 0.059710 2.106189
v -0.027297 0.125004 2.097103
v 0.690507 0.059706 -2.106198
v 0.774345 0.124999 0.664309
v 0.789330 0.124996 0.647774
v 0.789330 0.124996 0.647774
v -0.943385 -0.037915 0.390765
v -0.390991 0.036190 2.097109
v -1.284073 0.026748 -2.645702
v 0.481342 0.124996 0.900541
v 0.481342 0.124996 0.900541
v -0.889068 0.125002 -0.500489
v -0.900531 0.125000 -0.481350
v -0.900531 0.125000 -0.481350
v 1.138676 0.059703 -2.519981
v 1.239304 0.059709 2.655924
v 1.239304 0.059709 2.655924
v 1.250950 0.059702 2.651275
v 1.239188 0.059706 2.655926
v 0.146627 0.036185 2.262354
v -0.296409 0.125000 0.977132
v 0.088939 0.036187 2.097108
v -0.296412 -0.037914 0.977138
v 0.296368 0.125002 0.977153
v 0.296368 0.125002 0.977153
v -1.259738 0.026752 -2.676518
v -0.726806 0.125006 2.069969
v -0.726804 0.113848 2.069967
v -0.726801 0.026751 2.069973
v -0.726806 0.125006 2.069969
v -0.825877 0.125006 2.169233
v -1.286192 0.026746 -2.639318
v 0.900536 0.125001 -0.481349
v 0.900536 0.125001 -0.481349
v 0.722047 -0.037927 0.722036
v 0.690509 0.059710 2.106189
v 0.236207 0.036183 2.097103
v -0.629861 0.125002 -0.802626
v -0.647780 0.125003 -0.789334
v -0.097745 0.036182 2.097106
v -0.055832 0.036186 2.125449
v -0.014836 0.036182 2.153167
v -0.647780 0.125003 -0.789334
v 1.144070 0.124999 -2.488041
v 1.168490 0.125006 -2.512507
v 1.198724 0.125009 -2.542798
v 1.250950 0.059702 2.651275
v 1.197165 0.124999 -2.613824
v 1.197165 0.124999 -2.613824
v 0.726804 0.059705 2.069970
v -1.279591 0.026754 2.659216
v -1.281544 0.026747 2.653337
v -1.281544 0.026747 2.653337
v -0.097745 0.036182 2.097106
v -0.893776 0.026745 -2.309849
v -0.000003 0.036189 2.361498
v -0.100054 0.124999 1.016187
v -0.100054 0.124999 1.016187
vn -0.0013 1.0000 -0.0015
vn 0.0000 1.0000 -0.0000
vn -0.0001 1.0000 -0.0002
vn 0.0003 1.0000 -0.0002
vn 0.0001 -1.0000 0.0000
vn -0.0000 -1.0000 0.0001
vn -0.0000 -1.0000 -0.0000
vn -0.5602 0.0001 -0.8284
vn -0.5602 0.0000 -0.8284
vn -0.8688 0.4952 0.0000
vn -0.0000 0.5418 0.8405
vn 0.0000 0.5419 0.8405
vn -0.0007 1.0000 -0.0003
vn -0.0008 1.0000 -0.0003
vn 0.0001 1.0000 0.0001
vn -0.0003 -1.0000 0.0001
vn -0.0003 -1.0000 -0.0001
vn 0.8688 0.4952 -0.0000
vn 0.0001 0.5360 -0.8442
vn 0.0002 0.5341 -0.8454
vn -0.0000 0.5419 -0.8405
vn 0.0000 0.5418 -0.8405
vn 0.0001 1.0000 0.0000
vn 0.0002 1.0000 0.0001
vn -0.0003 1.0000 0.0000
vn -0.0002 1.0000 0.0000
vn 0.2430 -0.0000 0.9700
vn 0.2430 0.0001 0.9700
vn 0.0002 1.0000 0.0000
vn -0.9892 0.0000 0.1466
vn -0.9892 -0.0001 0.1466
vn 0.0004 1.0000 -0.0003
vn -0.0010 1.0000 0.0003
vn -0.5140 0.0000 -0.8578
vn -0.5140 0.0001 -0.8578
vn 0.9892 0.0000 0.1466
vn 0.9892 0.0007 0.1467
vn 0.9892 0.0003 0.1466
vn -0.0001 1.0000 -0.0000
vn -0.4276 -0.0000 -0.9040
vn -0.4273 -0.0010 -0.9041
vn -0.4276 0.0001 -0.9040
vn 0.4275 0.0003 -0.9040
vn 0.4278 -0.0010 -0.9039
vn 0.4276 -0.0001 -0.9040
vn 0.9039 -0.0002 -0.4277
vn 0.9040 0.0002 -0.4276
vn -0.1465 0.0000 0.9892
vn -0.1466 0.0000 0.9892
vn -0.8031 0.0000 0.5958
vn -0.8031 -0.0000 0.5959
vn 0.7410 -0.0001 0.6715
vn 0.7410 -0.0000 0.6715
vn 0.7411 -0.0001 0.6714
vn -0.9892 0.0000 -0.1466
vn -0.0001 1.0000 -0.0001
vn 0.1466 -0.0000 -0.9892
vn 0.1466 -0.0001 -0.9892
vn -0.0004 1.0000 0.0001
vn 0.0006 1.0000 -0.0001
vn -0.9416 -0.0000 -0.3367
vn -0.9416 -0.0000 -0.3368
vn -0.9416 -0.0001 -0.3368
vn 0.8578 0.0002 -0.5140
vn 0.8578 0.0003 -0.5140
vn 0.5958 -0.0000 0.8032
vn 0.5958 0.0000 0.8031
vn 0.5958 0.0002 0.8031
vn -0.5601 0.0000 -0.8284
vn -0.5600 -0.0000 -0.8285
vn -0.5140 -0.0000 0.8578
vn -0.5141 0.0003 0.8578
vn -0.1466 -0.0000 -0.9892
vn -0.1466 -0.0001 -0.9892
vn 0.9892 -0.0000 -0.1466
vn 0.9892 -0.0000 -0.1467
vn 0.9892 0.0003 -0.1466
vn -0.2433 0.0000 0.9700
vn -0.2432 0.0002 0.9700
vn -0.0001 1.0000 0.0001
vn 0.0000 1.0000 -0.0003
vn 0.5601 0.0000 -0.8284
vn 0.5602 -0.0000 -0.8283
vn 0.5602 0.0000 -0.8284
vn -0.0000 1.0000 0.0001
vn 0.0000 0.0000 1.0000
vn 0.0001 0.0001 1.0000
vn 0.0000 0.0001 1.0000
vn 0.2432 0.0002 0.9700
vn 0.0002 1.0000 0.0002
vn 0.0003 1.0000 0.0000
vn 0.9700 0.0000 -0.2430
vn 0.9700 0.0001 -0.2431
vn 0.9700 0.0000 -0.2431
vn -0.7411 -0.0000 -0.6714
vn -0.7411 -0.0001 -0.6714
vn -0.7411 0.0001 -0.6714
vn -0.5602 0.0000 -0.8283
vn 0.5198 -0.4315 0.7373
vn 0.5762 0.0117 0.8172
vn 0.5306 0.3894 0.7529
vn 0.5140 0.0000 0.8578
vn 0.5140 0.0001 0.8578
vn -0.8418 0.5334 0.0831
vn -0.8578 0.0000 0.5140
vn -0.8578 0.0001 0.5139
vn -0.8578 -0.0001 0.5140
vn -0.0002 1.0000 -0.0002
vn -0.3368 0.0000 -0.9416
vn -0.3369 0.0001 -0.9416
vn 0.8578 0.0000 -0.5140
vn 0.8578 0.0001 -0.5140
vn -0.8419 0.5332 0.0827
vn 0.7410 0.0001 -0.6715
vn 0.7410 -0.0001 -0.6715
vn -0.9700 -0.0000 0.2431
vn -0.0026 1.0000 -0.0032
vn -0.7078 0.0000 -0.7064
vn -0.7078 -0.0001 -0.7064
vn 0.7078 0.0001 0.7064
vn 0.7078 0.0000 0.7064
vn 0.9416 -0.0000 -0.3368
vn -0.7617 0.5968 0.2523
vn -0.0001 -1.0000 -0.0000
vn 0.0002 -1.0000 -0.0001
vn 0.8032 0.0000 -0.5958
vn 0.8032 0.0000 -0.5957
vn 0.0006 1.0000 0.0007
vn 0.0003 1.0000 0.0003
vn 0.3367 -0.0001 0.9416
vn 0.3368 -0.0001 0.9416
vn 0.3368 0.0000 0.9416
vn 0.0000 1.0000 -0.0001
vn -0.0008 1.0000 0.0004
vn -0.2899 0.6298 -0.7206
vn -0.2897 0.6298 -0.7207
vn -0.2895 0.6297 -0.7209
vn -0.9700 0.0000 -0.2432
vn -0.9700 -0.0009 -0.2433
vn -0.7078 0.0001 -0.7064
vn 0.4277 -0.0000 0.9039
vn 0.4278 -0.0000 0.9039
vn 0.4277 -0.0003 0.9039
vn 0.8031 -0.0001 0.5958
vn 0.8032 -0.0001 0.5958
vn 0.8031 -0.0000 0.5958
vn -0.7064 0.0000 0.7078
vn -0.7062 -0.0000 0.7080
vn -0.4277 0.0000 0.9039
vn -0.4277 -0.0006 0.9039
vn 0.9988 -0.0000 0.0492
vn 0.9988 0.0003 0.0492
vn 0.9988 0.0001 0.0493
vn -0.6715 0.0001 0.7410
vn -0.6715 -0.0001 0.7410
vn -0.3367 -0.0000 0.9416
vn 0.6715 -0.0004 -0.7410
vn 0.6715 -0.0003 -0.7410
vn 0.6715 -0.0001 -0.7410
vn -0.7410 -0.0001 0.6715
vn -0.7410 -0.0004 0.6715
vn -0.7410 -0.0002 0.6715
vn 0.9700 -0.0000 0.2431
vn 0.9700 0.0000 0.2432
vn -0.5957 -0.0000 0.8032
vn -0.5958 0.0005 0.8031
vn -0.5957 0.0002 0.8032
vn 0.4276 -0.0000 -0.9040
vn 0.4273 0.0008 -0.9041
vn 0.2431 -0.0001 -0.9700
vn 0.2431 0.0001 -0.9700
vn 0.2432 -0.0000 -0.9700
vn -0.0492 0.0000 0.9988
vn -0.9988 -0.0000 0.0492
vn -0.9988 -0.0001 0.0493
vn -0.9892 -0.0003 0.1466
vn 0.9892 -0.0001 0.1466
vn 0.1466 -0.0000 0.9892
vn 0.1467 -0.0000 0.9892
vn 0.0492 -0.0000 0.9988
vn 0.8578 0.0000 0.5140
vn -0.4277 -0.0000 -0.9039
vn 0.9416 -0.0000 0.3367
vn 0.9416 -0.0001 0.3367
vn 0.9416 -0.0000 0.3368
vn -0.2431 0.0000 -0.9700
vn -0.2431 -0.0003 -0.9700
vn -0.9039 -0.0000 -0.4277
vn -0.9039 0.0001 -0.4277
vn 0.9039 -0.0000 0.4277
vn 0.9040 -0.0003 0.4276
vn 0.7617 0.5968 -0.2523
vn -0.0002 -1.0000 -0.0002
vn -0.0001 -1.0000 -0.0001
vn -0.8031 0.0000 -0.5959
vn -0.8031 -0.0003 -0.5959
vn -0.8578 0.0000 -0.5139
vn -0.8578 0.0001 -0.5139
vn -0.0002 1.0000 -0.0001
vn 0.2896 0.6297 -0.7209
vn 0.2888 0.6296 -0.7212
vn 0.2881 0.6295 -0.7216
vn -0.6714 0.0001 -0.7411
vn -0.6714 0.0000 -0.7411
vn 0.6714 0.0000 -0.7411
vn 0.5958 0.0001 -0.8031
vn 0.5959 0.0001 -0.8031
vn 0.5958 -0.0004 -0.8031
vn -0.7078 0.0000 0.7064
vn -0.5958 0.0000 -0.8031
vn -0.5958 0.0002 -0.8032
vn -0.5957 0.0001 -0.8032
vn 0.5140 -0.0004 -0.8578
vn 0.5140 -0.0007 -0.8578
vn 0.5140 -0.0003 -0.8578
vn 0.3368 -0.0001 -0.9416
vn 0.3368 -0.0000 -0.9416
vn -0.8418 0.5333 -0.0831
vn -0.8419 0.5333 -0.0829
vn -0.8419 0.5332 -0.0826
vn 0.7078 -0.0000 -0.7064
vn 0.8419 0.5332 -0.0827
vn 0.8419 0.5333 -0.0828
vn 0.8419 0.5333 -0.0829
vn 0.5140 -0.0001 -0.8578
vn 0.9988 0.0007 0.0492
vn 0.9988 0.0003 0.0493
vn -0.0009 1.0000 0.0000
vn 0.9892 0.0002 -0.1466
vn 0.8420 0.5332 0.0826
vn 0.8418 0.5333 0.0830
vn 0.0001 1.0000 -0.0001
vn 0.5957 0.0000 0.8032
vn -0.0003 1.0000 -0.0001
vn 0.8032 0.0003 -0.5958
vn 0.8031 0.0001 -0.5958
vn 0.6715 -0.0001 0.7410
vn 0.6715 0.0002 0.7410
vn -0.8577 -0.0001 0.5141
vn -0.0004 0.5416 0.8406
vn -0.9988 -0.0000 -0.0492
vn 0.2883 0.6295 0.7216
vn 0.2884 0.6295 0.7215
vn -0.0004 -1.0000 0.0002
vn 0.0001 -1.0000 -0.0001
vn -0.0020 1.0000 -0.0001
vn 0.9988 -0.0000 -0.0492
vn 0.9988 -0.0001 -0.0493
vn 0.9988 0.0002 -0.0492
vn 0.1466 -0.0002 -0.9892
vn 0.0492 -0.0000 -0.9988
vn 0.0492 -0.0001 -0.9988
vn 0.9416 0.0001 -0.3368
vn -0.0003 1.0000 -0.0002
vn 0.0004 1.0000 0.0004
vn 0.7065 0.0000 -0.7077
vn 0.7064 0.0000 -0.7079
vn 0.7064 -0.0000 -0.7078
vn -0.2900 0.6298 0.7206
vn -0.2896 0.6298 0.7208
vn 0.5958 -0.0004 -0.8032
vn 0.5958 -0.0002 -0.8032
vn -0.6715 -0.0003 -0.7410
vn -0.6715 -0.0001 -0.7410
vn -0.0003 1.0000 -0.0003
vn 0.7066 0.0000 -0.7076
vn 0.8418 0.5334 0.0831
vn 0.0006 1.0000 -0.0000
vn -0.9988 -0.0001 -0.0491
vn -0.4275 0.0003 0.9040
vn -0.0005 1.0000 -0.0003
vn -0.0001 -1.0000 0.0001
vn 0.0002 1.0000 0.0003
vn -0.0004 1.0000 -0.0004
vn -0.7066 0.0000 0.7076
vn -0.7065 -0.0000 0.7077
vn 0.7410 0.0002 -0.6715
vn 0.0005 1.0000 0.0002
vn 0.8418 0.5333 -0.0829
vn -0.0002 -1.0000 0.0001
vn -0.8030 -0.0007 -0.5960
vn -0.9416 -0.0000 0.3368
vn -0.9416 -0.0000 0.3367
vn -0.9416 -0.0001 0.3368
vn -0.8420 0.5332 -0.0826
vn -0.9039 -0.0000 0.4277
vn -0.9040 0.0001 0.4276
vn -0.9040 -0.0001 0.4276
vn -0.0003 1.0000 0.0002
vn -0.8420 0.5332 0.0826
vn -0.0003 -1.0000 -0.0000
vn 0.0002 1.0000 -0.0002
vn 0.0003 1.0000 -0.0003
vn 0.0004 1.0000 -0.0004
vn -0.5958 0.0004 -0.8032
vn -0.0002 1.0000 0.0002
vn -0.7061 0.0000 -0.7081
vn -0.7064 0.0001 -0.7078
vn -0.7065 0.0000 -0.7077
vn 0.0493 -0.0000 0.9988
vn -0.5140 0.0006 -0.8578
vn -0.5141 0.0003 -0.8578
vn -0.3368 0.0002 0.9416
vn -0.7063 0.0000 -0.7079
vn -0.7066 0.0000 -0.7077
vn 0.0010 0.5539 -0.8326
vn -0.0492 -0.0000 -0.9988
vn -0.0492 -0.0001 -0.9988
vn -0.2432 -0.0000 0.9700
vn -0.6146 0.6440 -0.4556
vn -0.6147 0.6440 -0.4555
vn -0.4272 -0.0016 -0.9042
vn -0.4275 -0.0007 -0.9040
vn 0.4278 -0.0008 -0.9039
vn -0.9988 -0.0001 0.0491
vn -0.9988 0.0000 0.0491
vn -0.9892 0.0000 -0.1465
vn 0.9988 0.0006 -0.0491
vn 0.9892 0.0006 -0.1466
vn 0.9892 0.0004 -0.1466
vn 0.8578 -0.0002 0.5140
vn 0.4275 0.0003 0.9040
vn 0.4275 0.0002 0.9040
vn 0.4278 -0.0005 0.9039
vn -0.8579 0.0002 -0.5139
vn 0.9988 0.0003 -0.0492
vn -0.4280 -0.0013 0.9038
vn 0.2902 0.6298 -0.7205
vn 0.0003 -1.0000 0.0001
vn -0.3368 0.0003 0.9416
vn -0.3369 0.0004 0.9415
vn -0.2432 0.0004 0.9700
vn -0.2432 0.0001 0.9700
vn 0.3368 -0.0002 0.9416
vn 0.0005 1.0000 0.0005
vn 0.5958 -0.0008 -0.8031
vn -0.7411 -0.0002 -0.6714
vn -0.0493 -0.0001 -0.9988
vn 0.0001 1.0000 0.0002
vn 0.4276 0.0002 0.9040
vn 0.4279 -0.0009 0.9038
vn 0.0001 -1.0000 0.0001
vn -0.2900 0.6298 0.7205
vn 0.0008 1.0000 -0.0003
vn -0.0002 1.0000 0.0001
vn 0.0006 -1.0000 0.0003
vn -0.0009 -1.0000 -0.0004
vn 0.7053 0.0517 -0.7070
vn -0.0006 1.0000 0.0003
vn 0.6715 -0.0008 -0.7410
vn -0.1467 -0.0001 -0.9892
vn -0.7066 -0.0015 0.7076
vn 0.5139 -0.0009 -0.8579
vn -0.7617 0.5968 0.2522
vn 0.6143 0.6440 -0.4559
vn 0.6140 0.6441 -0.4563
vn 0.6141 0.6441 -0.4562
vn 0.7067 0.0000 -0.7075
vn -0.1468 -0.0001 -0.9892
vn -0.1471 -0.0006 -0.9891
vn -0.2431 -0.0005 -0.9700
vn 0.7409 -0.0004 -0.6716
vn -0.9699 -0.0015 -0.2434
vn -0.6140 0.6441 0.4562
vn -0.7061 -0.0000 0.7081
vn -0.7112 0.0161 -0.7028
vn -0.7112 0.0160 -0.7028
vn -0.9039 -0.0011 -0.4278
vn -0.5958 -0.0004 0.8031
vn -0.5958 0.0000 0.8031
vn 0.9040 0.0004 -0.4275
vn -0.9040 -0.0003 0.4276
vn 0.4276 -0.0001 0.9040
vn -0.6714 -0.0003 0.7411
vn 0.2431 0.0003 -0.9700
vn -0.0000 1.0000 0.0002
vn 0.3368 0.0002 -0.9416
vn 0.3368 0.0001 -0.9416
vn 0.5140 0.0002 0.8578
vn -0.6715 -0.0002 -0.7410
vn 0.7410 -0.0000 -0.6715
vn 0.9040 -0.0000 -0.4276
vn 0.8577 -0.0000 -0.5141
vn -0.0016 1.0000 -0.0015
vn 0.0004 1.0000 0.0005
vn 0.3368 -0.0003 0.9416
vn -0.8032 -0.0003 0.5957
vn -0.8032 -0.0000 0.5957
vn 0.0002 1.0000 -0.0001
vn 0.7078 -0.0001 -0.7064
vn 0.4275 0.0002 -0.9040
vn 0.1374 0.9868 -0.0862
vn 0.1087 0.9924 -0.0581
vn 0.1229 0.9898 -0.0719
vn 0.0000 1.0000 -0.0002
vn 0.6715 0.0000 0.7410
vn -0.2895 0.6298 0.7208
vn -0.0001 1.0000 0.0002
vn -0.3368 0.0002 -0.9416
vn -0.3369 0.0002 -0.9415
vn -0.4277 0.0002 -0.9039
vn 0.7065 0.0000 0.7077
vn 0.7063 -0.0000 0.7079
vn 0.7064 -0.0000 0.7078
vn -0.0005 1.0000 0.0006
vn -0.4275 -0.0000 0.9040
vn -0.4277 -0.0008 0.9039
vn -0.9700 -0.0001 -0.2431
vn -0.9700 -0.0008 -0.2432
vn 0.5958 -0.0003 -0.8031
vn 0.3931 0.3802 0.8372
vn 0.3930 0.3805 0.8371
vn 0.3930 0.3803 0.8372
vn -0.9415 -0.0001 -0.3369
vn 0.7069 0.0000 -0.7074
vn 0.7066 -0.0001 -0.7076
vn -0.7067 -0.0000 -0.7075
vn -0.9417 0.0002 0.3366
vn 0.9700 -0.0001 0.2430
vn 0.6146 0.6440 0.4555
vn 0.6151 0.6439 0.4549
vn 0.6149 0.6440 0.4552
vn 0.9040 -0.0001 0.4276
vn -0.8032 -0.0002 0.5957
vn -0.5141 0.0005 0.8578
vn -0.5603 -0.0000 -0.8283
vn -0.7613 0.5970 -0.2530
vn -0.7614 0.5970 -0.2528
vn 0.7613 0.5970 0.2529
vn -0.3947 0.3846 -0.8345
vn -0.3946 0.3846 -0.8345
vn -0.9039 -0.0004 -0.4277
vn 0.0029 -1.0000 0.0028
vn 0.5601 -0.0001 -0.8284
vn -0.7615 0.5969 -0.2527
vn 0.0003 -1.0000 -0.0001
vn 0.3370 -0.0006 0.9415
vn -0.9039 -0.0001 0.4277
vn -0.5140 -0.0001 0.8578
vn -0.4275 -0.0002 0.9040
vn -0.9040 0.0002 -0.4276
vn -0.8578 0.0004 -0.5139
vn -0.8579 0.0003 -0.5138
vn -0.0167 0.9998 -0.0125
vn -0.2901 0.6298 -0.7205
vn -0.7058 -0.0026 0.7084
vn -0.7063 -0.0018 0.7079
vn 0.8031 -0.0000 0.5959
vn -0.6715 0.0000 0.7410
vn -0.5958 0.0000 0.8032
vn 0.9892 0.0002 -0.1468
vn 0.9700 0.0002 -0.2431
vn 0.5140 0.0000 -0.8578
vn 0.4277 0.0000 -0.9039
vn -0.7410 0.0001 0.6715
vn -0.7411 0.0001 0.6714
vn 0.9988 -0.0001 0.0492
vn -0.8031 0.0001 -0.5958
vn -0.9892 0.0001 0.1465
vn 0.0148 0.9992 -0.0371
vn 0.6988 0.1585 0.6975
vn 0.6988 0.1586 0.6975
vn 0.3368 0.0002 0.9416
vn -0.7065 0.0001 0.7077
vn 0.2430 0.0008 0.9700
vn 0.2435 0.0001 0.9699
vn 0.0002 0.0000 1.0000
vn -0.3963 0.3611 -0.8442
vn -0.7410 0.0003 -0.6715
vn -0.7410 0.0004 -0.6715
vn -0.8031 0.0004 -0.5958
vn 0.9039 -0.0000 -0.4276
vn 0.5600 -0.0000 -0.8285
vn -0.4275 0.0003 -0.9040
vn -0.5140 0.0002 -0.8578
vn 0.8578 -0.0003 0.5140
vn 0.8579 -0.0005 0.5138
vn 0.9040 -0.0006 0.4276
vn -0.0042 0.5411 0.8410
vn -0.0203 0.9984 -0.0529
vn 0.3369 0.0003 -0.9416
vn -0.0001 1.0000 0.0003
vn -0.3368 -0.0001 -0.9416
vn -0.2430 0.0001 -0.9700
vn -0.9089 -0.0001 -0.4170
vn 0.7078 -0.0002 0.7064
vn -0.7615 0.5969 -0.2526
vn -0.9040 -0.0002 0.4276
vn -0.8578 -0.0002 0.5141
vn 0.7060 -0.0001 0.7082
vn 0.5957 0.0006 0.8032
vn 0.6715 0.0005 0.7410
vn 0.5251 0.3515 -0.7751
vn 0.5250 0.3514 -0.7751
vn 0.5251 0.3513 -0.7752
vn 0.5958 0.0005 0.8032
vn -0.6917 -0.1467 -0.7071
vn -0.6917 -0.1469 -0.7071
vn -0.6917 -0.1470 -0.7071
vn 0.6147 0.6440 0.4555
vn 0.7061 0.0001 0.7081
vn 0.1466 -0.0004 -0.9892
vn 0.0492 -0.0002 -0.9988
usemtl Default_OBJ.001
s 1
f 1//1 2//2 3//2
f 4//2 1//1 5//3
f 6//2 4//2 7//4
f 8//2 9//2 10//2
f 8//2 10//2 11//2
f 12//2 13//2 14//2
f 14//2 13//2 15//2
f 16//2 17//2 7//4
f 18//2 7//4 19//2
f 20//5 21//6 22//7
f 23//8 24//8 25//8
f 26//9 23//8 27//9
f 28//10 29//10 30//10
f 31//11 32//11 33//12
f 34//13 35//14 36//15
f 37//16 38//17 22//7
f 39//18 40//18 41//18
f 42//19 43//20 44//21
f 45//21 42//19 46//22
f 28//10 30//10 47//10
f 39//18 41//18 48//18
f 31//11 49//11 32//11
f 50//2 51//23 52//2
f 53//23 54//2 55//2
f 56//24 57//2 58//2
f 59//25 60//2 61//4
f 62//26 61//4 60//2
f 63//27 64//27 65//28
f 66//2 67//2 68//2
f 69//29 52//2 51//23
f 70//30 71//31 72//30
f 73//2 74//2 75//2
f 76//25 77//32 78//33
f 79//34 80//34 81//35
f 82//2 74//2 83//2
f 84//36 85//37 86//38
f 82//2 83//2 87//39
f 88//40 89//41 90//42
f 91//43 92//44 93//45
f 94//46 95//47 96//47
f 97//48 98//49 99//49
f 100//50 101//51 102//50
f 66//2 74//2 103//2
f 104//52 105//53 106//54
f 107//2 74//2 108//2
f 109//55 110//55 111//55
f 112//2 113//2 114//56
f 115//57 116//57 117//58
f 50//2 118//59 119//60
f 120//61 121//62 122//63
f 59//25 123//39 124//23
f 125//64 126//65 127//64
f 61//4 128//2 129//2
f 130//66 131//67 132//68
f 133//69 134//69 135//70
f 136//9 133//69 137//69
f 138//2 51//23 139//2
f 140//71 141//72 142//71
f 73//2 75//2 143//2
f 144//73 145//74 146//73
f 147//75 148//76 149//77
f 150//2 74//2 151//2
f 152//2 153//2 154//2
f 155//78 156//78 157//79
f 158//80 159//81 160//2
f 161//82 162//83 163//84
f 164//2 74//2 107//2
f 164//2 107//2 165//85
f 166//82 161//82 163//84
f 167//86 168//87 169//88
f 63//27 65//28 170//89
f 171//15 172//90 173//2
f 174//2 175//2 176//2
f 174//2 74//2 82//2
f 59//25 177//23 178//91
f 179//92 180//93 181//94
f 182//2 183//2 184//2
f 182//2 74//2 183//2
f 185//86 186//86 187//86
f 188//69 189//9 190//69
f 108//2 74//2 191//2
f 192//95 193//96 194//97
f 195//98 189//9 188//69
f 196//99 197//100 198//101
f 199//102 200//103 201//102
f 202//2 74//2 203//2
f 204//23 36//15 59//25
f 205//104 206//104 207//104
f 103//2 74//2 208//2
f 209//105 210//106 211//107
f 212//2 213//108 214//90
f 215//109 216//109 217//110
f 218//111 125//64 219//112
f 220//2 221//2 222//2
f 31//11 33//12 223//12
f 224//113 206//104 205//104
f 183//2 220//2 225//56
f 226//114 227//115 228//115
f 208//2 74//2 164//2
f 229//116 230//116 231//116
f 1//1 4//2 232//117
f 233//118 234//118 235//119
f 179//92 236//92 180//93
f 237//2 74//2 238//2
f 239//120 240//121 241//121
f 204//23 242//24 36//15
f 243//122 244//122 245//122
f 246//2 247//2 248//2
f 249//123 250//123 251//123
f 252//124 253//125 22//7
f 254//126 255//127 256//126
f 225//56 220//2 222//2
f 224//113 257//104 206//104
f 258//128 259//129 260//56
f 202//2 203//2 261//2
f 262//130 263//131 264//132
f 246//2 248//2 265//2
f 266//2 265//2 221//2
f 3//2 2//2 267//133
f 268//69 136//9 269//9
f 56//24 270//2 271//134
f 272//135 273//136 274//137
f 108//2 191//2 275//2
f 276//138 277//138 278//139
f 279//118 280//140 281//118
f 239//120 241//121 282//120
f 261//2 203//2 283//2
f 284//141 285//142 286//143
f 150//2 151//2 287//2
f 288//144 289//145 290//146
f 291//2 292//2 293//2
f 140//71 294//71 141//72
f 295//2 296//2 212//2
f 297//147 298//148 299//148
f 291//2 293//2 300//2
f 301//149 302//149 303//150
f 237//2 238//2 304//133
f 305//151 306//152 307//153
f 308//154 309//155 310//154
f 311//2 312//2 313//2
f 153//2 291//2 300//2
f 314//156 315//156 316//156
f 317//157 318//158 319//159
f 59//25 320//2 321//23
f 322//160 323//161 324//162
f 66//2 68//2 325//2
f 150//2 287//2 326//23
f 327//163 328//164 329//163
f 311//2 313//2 292//2
f 330//165 331//166 332//167
f 333//168 91//43 334//169
f 335//170 336//171 337//172
f 338//2 339//2 340//2
f 341//173 342//173 343//173
f 344//174 345//175 346//174
f 71//31 347//176 72//30
f 339//2 152//2 154//2
f 97//48 348//48 98//49
f 238//2 349//85 350//85
f 351//177 352//177 84//36
f 353//2 354//23 355//2
f 356//178 357//179 358//178
f 353//2 359//23 354//23
f 360//180 361//180 362//180
f 363//2 150//2 326//23
f 364//181 365//181 366//181
f 215//109 367//109 216//109
f 73//2 368//39 369//2
f 370//2 353//2 355//2
f 203//2 371//2 283//2
f 88//40 372//182 89//41
f 373//2 369//2 374//23
f 375//2 376//85 377//2
f 378//183 379//184 380//185
f 381//186 382//186 383//187
f 73//2 143//2 368//39
f 384//188 385//188 386//189
f 191//2 387//2 388//2
f 389//2 363//2 376//85
f 390//190 391//190 392//191
f 393//192 394//192 395//192
f 396//193 397//194 22//7
f 275//2 191//2 388//2
f 120//61 398//61 121//62
f 399//2 400//2 349//85
f 399//2 377//2 400//2
f 401//195 402//195 403//196
f 404//2 405//2 406//2
f 407//197 408//197 409//198
f 387//2 404//2 406//2
f 410//39 411//2 412//199
f 413//200 414//201 415//202
f 416//203 417//203 418//204
f 419//2 420//2 421//2
f 422//205 319//159 318//158
f 423//206 424//207 425//208
f 426//209 427//209 428//209
f 58//2 57//2 429//2
f 430//210 431//211 432//212
f 373//2 374//23 433//2
f 59//25 434//23 435//2
f 436//213 437//214 438//215
f 439//15 440//15 441//129
f 429//2 442//2 443//2
f 444//2 373//2 433//2
f 420//2 445//2 421//2
f 446//216 447//216 448//217
f 87//39 83//2 449//2
f 450//218 451//219 452//220
f 453//221 454//221 455//221
f 456//118 457//118 458//118
f 459//222 460//223 461//224
f 436//213 438//215 462//225
f 182//2 184//2 463//2
f 59//25 464//2 60//2
f 306//152 465//226 466//227
f 83//2 467//2 468//2
f 83//2 468//2 449//2
f 78//33 77//32 469//4
f 16//2 14//2 470//2
f 59//25 471//2 472//228
f 147//75 149//77 473//229
f 152//2 74//2 291//2
f 152//2 291//2 153//2
f 246//2 74//2 237//2
f 183//2 74//2 220//2
f 474//230 475//230 476//231
f 477//2 478//2 479//232
f 130//66 480//233 131//67
f 202//2 261//2 481//2
f 59//25 482//23 483//234
f 256//126 484//235 485//236
f 151//2 486//2 287//2
f 487//237 488//237 489//238
f 51//23 490//2 491//23
f 209//105 211//107 492//239
f 151//2 493//2 494//2
f 151//2 494//2 486//2
f 31//11 495//240 49//11
f 496//221 497//221 498//221
f 107//2 108//2 499//133
f 500//241 501//241 502//241
f 503//118 458//118 457//118
f 504//120 505//120 506//121
f 507//242 508//243 509//242
f 510//244 511//245 22//7
f 59//25 472//228 512//246
f 513//247 514//248 515//249
f 115//57 117//58 516//250
f 517//251 518//251 519//252
f 59//25 520//2 177//23
f 245//122 521//253 522//122
f 165//85 107//2 523//2
f 107//2 524//2 523//2
f 513//247 525//247 514//248
f 237//2 304//133 526//2
f 420//2 74//2 373//2
f 420//2 373//2 444//2
f 527//254 528//255 57//2
f 529//256 530//257 531//258
f 399//2 74//2 389//2
f 375//2 389//2 376//85
f 532//129 533//128 534//15
f 535//259 536//260 537//259
f 59//25 538//2 539//39
f 425//208 540//261 541//262
f 237//2 526//2 542//133
f 246//2 237//2 247//2
f 50//2 543//39 544//2
f 418//204 545//263 546//264
f 547//129 548//2 549//265
f 529//256 531//258 550//266
f 551//209 552//209 553//209
f 554//267 476//231 475//230
f 50//2 555//268 556//23
f 500//241 502//241 557//269
f 301//149 303//150 558//270
f 559//29 560//2 561//271
f 474//230 562//230 475//230
f 21//6 563//272 22//7
f 564//273 565//274 566//108
f 567//275 568//275 569//276
f 1//1 570//85 571//2
f 572//84 573//84 574//84
f 59//25 575//23 576//2
f 226//114 577//277 227//115
f 1//1 571//2 578//85
f 579//84 572//84 580//84
f 410//39 581//278 51//23
f 461//224 460//223 582//279
f 1//1 578//85 583//23
f 584//83 579//84 585//82
f 83//2 74//2 182//2
f 83//2 182//2 467//2
f 59//25 586//2 520//2
f 94//46 587//47 95//47
f 353//2 74//2 338//2
f 353//2 338//2 359//23
f 295//2 212//2 588//15
f 381//186 383//187 589//187
f 452//220 451//219 590//220
f 253//125 591//280 22//7
f 50//2 592//29 593//56
f 401//195 403//196 594//281
f 595//282 596//283 597//284
f 208//2 598//2 599//2
f 590//220 451//219 600//285
f 455//221 454//221 601//221
f 602//286 603//287 604//288
f 208//2 599//2 605//2
f 606//23 607//289 61//4
f 450//218 608//218 451//219
f 205//104 609//290 224//113
f 610//291 252//124 22//7
f 611//232 612//80 613//292
f 614//293 615//232 616//294
f 50//2 544//2 617//2
f 618//295 432//212 431//211
f 103//2 208//2 619//15
f 619//15 208//2 605//2
f 616//294 615//232 620//296
f 621//297 622//298 623//299
f 459//222 624//224 460//223
f 625//15 626//56 627//15
f 360//180 362//180 628//300
f 629//2 630//2 631//254
f 50//2 617//2 632//23
f 81//35 633//301 634//302
f 54//2 635//39 636//2
f 314//156 316//156 637//303
f 76//25 78//33 50//2
f 554//267 638//267 476//231
f 639//2 171//15 173//2
f 640//118 641//119 642//118
f 311//2 74//2 66//2
f 311//2 66//2 312//2
f 54//2 629//2 55//2
f 341//173 343//173 643//173
f 56//24 644//2 270//2
f 645//304 646//299 647//305
f 648//121 505//120 504//120
f 42//19 45//21 649//306
f 650//307 651//307 652//308
f 75//2 653//2 654//2
f 155//78 157//79 655//309
f 635//39 54//2 656//23
f 174//2 176//2 657//23
f 658//2 174//2 657//23
f 659//86 660//86 661//86
f 662//2 663//232 664//2
f 665//310 666//311 667//310
f 668//7 669//272 22//7
f 6//2 7//4 213//108
f 670//312 89//41 671//313
f 404//2 74//2 420//2
f 404//2 420//2 419//2
f 59//25 36//15 672//2
f 91//43 673//314 92//44
f 50//2 52//2 555//268
f 346//174 674//315 675//316
f 183//2 676//2 677//2
f 183//2 677//2 184//2
f 50//2 556//23 678//39
f 109//55 111//55 679//317
f 680//2 681//26 51//23
f 322//160 682//162 323//161
f 683//318 684//318 515//249
f 149//77 685//319 686//320
f 61//4 687//2 688//39
f 364//181 366//181 689//321
f 208//2 164//2 598//2
f 164//2 690//2 598//2
f 691//23 692//2 61//4
f 693//322 694//323 695//324
f 407//197 409//198 696//325
f 50//2 697//39 592//29
f 59//25 512//246 464//2
f 698//326 683//318 515//249
f 303//150 699//327 558//270
f 139//2 51//23 581//278
f 700//328 414//201 413//200
f 38//17 701//329 22//7
f 702//330 703//331 637//303
f 157//79 704//332 705//333
f 262//130 264//132 706//334
f 527//254 707//335 528//255
f 59//25 483//234 123//39
f 125//64 127//64 219//112
f 66//2 103//2 67//2
f 103//2 708//2 67//2
f 425//208 709//336 540//261
f 59//25 539//39 320//2
f 50//2 710//23 711//39
f 712//337 194//97 193//96
f 650//307 652//308 713//338
f 714//2 715//23 716//2
f 1//1 717//339 718//2
f 719//83 720//82 585//82
f 295//2 721//2 296//2
f 722//121 723//121 724//121
f 725//340 726//341 695//324
f 727//254 57//2 56//24
f 728//342 610//291 22//7
f 537//259 729//343 535//259
f 607//289 730//344 731//345
f 455//221 601//221 732//221
f 733//346 734//347 22//7
f 511//245 733//346 22//7
f 16//2 470//2 735//2
f 736//209 737//209 551//209
f 461//224 738//222 459//222
f 397//194 20//5 22//7
f 54//2 53//23 656//23
f 157//79 705//333 655//309
f 203//2 74//2 353//2
f 203//2 353//2 370//2
f 739//348 740//348 741//348
f 271//134 731//345 742//349
f 317//157 743//350 318//158
f 743//350 744//350 318//158
f 745//56 721//2 295//2
f 144//73 146//73 746//351
f 61//4 747//29 748//2
f 378//183 380//185 749//185
f 133//69 135//70 137//69
f 159//81 750//2 751//133
f 45//21 46//22 752//22
f 753//352 427//209 426//209
f 238//2 399//2 349//85
f 238//2 74//2 399//2
f 59//25 672//2 434//23
f 437//214 754//353 438//215
f 565//274 260//56 755//56
f 249//123 756//354 250//123
f 757//2 61//4 758//39
f 104//52 106//54 759//54
f 625//15 549//265 760//56
f 761//355 762//356 763//357
f 50//2 632//23 76//25
f 670//312 90//42 89//41
f 439//15 764//90 547//129
f 765//358 766//256 529//256
f 767//359 768//360 746//351
f 769//361 589//187 383//187
f 59//25 321//23 575//23
f 227//115 770//362 228//115
f 276//138 278//139 771//363
f 50//2 772//2 773//23
f 69//29 51//23 774//39
f 229//116 231//116 775//116
f 776//364 777//364 778//364
f 734//347 728//342 22//7
f 232//117 4//2 6//2
f 779//365 567//275 569//276
f 780//199 559//29 561//271
f 781//366 782//366 783//367
f 75//2 74//2 174//2
f 75//2 174//2 658//2
f 784//118 503//118 785//118
f 629//2 54//2 630//2
f 384//188 386//189 786//368
f 50//2 119//60 787//39
f 138//2 788//2 51//23
f 789//369 790//370 331//166
f 59//25 124//23 586//2
f 587//47 791//371 95//47
f 508//243 507//242 792//243
f 793//232 794//292 795//292
f 51//23 491//23 796//23
f 797//372 604//288 603//287
f 159//81 158//80 750//2
f 572//84 574//84 580//84
f 389//2 74//2 150//2
f 389//2 150//2 363//2
f 158//80 798//2 750//2
f 136//9 137//69 269//9
f 799//357 763//357 762//356
f 701//329 396//193 22//7
f 800//373 693//322 695//324
f 692//2 606//23 61//4
f 788//2 680//2 51//23
f 308//154 801//374 309//155
f 225//56 222//2 676//2
f 183//2 225//56 676//2
f 112//2 802//199 803//15
f 336//171 804//375 805//171
f 806//2 807//2 798//2
f 808//85 809//2 810//376
f 373//2 73//2 369//2
f 373//2 74//2 73//2
f 714//2 716//2 113//2
f 517//251 519//252 811//252
f 766//256 530//257 529//256
f 429//2 57//2 442//2
f 812//2 112//2 813//23
f 448//217 814//377 815//378
f 212//2 6//2 213//108
f 567//275 297//147 568//275
f 61//4 129//2 691//23
f 200//103 816//379 201//102
f 50//2 711//39 543//39
f 545//263 817//380 546//264
f 818//381 226//114 228//115
f 422//205 819//205 319//159
f 820//382 96//47 95//47
f 218//111 821//383 125//64
f 806//2 822//2 823//133
f 719//83 585//82 824//84
f 825//384 826//385 260//56
f 722//121 724//121 827//120
f 750//2 798//2 828//23
f 573//84 829//82 574//84
f 297//147 299//148 568//275
f 825//384 260//56 565//274
f 191//2 74//2 404//2
f 191//2 404//2 387//2
f 57//2 727//254 527//254
f 264//132 830//386 706//334
f 51//23 831//39 490//2
f 102//50 832//387 833//388
f 59//25 576//2 482//23
f 484//235 834//235 485//236
f 16//2 7//4 835//2
f 659//86 836//86 660//86
f 51//23 837//39 774//39
f 597//284 838//284 839//283
f 266//2 246//2 265//2
f 220//2 74//2 246//2
f 840//389 841//292 611//232
f 453//221 842//390 454//221
f 843//199 812//2 844//2
f 91//43 845//391 334//169
f 607//289 606//23 730//344
f 726//341 800//373 695//324
f 639//2 173//2 631//254
f 356//178 358//178 846//178
f 847//392 848//393 849//394
f 426//209 428//209 850//209
f 146//73 767//359 746//351
f 715//23 721//2 745//56
f 559//29 636//2 560//2
f 316//156 702//330 637//303
f 1//1 3//2 570//85
f 573//84 851//84 829//82
f 852//395 853//85 809//2
f 854//86 167//86 169//88
f 855//221 496//221 856//221
f 496//221 498//221 856//221
f 757//2 857//2 61//4
f 487//237 489//238 858//396
f 233//118 235//119 859//118
f 535//259 860//397 536//260
f 665//310 861//311 666//311
f 614//293 862//80 615//232
f 863//192 395//192 394//192
f 625//15 627//15 864//398
f 865//399 866//400 217//110
f 867//401 671//313 89//41
f 868//402 869//403 870//404
f 871//292 872//2 873//405
f 410//39 412//199 581//278
f 303//150 874//406 875//407
f 121//62 876//62 122//63
f 278//139 877//408 878//409
f 59//25 435//2 538//2
f 540//261 879//410 541//262
f 723//121 239//120 282//120
f 112//2 714//2 113//2
f 272//135 880//136 273//136
f 669//272 37//16 22//7
f 731//345 730//344 742//349
f 881//411 882//412 883//413
f 247//2 237//2 542//133
f 247//2 542//133 248//2
f 50//2 773//23 118//59
f 876//62 884//414 122//63
f 750//2 885//23 886//80
f 750//2 828//23 885//23
f 284//141 286//143 695//324
f 199//102 887//103 200//103
f 172//90 171//15 528//255
f 888//415 531//258 889//416
f 890//133 841//292 840//389
f 647//305 646//299 891//417
f 51//23 796//23 837//39
f 838//284 892//418 839//283
f 642//118 785//118 503//118
f 760//56 626//56 625//15
f 645//304 893//299 646//299
f 890//133 894//345 841//292
f 291//2 311//2 292//2
f 291//2 74//2 311//2
f 159//81 751//133 663//232
f 895//2 663//232 662//2
f 254//126 256//126 485//236
f 818//381 896//381 226//114
f 159//81 897//2 160//2
f 897//2 159//81 663//232
f 216//109 865//399 217//110
f 588//15 212//2 214//90
f 645//304 623//299 893//299
f 620//296 615//232 894//345
f 898//2 809//2 822//2
f 898//2 852//395 809//2
f 62//26 747//29 61//4
f 327//163 329//163 899//419
f 56//24 58//2 644//2
f 645//304 621//297 623//299
f 205//104 207//104 900//104
f 240//121 901//120 902//121
f 871//292 903//232 872//2
f 904//420 905//421 906//422
f 103//2 619//15 708//2
f 619//15 605//2 708//2
f 338//2 74//2 152//2
f 338//2 152//2 339//2
f 390//190 392//191 907//423
f 61//4 748//2 687//2
f 681//26 831//39 51//23
f 832//387 908//424 833//388
f 331//166 790//370 332//167
f 909//425 142//71 141//72
f 12//2 14//2 16//2
f 195//98 910//426 189//9
f 911//427 912//428 913//427
f 591//280 668//7 22//7
f 914//429 915//429 916//429
f 872//2 903//232 477//2
f 59//25 178//91 471//2
f 149//77 686//320 473//229
f 34//13 843//199 35//14
f 901//120 240//121 239//120
f 271//134 742//349 56//24
f 917//430 918//431 919//430
f 50//2 787//39 920//39
f 386//189 921//432 786//368
f 82//2 922//2 175//2
f 174//2 82//2 175//2
f 499//133 108//2 923//2
f 108//2 924//2 923//2
f 812//2 843//199 112//2
f 925//433 926//433 927//433
f 579//84 580//84 585//82
f 806//2 823//133 928//56
f 220//2 246//2 266//2
f 220//2 266//2 221//2
f 1//1 583//23 929//2
f 930//434 584//83 585//82
f 931//364 777//364 776//364
f 564//273 566//108 534//15
f 894//345 932//2 841//292
f 933//435 912//428 911//427
f 906//422 934//420 904//420
f 935//436 510//244 22//7
f 658//2 657//23 653//2
f 75//2 658//2 653//2
f 830//386 936//437 706//334
f 695//324 286//143 725//340
f 595//282 597//284 839//283
f 602//286 937//438 603//287
f 420//2 444//2 445//2
f 444//2 433//2 445//2
f 87//39 449//2 922//2
f 82//2 87//39 922//2
f 16//2 735//2 17//2
f 868//402 938//404 869//403
f 909//425 939//439 142//71
f 303//150 940//440 874//406
f 1//1 929//2 717//339
f 720//82 930//434 585//82
f 550//266 531//258 888//415
f 549//265 548//2 760//56
f 1//1 718//2 941//2
f 942//82 719//83 824//84
f 107//2 499//133 524//2
f 499//133 923//2 524//2
f 798//2 807//2 943//39
f 798//2 943//39 944//133
f 386//189 945//441 921//432
f 50//2 920//39 697//39
f 915//429 946//429 916//429
f 563//272 935//436 22//7
f 409//198 947//442 696//325
f 947//442 948//443 696//325
f 79//34 81//35 634//302
f 430//210 949//210 431//211
f 112//2 114//56 802//199
f 336//171 805//171 337//172
f 359//23 338//2 340//2
f 359//23 340//2 354//23
f 950//232 7//4 17//2
f 736//209 951//209 737//209
f 1//1 232//117 952//444
f 279//118 953//140 280//140
f 780//199 561//271 412//199
f 303//150 875//407 699//327
f 312//2 66//2 325//2
f 312//2 325//2 313//2
f 272//135 954//445 880//136
f 753//352 955//446 956//447
f 61//4 957//2 758//39
f 288//144 290//146 958//448
f 959//449 310//154 309//155
f 330//165 960//450 331//166
f 686//320 961//451 473//229
f 962//452 181//94 180//93
f 822//2 809//2 963//2
f 822//2 963//2 823//133
f 964//453 462//225 438//215
f 333//168 965//454 91//43
f 807//2 966//133 967//23
f 807//2 806//2 928//56
f 100//50 102//50 833//388
f 968//455 969//456 322//160
f 203//2 370//2 371//2
f 370//2 355//2 371//2
f 968//455 322//160 324//162
f 959//449 970//449 310//154
f 351//177 84//36 86//38
f 305//151 971//457 306//152
f 50//2 593//56 972//39
f 403//196 973//458 594//281
f 304//133 238//2 350//85
f 304//133 350//85 526//2
f 5//3 1//1 941//2
f 161//82 942//82 162//83
f 344//174 346//174 675//316
f 70//30 974//459 71//31
f 897//2 663//232 895//2
f 836//86 185//86 660//86
f 42//19 649//306 43//20
f 975//460 976//460 977//460
f 108//2 275//2 924//2
f 275//2 388//2 924//2
f 242//24 34//13 36//15
f 978//461 979//462 980//462
f 423//206 425//208 541//262
f 964//453 981//453 462//225
f 264//132 982//463 830//386
f 528//255 707//335 172//90
f 779//365 569//276 983//464
f 533//128 564//273 534//15
f 65//28 984//465 170//89
f 984//465 985//466 170//89
f 986//56 532//129 534//15
f 235//119 281//118 859//118
f 19//2 7//4 4//2
f 168//87 987//467 169//88
f 988//140 233//118 859//118
f 989//56 986//56 534//15
f 469//4 77//32 7//4
f 990//468 991//468 992//468
f 235//119 234//118 279//118
f 235//119 279//118 281//118
f 855//221 856//221 993//221
f 793//232 994//293 794//292
f 995//2 835//2 7//4
f 185//86 836//86 186//86
f 467//2 182//2 463//2
f 467//2 463//2 468//2
f 995//2 7//4 18//2
f 854//86 186//86 167//86
f 826//385 258//128 260//56
f 723//121 282//120 724//121
f 504//120 506//121 996//121
f 439//15 441//129 764//90
f 712//337 997//469 194//97
f 50//2 972//39 710//23
f 151//2 74//2 202//2
f 151//2 202//2 493//2
f 997//469 998//470 194//97
f 403//196 999//471 973//458
f 243//122 245//122 522//122
f 820//382 1000//472 96//47
f 166//82 163//84 1001//473
f 809//2 853//85 810//376
f 841//292 1002//293 611//232
f 932//2 1002//293 841//292
f 670//312 1003//474 90//42
f 81//35 1004//475 633//301
f 615//232 862//80 932//2
f 894//345 615//232 932//2
f 950//232 469//4 7//4
f 551//209 553//209 736//209
f 1005//476 1006//477 689//321
f 392//191 1007//478 907//423
f 625//15 439//15 1008//108
f 439//15 547//129 1008//108
f 31//11 1009//479 495//240
f 1010//480 1011//480 1012//480
f 399//2 375//2 377//2
f 399//2 389//2 375//2
f 751//133 750//2 886//80
f 26//9 27//9 1013//426
f 928//56 823//133 966//133
f 807//2 928//56 966//133
f 23//8 25//8 27//9
f 663//232 751//133 664//2
f 112//2 803//15 813//23
f 814//377 1014//481 815//378
f 897//2 1015//482 160//2
f 1015//482 897//2 895//2
f 143//2 75//2 654//2
f 143//2 654//2 368//39
f 446//216 448//217 815//378
f 335//170 1016//170 336//171
f 216//109 1017//483 865//399
f 769//361 1018//484 589//187
f 1019//405 862//80 614//293
f 753//352 956//447 427//209
f 1020//485 1021//485 1022//485
f 722//121 1023//121 1024//486
f 611//232 1002//293 612//80
f 1025//487 933//435 911//427
f 722//121 1024//486 723//121
f 714//2 721//2 715//23
f 493//2 202//2 481//2
f 493//2 481//2 494//2
f 797//372 1026//488 604//288
f 211//107 1027//489 492//239
f 164//2 165//85 690//2
f 165//85 523//2 690//2
f 809//2 808//85 963//2
f 942//82 824//84 162//83
f 416//203 418//204 546//264
f 192//95 1028//95 193//96
f 61//4 688//39 957//2
f 366//181 1005//476 689//321
f 559//29 54//2 636//2
f 503//118 784//118 458//118
f 943//39 807//2 967//23
f 943//39 967//23 944//133
f 404//2 419//2 405//2
f 419//2 421//2 405//2
f 938//404 1029//490 869//403
f 793//232 873//405 994//293
f 1015//482 895//2 1030//81
f 1030//81 895//2 662//2
f 158//80 806//2 798//2
f 806//2 158//80 160//2
f 131//67 1031//491 132//68
f 489//238 1032//492 858//396
f 898//2 822//2 806//2
f 1033//493 1034//494 1035//495
f 61//4 857//2 128//2
f 1031//491 1036//496 132//68
f 1008//108 547//129 549//265
f 625//15 1008//108 549//265
f 411//2 780//199 412//199
f 1037//497 1038//498 1039//499
f 871//292 873//405 793//232
f 1040//500 934//420 906//422
f 429//2 443//2 1041//2
f 648//121 1042//121 505//120
f 868//402 870//404 1043//501
f 872//2 477//2 479//232
f 249//123 1044//123 1045//123
f 565//274 1046//129 566//108
f 249//123 1045//123 756//354
f 565//274 755//56 1046//129
f 898//2 1047//395 852//395
f 187//86 186//86 854//86
f 698//326 515//249 514//248
f 306//152 466//227 307//153
f 1048//296 614//293 616//294
f 1019//405 614//293 1048//296
f 843//199 844//2 35//14
f 91//43 93//45 845//391
f 798//2 944//133 828//23
f 268//69 269//9 1049//69
f 630//2 639//2 631//254
f 642//118 641//119 785//118
f 50//2 678//39 772//2
f 278//139 878//409 771//363
f 117//58 1050//502 516//250
f 519//252 1051//503 811//252
