# Blender v2.81 (sub 16) OBJ File: ''
# www.blender.org
mtllib Align.mtl
o Align
v 0.014914 -0.199949 9.997440
v 0.014914 -0.199949 0.014995
v 0.014914 0.199949 9.997440
v 0.014914 0.199949 0.014995
v -0.015068 -0.199949 9.997440
v -0.015068 0.199949 9.997440
v -0.015068 -0.199949 0.014995
v -0.015068 0.199949 0.014995
v -9.997518 -0.199949 0.014995
v -9.997518 0.199949 0.014995
v -9.997518 -0.199949 -0.014995
v -9.997518 0.199949 -0.014995
v -0.015068 -0.199949 -0.014995
v -0.015068 0.199949 -0.014995
v -0.015068 -0.199949 -9.997440
v -0.015068 0.199949 -9.997440
v 0.014914 -0.199949 -9.997440
v 0.014914 0.199949 -9.997440
v 0.014914 -0.199949 -0.014995
v 0.014914 0.199949 -0.014995
v 9.997363 -0.199949 -0.014995
v 9.997363 0.199949 -0.014995
v 9.997363 -0.199949 0.014995
v 9.997363 0.199949 0.014995
vn 1.0000 0.0000 0.0000
vn 0.0000 0.0000 1.0000
vn -1.0000 0.0000 0.0000
vn 0.0000 0.0000 -1.0000
vn 0.0000 1.0000 0.0000
vn 0.0000 -1.0000 0.0000
usemtl None
s off
f 1//1 2//1 3//1
f 3//1 2//1 4//1
f 5//2 1//2 6//2
f 6//2 1//2 3//2
f 7//3 5//3 8//3
f 8//3 5//3 6//3
f 9//2 7//2 10//2
f 10//2 7//2 8//2
f 11//3 9//3 12//3
f 12//3 9//3 10//3
f 13//4 11//4 14//4
f 14//4 11//4 12//4
f 15//3 13//3 16//3
f 16//3 13//3 14//3
f 17//4 15//4 18//4
f 18//4 15//4 16//4
f 19//1 17//1 20//1
f 20//1 17//1 18//1
f 21//4 19//4 22//4
f 22//4 19//4 20//4
f 23//1 21//1 24//1
f 24//1 21//1 22//1
f 2//2 23//2 4//2
f 4//2 23//2 24//2
f 24//5 20//5 4//5
f 4//5 20//5 14//5
f 4//5 14//5 8//5
f 8//5 14//5 12//5
f 8//5 12//5 10//5
f 24//5 22//5 20//5
f 18//5 16//5 20//5
f 20//5 16//5 14//5
f 6//5 3//5 8//5
f 8//5 3//5 4//5
f 23//6 2//6 21//6
f 21//6 2//6 19//6
f 19//6 2//6 7//6
f 19//6 7//6 13//6
f 13//6 7//6 9//6
f 13//6 9//6 11//6
f 1//6 5//6 2//6
f 2//6 5//6 7//6
f 15//6 17//6 13//6
f 13//6 17//6 19//6
