# Blender v2.82 (sub 7) OBJ File: ''
# www.blender.org
mtllib cavalry range attack and arc.mtl
o NurbsPath
v 9.564678 0.249999 -8.694038
v 9.989776 -0.250001 -9.080441
v 9.989776 0.249999 -9.080441
v 9.139582 0.249999 -8.307637
v 9.564678 -0.250001 -8.694038
v 8.714485 0.249999 -7.921236
v 9.139582 -0.250001 -8.307637
v 8.289390 0.249999 -7.534835
v 8.714485 -0.250001 -7.921236
v 7.864292 0.249999 -7.148432
v 8.289390 -0.250001 -7.534834
v 7.439197 0.249999 -6.762032
v 7.864292 -0.250001 -7.148431
v 7.014099 0.249999 -6.375628
v 7.439197 -0.250001 -6.762032
v 6.589002 0.249999 -5.989226
v 7.014099 -0.250001 -6.375628
v 6.163905 0.249999 -5.602826
v 6.589002 -0.250001 -5.989226
v 5.738809 0.249999 -5.216424
v 6.163905 -0.250001 -5.602826
v 5.313712 0.249999 -4.830022
v 5.738809 -0.250001 -5.216424
v 4.888615 0.249999 -4.443621
v 5.313712 -0.250001 -4.830022
v 4.463518 0.249999 -4.057220
v 4.888615 -0.250001 -4.443621
v 4.038421 0.249999 -3.670817
v 4.463518 -0.250001 -4.057220
v 3.613324 0.249999 -3.284415
v 4.038421 -0.250001 -3.670817
v 3.188228 0.250000 -2.898014
v 3.613324 -0.250001 -3.284415
v 2.763131 0.250000 -2.511612
v 3.188228 -0.250000 -2.898014
v 2.338033 0.250000 -2.125210
v 2.763131 -0.250000 -2.511612
v 1.912937 0.250000 -1.738808
v 2.338033 -0.250000 -2.125210
v 1.487840 0.250000 -1.352407
v 1.912937 -0.250000 -1.738808
v 1.062743 0.250000 -0.966005
v 1.487840 -0.250000 -1.352407
v 0.637646 0.250000 -0.579603
v 1.062743 -0.250000 -0.966005
v 0.212549 0.250000 -0.193202
v 0.637646 -0.250000 -0.579603
v -0.212548 0.250000 0.193201
v 0.212549 -0.250000 -0.193202
v -0.637645 0.250000 0.579602
v -0.212548 -0.250000 0.193201
v -1.062742 0.250000 0.966004
v -0.637645 -0.250000 0.579602
v -1.487839 0.250000 1.352406
v -1.062742 -0.250000 0.966004
v -1.912936 0.250000 1.738808
v -1.487839 -0.250000 1.352406
v -2.338032 0.250000 2.125209
v -1.912936 -0.250000 1.738808
v -2.763129 0.250000 2.511611
v -2.338032 -0.250000 2.125209
v -3.188226 0.250000 2.898013
v -2.763129 -0.250000 2.511611
v -3.613323 0.250001 3.284414
v -3.188226 -0.250000 2.898013
v -4.038420 0.250001 3.670816
v -3.613323 -0.249999 3.284414
v -4.463517 0.250001 4.057218
v -4.038420 -0.249999 3.670816
v -4.888613 0.250001 4.443619
v -4.463517 -0.249999 4.057218
v -5.313711 0.250001 4.830021
v -4.888613 -0.249999 4.443619
v -5.738807 0.250001 5.216423
v -5.313711 -0.249999 4.830021
v -6.163904 0.250001 5.602825
v -5.738807 -0.249999 5.216423
v -6.589000 0.250001 5.989225
v -6.163904 -0.249999 5.602825
v -7.014098 0.250001 6.375628
v -6.589000 -0.249999 5.989225
v -7.439194 0.250001 6.762030
v -7.014098 -0.249999 6.375628
v -7.864292 0.250001 7.148431
v -7.439194 -0.249999 6.762030
v -8.289387 0.250001 7.534832
v -7.864292 -0.249999 7.148432
v -8.714483 0.250001 7.921235
v -8.289387 -0.249999 7.534833
v -9.139581 0.250001 8.307636
v -8.714483 -0.249999 7.921235
v -9.564677 0.250001 8.694036
v -9.139581 -0.249999 8.307636
v -9.989774 0.250001 9.080440
v -9.564677 -0.249999 8.694036
v 9.983049 -0.250001 -9.087840
v 9.557952 0.249999 -8.701438
v 9.983049 0.249999 -9.087840
v 9.557952 -0.250001 -8.701438
v 9.132855 0.249999 -8.315037
v 9.132855 -0.250001 -8.315037
v 8.707759 0.249999 -7.928636
v 8.707759 -0.250001 -7.928636
v 8.282663 0.249999 -7.542235
v 8.282663 -0.250001 -7.542234
v 7.857564 0.249999 -7.155832
v 7.857564 -0.250001 -7.155831
v 7.432469 0.249999 -6.769432
v 7.432469 -0.250001 -6.769432
v 7.007371 0.249999 -6.383029
v 7.007371 -0.250001 -6.383029
v 6.582274 0.249999 -5.996626
v 6.582274 -0.250001 -5.996626
v 6.157178 0.249999 -5.610226
v 6.157178 -0.250001 -5.610226
v 5.732081 0.249999 -5.223825
v 5.732081 -0.250001 -5.223825
v 5.306984 0.249999 -4.837422
v 5.306984 -0.250001 -4.837422
v 4.881888 0.249999 -4.451020
v 4.881888 -0.250001 -4.451020
v 4.456790 0.249999 -4.064620
v 4.456790 -0.250001 -4.064620
v 4.031694 0.249999 -3.678216
v 4.031694 -0.250001 -3.678216
v 3.606598 0.249999 -3.291815
v 3.606598 -0.250001 -3.291815
v 3.181502 0.250000 -2.905414
v 3.181502 -0.250000 -2.905414
v 2.756404 0.250000 -2.519012
v 2.756404 -0.250000 -2.519012
v 2.331307 0.250000 -2.132610
v 2.331307 -0.250000 -2.132610
v 1.906210 0.250000 -1.746208
v 1.906210 -0.250000 -1.746208
v 1.481114 0.250000 -1.359806
v 1.481114 -0.250000 -1.359806
v 1.056017 0.250000 -0.973405
v 1.056017 -0.250000 -0.973405
v 0.630920 0.250000 -0.587003
v 0.630920 -0.250000 -0.587003
v 0.205823 0.250000 -0.200601
v 0.205823 -0.250000 -0.200601
v -0.219275 0.250000 0.185801
v -0.219275 -0.250000 0.185801
v -0.644371 0.250000 0.572203
v -0.644371 -0.250000 0.572203
v -1.069468 0.250000 0.958604
v -1.069468 -0.250000 0.958604
v -1.494565 0.250000 1.345006
v -1.494565 -0.250000 1.345006
v -1.919662 0.250000 1.731408
v -1.919662 -0.250000 1.731408
v -2.344759 0.250000 2.117809
v -2.344759 -0.250000 2.117809
v -2.769856 0.250000 2.504211
v -2.769856 -0.250000 2.504211
v -3.194953 0.250000 2.890613
v -3.194953 -0.250000 2.890613
v -3.620049 0.250001 3.277014
v -3.620049 -0.249999 3.277014
v -4.045146 0.250001 3.663416
v -4.045146 -0.249999 3.663416
v -4.470243 0.250001 4.049818
v -4.470243 -0.249999 4.049818
v -4.895339 0.250001 4.436220
v -4.895339 -0.249999 4.436220
v -5.320436 0.250001 4.822621
v -5.320436 -0.249999 4.822621
v -5.745533 0.250001 5.209023
v -5.745533 -0.249999 5.209023
v -6.170630 0.250001 5.595425
v -6.170630 -0.249999 5.595425
v -6.595726 0.250001 5.981825
v -6.595726 -0.249999 5.981825
v -7.020823 0.250001 6.368227
v -7.020823 -0.249999 6.368227
v -7.445920 0.250001 6.754630
v -7.445920 -0.249999 6.754630
v -7.871017 0.250001 7.141031
v -7.871017 -0.249999 7.141032
v -8.296113 0.250001 7.527432
v -8.296113 -0.249999 7.527433
v -8.721209 0.250001 7.913835
v -8.721209 -0.249999 7.913835
v -9.146307 0.250001 8.300237
v -9.146307 -0.249999 8.300237
v -9.571404 0.250001 8.686638
v -9.571404 -0.249999 8.686638
v -9.996500 0.250001 9.073040
v -1.062742 -0.250000 0.966004
v -0.644371 -0.250000 0.572203
v -0.637645 -0.250000 0.579602
v 4.463518 -0.250001 -4.057220
v 4.881888 -0.250001 -4.451020
v 4.888615 -0.250001 -4.443621
v -3.613323 0.250001 3.284414
v -4.045146 0.250001 3.663416
v -4.038420 0.250001 3.670816
v 5.313712 0.249999 -4.830022
v 4.881888 0.249999 -4.451020
v 4.888615 0.249999 -4.443621
v -3.188226 0.250000 2.898013
v -3.620049 0.250001 3.277014
v 5.738809 0.249999 -5.216424
v 5.306984 0.249999 -4.837422
v -8.289387 0.250001 7.534832
v -8.721209 0.250001 7.913835
v -8.714483 0.250001 7.921235
v 0.637646 -0.250000 -0.579603
v 1.056017 -0.250000 -0.973405
v 1.062743 -0.250000 -0.966005
v 8.714485 0.249999 -7.921236
v 8.282663 0.249999 -7.542235
v 8.289390 0.249999 -7.534835
v 3.613324 -0.250001 -3.284415
v 4.031694 -0.250001 -3.678216
v 4.038421 -0.250001 -3.670817
v 2.763131 0.250000 -2.511612
v 2.331307 0.250000 -2.132610
v 2.338033 0.250000 -2.125210
v -9.146307 0.250001 8.300237
v -9.139581 0.250001 8.307636
v -0.219275 -0.250000 0.185801
v -0.212548 -0.250000 0.193201
v 9.139582 0.249999 -8.307637
v 8.707759 0.249999 -7.928636
v 3.188228 -0.250000 -2.898014
v 3.606598 -0.250001 -3.291815
v -2.763129 -0.250000 2.511611
v -2.344759 -0.250000 2.117809
v -2.338032 -0.250000 2.125209
v -5.738807 -0.249999 5.216423
v -5.320436 -0.249999 4.822621
v -5.313711 -0.249999 4.830021
v -7.014098 -0.249999 6.375628
v -6.595726 -0.249999 5.981825
v -6.589000 -0.249999 5.989225
v 3.188228 0.250000 -2.898014
v 2.756404 0.250000 -2.519012
v 6.163905 0.249999 -5.602826
v 5.732081 0.249999 -5.223825
v 1.481114 -0.250000 -1.359806
v 1.487840 -0.250000 -1.352407
v 7.439197 -0.250001 -6.762032
v 7.857564 -0.250001 -7.155831
v 7.864292 -0.250001 -7.148431
v -6.170630 -0.249999 5.595425
v -6.163904 -0.249999 5.602825
v -1.487839 0.250000 1.352406
v -1.919662 0.250000 1.731408
v -1.912936 0.250000 1.738808
v -9.571404 0.250001 8.686638
v -9.564677 0.250001 8.694036
v -1.919662 -0.250000 1.731408
v -1.912936 -0.250000 1.738808
v 9.564678 0.249999 -8.694038
v 9.132855 0.249999 -8.315037
v -1.062742 0.250000 0.966004
v -1.494565 0.250000 1.345006
v -8.714483 -0.249999 7.921235
v -8.296113 -0.249999 7.527433
v -8.289387 -0.249999 7.534833
v 0.212549 -0.250000 -0.193202
v 0.630920 -0.250000 -0.587003
v 6.589002 0.249999 -5.989226
v 6.157178 0.249999 -5.610226
v -7.871017 -0.249999 7.141032
v -7.864292 -0.249999 7.148432
v 0.205823 -0.250000 -0.200601
v 8.282663 -0.250001 -7.542234
v 8.289390 -0.250001 -7.534834
v -9.989774 0.250001 9.080440
v -9.996500 -0.249999 9.073040
v -9.989774 -0.249999 9.080440
v -9.996500 0.250001 9.073040
v -9.989774 0.250001 9.080440
v -3.188226 -0.250000 2.898013
v -2.769856 -0.250000 2.504211
v -4.895339 -0.249999 4.436220
v -4.888613 -0.249999 4.443619
v -7.445920 -0.249999 6.754630
v -7.439194 -0.249999 6.762030
v 4.463518 0.249999 -4.057220
v 4.031694 0.249999 -3.678216
v 4.038421 0.249999 -3.670817
v 9.989776 0.249999 -9.080441
v 9.557952 0.249999 -8.701438
v -3.613323 -0.249999 3.284414
v -3.194953 -0.250000 2.890613
v -4.470243 -0.249999 4.049818
v -4.463517 -0.249999 4.057218
v -4.888613 0.250001 4.443619
v -5.320436 0.250001 4.822621
v -5.313711 0.250001 4.830021
v 9.989776 -0.250001 -9.080441
v 9.983049 0.249999 -9.087840
v 9.989776 0.249999 -9.080441
v 7.014099 -0.250001 -6.375628
v 7.432469 -0.250001 -6.769432
v -0.637645 0.250000 0.579602
v -1.069468 0.250000 0.958604
v -4.045146 -0.249999 3.663416
v -4.038420 -0.249999 3.670816
v 0.212549 0.250000 -0.193202
v -0.219275 0.250000 0.185801
v -0.212548 0.250000 0.193201
v -5.745533 0.250001 5.209023
v -5.738807 0.250001 5.216423
v 1.912937 -0.250000 -1.738808
v 2.331307 -0.250000 -2.132610
v 2.338033 -0.250000 -2.125210
v 4.456790 0.249999 -4.064620
v 6.589002 -0.250001 -5.989226
v 7.007371 -0.250001 -6.383029
v 1.906210 -0.250000 -1.746208
v 1.062743 0.250000 -0.966005
v 0.630920 0.250000 -0.587003
v 0.637646 0.250000 -0.579603
v -0.644371 0.250000 0.572203
v 5.313712 -0.250001 -4.830022
v 5.732081 -0.250001 -5.223825
v 5.738809 -0.250001 -5.216424
v -9.564677 -0.249999 8.694036
v -9.146307 -0.249999 8.300237
v -9.139581 -0.249999 8.307636
v 3.606598 0.249999 -3.291815
v 3.613324 0.249999 -3.284415
v 5.306984 -0.250001 -4.837422
v -7.020823 -0.249999 6.368227
v 2.756404 -0.250000 -2.519012
v 2.763131 -0.250000 -2.511612
v -6.170630 0.250001 5.595425
v -6.163904 0.250001 5.602825
v -2.338032 0.250000 2.125209
v -2.769856 0.250000 2.504211
v -2.763129 0.250000 2.511611
v 8.714485 -0.250001 -7.921236
v 9.132855 -0.250001 -8.315037
v 9.139582 -0.250001 -8.307637
v -6.589000 0.250001 5.989225
v -7.020823 0.250001 6.368227
v -7.014098 0.250001 6.375628
v 1.487840 0.250000 -1.352407
v 1.056017 0.250000 -0.973405
v 7.014099 0.249999 -6.375628
v 6.582274 0.249999 -5.996626
v 8.707759 -0.250001 -7.928636
v 6.157178 -0.250001 -5.610226
v 6.163905 -0.250001 -5.602826
v -3.620049 -0.249999 3.277014
v -7.439194 0.250001 6.762030
v -7.871017 0.250001 7.141031
v -7.864292 0.250001 7.148431
v -6.595726 0.250001 5.981825
v -2.344759 0.250000 2.117809
v 3.181502 0.250000 -2.905414
v 0.205823 0.250000 -0.200601
v 3.181502 -0.250000 -2.905414
v 7.864292 0.249999 -7.148432
v 7.432469 0.249999 -6.769432
v 7.439197 0.249999 -6.762032
v 9.557952 -0.250001 -8.701438
v 9.564678 -0.250001 -8.694038
v -8.721209 -0.249999 7.913835
v -4.470243 0.250001 4.049818
v -4.463517 0.250001 4.057218
v -3.194953 0.250000 2.890613
v 6.582274 -0.250001 -5.996626
v -8.296113 0.250001 7.527432
v -1.487839 -0.250000 1.352406
v -1.069468 -0.250000 0.958604
v 7.857564 0.249999 -7.155832
v 4.456790 -0.250001 -4.064620
v -9.989774 -0.249999 9.080440
v -9.571404 -0.249999 8.686638
v -1.494565 -0.250000 1.345006
v 1.912937 0.250000 -1.738808
v 1.481114 0.250000 -1.359806
v 9.983049 -0.250001 -9.087840
v 9.989776 -0.250001 -9.080441
v -4.895339 0.250001 4.436220
v -7.445920 0.250001 6.754630
v -5.745533 -0.249999 5.209023
v 1.906210 0.250000 -1.746208
v 7.007371 0.249999 -6.383029
v -9.989774 -0.249999 9.080440
v -9.996500 -0.249999 9.073040
v -9.996500 0.250001 9.073040
v 9.983049 0.249999 -9.087840
v 9.983049 -0.250001 -9.087840
v -9.996500 -0.249999 9.073040
v -9.563163 0.249999 -8.695706
v -9.988193 -0.250001 -9.082183
v -9.988193 0.249999 -9.082183
v -9.138134 0.249999 -8.309231
v -9.563163 -0.250001 -8.695706
v -8.713104 0.249999 -7.922755
v -9.138134 -0.250001 -8.309231
v -8.288074 0.249999 -7.536281
v -8.713104 -0.250001 -7.922755
v -7.863044 0.249999 -7.149804
v -8.288074 -0.250001 -7.536280
v -7.438016 0.249999 -6.763329
v -7.863044 -0.250001 -7.149803
v -7.012987 0.249999 -6.376853
v -7.438016 -0.250001 -6.763329
v -6.587956 0.249999 -5.990376
v -7.012987 -0.250001 -6.376853
v -6.162928 0.249999 -5.603900
v -6.587956 -0.250001 -5.990376
v -5.737898 0.249999 -5.217424
v -6.162928 -0.250001 -5.603900
v -5.312870 0.249999 -4.830948
v -5.737898 -0.250001 -5.217424
v -4.887839 0.249999 -4.444474
v -5.312870 -0.250001 -4.830948
v -4.462811 0.249999 -4.057998
v -4.887839 -0.250001 -4.444474
v -4.037780 0.249999 -3.671522
v -4.462811 -0.250001 -4.057998
v -3.612751 0.249999 -3.285046
v -4.037780 -0.250001 -3.671521
v -3.187722 0.250000 -2.898570
v -3.612751 -0.250001 -3.285046
v -2.762692 0.250000 -2.512094
v -3.187722 -0.250000 -2.898570
v -2.337663 0.250000 -2.125618
v -2.762692 -0.250000 -2.512094
v -1.912633 0.250000 -1.739142
v -2.337663 -0.250000 -2.125618
v -1.487604 0.250000 -1.352666
v -1.912633 -0.250000 -1.739142
v -1.062574 0.250000 -0.966190
v -1.487604 -0.250000 -1.352666
v -0.637545 0.250000 -0.579715
v -1.062574 -0.250000 -0.966190
v -0.212515 0.250000 -0.193239
v -0.637545 -0.250000 -0.579715
v 0.212515 0.250000 0.193238
v -0.212515 -0.250000 -0.193239
v 0.637544 0.250000 0.579714
v 0.212515 -0.250000 0.193238
v 1.062574 0.250000 0.966190
v 0.637544 -0.250000 0.579714
v 1.487603 0.250000 1.352666
v 1.062574 -0.250000 0.966190
v 1.912632 0.250000 1.739141
v 1.487603 -0.250000 1.352666
v 2.337662 0.250000 2.125617
v 1.912632 -0.250000 1.739141
v 2.762691 0.250000 2.512093
v 2.337662 -0.250000 2.125617
v 3.187721 0.250000 2.898569
v 2.762691 -0.250000 2.512093
v 3.612750 0.250001 3.285045
v 3.187721 -0.250000 2.898569
v 4.037779 0.250001 3.671520
v 3.612750 -0.249999 3.285045
v 4.462810 0.250001 4.057995
v 4.037779 -0.249999 3.671521
v 4.887837 0.250001 4.444471
v 4.462810 -0.249999 4.057995
v 5.312869 0.250001 4.830947
v 4.887837 -0.249999 4.444471
v 5.737896 0.250001 5.217422
v 5.312869 -0.249999 4.830947
v 6.162927 0.250001 5.603899
v 5.737896 -0.249999 5.217422
v 6.587955 0.250001 5.990376
v 6.162927 -0.249999 5.603899
v 7.012986 0.250001 6.376852
v 6.587955 -0.249999 5.990376
v 7.438015 0.250001 6.763327
v 7.012986 -0.249999 6.376852
v 7.863044 0.250001 7.149803
v 7.438015 -0.249999 6.763327
v 8.288074 0.250001 7.536278
v 7.863044 -0.249999 7.149804
v 8.713103 0.250001 7.922754
v 8.288074 -0.249999 7.536279
v 9.138132 0.250001 8.309230
v 8.713103 -0.249999 7.922754
v 9.563162 0.250001 8.695705
v 9.138132 -0.249999 8.309230
v 9.988191 0.250001 9.082181
v 9.563162 -0.249999 8.695705
v -9.994920 -0.250001 -9.074784
v -9.569890 0.249999 -8.688308
v -9.994920 0.249999 -9.074784
v -9.569890 -0.250001 -8.688308
v -9.144861 0.249999 -8.301832
v -9.144861 -0.250001 -8.301832
v -8.719832 0.249999 -7.915357
v -8.719832 -0.250001 -7.915357
v -8.294803 0.249999 -7.528883
v -8.294803 -0.250001 -7.528882
v -7.869771 0.249999 -7.142405
v -7.869771 -0.250001 -7.142404
v -7.444745 0.249999 -6.755929
v -7.444745 -0.250001 -6.755929
v -7.019714 0.249999 -6.369453
v -7.019714 -0.250001 -6.369453
v -6.594685 0.249999 -5.982977
v -6.594685 -0.250001 -5.982977
v -6.169655 0.249999 -5.596501
v -6.169655 -0.250001 -5.596501
v -5.744627 0.249999 -5.210027
v -5.744627 -0.250001 -5.210027
v -5.319596 0.249999 -4.823551
v -5.319596 -0.250001 -4.823551
v -4.894567 0.249999 -4.437075
v -4.894567 -0.250001 -4.437075
v -4.469537 0.249999 -4.050599
v -4.469537 -0.250001 -4.050599
v -4.044508 0.249999 -3.664123
v -4.044508 -0.250001 -3.664123
v -3.619478 0.249999 -3.277647
v -3.619478 -0.250001 -3.277647
v -3.194449 0.250000 -2.891172
v -3.194449 -0.250000 -2.891172
v -2.769420 0.250000 -2.504696
v -2.769420 -0.250000 -2.504696
v -2.344390 0.250000 -2.118219
v -2.344390 -0.250000 -2.118219
v -1.919361 0.250000 -1.731743
v -1.919361 -0.250000 -1.731743
v -1.494331 0.250000 -1.345268
v -1.494331 -0.250000 -1.345268
v -1.069302 0.250000 -0.958792
v -1.069302 -0.250000 -0.958792
v -0.644273 0.250000 -0.572316
v -0.644273 -0.250000 -0.572316
v -0.219243 0.250000 -0.185840
v -0.219243 -0.250000 -0.185840
v 0.205787 0.250000 0.200637
v 0.205787 -0.250000 0.200637
v 0.630816 0.250000 0.587112
v 0.630816 -0.250000 0.587112
v 1.055846 0.250000 0.973588
v 1.055846 -0.250000 0.973588
v 1.480875 0.250000 1.360064
v 1.480875 -0.250000 1.360064
v 1.905905 0.250000 1.746540
v 1.905905 -0.250000 1.746540
v 2.330934 0.250000 2.133016
v 2.330934 -0.250000 2.133016
v 2.755964 0.250000 2.519492
v 2.755964 -0.250000 2.519492
v 3.180993 0.250000 2.905968
v 3.180993 -0.250000 2.905968
v 3.606022 0.250001 3.292443
v 3.606022 -0.249999 3.292443
v 4.031053 0.250001 3.678919
v 4.031053 -0.249999 3.678919
v 4.456081 0.250001 4.065394
v 4.456081 -0.249999 4.065394
v 4.881111 0.250001 4.451869
v 4.881111 -0.249999 4.451869
v 5.306140 0.250001 4.838346
v 5.306140 -0.249999 4.838346
v 5.731170 0.250001 5.224822
v 5.731170 -0.249999 5.224822
v 6.156199 0.250001 5.611299
v 6.156199 -0.249999 5.611299
v 6.581227 0.250001 5.997774
v 6.581227 -0.249999 5.997774
v 7.006258 0.250001 6.384251
v 7.006258 -0.249999 6.384251
v 7.431286 0.250001 6.770726
v 7.431286 -0.249999 6.770726
v 7.856317 0.250001 7.157201
v 7.856317 -0.249999 7.157201
v 8.281346 0.250001 7.543676
v 8.281346 -0.249999 7.543676
v 8.706376 0.250001 7.930152
v 8.706376 -0.249999 7.930152
v 9.131405 0.250001 8.316628
v 9.131405 -0.249999 8.316628
v 9.556435 0.250001 8.703104
v 9.556435 -0.249999 8.703104
v 9.981462 0.250001 9.089580
v 1.062574 -0.250000 0.966190
v 0.630816 -0.250000 0.587112
v 0.637544 -0.250000 0.579714
v -4.462811 -0.250001 -4.057998
v -4.894567 -0.250001 -4.437075
v -4.887839 -0.250001 -4.444474
v 3.612750 0.250001 3.285045
v 4.031053 0.250001 3.678919
v 4.037779 0.250001 3.671520
v -5.312870 0.249999 -4.830948
v -4.894567 0.249999 -4.437075
v -4.887839 0.249999 -4.444474
v 3.187721 0.250000 2.898569
v 3.606022 0.250001 3.292443
v -5.737898 0.249999 -5.217424
v -5.319596 0.249999 -4.823551
v 8.288074 0.250001 7.536278
v 8.706376 0.250001 7.930152
v 8.713103 0.250001 7.922754
v -0.637545 -0.250000 -0.579715
v -1.069302 -0.250000 -0.958792
v -1.062574 -0.250000 -0.966190
v -8.713104 0.249999 -7.922755
v -8.294803 0.249999 -7.528883
v -8.288074 0.249999 -7.536281
v -3.612751 -0.250001 -3.285046
v -4.044508 -0.250001 -3.664123
v -4.037780 -0.250001 -3.671521
v -2.762692 0.250000 -2.512094
v -2.344390 0.250000 -2.118219
v -2.337663 0.250000 -2.125618
v 9.131405 0.250001 8.316628
v 9.138132 0.250001 8.309230
v 0.205787 -0.250000 0.200637
v 0.212515 -0.250000 0.193238
v -9.138134 0.249999 -8.309231
v -8.719832 0.249999 -7.915357
v -3.187722 -0.250000 -2.898570
v -3.619478 -0.250001 -3.277647
v 2.762691 -0.250000 2.512093
v 2.330934 -0.250000 2.133016
v 2.337662 -0.250000 2.125617
v 5.737896 -0.249999 5.217422
v 5.306140 -0.249999 4.838346
v 5.312869 -0.249999 4.830947
v 7.012986 -0.249999 6.376852
v 6.581227 -0.249999 5.997774
v 6.587955 -0.249999 5.990376
v -3.187722 0.250000 -2.898570
v -2.769420 0.250000 -2.504696
v -6.162928 0.249999 -5.603900
v -5.744627 0.249999 -5.210027
v -1.494331 -0.250000 -1.345268
v -1.487604 -0.250000 -1.352666
v -7.438016 -0.250001 -6.763329
v -7.869771 -0.250001 -7.142404
v -7.863044 -0.250001 -7.149803
v 6.156199 -0.249999 5.611299
v 6.162927 -0.249999 5.603899
v 1.487603 0.250000 1.352666
v 1.905905 0.250000 1.746540
v 1.912632 0.250000 1.739141
v 9.556435 0.250001 8.703104
v 9.563162 0.250001 8.695705
v 1.905905 -0.250000 1.746540
v 1.912632 -0.250000 1.739141
v -9.563163 0.249999 -8.695706
v -9.144861 0.249999 -8.301832
v 1.062574 0.250000 0.966190
v 1.480875 0.250000 1.360064
v 8.713103 -0.249999 7.922754
v 8.281346 -0.249999 7.543676
v 8.288074 -0.249999 7.536279
v -0.212515 -0.250000 -0.193239
v -0.644273 -0.250000 -0.572316
v -6.587956 0.249999 -5.990376
v -6.169655 0.249999 -5.596501
v 7.856317 -0.249999 7.157201
v 7.863044 -0.249999 7.149804
v -0.219243 -0.250000 -0.185840
v -8.294803 -0.250001 -7.528882
v -8.288074 -0.250001 -7.536280
v 9.988191 0.250001 9.082181
v 9.981462 -0.249999 9.089580
v 9.988191 -0.249999 9.082181
v 9.981462 0.250001 9.089580
v 9.988191 0.250001 9.082181
v 3.187721 -0.250000 2.898569
v 2.755964 -0.250000 2.519492
v 4.881111 -0.249999 4.451869
v 4.887837 -0.249999 4.444471
v 7.431286 -0.249999 6.770726
v 7.438015 -0.249999 6.763327
v -4.462811 0.249999 -4.057998
v -4.044508 0.249999 -3.664123
v -4.037780 0.249999 -3.671522
v -9.988193 0.249999 -9.082183
v -9.569890 0.249999 -8.688308
v 3.612750 -0.249999 3.285045
v 3.180993 -0.250000 2.905968
v 4.456081 -0.249999 4.065394
v 4.462810 -0.249999 4.057995
v 4.887837 0.250001 4.444471
v 5.306140 0.250001 4.838346
v 5.312869 0.250001 4.830947
v -9.988193 -0.250001 -9.082183
v -9.994920 0.249999 -9.074784
v -9.988193 0.249999 -9.082183
v -7.012987 -0.250001 -6.376853
v -7.444745 -0.250001 -6.755929
v 0.637544 0.250000 0.579714
v 1.055846 0.250000 0.973588
v 4.031053 -0.249999 3.678919
v 4.037779 -0.249999 3.671521
v -0.212515 0.250000 -0.193239
v 0.205787 0.250000 0.200637
v 0.212515 0.250000 0.193238
v 5.731170 0.250001 5.224822
v 5.737896 0.250001 5.217422
v -1.912633 -0.250000 -1.739142
v -2.344390 -0.250000 -2.118219
v -2.337663 -0.250000 -2.125618
v -4.469537 0.249999 -4.050599
v -6.587956 -0.250001 -5.990376
v -7.019714 -0.250001 -6.369453
v -1.919361 -0.250000 -1.731743
v -1.062574 0.250000 -0.966190
v -0.644273 0.250000 -0.572316
v -0.637545 0.250000 -0.579715
v 0.630816 0.250000 0.587112
v -5.312870 -0.250001 -4.830948
v -5.744627 -0.250001 -5.210027
v -5.737898 -0.250001 -5.217424
v 9.563162 -0.249999 8.695705
v 9.131405 -0.249999 8.316628
v 9.138132 -0.249999 8.309230
v -3.619478 0.249999 -3.277647
v -3.612751 0.249999 -3.285046
v -5.319596 -0.250001 -4.823551
v 7.006258 -0.249999 6.384251
v -2.769420 -0.250000 -2.504696
v -2.762692 -0.250000 -2.512094
v 6.156199 0.250001 5.611299
v 6.162927 0.250001 5.603899
v 2.337662 0.250000 2.125617
v 2.755964 0.250000 2.519492
v 2.762691 0.250000 2.512093
v -8.713104 -0.250001 -7.922755
v -9.144861 -0.250001 -8.301832
v -9.138134 -0.250001 -8.309231
v 6.587955 0.250001 5.990376
v 7.006258 0.250001 6.384251
v 7.012986 0.250001 6.376852
v -1.487604 0.250000 -1.352666
v -1.069302 0.250000 -0.958792
v -7.012987 0.249999 -6.376853
v -6.594685 0.249999 -5.982977
v -8.719832 -0.250001 -7.915357
v -6.169655 -0.250001 -5.596501
v -6.162928 -0.250001 -5.603900
v 3.606022 -0.249999 3.292443
v 7.438015 0.250001 6.763327
v 7.856317 0.250001 7.157201
v 7.863044 0.250001 7.149803
v 6.581227 0.250001 5.997774
v 2.330934 0.250000 2.133016
v -3.194449 0.250000 -2.891172
v -0.219243 0.250000 -0.185840
v -3.194449 -0.250000 -2.891172
v -7.863044 0.249999 -7.149804
v -7.444745 0.249999 -6.755929
v -7.438016 0.249999 -6.763329
v -9.569890 -0.250001 -8.688308
v -9.563163 -0.250001 -8.695706
v 8.706376 -0.249999 7.930152
v 4.456081 0.250001 4.065394
v 4.462810 0.250001 4.057995
v 3.180993 0.250000 2.905968
v -6.594685 -0.250001 -5.982977
v 8.281346 0.250001 7.543676
v 1.487603 -0.250000 1.352666
v 1.055846 -0.250000 0.973588
v -7.869771 0.249999 -7.142405
v -4.469537 -0.250001 -4.050599
v 9.988191 -0.249999 9.082181
v 9.556435 -0.249999 8.703104
v 1.480875 -0.250000 1.360064
v -1.912633 0.250000 -1.739142
v -1.494331 0.250000 -1.345268
v -9.994920 -0.250001 -9.074784
v -9.988193 -0.250001 -9.082183
v 4.881111 0.250001 4.451869
v 7.431286 0.250001 6.770726
v 5.731170 -0.249999 5.224822
v -1.919361 0.250000 -1.731743
v -7.019714 0.249999 -6.369453
v 9.988191 -0.249999 9.082181
v 9.981462 -0.249999 9.089580
v 9.981462 0.250001 9.089580
v -9.994920 0.249999 -9.074784
v -9.994920 -0.250001 -9.074784
v 9.981462 -0.249999 9.089580
v 0.813963 0.259999 -3.445209
v -0.000000 -0.260001 -3.500000
v -0.000000 0.259999 -3.500000
v 1.594705 0.259999 -3.285607
v 0.813963 -0.260001 -3.445209
v 2.335067 0.259999 -3.028355
v 1.594705 -0.260001 -3.285607
v 3.027889 0.260000 -2.680611
v 2.335067 -0.260000 -3.028355
v 3.666014 0.260000 -2.249533
v 3.027889 -0.260000 -2.680611
v 4.242281 0.260000 -1.742281
v 3.666014 -0.260000 -2.249533
v 4.749534 0.260000 -1.166013
v 4.242281 -0.260000 -1.742281
v 5.180611 0.260000 -0.527889
v 4.749534 -0.260000 -1.166013
v 5.528355 0.260000 0.164933
v 5.180611 -0.260000 -0.527889
v 5.785607 0.260000 0.905294
v 5.528355 -0.260000 0.164934
v 5.945208 0.260000 1.686036
v 5.785607 -0.260000 0.905295
v 6.000000 0.260000 2.500000
v 5.945208 -0.260000 1.686036
v 5.945210 0.260001 3.313962
v 6.000000 -0.260000 2.500000
v 5.785607 0.260001 4.094705
v 5.945210 -0.259999 3.313962
v 5.528356 0.260001 4.835066
v 5.785607 -0.259999 4.094705
v 5.180612 0.260001 5.527888
v 5.528356 -0.259999 4.835066
v 4.749534 0.260001 6.166014
v 5.180612 -0.259999 5.527888
v 4.242281 0.260001 6.742280
v 4.749534 -0.259999 6.166014
v 3.666014 0.260001 7.249534
v 4.242281 -0.259999 6.742280
v 3.027890 0.260001 7.680611
v 3.666014 -0.259999 7.249534
v 2.335067 0.260001 8.028355
v 3.027890 -0.259999 7.680611
v 1.594706 0.260001 8.285606
v 2.335067 -0.259999 8.028355
v 0.813964 0.260001 8.445208
v 1.594706 -0.259999 8.285606
v 0.000001 0.260001 8.500000
v 0.813964 -0.259999 8.445208
v -0.813962 0.260001 8.445209
v 0.000001 -0.259999 8.500000
v -1.594704 0.260001 8.285607
v -0.813962 -0.259999 8.445209
v -2.335066 0.260001 8.028355
v -1.594704 -0.259999 8.285607
v -3.027888 0.260001 7.680611
v -2.335066 -0.259999 8.028355
v -3.666013 0.260001 7.249534
v -3.027888 -0.259999 7.680612
v -4.242280 0.260001 6.742281
v -3.666013 -0.259999 7.249534
v -4.749534 0.260001 6.166013
v -4.242280 -0.259999 6.742281
v -5.180611 0.260001 5.527889
v -4.749534 -0.259999 6.166013
v -5.528355 0.260001 4.835066
v -5.180611 -0.259999 5.527889
v -5.785606 0.260001 4.094706
v -5.528355 -0.259999 4.835066
v -5.945208 0.260001 3.313963
v -5.785606 -0.259999 4.094706
v -6.000000 0.260000 2.500000
v -5.945208 -0.259999 3.313963
v -5.945209 0.260000 1.686037
v -6.000000 -0.260000 2.500000
v -5.785607 0.260000 0.905295
v -5.945209 -0.260000 1.686038
v -5.528355 0.260000 0.164933
v -5.785607 -0.260000 0.905296
v -5.180611 0.260000 -0.527889
v -5.528355 -0.260000 0.164934
v -4.749533 0.260000 -1.166014
v -5.180611 -0.260000 -0.527889
v -4.242281 0.260000 -1.742281
v -4.749533 -0.260000 -1.166013
v -3.666013 0.260000 -2.249534
v -4.242281 -0.260000 -1.742281
v -3.027889 0.260000 -2.680611
v -3.666013 -0.260000 -2.249533
v -2.335066 0.259999 -3.028355
v -3.027889 -0.260000 -2.680611
v -1.594705 0.259999 -3.285607
v -2.335066 -0.260000 -3.028355
v -0.813963 0.259999 -3.445208
v -1.594705 -0.260001 -3.285607
v -0.813963 -0.260001 -3.445208
v -0.000000 -0.260001 -3.490000
v 0.812623 0.259999 -3.435299
v -0.000000 0.259999 -3.490000
v 0.812623 -0.260001 -3.435299
v 1.592057 0.259999 -3.275964
v 1.592057 -0.260001 -3.275964
v 2.331174 0.259999 -3.019144
v 2.331174 -0.260000 -3.019144
v 3.022837 0.260000 -2.671981
v 3.022837 -0.260000 -2.671981
v 3.659899 0.260000 -2.241621
v 3.659899 -0.260000 -2.241621
v 4.235210 0.260000 -1.735210
v 4.235210 -0.260000 -1.735210
v 4.741621 0.260000 -1.159899
v 4.741621 -0.260000 -1.159899
v 5.171981 0.260000 -0.522837
v 5.171981 -0.260000 -0.522837
v 5.519144 0.260000 0.168825
v 5.519144 -0.260000 0.168826
v 5.775964 0.260000 0.907942
v 5.775964 -0.260000 0.907943
v 5.935298 0.260000 1.687376
v 5.935298 -0.260000 1.687376
v 5.990000 0.260000 2.500000
v 5.990000 -0.260000 2.500000
v 5.935299 0.260001 3.312623
v 5.935299 -0.259999 3.312623
v 5.775964 0.260001 4.092057
v 5.775964 -0.259999 4.092057
v 5.519145 0.260001 4.831173
v 5.519145 -0.259999 4.831173
v 5.171981 0.260001 5.522837
v 5.171981 -0.259999 5.522837
v 4.741621 0.260001 6.159899
v 4.741621 -0.259999 6.159899
v 4.235210 0.260001 6.735209
v 4.235210 -0.259999 6.735209
v 3.659900 0.260001 7.241621
v 3.659900 -0.259999 7.241621
v 3.022838 0.260001 7.671980
v 3.022838 -0.259999 7.671981
v 2.331175 0.260001 8.019144
v 2.331175 -0.259999 8.019144
v 1.592058 0.260001 8.275964
v 1.592058 -0.259999 8.275964
v 0.812624 0.260001 8.435298
v 0.812624 -0.259999 8.435298
v 0.000001 0.260001 8.490000
v 0.000001 -0.259999 8.490000
v -0.812622 0.260001 8.435299
v -0.812622 -0.259999 8.435299
v -1.592056 0.260001 8.275965
v -1.592056 -0.259999 8.275965
v -2.331173 0.260001 8.019144
v -2.331173 -0.259999 8.019144
v -3.022836 0.260001 7.671981
v -3.022836 -0.259999 7.671981
v -3.659898 0.260001 7.241621
v -3.659898 -0.259999 7.241621
v -4.235209 0.260001 6.735210
v -4.235209 -0.259999 6.735210
v -4.741621 0.260001 6.159900
v -4.741621 -0.259999 6.159900
v -5.171980 0.260001 5.522838
v -5.171980 -0.259999 5.522838
v -5.519144 0.260001 4.831174
v -5.519144 -0.259999 4.831174
v -5.775963 0.260001 4.092058
v -5.775963 -0.259999 4.092058
v -5.935297 0.260001 3.312624
v -5.935297 -0.259999 3.312624
v -5.990000 0.260000 2.500000
v -5.990000 -0.260000 2.500000
v -5.935299 0.260000 1.687377
v -5.935299 -0.260000 1.687378
v -5.775964 0.260000 0.907943
v -5.775964 -0.260000 0.907944
v -5.519144 0.260000 0.168826
v -5.519144 -0.260000 0.168827
v -5.171981 0.260000 -0.522837
v -5.171981 -0.260000 -0.522837
v -4.741621 0.260000 -1.159899
v -4.741621 -0.260000 -1.159899
v -4.235210 0.260000 -1.735210
v -4.235210 -0.260000 -1.735210
v -3.659899 0.260000 -2.241621
v -3.659899 -0.260000 -2.241621
v -3.022837 0.260000 -2.671981
v -3.022837 -0.260000 -2.671981
v -2.331174 0.259999 -3.019144
v -2.331174 -0.260000 -3.019144
v -1.592057 0.259999 -3.275964
v -1.592057 -0.260001 -3.275964
v -0.812623 0.259999 -3.435298
v -0.812623 -0.260001 -3.435298
v -1.594704 -0.259999 8.285607
v -0.812622 -0.259999 8.435299
v -0.813962 -0.259999 8.445209
v 5.945210 -0.259999 3.313962
v 5.990000 -0.260000 2.500000
v 6.000000 -0.260000 2.500000
v -5.180611 0.260001 5.527889
v -5.519144 0.260001 4.831174
v -5.528355 0.260001 4.835066
v 5.945208 0.260000 1.686036
v 5.990000 0.260000 2.500000
v 6.000000 0.260000 2.500000
v -4.749534 0.260001 6.166013
v -5.171980 0.260001 5.522838
v 5.785607 0.260000 0.905294
v 5.935298 0.260000 1.687376
v -3.666013 0.260000 -2.249534
v -3.022837 0.260000 -2.671981
v -3.027889 0.260000 -2.680611
v 2.335067 -0.259999 8.028355
v 1.592058 -0.259999 8.275964
v 2.331175 -0.259999 8.019144
v 3.027889 0.260000 -2.680611
v 2.331174 0.259999 -3.019144
v 3.022837 0.260000 -2.671981
v 5.528356 -0.259999 4.835066
v 5.775964 -0.259999 4.092057
v 5.785607 -0.259999 4.094705
v 4.242281 0.260001 6.742280
v 4.741621 0.260001 6.159899
v 4.235210 0.260001 6.735209
v -2.331174 0.259999 -3.019144
v -2.335066 0.259999 -3.028355
v 0.000001 -0.259999 8.490000
v 0.000001 -0.259999 8.500000
v 2.335067 0.259999 -3.028355
v 1.592057 0.259999 -3.275964
v 5.180612 -0.259999 5.527888
v 5.519145 -0.259999 4.831173
v -4.242280 -0.259999 6.742281
v -3.659898 -0.259999 7.241621
v -3.666013 -0.259999 7.249534
v -5.945209 -0.260000 1.686038
v -5.990000 -0.260000 2.500000
v -6.000000 -0.260000 2.500000
v -5.180611 -0.260000 -0.527889
v -5.519144 -0.260000 0.168827
v -5.528355 -0.260000 0.164934
v 4.749534 0.260001 6.166014
v 5.171981 0.260001 5.522837
v 5.528355 0.260000 0.164933
v 5.775964 0.260000 0.907942
v 3.027890 -0.259999 7.680611
v 3.022838 -0.259999 7.671981
v 4.242281 -0.260000 -1.742281
v 3.659899 -0.260000 -2.241621
v 3.666014 -0.260000 -2.249533
v -5.775964 -0.260000 0.907944
v -5.785607 -0.260000 0.905296
v -3.027888 0.260001 7.680611
v -2.331173 0.260001 8.019144
v -3.022836 0.260001 7.671981
v -1.592057 0.259999 -3.275964
v -1.594705 0.259999 -3.285607
v -3.022836 -0.259999 7.671981
v -3.027888 -0.259999 7.680612
v 1.594705 0.259999 -3.285607
v 0.812623 0.259999 -3.435299
v -2.335066 0.260001 8.028355
v -1.592056 0.260001 8.275965
v -3.666013 -0.260000 -2.249533
v -3.022837 -0.260000 -2.671981
v -3.659899 -0.260000 -2.241621
v 1.594706 -0.259999 8.285606
v 0.812624 -0.259999 8.435298
v 5.180611 0.260000 -0.527889
v 5.519144 0.260000 0.168825
v -4.242281 -0.260000 -1.742281
v -4.235210 -0.260000 -1.735210
v 0.813964 -0.259999 8.445208
v 3.022837 -0.260000 -2.671981
v 3.027889 -0.260000 -2.680611
v -0.812623 0.259999 -3.435298
v -0.813963 0.259999 -3.445208
v -4.741621 -0.259999 6.159900
v -4.235209 -0.259999 6.735210
v -5.945208 -0.259999 3.313963
v -5.935297 -0.259999 3.312624
v -4.741621 -0.260000 -1.159899
v -4.749533 -0.260000 -1.166013
v 5.785607 0.260001 4.094705
v 5.935299 0.260001 3.312623
v 5.775964 0.260001 4.092057
v 0.813963 0.259999 -3.445209
v -0.000000 0.259999 -3.490000
v -4.749534 -0.259999 6.166013
v -5.171980 -0.259999 5.522838
v -5.785606 -0.259999 4.094706
v -5.775963 -0.259999 4.092058
v -5.945208 0.260001 3.313963
v -5.990000 0.260000 2.500000
v -6.000000 0.260000 2.500000
v 4.741621 -0.260000 -1.159899
v 4.235210 -0.260000 -1.735210
v -1.594704 0.260001 8.285607
v -0.812622 0.260001 8.435299
v -0.813963 -0.260001 -3.445208
v -0.000000 -0.260001 -3.490000
v -0.812623 -0.260001 -3.435298
v -5.528355 -0.259999 4.835066
v -5.519144 -0.259999 4.831174
v 0.813964 0.260001 8.445208
v 0.000001 0.260001 8.490000
v 0.000001 0.260001 8.500000
v -5.945209 0.260000 1.686037
v -5.935299 0.260000 1.687377
v 4.242281 -0.259999 6.742280
v 3.659900 -0.259999 7.241621
v 4.235210 -0.259999 6.735209
v 5.945210 0.260001 3.313962
v 4.749534 -0.260000 -1.166013
v 5.171981 -0.260000 -0.522837
v 3.666014 -0.259999 7.249534
v 2.335067 0.260001 8.028355
v 1.592058 0.260001 8.275964
v 1.594706 0.260001 8.285606
v -0.813962 0.260001 8.445209
v 5.785607 -0.260000 0.905295
v 5.935298 -0.260000 1.687376
v 5.775964 -0.260000 0.907943
v -2.335066 -0.260000 -3.028355
v -1.592057 -0.260001 -3.275964
v -2.331174 -0.260000 -3.019144
v 5.528356 0.260001 4.835066
v 5.519145 0.260001 4.831173
v 5.945208 -0.260000 1.686036
v -5.171981 -0.260000 -0.522837
v 4.741621 -0.259999 6.159899
v 4.749534 -0.259999 6.166014
v -5.785607 0.260000 0.905295
v -5.775964 0.260000 0.907943
v -4.242280 0.260001 6.742281
v -3.659898 0.260001 7.241621
v -4.235209 0.260001 6.735210
v 2.335067 -0.260000 -3.028355
v 1.592057 -0.260001 -3.275964
v 1.594705 -0.260001 -3.285607
v -5.180611 0.260000 -0.527889
v -5.519144 0.260000 0.168826
v -5.171981 0.260000 -0.522837
v 3.027890 0.260001 7.680611
v 2.331175 0.260001 8.019144
v 4.749534 0.260000 -1.166013
v 5.171981 0.260000 -0.522837
v 2.331174 -0.260000 -3.019144
v 5.528355 -0.260000 0.164934
v 5.519144 -0.260000 0.168826
v -5.180611 -0.259999 5.527889
v -4.242281 0.260000 -1.742281
v -4.741621 0.260000 -1.159899
v -4.235210 0.260000 -1.735210
v -5.528355 0.260000 0.164933
v -3.666013 0.260001 7.249534
v 5.180612 0.260001 5.527888
v 0.812624 0.260001 8.435298
v 5.171981 -0.259999 5.522837
v 4.242281 0.260000 -1.742281
v 3.659899 0.260000 -2.241621
v 4.235210 0.260000 -1.735210
v 0.812623 -0.260001 -3.435299
v 0.813963 -0.260001 -3.445209
v -3.027889 -0.260000 -2.680611
v -5.775963 0.260001 4.092058
v -5.785606 0.260001 4.094706
v -4.741621 0.260001 6.159900
v 5.180611 -0.260000 -0.527889
v -3.659899 0.260000 -2.241621
v -2.335066 -0.259999 8.028355
v -1.592056 -0.259999 8.275965
v 3.666014 0.260000 -2.249533
v -0.000000 0.259999 -3.500000
v 5.935299 -0.259999 3.312623
v -1.594705 -0.260001 -3.285607
v -2.331173 -0.259999 8.019144
v 3.666014 0.260001 7.249534
v 3.022838 0.260001 7.671980
v -0.000000 -0.260001 -3.500000
v -5.935297 0.260001 3.312624
v -4.749533 0.260000 -1.166014
v -5.935299 -0.260000 1.687378
v 3.659900 0.260001 7.241621
v 4.741621 0.260000 -1.159899
v 1.627926 0.249998 -9.390417
v -0.000001 -0.250002 -9.500000
v -0.000001 0.249998 -9.500000
v 3.189409 0.249999 -9.071215
v 1.627926 -0.250002 -9.390417
v 4.670133 0.249999 -8.556710
v 3.189409 -0.250001 -9.071215
v 6.055779 0.249999 -7.861221
v 4.670133 -0.250001 -8.556710
v 7.332026 0.249999 -6.999066
v 6.055779 -0.250001 -7.861221
v 8.484562 0.249999 -5.984563
v 7.332026 -0.250001 -6.999066
v 9.499067 0.249999 -4.832027
v 8.484562 -0.250001 -5.984562
v 10.361222 0.249999 -3.555779
v 9.499067 -0.250001 -4.832027
v 11.056710 0.250000 -2.170134
v 10.361222 -0.250001 -3.555779
v 11.571214 0.250000 -0.689411
v 11.056710 -0.250000 -2.170134
v 11.890415 0.250000 0.872073
v 11.571214 -0.250000 -0.689411
v 12.000000 0.250000 2.499999
v 11.890415 -0.250000 0.872073
v 11.890417 0.250001 4.127926
v 12.000000 -0.250000 2.499999
v 11.571216 0.250001 5.689409
v 11.890417 -0.249999 4.127926
v 11.056711 0.250001 7.170133
v 11.571216 -0.249999 5.689409
v 10.361222 0.250001 8.555779
v 11.056711 -0.249999 7.170133
v 9.499067 0.250002 9.832026
v 10.361222 -0.249999 8.555779
v 8.484563 0.250002 10.984562
v 9.499067 -0.249998 9.832026
v 7.332027 0.250002 11.999066
v 8.484563 -0.249998 10.984562
v 6.055779 0.250002 12.861221
v 7.332027 -0.249998 11.999066
v 4.670134 0.250002 13.556710
v 6.055779 -0.249998 12.861221
v 3.189411 0.250002 14.071214
v 4.670134 -0.249998 13.556710
v 1.627927 0.250002 14.390415
v 3.189411 -0.249998 14.071214
v 0.000001 0.250002 14.500000
v 1.627927 -0.249998 14.390415
v -1.627926 0.250002 14.390417
v 0.000001 -0.249998 14.500000
v -3.189409 0.250002 14.071215
v -1.627926 -0.249998 14.390417
v -4.670133 0.250002 13.556710
v -3.189409 -0.249998 14.071215
v -6.055778 0.250002 12.861222
v -4.670133 -0.249998 13.556710
v -7.332026 0.250002 11.999067
v -6.055778 -0.249998 12.861222
v -8.484562 0.250002 10.984563
v -7.332026 -0.249998 11.999067
v -9.499066 0.250002 9.832026
v -8.484562 -0.249998 10.984563
v -10.361221 0.250001 8.555779
v -9.499066 -0.249998 9.832026
v -11.056709 0.250001 7.170134
v -10.361221 -0.249999 8.555779
v -11.571213 0.250001 5.689411
v -11.056709 -0.249999 7.170134
v -11.890415 0.250001 4.127927
v -11.571213 -0.249999 5.689411
v -12.000000 0.250000 2.500001
v -11.890415 -0.249999 4.127927
v -11.890417 0.250000 0.872074
v -12.000000 -0.250000 2.500001
v -11.571215 0.250000 -0.689409
v -11.890417 -0.250000 0.872074
v -11.056710 0.250000 -2.170133
v -11.571215 -0.250000 -0.689409
v -10.361221 0.249999 -3.555778
v -11.056710 -0.250000 -2.170133
v -9.499066 0.249999 -4.832026
v -10.361221 -0.250001 -3.555778
v -8.484563 0.249999 -5.984562
v -9.499066 -0.250001 -4.832026
v -7.332026 0.249999 -6.999066
v -8.484563 -0.250001 -5.984562
v -6.055779 0.249999 -7.861221
v -7.332026 -0.250001 -6.999066
v -4.670134 0.249999 -8.556710
v -6.055779 -0.250001 -7.861221
v -3.189411 0.249999 -9.071214
v -4.670134 -0.250001 -8.556710
v -1.627927 0.249998 -9.390415
v -3.189411 -0.250001 -9.071214
v -1.627927 -0.250002 -9.390415
v -0.000001 -0.250002 -9.490000
v 1.626586 0.249998 -9.380507
v -0.000001 0.249998 -9.490000
v 1.626586 -0.250002 -9.380507
v 3.186761 0.249999 -9.061572
v 3.186761 -0.250001 -9.061572
v 4.666240 0.249999 -8.547499
v 4.666240 -0.250001 -8.547499
v 6.050725 0.249999 -7.852592
v 6.050725 -0.250001 -7.852592
v 7.325912 0.249999 -6.991155
v 7.325912 -0.250001 -6.991155
v 8.477491 0.249999 -5.977492
v 8.477491 -0.250001 -5.977491
v 9.491155 0.249999 -4.825913
v 9.491155 -0.250001 -4.825913
v 10.352592 0.249999 -3.550726
v 10.352592 -0.250001 -3.550726
v 11.047499 0.250000 -2.166241
v 11.047499 -0.250000 -2.166241
v 11.561571 0.250000 -0.686763
v 11.561571 -0.250000 -0.686763
v 11.880506 0.250000 0.873413
v 11.880506 -0.250000 0.873413
v 11.990001 0.250000 2.499999
v 11.990001 -0.250000 2.499999
v 11.880507 0.250001 4.126585
v 11.880507 -0.249999 4.126585
v 11.561573 0.250001 5.686761
v 11.561573 -0.249999 5.686761
v 11.047500 0.250001 7.166240
v 11.047500 -0.249999 7.166240
v 10.352593 0.250001 8.550725
v 10.352593 -0.249999 8.550725
v 9.491155 0.250002 9.825912
v 9.491155 -0.249998 9.825912
v 8.477492 0.250002 10.977491
v 8.477492 -0.249998 10.977491
v 7.325913 0.250002 11.991154
v 7.325913 -0.249998 11.991154
v 6.050726 0.250002 12.852592
v 6.050726 -0.249998 12.852592
v 4.666241 0.250002 13.547499
v 4.666241 -0.249998 13.547499
v 3.186763 0.250002 14.061571
v 3.186763 -0.249998 14.061571
v 1.626587 0.250002 14.380506
v 1.626587 -0.249998 14.380506
v 0.000001 0.250002 14.490000
v 0.000001 -0.249998 14.490000
v -1.626586 0.250002 14.380507
v -1.626586 -0.249998 14.380507
v -3.186761 0.250002 14.061572
v -3.186761 -0.249998 14.061572
v -4.666240 0.250002 13.547499
v -4.666240 -0.249998 13.547499
v -6.050725 0.250002 12.852593
v -6.050725 -0.249998 12.852593
v -7.325912 0.250002 11.991155
v -7.325912 -0.249998 11.991155
v -8.477491 0.250002 10.977492
v -8.477491 -0.249998 10.977492
v -9.491154 0.250002 9.825913
v -9.491154 -0.249998 9.825913
v -10.352592 0.250001 8.550727
v -10.352592 -0.249999 8.550727
v -11.047498 0.250001 7.166241
v -11.047498 -0.249999 7.166241
v -11.561570 0.250001 5.686763
v -11.561570 -0.249999 5.686763
v -11.880506 0.250001 4.126587
v -11.880506 -0.249999 4.126587
v -11.990001 0.250000 2.500001
v -11.990001 -0.250000 2.500001
v -11.880507 0.250000 0.873414
v -11.880507 -0.250000 0.873414
v -11.561572 0.250000 -0.686761
v -11.561572 -0.250000 -0.686761
v -11.047499 0.250000 -2.166240
v -11.047499 -0.250000 -2.166240
v -10.352592 0.249999 -3.550725
v -10.352592 -0.250001 -3.550725
v -9.491154 0.249999 -4.825912
v -9.491154 -0.250001 -4.825912
v -8.477492 0.249999 -5.977491
v -8.477492 -0.250001 -5.977491
v -7.325912 0.249999 -6.991155
v -7.325912 -0.250001 -6.991155
v -6.050725 0.249999 -7.852592
v -6.050725 -0.250001 -7.852592
v -4.666241 0.249999 -8.547499
v -4.666241 -0.250001 -8.547499
v -3.186763 0.249999 -9.061571
v -3.186763 -0.250001 -9.061571
v -1.626587 0.249998 -9.380506
v -1.626587 -0.250002 -9.380506
v -3.189409 -0.249998 14.071215
v -1.626586 -0.249998 14.380507
v -1.627926 -0.249998 14.390417
v 11.890417 -0.249999 4.127926
v 11.990001 -0.250000 2.499999
v 12.000000 -0.250000 2.499999
v -10.361221 0.250001 8.555779
v -11.047498 0.250001 7.166241
v -11.056709 0.250001 7.170134
v 11.890415 0.250000 0.872073
v 11.990001 0.250000 2.499999
v 12.000000 0.250000 2.499999
v -9.499066 0.250002 9.832026
v -10.352592 0.250001 8.550727
v 11.571214 0.250000 -0.689411
v 11.880506 0.250000 0.873413
v -7.332026 0.249999 -6.999066
v -6.050725 0.249999 -7.852592
v -6.055779 0.249999 -7.861221
v 4.670134 -0.249998 13.556710
v 3.186763 -0.249998 14.061571
v 4.666241 -0.249998 13.547499
v 6.055779 0.249999 -7.861221
v 4.666240 0.249999 -8.547499
v 6.050725 0.249999 -7.852592
v 11.056711 -0.249999 7.170133
v 11.561573 -0.249999 5.686761
v 11.571216 -0.249999 5.689409
v 8.484563 0.250002 10.984562
v 9.491155 0.250002 9.825912
v 8.477492 0.250002 10.977491
v -4.666241 0.249999 -8.547499
v -4.670134 0.249999 -8.556710
v 0.000001 -0.249998 14.490000
v 0.000001 -0.249998 14.500000
v 4.670133 0.249999 -8.556710
v 3.186761 0.249999 -9.061572
v 10.361222 -0.249999 8.555779
v 11.047500 -0.249999 7.166240
v -8.484562 -0.249998 10.984563
v -7.325912 -0.249998 11.991155
v -7.332026 -0.249998 11.999067
v -11.890417 -0.250000 0.872074
v -11.990001 -0.250000 2.500001
v -12.000000 -0.250000 2.500001
v -10.361221 -0.250001 -3.555778
v -11.047499 -0.250000 -2.166240
v -11.056710 -0.250000 -2.170133
v 9.499067 0.250002 9.832026
v 10.352593 0.250001 8.550725
v 11.056710 0.250000 -2.170134
v 11.561571 0.250000 -0.686763
v 6.055779 -0.249998 12.861221
v 6.050726 -0.249998 12.852592
v 8.484562 -0.250001 -5.984562
v 7.325912 -0.250001 -6.991155
v 7.332026 -0.250001 -6.999066
v -11.561572 -0.250000 -0.686761
v -11.571215 -0.250000 -0.689409
v -6.055778 0.250002 12.861222
v -4.666240 0.250002 13.547499
v -6.050725 0.250002 12.852593
v -3.186763 0.249999 -9.061571
v -3.189411 0.249999 -9.071214
v -6.050725 -0.249998 12.852593
v -6.055778 -0.249998 12.861222
v 3.189409 0.249999 -9.071215
v 1.626586 0.249998 -9.380507
v -4.670133 0.250002 13.556710
v -3.186761 0.250002 14.061572
v -7.332026 -0.250001 -6.999066
v -6.050725 -0.250001 -7.852592
v -7.325912 -0.250001 -6.991155
v 3.189411 -0.249998 14.071214
v 1.626587 -0.249998 14.380506
v 10.361222 0.249999 -3.555779
v 11.047499 0.250000 -2.166241
v -8.484563 -0.250001 -5.984562
v -8.477492 -0.250001 -5.977491
v 1.627927 -0.249998 14.390415
v 6.050725 -0.250001 -7.852592
v 6.055779 -0.250001 -7.861221
v -1.626587 0.249998 -9.380506
v -1.627927 0.249998 -9.390415
v -9.491154 -0.249998 9.825913
v -8.477491 -0.249998 10.977492
v -11.890415 -0.249999 4.127927
v -11.880506 -0.249999 4.126587
v -9.491154 -0.250001 -4.825912
v -9.499066 -0.250001 -4.832026
v 11.571216 0.250001 5.689409
v 11.880507 0.250001 4.126585
v 11.561573 0.250001 5.686761
v 1.627926 0.249998 -9.390417
v -0.000001 0.249998 -9.490000
v -9.499066 -0.249998 9.832026
v -10.352592 -0.249999 8.550727
v -11.571213 -0.249999 5.689411
v -11.561570 -0.249999 5.686763
v -11.890415 0.250001 4.127927
v -11.990001 0.250000 2.500001
v -12.000000 0.250000 2.500001
v 9.491155 -0.250001 -4.825913
v 8.477491 -0.250001 -5.977491
v -3.189409 0.250002 14.071215
v -1.626586 0.250002 14.380507
v -1.627927 -0.250002 -9.390415
v -0.000001 -0.250002 -9.490000
v -1.626587 -0.250002 -9.380506
v -11.056709 -0.249999 7.170134
v -11.047498 -0.249999 7.166241
v 1.627927 0.250002 14.390415
v 0.000001 0.250002 14.490000
v 0.000001 0.250002 14.500000
v -11.890417 0.250000 0.872074
v -11.880507 0.250000 0.873414
v 8.484563 -0.249998 10.984562
v 7.325913 -0.249998 11.991154
v 8.477492 -0.249998 10.977491
v 11.890417 0.250001 4.127926
v 9.499067 -0.250001 -4.832027
v 10.352592 -0.250001 -3.550726
v 7.332027 -0.249998 11.999066
v 4.670134 0.250002 13.556710
v 3.186763 0.250002 14.061571
v 3.189411 0.250002 14.071214
v -1.627926 0.250002 14.390417
v 11.571214 -0.250000 -0.689411
v 11.880506 -0.250000 0.873413
v 11.561571 -0.250000 -0.686763
v -4.670134 -0.250001 -8.556710
v -3.186763 -0.250001 -9.061571
v -4.666241 -0.250001 -8.547499
v 11.056711 0.250001 7.170133
v 11.047500 0.250001 7.166240
v 11.890415 -0.250000 0.872073
v -10.352592 -0.250001 -3.550725
v 9.491155 -0.249998 9.825912
v 9.499067 -0.249998 9.832026
v -11.571215 0.250000 -0.689409
v -11.561572 0.250000 -0.686761
v -8.484562 0.250002 10.984563
v -7.325912 0.250002 11.991155
v -8.477491 0.250002 10.977492
v 4.670133 -0.250001 -8.556710
v 3.186761 -0.250001 -9.061572
v 3.189409 -0.250001 -9.071215
v -10.361221 0.249999 -3.555778
v -11.047499 0.250000 -2.166240
v -10.352592 0.249999 -3.550725
v 6.055779 0.250002 12.861221
v 4.666241 0.250002 13.547499
v 9.499067 0.249999 -4.832027
v 10.352592 0.249999 -3.550726
v 4.666240 -0.250001 -8.547499
v 11.056710 -0.250000 -2.170134
v 11.047499 -0.250000 -2.166241
v -10.361221 -0.249999 8.555779
v -8.484563 0.249999 -5.984562
v -9.491154 0.249999 -4.825912
v -8.477492 0.249999 -5.977491
v -11.056710 0.250000 -2.170133
v -7.332026 0.250002 11.999067
v 10.361222 0.250001 8.555779
v 1.626587 0.250002 14.380506
v 10.352593 -0.249999 8.550725
v 8.484562 0.249999 -5.984563
v 7.325912 0.249999 -6.991155
v 8.477491 0.249999 -5.977492
v 1.626586 -0.250002 -9.380507
v 1.627926 -0.250002 -9.390417
v -6.055779 -0.250001 -7.861221
v -11.561570 0.250001 5.686763
v -11.571213 0.250001 5.689411
v -9.491154 0.250002 9.825913
v 10.361222 -0.250001 -3.555779
v -7.325912 0.249999 -6.991155
v -4.670133 -0.249998 13.556710
v -3.186761 -0.249998 14.061572
v 7.332026 0.249999 -6.999066
v -0.000001 0.249998 -9.500000
v 11.880507 -0.249999 4.126585
v -3.189411 -0.250001 -9.071214
v -4.666240 -0.249998 13.547499
v 7.332027 0.250002 11.999066
v 6.050726 0.250002 12.852592
v -0.000001 -0.250002 -9.500000
v -11.880506 0.250001 4.126587
v -9.499066 0.249999 -4.832026
v -11.880507 -0.250000 0.873414
v 7.325913 0.250002 11.991154
v 9.491155 0.249999 -4.825913
vn 0.6726 0.0000 0.7400
vn -0.6726 0.0000 -0.7400
vn 0.0000 -1.0000 0.0000
vn 0.0000 1.0000 -0.0000
vn -0.7400 0.0000 0.6726
vn -0.7399 0.0000 0.6727
vn 0.7399 0.0000 -0.6727
vn 0.7400 0.0000 -0.6726
vn 0.6728 0.0000 -0.7399
vn -0.6728 0.0000 0.7399
vn 0.7398 0.0000 0.6728
vn -0.7399 0.0000 -0.6727
vn 0.1340 0.0000 -0.9910
vn -0.0000 0.0000 -1.0000
vn 0.2648 -0.0000 -0.9643
vn 0.3892 -0.0000 -0.9211
vn 0.5052 0.0000 -0.8630
vn 0.6115 -0.0000 -0.7912
vn 0.7071 -0.0000 -0.7071
vn 0.7912 0.0000 -0.6115
vn 0.8630 0.0000 -0.5052
vn 0.9211 -0.0000 -0.3892
vn 0.9643 0.0000 -0.2648
vn 0.9910 -0.0000 -0.1340
vn 1.0000 -0.0000 -0.0000
vn 0.9910 0.0000 0.1340
vn 0.9643 0.0000 0.2648
vn 0.9211 0.0000 0.3892
vn 0.8630 0.0000 0.5052
vn 0.7912 0.0000 0.6115
vn 0.7071 0.0000 0.7071
vn 0.6115 0.0000 0.7912
vn 0.5052 0.0000 0.8630
vn 0.3892 0.0000 0.9211
vn 0.2648 0.0000 0.9643
vn 0.1340 0.0000 0.9910
vn 0.0000 0.0000 1.0000
vn -0.1340 0.0000 0.9910
vn -0.2648 0.0000 0.9643
vn -0.3892 0.0000 0.9211
vn -0.5052 0.0000 0.8630
vn -0.6115 0.0000 0.7912
vn -0.7071 0.0000 0.7071
vn -0.7912 0.0000 0.6115
vn -0.8630 0.0000 0.5052
vn -0.9211 0.0000 0.3892
vn -0.9643 0.0000 0.2648
vn -0.9910 0.0000 0.1340
vn -1.0000 0.0000 0.0000
vn -0.9910 -0.0000 -0.1340
vn -0.9643 0.0000 -0.2648
vn -0.9211 -0.0000 -0.3892
vn -0.8630 -0.0000 -0.5052
vn -0.7912 -0.0000 -0.6115
vn -0.7071 -0.0000 -0.7071
vn -0.6115 -0.0000 -0.7912
vn -0.5052 -0.0000 -0.8630
vn -0.3892 0.0000 -0.9211
vn -0.2648 -0.0000 -0.9643
vn -0.1340 -0.0000 -0.9910
usemtl None
s 1
f 1//1 2//1 3//1
f 4//1 5//1 1//1
f 6//1 7//1 4//1
f 8//1 9//1 6//1
f 10//1 11//1 8//1
f 12//1 13//1 10//1
f 14//1 15//1 12//1
f 16//1 17//1 14//1
f 18//1 19//1 16//1
f 20//1 21//1 18//1
f 22//1 23//1 20//1
f 24//1 25//1 22//1
f 26//1 27//1 24//1
f 28//1 29//1 26//1
f 30//1 31//1 28//1
f 32//1 33//1 30//1
f 34//1 35//1 32//1
f 36//1 37//1 34//1
f 38//1 39//1 36//1
f 40//1 41//1 38//1
f 42//1 43//1 40//1
f 44//1 45//1 42//1
f 46//1 47//1 44//1
f 48//1 49//1 46//1
f 50//1 51//1 48//1
f 52//1 53//1 50//1
f 54//1 55//1 52//1
f 56//1 57//1 54//1
f 58//1 59//1 56//1
f 60//1 61//1 58//1
f 62//1 63//1 60//1
f 64//1 65//1 62//1
f 66//1 67//1 64//1
f 68//1 69//1 66//1
f 70//1 71//1 68//1
f 72//1 73//1 70//1
f 74//1 75//1 72//1
f 76//1 77//1 74//1
f 78//1 79//1 76//1
f 80//1 81//1 78//1
f 82//1 83//1 80//1
f 84//1 85//1 82//1
f 86//1 87//1 84//1
f 88//1 89//1 86//1
f 90//1 91//1 88//1
f 92//1 93//1 90//1
f 94//1 95//1 92//1
f 96//2 97//2 98//2
f 99//2 100//2 97//2
f 101//2 102//2 100//2
f 103//2 104//2 102//2
f 105//2 106//2 104//2
f 107//2 108//2 106//2
f 109//2 110//2 108//2
f 111//2 112//2 110//2
f 113//2 114//2 112//2
f 115//2 116//2 114//2
f 117//2 118//2 116//2
f 119//2 120//2 118//2
f 121//2 122//2 120//2
f 123//2 124//2 122//2
f 125//2 126//2 124//2
f 127//2 128//2 126//2
f 129//2 130//2 128//2
f 131//2 132//2 130//2
f 133//2 134//2 132//2
f 135//2 136//2 134//2
f 137//2 138//2 136//2
f 139//2 140//2 138//2
f 141//2 142//2 140//2
f 143//2 144//2 142//2
f 145//2 146//2 144//2
f 147//2 148//2 146//2
f 149//2 150//2 148//2
f 151//2 152//2 150//2
f 153//2 154//2 152//2
f 155//2 156//2 154//2
f 157//2 158//2 156//2
f 159//2 160//2 158//2
f 161//2 162//2 160//2
f 163//2 164//2 162//2
f 165//2 166//2 164//2
f 167//2 168//2 166//2
f 169//2 170//2 168//2
f 171//2 172//2 170//2
f 173//2 174//2 172//2
f 175//2 176//2 174//2
f 177//2 178//2 176//2
f 179//2 180//2 178//2
f 181//2 182//2 180//2
f 183//2 184//2 182//2
f 185//2 186//2 184//2
f 187//2 188//2 186//2
f 189//2 190//2 188//2
f 191//3 192//3 193//3
f 194//3 195//3 196//3
f 197//4 198//4 199//4
f 200//4 201//4 202//4
f 203//4 204//4 197//4
f 205//4 206//4 200//4
f 207//4 208//4 209//4
f 210//3 211//3 212//3
f 213//4 214//4 215//4
f 216//3 217//3 218//3
f 219//4 220//4 221//4
f 209//4 222//4 223//4
f 193//3 224//3 225//3
f 226//4 227//4 213//4
f 228//3 229//3 216//3
f 230//3 231//3 232//3
f 233//3 234//3 235//3
f 236//3 237//3 238//3
f 239//4 240//4 219//4
f 241//4 242//4 205//4
f 212//3 243//3 244//3
f 245//3 246//3 247//3
f 238//3 248//3 249//3
f 250//4 251//4 252//4
f 223//4 253//4 254//4
f 232//3 255//3 256//3
f 257//4 258//4 226//4
f 259//4 260//4 250//4
f 261//3 262//3 263//3
f 264//3 265//3 210//3
f 266//4 267//4 241//4
f 263//3 268//3 269//3
f 225//3 270//3 264//3
f 247//3 271//3 272//3
f 273//5 274//6 275//6
f 254//4 276//4 277//4
f 278//3 279//3 230//3
f 235//3 280//3 281//3
f 269//3 282//3 283//3
f 284//4 285//4 286//4
f 287//4 288//4 257//4
f 289//3 290//3 278//3
f 281//3 291//3 292//3
f 293//4 294//4 295//4
f 296//7 297//8 298//8
f 299//3 300//3 245//3
f 301//4 302//4 259//4
f 292//3 303//3 304//3
f 305//4 306//4 307//4
f 295//4 308//4 309//4
f 310//3 311//3 312//3
f 202//4 313//4 284//4
f 314//3 315//3 299//3
f 244//3 316//3 310//3
f 317//4 318//4 319//4
f 307//4 320//4 301//4
f 321//3 322//3 323//3
f 324//3 325//3 326//3
f 286//4 327//4 328//4
f 196//3 329//3 321//3
f 283//3 330//3 236//3
f 312//3 331//3 332//3
f 309//4 333//4 334//4
f 335//4 336//4 337//4
f 338//3 339//3 340//3
f 341//4 342//4 343//4
f 344//4 345//4 317//4
f 346//4 347//4 266//4
f 272//3 348//3 338//3
f 323//3 349//3 350//3
f 304//3 351//3 289//3
f 352//4 353//4 354//4
f 334//4 355//4 341//4
f 252//4 356//4 335//4
f 328//4 357//4 239//4
f 319//4 358//4 305//4
f 332//3 359//3 228//3
f 360//4 361//4 362//4
f 340//3 363//3 364//3
f 326//3 365//3 261//3
f 199//4 366//4 367//4
f 337//4 368//4 203//4
f 350//3 369//3 314//3
f 354//4 370//4 207//4
f 371//3 372//3 191//3
f 215//4 373//4 360//4
f 218//3 374//3 194//3
f 375//3 376//3 324//3
f 256//3 377//3 371//3
f 378//4 379//4 344//4
f 364//3 380//3 381//3
f 367//4 382//4 293//4
f 343//4 383//4 352//4
f 249//3 384//3 233//3
f 221//4 385//4 378//4
f 362//4 386//4 346//4
f 1//1 5//1 2//1
f 4//1 7//1 5//1
f 6//1 9//1 7//1
f 8//1 11//1 9//1
f 10//1 13//1 11//1
f 12//1 15//1 13//1
f 14//1 17//1 15//1
f 16//1 19//1 17//1
f 18//1 21//1 19//1
f 20//1 23//1 21//1
f 22//1 25//1 23//1
f 24//1 27//1 25//1
f 26//1 29//1 27//1
f 28//1 31//1 29//1
f 30//1 33//1 31//1
f 32//1 35//1 33//1
f 34//1 37//1 35//1
f 36//1 39//1 37//1
f 38//1 41//1 39//1
f 40//1 43//1 41//1
f 42//1 45//1 43//1
f 44//1 47//1 45//1
f 46//1 49//1 47//1
f 48//1 51//1 49//1
f 50//1 53//1 51//1
f 52//1 55//1 53//1
f 54//1 57//1 55//1
f 56//1 59//1 57//1
f 58//1 61//1 59//1
f 60//1 63//1 61//1
f 62//1 65//1 63//1
f 64//1 67//1 65//1
f 66//1 69//1 67//1
f 68//1 71//1 69//1
f 70//1 73//1 71//1
f 72//1 75//1 73//1
f 74//1 77//1 75//1
f 76//1 79//1 77//1
f 78//1 81//1 79//1
f 80//1 83//1 81//1
f 82//1 85//1 83//1
f 84//1 87//1 85//1
f 86//1 89//1 87//1
f 88//1 91//1 89//1
f 90//1 93//1 91//1
f 92//1 95//1 93//1
f 94//1 387//1 95//1
f 96//2 99//2 97//2
f 99//2 101//2 100//2
f 101//2 103//2 102//2
f 103//2 105//2 104//2
f 105//2 107//2 106//2
f 107//2 109//2 108//2
f 109//2 111//2 110//2
f 111//2 113//2 112//2
f 113//2 115//2 114//2
f 115//2 117//2 116//2
f 117//2 119//2 118//2
f 119//2 121//2 120//2
f 121//2 123//2 122//2
f 123//2 125//2 124//2
f 125//2 127//2 126//2
f 127//2 129//2 128//2
f 129//2 131//2 130//2
f 131//2 133//2 132//2
f 133//2 135//2 134//2
f 135//2 137//2 136//2
f 137//2 139//2 138//2
f 139//2 141//2 140//2
f 141//2 143//2 142//2
f 143//2 145//2 144//2
f 145//2 147//2 146//2
f 147//2 149//2 148//2
f 149//2 151//2 150//2
f 151//2 153//2 152//2
f 153//2 155//2 154//2
f 155//2 157//2 156//2
f 157//2 159//2 158//2
f 159//2 161//2 160//2
f 161//2 163//2 162//2
f 163//2 165//2 164//2
f 165//2 167//2 166//2
f 167//2 169//2 168//2
f 169//2 171//2 170//2
f 171//2 173//2 172//2
f 173//2 175//2 174//2
f 175//2 177//2 176//2
f 177//2 179//2 178//2
f 179//2 181//2 180//2
f 181//2 183//2 182//2
f 183//2 185//2 184//2
f 185//2 187//2 186//2
f 187//2 189//2 188//2
f 189//2 388//2 190//2
f 191//3 372//3 192//3
f 194//3 374//3 195//3
f 197//4 204//4 198//4
f 200//4 206//4 201//4
f 203//4 368//4 204//4
f 205//4 242//4 206//4
f 207//4 370//4 208//4
f 210//3 265//3 211//3
f 213//4 227//4 214//4
f 216//3 229//3 217//3
f 219//4 240//4 220//4
f 209//4 208//4 222//4
f 193//3 192//3 224//3
f 226//4 258//4 227//4
f 228//3 359//3 229//3
f 230//3 279//3 231//3
f 233//3 384//3 234//3
f 236//3 330//3 237//3
f 239//4 357//4 240//4
f 241//4 267//4 242//4
f 212//3 211//3 243//3
f 245//3 300//3 246//3
f 238//3 237//3 248//3
f 250//4 260//4 251//4
f 223//4 222//4 253//4
f 232//3 231//3 255//3
f 257//4 288//4 258//4
f 259//4 302//4 260//4
f 261//3 365//3 262//3
f 264//3 270//3 265//3
f 266//4 347//4 267//4
f 263//3 262//3 268//3
f 225//3 224//3 270//3
f 247//3 246//3 271//3
f 273//5 389//5 274//6
f 254//4 253//4 276//4
f 278//3 290//3 279//3
f 235//3 234//3 280//3
f 269//3 268//3 282//3
f 284//4 313//4 285//4
f 287//4 390//4 288//4
f 289//3 351//3 290//3
f 281//3 280//3 291//3
f 293//4 382//4 294//4
f 296//7 391//7 297//8
f 299//3 315//3 300//3
f 301//4 320//4 302//4
f 292//3 291//3 303//3
f 305//4 358//4 306//4
f 295//4 294//4 308//4
f 310//3 316//3 311//3
f 202//4 201//4 313//4
f 314//3 369//3 315//3
f 244//3 243//3 316//3
f 317//4 345//4 318//4
f 307//4 306//4 320//4
f 321//3 329//3 322//3
f 324//3 376//3 325//3
f 286//4 285//4 327//4
f 196//3 195//3 329//3
f 283//3 282//3 330//3
f 312//3 311//3 331//3
f 309//4 308//4 333//4
f 335//4 356//4 336//4
f 338//3 348//3 339//3
f 341//4 355//4 342//4
f 344//4 379//4 345//4
f 346//4 386//4 347//4
f 272//3 271//3 348//3
f 323//3 322//3 349//3
f 304//3 303//3 351//3
f 352//4 383//4 353//4
f 334//4 333//4 355//4
f 252//4 251//4 356//4
f 328//4 327//4 357//4
f 319//4 318//4 358//4
f 332//3 331//3 359//3
f 360//4 373//4 361//4
f 340//3 339//3 363//3
f 326//3 325//3 365//3
f 199//4 198//4 366//4
f 337//4 336//4 368//4
f 350//3 349//3 369//3
f 354//4 353//4 370//4
f 371//3 377//3 372//3
f 215//4 214//4 373//4
f 218//3 217//3 374//3
f 375//3 392//3 376//3
f 256//3 255//3 377//3
f 378//4 385//4 379//4
f 364//3 363//3 380//3
f 367//4 366//4 382//4
f 343//4 342//4 383//4
f 249//3 248//3 384//3
f 221//4 220//4 385//4
f 362//4 361//4 386//4
f 393//9 394//9 395//9
f 396//9 397//9 393//9
f 398//9 399//9 396//9
f 400//9 401//9 398//9
f 402//9 403//9 400//9
f 404//9 405//9 402//9
f 406//9 407//9 404//9
f 408//9 409//9 406//9
f 410//9 411//9 408//9
f 412//9 413//9 410//9
f 414//9 415//9 412//9
f 416//9 417//9 414//9
f 418//9 419//9 416//9
f 420//9 421//9 418//9
f 422//9 423//9 420//9
f 424//9 425//9 422//9
f 426//9 427//9 424//9
f 428//9 429//9 426//9
f 430//9 431//9 428//9
f 432//9 433//9 430//9
f 434//9 435//9 432//9
f 436//9 437//9 434//9
f 438//9 439//9 436//9
f 440//9 441//9 438//9
f 442//9 443//9 440//9
f 444//9 445//9 442//9
f 446//9 447//9 444//9
f 448//9 449//9 446//9
f 450//9 451//9 448//9
f 452//9 453//9 450//9
f 454//9 455//9 452//9
f 456//9 457//9 454//9
f 458//9 459//9 456//9
f 460//9 461//9 458//9
f 462//9 463//9 460//9
f 464//9 465//9 462//9
f 466//9 467//9 464//9
f 468//9 469//9 466//9
f 470//9 471//9 468//9
f 472//9 473//9 470//9
f 474//9 475//9 472//9
f 476//9 477//9 474//9
f 478//9 479//9 476//9
f 480//9 481//9 478//9
f 482//9 483//9 480//9
f 484//9 485//9 482//9
f 486//9 487//9 484//9
f 488//10 489//10 490//10
f 491//10 492//10 489//10
f 493//10 494//10 492//10
f 495//10 496//10 494//10
f 497//10 498//10 496//10
f 499//10 500//10 498//10
f 501//10 502//10 500//10
f 503//10 504//10 502//10
f 505//10 506//10 504//10
f 507//10 508//10 506//10
f 509//10 510//10 508//10
f 511//10 512//10 510//10
f 513//10 514//10 512//10
f 515//10 516//10 514//10
f 517//10 518//10 516//10
f 519//10 520//10 518//10
f 521//10 522//10 520//10
f 523//10 524//10 522//10
f 525//10 526//10 524//10
f 527//10 528//10 526//10
f 529//10 530//10 528//10
f 531//10 532//10 530//10
f 533//10 534//10 532//10
f 535//10 536//10 534//10
f 537//10 538//10 536//10
f 539//10 540//10 538//10
f 541//10 542//10 540//10
f 543//10 544//10 542//10
f 545//10 546//10 544//10
f 547//10 548//10 546//10
f 549//10 550//10 548//10
f 551//10 552//10 550//10
f 553//10 554//10 552//10
f 555//10 556//10 554//10
f 557//10 558//10 556//10
f 559//10 560//10 558//10
f 561//10 562//10 560//10
f 563//10 564//10 562//10
f 565//10 566//10 564//10
f 567//10 568//10 566//10
f 569//10 570//10 568//10
f 571//10 572//10 570//10
f 573//10 574//10 572//10
f 575//10 576//10 574//10
f 577//10 578//10 576//10
f 579//10 580//10 578//10
f 581//10 582//10 580//10
f 583//3 584//3 585//3
f 586//3 587//3 588//3
f 589//4 590//4 591//4
f 592//4 593//4 594//4
f 595//4 596//4 589//4
f 597//4 598//4 592//4
f 599//4 600//4 601//4
f 602//3 603//3 604//3
f 605//4 606//4 607//4
f 608//3 609//3 610//3
f 611//4 612//4 613//4
f 601//4 614//4 615//4
f 585//3 616//3 617//3
f 618//4 619//4 605//4
f 620//3 621//3 608//3
f 622//3 623//3 624//3
f 625//3 626//3 627//3
f 628//3 629//3 630//3
f 631//4 632//4 611//4
f 633//4 634//4 597//4
f 604//3 635//3 636//3
f 637//3 638//3 639//3
f 630//3 640//3 641//3
f 642//4 643//4 644//4
f 615//4 645//4 646//4
f 624//3 647//3 648//3
f 649//4 650//4 618//4
f 651//4 652//4 642//4
f 653//3 654//3 655//3
f 656//3 657//3 602//3
f 658//4 659//4 633//4
f 655//3 660//3 661//3
f 617//3 662//3 656//3
f 639//3 663//3 664//3
f 665//11 666//11 667//11
f 646//4 668//4 669//4
f 670//3 671//3 622//3
f 627//3 672//3 673//3
f 661//3 674//3 675//3
f 676//4 677//4 678//4
f 679//4 680//4 649//4
f 681//3 682//3 670//3
f 673//3 683//3 684//3
f 685//4 686//4 687//4
f 688//12 689//12 690//12
f 691//3 692//3 637//3
f 693//4 694//4 651//4
f 684//3 695//3 696//3
f 697//4 698//4 699//4
f 687//4 700//4 701//4
f 702//3 703//3 704//3
f 594//4 705//4 676//4
f 706//3 707//3 691//3
f 636//3 708//3 702//3
f 709//4 710//4 711//4
f 699//4 712//4 693//4
f 713//3 714//3 715//3
f 716//3 717//3 718//3
f 678//4 719//4 720//4
f 588//3 721//3 713//3
f 675//3 722//3 628//3
f 704//3 723//3 724//3
f 701//4 725//4 726//4
f 727//4 728//4 729//4
f 730//3 731//3 732//3
f 733//4 734//4 735//4
f 736//4 737//4 709//4
f 738//4 739//4 658//4
f 664//3 740//3 730//3
f 715//3 741//3 742//3
f 696//3 743//3 681//3
f 744//4 745//4 746//4
f 726//4 747//4 733//4
f 644//4 748//4 727//4
f 720//4 749//4 631//4
f 711//4 750//4 697//4
f 724//3 751//3 620//3
f 752//4 753//4 754//4
f 732//3 755//3 756//3
f 718//3 757//3 653//3
f 591//4 758//4 759//4
f 729//4 760//4 595//4
f 742//3 761//3 706//3
f 746//4 762//4 599//4
f 763//3 764//3 583//3
f 607//4 765//4 752//4
f 610//3 766//3 586//3
f 767//3 768//3 716//3
f 648//3 769//3 763//3
f 770//4 771//4 736//4
f 756//3 772//3 773//3
f 759//4 774//4 685//4
f 735//4 775//4 744//4
f 641//3 776//3 625//3
f 613//4 777//4 770//4
f 754//4 778//4 738//4
f 393//9 397//9 394//9
f 396//9 399//9 397//9
f 398//9 401//9 399//9
f 400//9 403//9 401//9
f 402//9 405//9 403//9
f 404//9 407//9 405//9
f 406//9 409//9 407//9
f 408//9 411//9 409//9
f 410//9 413//9 411//9
f 412//9 415//9 413//9
f 414//9 417//9 415//9
f 416//9 419//9 417//9
f 418//9 421//9 419//9
f 420//9 423//9 421//9
f 422//9 425//9 423//9
f 424//9 427//9 425//9
f 426//9 429//9 427//9
f 428//9 431//9 429//9
f 430//9 433//9 431//9
f 432//9 435//9 433//9
f 434//9 437//9 435//9
f 436//9 439//9 437//9
f 438//9 441//9 439//9
f 440//9 443//9 441//9
f 442//9 445//9 443//9
f 444//9 447//9 445//9
f 446//9 449//9 447//9
f 448//9 451//9 449//9
f 450//9 453//9 451//9
f 452//9 455//9 453//9
f 454//9 457//9 455//9
f 456//9 459//9 457//9
f 458//9 461//9 459//9
f 460//9 463//9 461//9
f 462//9 465//9 463//9
f 464//9 467//9 465//9
f 466//9 469//9 467//9
f 468//9 471//9 469//9
f 470//9 473//9 471//9
f 472//9 475//9 473//9
f 474//9 477//9 475//9
f 476//9 479//9 477//9
f 478//9 481//9 479//9
f 480//9 483//9 481//9
f 482//9 485//9 483//9
f 484//9 487//9 485//9
f 486//9 779//9 487//9
f 488//10 491//10 489//10
f 491//10 493//10 492//10
f 493//10 495//10 494//10
f 495//10 497//10 496//10
f 497//10 499//10 498//10
f 499//10 501//10 500//10
f 501//10 503//10 502//10
f 503//10 505//10 504//10
f 505//10 507//10 506//10
f 507//10 509//10 508//10
f 509//10 511//10 510//10
f 511//10 513//10 512//10
f 513//10 515//10 514//10
f 515//10 517//10 516//10
f 517//10 519//10 518//10
f 519//10 521//10 520//10
f 521//10 523//10 522//10
f 523//10 525//10 524//10
f 525//10 527//10 526//10
f 527//10 529//10 528//10
f 529//10 531//10 530//10
f 531//10 533//10 532//10
f 533//10 535//10 534//10
f 535//10 537//10 536//10
f 537//10 539//10 538//10
f 539//10 541//10 540//10
f 541//10 543//10 542//10
f 543//10 545//10 544//10
f 545//10 547//10 546//10
f 547//10 549//10 548//10
f 549//10 551//10 550//10
f 551//10 553//10 552//10
f 553//10 555//10 554//10
f 555//10 557//10 556//10
f 557//10 559//10 558//10
f 559//10 561//10 560//10
f 561//10 563//10 562//10
f 563//10 565//10 564//10
f 565//10 567//10 566//10
f 567//10 569//10 568//10
f 569//10 571//10 570//10
f 571//10 573//10 572//10
f 573//10 575//10 574//10
f 575//10 577//10 576//10
f 577//10 579//10 578//10
f 579//10 581//10 580//10
f 581//10 780//10 582//10
f 583//3 764//3 584//3
f 586//3 766//3 587//3
f 589//4 596//4 590//4
f 592//4 598//4 593//4
f 595//4 760//4 596//4
f 597//4 634//4 598//4
f 599//4 762//4 600//4
f 602//3 657//3 603//3
f 605//4 619//4 606//4
f 608//3 621//3 609//3
f 611//4 632//4 612//4
f 601//4 600//4 614//4
f 585//3 584//3 616//3
f 618//4 650//4 619//4
f 620//3 751//3 621//3
f 622//3 671//3 623//3
f 625//3 776//3 626//3
f 628//3 722//3 629//3
f 631//4 749//4 632//4
f 633//4 659//4 634//4
f 604//3 603//3 635//3
f 637//3 692//3 638//3
f 630//3 629//3 640//3
f 642//4 652//4 643//4
f 615//4 614//4 645//4
f 624//3 623//3 647//3
f 649//4 680//4 650//4
f 651//4 694//4 652//4
f 653//3 757//3 654//3
f 656//3 662//3 657//3
f 658//4 739//4 659//4
f 655//3 654//3 660//3
f 617//3 616//3 662//3
f 639//3 638//3 663//3
f 665//11 781//11 666//11
f 646//4 645//4 668//4
f 670//3 682//3 671//3
f 627//3 626//3 672//3
f 661//3 660//3 674//3
f 676//4 705//4 677//4
f 679//4 782//4 680//4
f 681//3 743//3 682//3
f 673//3 672//3 683//3
f 685//4 774//4 686//4
f 688//12 783//12 689//12
f 691//3 707//3 692//3
f 693//4 712//4 694//4
f 684//3 683//3 695//3
f 697//4 750//4 698//4
f 687//4 686//4 700//4
f 702//3 708//3 703//3
f 594//4 593//4 705//4
f 706//3 761//3 707//3
f 636//3 635//3 708//3
f 709//4 737//4 710//4
f 699//4 698//4 712//4
f 713//3 721//3 714//3
f 716//3 768//3 717//3
f 678//4 677//4 719//4
f 588//3 587//3 721//3
f 675//3 674//3 722//3
f 704//3 703//3 723//3
f 701//4 700//4 725//4
f 727//4 748//4 728//4
f 730//3 740//3 731//3
f 733//4 747//4 734//4
f 736//4 771//4 737//4
f 738//4 778//4 739//4
f 664//3 663//3 740//3
f 715//3 714//3 741//3
f 696//3 695//3 743//3
f 744//4 775//4 745//4
f 726//4 725//4 747//4
f 644//4 643//4 748//4
f 720//4 719//4 749//4
f 711//4 710//4 750//4
f 724//3 723//3 751//3
f 752//4 765//4 753//4
f 732//3 731//3 755//3
f 718//3 717//3 757//3
f 591//4 590//4 758//4
f 729//4 728//4 760//4
f 742//3 741//3 761//3
f 746//4 745//4 762//4
f 763//3 769//3 764//3
f 607//4 606//4 765//4
f 610//3 609//3 766//3
f 767//3 784//3 768//3
f 648//3 647//3 769//3
f 770//4 777//4 771//4
f 756//3 755//3 772//3
f 759//4 758//4 774//4
f 735//4 734//4 775//4
f 641//3 640//3 776//3
f 613//4 612//4 777//4
f 754//4 753//4 778//4
f 785//13 786//14 787//14
f 788//15 789//13 785//13
f 790//16 791//15 788//15
f 792//17 793//16 790//16
f 794//18 795//17 792//17
f 796//19 797//18 794//18
f 798//20 799//19 796//19
f 800//21 801//20 798//20
f 802//22 803//21 800//21
f 804//23 805//22 802//22
f 806//24 807//23 804//23
f 808//25 809//24 806//24
f 810//26 811//25 808//25
f 812//27 813//26 810//26
f 814//28 815//27 812//27
f 816//29 817//28 814//28
f 818//30 819//29 816//29
f 820//31 821//30 818//30
f 822//32 823//31 820//31
f 824//33 825//32 822//32
f 826//34 827//33 824//33
f 828//35 829//34 826//34
f 830//36 831//35 828//35
f 832//37 833//36 830//36
f 834//38 835//37 832//37
f 836//39 837//38 834//38
f 838//40 839//39 836//39
f 840//41 841//40 838//40
f 842//42 843//41 840//41
f 844//43 845//42 842//42
f 846//44 847//43 844//43
f 848//45 849//44 846//44
f 850//46 851//45 848//45
f 852//47 853//46 850//46
f 854//48 855//47 852//47
f 856//49 857//48 854//48
f 858//50 859//49 856//49
f 860//51 861//50 858//50
f 862//52 863//51 860//51
f 864//53 865//52 862//52
f 866//54 867//53 864//53
f 868//55 869//54 866//54
f 870//56 871//55 868//55
f 872//57 873//56 870//56
f 874//58 875//57 872//57
f 876//59 877//58 874//58
f 878//60 879//59 876//59
f 787//14 880//60 878//60
f 881//37 882//38 883//37
f 884//38 885//39 882//38
f 886//39 887//40 885//39
f 888//40 889//41 887//40
f 890//41 891//42 889//41
f 892//42 893//43 891//42
f 894//43 895//44 893//43
f 896//44 897//45 895//44
f 898//45 899//46 897//45
f 900//46 901//47 899//46
f 902//47 903//48 901//47
f 904//48 905//49 903//48
f 906//49 907//50 905//49
f 908//50 909//51 907//50
f 910//51 911//52 909//51
f 912//52 913//53 911//52
f 914//53 915//54 913//53
f 916//54 917//55 915//54
f 918//55 919//56 917//55
f 920//56 921//57 919//56
f 922//57 923//58 921//57
f 924//58 925//59 923//58
f 926//59 927//60 925//59
f 928//60 929//14 927//60
f 930//14 931//13 929//14
f 932//13 933//15 931//13
f 934//15 935//16 933//15
f 936//16 937//17 935//16
f 938//17 939//18 937//17
f 940//18 941//19 939//18
f 942//19 943//20 941//19
f 944//20 945//21 943//20
f 946//21 947//22 945//21
f 948//22 949//23 947//22
f 950//23 951//24 949//23
f 952//24 953//25 951//24
f 954//25 955//26 953//25
f 956//26 957//27 955//26
f 958//27 959//28 957//27
f 960//28 961//29 959//28
f 962//29 963//30 961//29
f 964//30 965//31 963//30
f 966//31 967//32 965//31
f 968//32 969//33 967//32
f 970//33 971//34 969//33
f 972//34 973//35 971//34
f 974//35 975//36 973//35
f 976//36 883//37 975//36
f 977//3 978//3 979//3
f 980//3 981//3 982//3
f 983//4 984//4 985//4
f 986//4 987//4 988//4
f 989//4 990//4 983//4
f 991//4 992//4 986//4
f 993//4 994//4 995//4
f 996//3 997//3 998//3
f 999//4 1000//4 1001//4
f 1002//3 1003//3 1004//3
f 1005//4 1006//4 1007//4
f 995//4 1008//4 1009//4
f 979//3 1010//3 1011//3
f 1012//4 1013//4 1000//4
f 1014//3 1015//3 1002//3
f 1016//3 1017//3 1018//3
f 1019//3 1020//3 1021//3
f 1022//3 1023//3 1024//3
f 1025//4 1026//4 1006//4
f 1027//4 1028//4 991//4
f 1029//3 998//3 1030//3
f 1031//3 1032//3 1033//3
f 1024//3 1034//3 1035//3
f 1036//4 1037//4 1038//4
f 1009//4 1039//4 1040//4
f 1018//3 1041//3 1042//3
f 1043//4 1044//4 1013//4
f 1045//4 1046//4 1037//4
f 1047//3 1048//3 1049//3
f 1050//3 1051//3 997//3
f 1052//4 1053//4 1027//4
f 1054//3 1049//3 1055//3
f 1056//3 1010//3 1051//3
f 1033//3 1057//3 1058//3
f 1040//4 1059//4 1060//4
f 1016//3 1061//3 1062//3
f 1063//3 1020//3 1064//3
f 1054//3 1065//3 1066//3
f 1067//4 1068//4 1069//4
f 1070//4 1071//4 1044//4
f 1072//3 1073//3 1061//3
f 1074//3 1064//3 1075//3
f 1076//4 1077//4 1078//4
f 1031//3 1079//3 1080//3
f 1081//4 1082//4 1046//4
f 1083//3 1084//3 1085//3
f 1086//3 1075//3 1087//3
f 1088//4 1089//4 1090//4
f 1091//4 1077//4 1092//4
f 1093//3 1094//3 1095//3
f 1096//4 987//4 1068//4
f 1097//3 1098//3 1079//3
f 1099//3 1030//3 1094//3
f 1100//4 1101//4 1102//4
f 1103//4 1089//4 1082//4
f 1104//3 1105//3 1106//3
f 1107//3 1108//3 1109//3
f 1110//4 1069//4 1111//4
f 1112//3 981//3 1105//3
f 1066//3 1113//3 1022//3
f 1093//3 1114//3 1115//3
f 1116//4 1092//4 1117//4
f 1118//4 1119//4 1120//4
f 1121//3 1122//3 1123//3
f 1124//4 1125//4 1126//4
f 1127//4 1128//4 1100//4
f 1129//4 1130//4 1052//4
f 1058//3 1131//3 1121//3
f 1132//3 1106//3 1133//3
f 1134//3 1087//3 1073//3
f 1135//4 1136//4 1137//4
f 1138//4 1117//4 1125//4
f 1139//4 1038//4 1119//4
f 1140//4 1111//4 1026//4
f 1102//4 1141//4 1088//4
f 1115//3 1142//3 1014//3
f 1143//4 1144//4 1145//4
f 1123//3 1146//3 1147//3
f 1148//3 1109//3 1048//3
f 985//4 1149//4 1150//4
f 1118//4 1151//4 989//4
f 1152//3 1133//3 1098//3
f 1135//4 1153//4 993//4
f 1154//3 1155//3 977//3
f 1156//4 1001//4 1144//4
f 1060//4 1071//4 1157//4
f 1004//3 1158//3 980//3
f 1159//3 1085//3 1108//3
f 1042//3 1160//3 1154//3
f 1161//4 1162//4 1127//4
f 1147//3 1084//3 1163//3
f 1150//4 1164//4 1076//4
f 1165//4 1126//4 1136//4
f 1035//3 1166//3 1019//3
f 1005//4 1167//4 1161//4
f 1143//4 1168//4 1129//4
f 785//13 789//13 786//14
f 788//15 791//15 789//13
f 790//16 793//16 791//15
f 792//17 795//17 793//16
f 794//18 797//18 795//17
f 796//19 799//19 797//18
f 798//20 801//20 799//19
f 800//21 803//21 801//20
f 802//22 805//22 803//21
f 804//23 807//23 805//22
f 806//24 809//24 807//23
f 808//25 811//25 809//24
f 810//26 813//26 811//25
f 812//27 815//27 813//26
f 814//28 817//28 815//27
f 816//29 819//29 817//28
f 818//30 821//30 819//29
f 820//31 823//31 821//30
f 822//32 825//32 823//31
f 824//33 827//33 825//32
f 826//34 829//34 827//33
f 828//35 831//35 829//34
f 830//36 833//36 831//35
f 832//37 835//37 833//36
f 834//38 837//38 835//37
f 836//39 839//39 837//38
f 838//40 841//40 839//39
f 840//41 843//41 841//40
f 842//42 845//42 843//41
f 844//43 847//43 845//42
f 846//44 849//44 847//43
f 848//45 851//45 849//44
f 850//46 853//46 851//45
f 852//47 855//47 853//46
f 854//48 857//48 855//47
f 856//49 859//49 857//48
f 858//50 861//50 859//49
f 860//51 863//51 861//50
f 862//52 865//52 863//51
f 864//53 867//53 865//52
f 866//54 869//54 867//53
f 868//55 871//55 869//54
f 870//56 873//56 871//55
f 872//57 875//57 873//56
f 874//58 877//58 875//57
f 876//59 879//59 877//58
f 878//60 880//60 879//59
f 787//14 786//14 880//60
f 881//37 884//38 882//38
f 884//38 886//39 885//39
f 886//39 888//40 887//40
f 888//40 890//41 889//41
f 890//41 892//42 891//42
f 892//42 894//43 893//43
f 894//43 896//44 895//44
f 896//44 898//45 897//45
f 898//45 900//46 899//46
f 900//46 902//47 901//47
f 902//47 904//48 903//48
f 904//48 906//49 905//49
f 906//49 908//50 907//50
f 908//50 910//51 909//51
f 910//51 912//52 911//52
f 912//52 914//53 913//53
f 914//53 916//54 915//54
f 916//54 918//55 917//55
f 918//55 920//56 919//56
f 920//56 922//57 921//57
f 922//57 924//58 923//58
f 924//58 926//59 925//59
f 926//59 928//60 927//60
f 928//60 930//14 929//14
f 930//14 932//13 931//13
f 932//13 934//15 933//15
f 934//15 936//16 935//16
f 936//16 938//17 937//17
f 938//17 940//18 939//18
f 940//18 942//19 941//19
f 942//19 944//20 943//20
f 944//20 946//21 945//21
f 946//21 948//22 947//22
f 948//22 950//23 949//23
f 950//23 952//24 951//24
f 952//24 954//25 953//25
f 954//25 956//26 955//26
f 956//26 958//27 957//27
f 958//27 960//28 959//28
f 960//28 962//29 961//29
f 962//29 964//30 963//30
f 964//30 966//31 965//31
f 966//31 968//32 967//32
f 968//32 970//33 969//33
f 970//33 972//34 971//34
f 972//34 974//35 973//35
f 974//35 976//36 975//36
f 976//36 881//37 883//37
f 977//3 1155//3 978//3
f 980//3 1158//3 981//3
f 983//4 990//4 984//4
f 986//4 992//4 987//4
f 989//4 1151//4 990//4
f 991//4 1028//4 992//4
f 993//4 1153//4 994//4
f 996//3 1050//3 997//3
f 999//4 1012//4 1000//4
f 1002//3 1015//3 1003//3
f 1005//4 1025//4 1006//4
f 995//4 994//4 1008//4
f 979//3 978//3 1010//3
f 1012//4 1043//4 1013//4
f 1014//3 1142//3 1015//3
f 1016//3 1062//3 1017//3
f 1019//3 1166//3 1020//3
f 1022//3 1113//3 1023//3
f 1025//4 1140//4 1026//4
f 1027//4 1053//4 1028//4
f 1029//3 996//3 998//3
f 1031//3 1080//3 1032//3
f 1024//3 1023//3 1034//3
f 1036//4 1045//4 1037//4
f 1009//4 1008//4 1039//4
f 1018//3 1017//3 1041//3
f 1043//4 1070//4 1044//4
f 1045//4 1081//4 1046//4
f 1047//3 1148//3 1048//3
f 1050//3 1056//3 1051//3
f 1052//4 1130//4 1053//4
f 1054//3 1047//3 1049//3
f 1056//3 1011//3 1010//3
f 1033//3 1032//3 1057//3
f 1040//4 1039//4 1059//4
f 1016//3 1072//3 1061//3
f 1063//3 1021//3 1020//3
f 1054//3 1055//3 1065//3
f 1067//4 1096//4 1068//4
f 1070//4 1157//4 1071//4
f 1072//3 1134//3 1073//3
f 1074//3 1063//3 1064//3
f 1076//4 1164//4 1077//4
f 1031//3 1097//3 1079//3
f 1081//4 1103//4 1082//4
f 1083//3 1163//3 1084//3
f 1086//3 1074//3 1075//3
f 1088//4 1141//4 1089//4
f 1091//4 1078//4 1077//4
f 1093//3 1099//3 1094//3
f 1096//4 988//4 987//4
f 1097//3 1152//3 1098//3
f 1099//3 1029//3 1030//3
f 1100//4 1128//4 1101//4
f 1103//4 1090//4 1089//4
f 1104//3 1112//3 1105//3
f 1107//3 1159//3 1108//3
f 1110//4 1067//4 1069//4
f 1112//3 982//3 981//3
f 1066//3 1065//3 1113//3
f 1093//3 1095//3 1114//3
f 1116//4 1091//4 1092//4
f 1118//4 1139//4 1119//4
f 1121//3 1131//3 1122//3
f 1124//4 1138//4 1125//4
f 1127//4 1162//4 1128//4
f 1129//4 1168//4 1130//4
f 1058//3 1057//3 1131//3
f 1132//3 1104//3 1106//3
f 1134//3 1086//3 1087//3
f 1135//4 1165//4 1136//4
f 1138//4 1116//4 1117//4
f 1139//4 1036//4 1038//4
f 1140//4 1110//4 1111//4
f 1102//4 1101//4 1141//4
f 1115//3 1114//3 1142//3
f 1143//4 1156//4 1144//4
f 1123//3 1122//3 1146//3
f 1148//3 1107//3 1109//3
f 985//4 984//4 1149//4
f 1118//4 1120//4 1151//4
f 1152//3 1132//3 1133//3
f 1135//4 1137//4 1153//4
f 1154//3 1160//3 1155//3
f 1156//4 999//4 1001//4
f 1060//4 1059//4 1071//4
f 1004//3 1003//3 1158//3
f 1159//3 1083//3 1085//3
f 1042//3 1041//3 1160//3
f 1161//4 1167//4 1162//4
f 1147//3 1146//3 1084//3
f 1150//4 1149//4 1164//4
f 1165//4 1124//4 1126//4
f 1035//3 1034//3 1166//3
f 1005//4 1007//4 1167//4
f 1143//4 1145//4 1168//4
f 1169//13 1170//14 1171//14
f 1172//15 1173//13 1169//13
f 1174//16 1175//15 1172//15
f 1176//17 1177//16 1174//16
f 1178//18 1179//17 1176//17
f 1180//19 1181//18 1178//18
f 1182//20 1183//19 1180//19
f 1184//21 1185//20 1182//20
f 1186//22 1187//21 1184//21
f 1188//23 1189//22 1186//22
f 1190//24 1191//23 1188//23
f 1192//25 1193//24 1190//24
f 1194//26 1195//25 1192//25
f 1196//27 1197//26 1194//26
f 1198//28 1199//27 1196//27
f 1200//29 1201//28 1198//28
f 1202//30 1203//29 1200//29
f 1204//31 1205//30 1202//30
f 1206//32 1207//31 1204//31
f 1208//33 1209//32 1206//32
f 1210//34 1211//33 1208//33
f 1212//35 1213//34 1210//34
f 1214//36 1215//35 1212//35
f 1216//37 1217//36 1214//36
f 1218//38 1219//37 1216//37
f 1220//39 1221//38 1218//38
f 1222//40 1223//39 1220//39
f 1224//41 1225//40 1222//40
f 1226//42 1227//41 1224//41
f 1228//43 1229//42 1226//42
f 1230//44 1231//43 1228//43
f 1232//45 1233//44 1230//44
f 1234//46 1235//45 1232//45
f 1236//47 1237//46 1234//46
f 1238//48 1239//47 1236//47
f 1240//49 1241//48 1238//48
f 1242//50 1243//49 1240//49
f 1244//51 1245//50 1242//50
f 1246//52 1247//51 1244//51
f 1248//53 1249//52 1246//52
f 1250//54 1251//53 1248//53
f 1252//55 1253//54 1250//54
f 1254//56 1255//55 1252//55
f 1256//57 1257//56 1254//56
f 1258//58 1259//57 1256//57
f 1260//59 1261//58 1258//58
f 1262//60 1263//59 1260//59
f 1171//14 1264//60 1262//60
f 1265//37 1266//38 1267//37
f 1268//38 1269//39 1266//38
f 1270//39 1271//40 1269//39
f 1272//40 1273//41 1271//40
f 1274//41 1275//42 1273//41
f 1276//42 1277//43 1275//42
f 1278//43 1279//44 1277//43
f 1280//44 1281//45 1279//44
f 1282//45 1283//46 1281//45
f 1284//46 1285//47 1283//46
f 1286//47 1287//48 1285//47
f 1288//48 1289//49 1287//48
f 1290//49 1291//50 1289//49
f 1292//50 1293//51 1291//50
f 1294//51 1295//52 1293//51
f 1296//52 1297//53 1295//52
f 1298//53 1299//54 1297//53
f 1300//54 1301//55 1299//54
f 1302//55 1303//56 1301//55
f 1304//56 1305//57 1303//56
f 1306//57 1307//58 1305//57
f 1308//58 1309//59 1307//58
f 1310//59 1311//60 1309//59
f 1312//60 1313//14 1311//60
f 1314//14 1315//13 1313//14
f 1316//13 1317//15 1315//13
f 1318//15 1319//16 1317//15
f 1320//16 1321//17 1319//16
f 1322//17 1323//18 1321//17
f 1324//18 1325//19 1323//18
f 1326//19 1327//20 1325//19
f 1328//20 1329//21 1327//20
f 1330//21 1331//22 1329//21
f 1332//22 1333//23 1331//22
f 1334//23 1335//24 1333//23
f 1336//24 1337//25 1335//24
f 1338//25 1339//26 1337//25
f 1340//26 1341//27 1339//26
f 1342//27 1343//28 1341//27
f 1344//28 1345//29 1343//28
f 1346//29 1347//30 1345//29
f 1348//30 1349//31 1347//30
f 1350//31 1351//32 1349//31
f 1352//32 1353//33 1351//32
f 1354//33 1355//34 1353//33
f 1356//34 1357//35 1355//34
f 1358//35 1359//36 1357//35
f 1360//36 1267//37 1359//36
f 1361//3 1362//3 1363//3
f 1364//3 1365//3 1366//3
f 1367//4 1368//4 1369//4
f 1370//4 1371//4 1372//4
f 1373//4 1374//4 1367//4
f 1375//4 1376//4 1370//4
f 1377//4 1378//4 1379//4
f 1380//3 1381//3 1382//3
f 1383//4 1384//4 1385//4
f 1386//3 1387//3 1388//3
f 1389//4 1390//4 1391//4
f 1379//4 1392//4 1393//4
f 1363//3 1394//3 1395//3
f 1396//4 1397//4 1384//4
f 1398//3 1399//3 1386//3
f 1400//3 1401//3 1402//3
f 1403//3 1404//3 1405//3
f 1406//3 1407//3 1408//3
f 1409//4 1410//4 1390//4
f 1411//4 1412//4 1375//4
f 1413//3 1382//3 1414//3
f 1415//3 1416//3 1417//3
f 1408//3 1418//3 1419//3
f 1420//4 1421//4 1422//4
f 1393//4 1423//4 1424//4
f 1402//3 1425//3 1426//3
f 1427//4 1428//4 1397//4
f 1429//4 1430//4 1421//4
f 1431//3 1432//3 1433//3
f 1434//3 1435//3 1381//3
f 1436//4 1437//4 1411//4
f 1438//3 1433//3 1439//3
f 1440//3 1394//3 1435//3
f 1417//3 1441//3 1442//3
f 1424//4 1443//4 1444//4
f 1400//3 1445//3 1446//3
f 1447//3 1404//3 1448//3
f 1438//3 1449//3 1450//3
f 1451//4 1452//4 1453//4
f 1454//4 1455//4 1428//4
f 1456//3 1457//3 1445//3
f 1458//3 1448//3 1459//3
f 1460//4 1461//4 1462//4
f 1415//3 1463//3 1464//3
f 1465//4 1466//4 1430//4
f 1467//3 1468//3 1469//3
f 1470//3 1459//3 1471//3
f 1472//4 1473//4 1474//4
f 1475//4 1461//4 1476//4
f 1477//3 1478//3 1479//3
f 1480//4 1371//4 1452//4
f 1481//3 1482//3 1463//3
f 1483//3 1414//3 1478//3
f 1484//4 1485//4 1486//4
f 1487//4 1473//4 1466//4
f 1488//3 1489//3 1490//3
f 1491//3 1492//3 1493//3
f 1494//4 1453//4 1495//4
f 1496//3 1365//3 1489//3
f 1450//3 1497//3 1406//3
f 1477//3 1498//3 1499//3
f 1500//4 1476//4 1501//4
f 1502//4 1503//4 1504//4
f 1505//3 1506//3 1507//3
f 1508//4 1509//4 1510//4
f 1511//4 1512//4 1484//4
f 1513//4 1514//4 1436//4
f 1442//3 1515//3 1505//3
f 1516//3 1490//3 1517//3
f 1518//3 1471//3 1457//3
f 1519//4 1520//4 1521//4
f 1522//4 1501//4 1509//4
f 1523//4 1422//4 1503//4
f 1524//4 1495//4 1410//4
f 1486//4 1525//4 1472//4
f 1499//3 1526//3 1398//3
f 1527//4 1528//4 1529//4
f 1507//3 1530//3 1531//3
f 1532//3 1493//3 1432//3
f 1369//4 1533//4 1534//4
f 1502//4 1535//4 1373//4
f 1536//3 1517//3 1482//3
f 1519//4 1537//4 1377//4
f 1538//3 1539//3 1361//3
f 1540//4 1385//4 1528//4
f 1444//4 1455//4 1541//4
f 1388//3 1542//3 1364//3
f 1543//3 1469//3 1492//3
f 1426//3 1544//3 1538//3
f 1545//4 1546//4 1511//4
f 1531//3 1468//3 1547//3
f 1534//4 1548//4 1460//4
f 1549//4 1510//4 1520//4
f 1419//3 1550//3 1403//3
f 1389//4 1551//4 1545//4
f 1527//4 1552//4 1513//4
f 1169//13 1173//13 1170//14
f 1172//15 1175//15 1173//13
f 1174//16 1177//16 1175//15
f 1176//17 1179//17 1177//16
f 1178//18 1181//18 1179//17
f 1180//19 1183//19 1181//18
f 1182//20 1185//20 1183//19
f 1184//21 1187//21 1185//20
f 1186//22 1189//22 1187//21
f 1188//23 1191//23 1189//22
f 1190//24 1193//24 1191//23
f 1192//25 1195//25 1193//24
f 1194//26 1197//26 1195//25
f 1196//27 1199//27 1197//26
f 1198//28 1201//28 1199//27
f 1200//29 1203//29 1201//28
f 1202//30 1205//30 1203//29
f 1204//31 1207//31 1205//30
f 1206//32 1209//32 1207//31
f 1208//33 1211//33 1209//32
f 1210//34 1213//34 1211//33
f 1212//35 1215//35 1213//34
f 1214//36 1217//36 1215//35
f 1216//37 1219//37 1217//36
f 1218//38 1221//38 1219//37
f 1220//39 1223//39 1221//38
f 1222//40 1225//40 1223//39
f 1224//41 1227//41 1225//40
f 1226//42 1229//42 1227//41
f 1228//43 1231//43 1229//42
f 1230//44 1233//44 1231//43
f 1232//45 1235//45 1233//44
f 1234//46 1237//46 1235//45
f 1236//47 1239//47 1237//46
f 1238//48 1241//48 1239//47
f 1240//49 1243//49 1241//48
f 1242//50 1245//50 1243//49
f 1244//51 1247//51 1245//50
f 1246//52 1249//52 1247//51
f 1248//53 1251//53 1249//52
f 1250//54 1253//54 1251//53
f 1252//55 1255//55 1253//54
f 1254//56 1257//56 1255//55
f 1256//57 1259//57 1257//56
f 1258//58 1261//58 1259//57
f 1260//59 1263//59 1261//58
f 1262//60 1264//60 1263//59
f 1171//14 1170//14 1264//60
f 1265//37 1268//38 1266//38
f 1268//38 1270//39 1269//39
f 1270//39 1272//40 1271//40
f 1272//40 1274//41 1273//41
f 1274//41 1276//42 1275//42
f 1276//42 1278//43 1277//43
f 1278//43 1280//44 1279//44
f 1280//44 1282//45 1281//45
f 1282//45 1284//46 1283//46
f 1284//46 1286//47 1285//47
f 1286//47 1288//48 1287//48
f 1288//48 1290//49 1289//49
f 1290//49 1292//50 1291//50
f 1292//50 1294//51 1293//51
f 1294//51 1296//52 1295//52
f 1296//52 1298//53 1297//53
f 1298//53 1300//54 1299//54
f 1300//54 1302//55 1301//55
f 1302//55 1304//56 1303//56
f 1304//56 1306//57 1305//57
f 1306//57 1308//58 1307//58
f 1308//58 1310//59 1309//59
f 1310//59 1312//60 1311//60
f 1312//60 1314//14 1313//14
f 1314//14 1316//13 1315//13
f 1316//13 1318//15 1317//15
f 1318//15 1320//16 1319//16
f 1320//16 1322//17 1321//17
f 1322//17 1324//18 1323//18
f 1324//18 1326//19 1325//19
f 1326//19 1328//20 1327//20
f 1328//20 1330//21 1329//21
f 1330//21 1332//22 1331//22
f 1332//22 1334//23 1333//23
f 1334//23 1336//24 1335//24
f 1336//24 1338//25 1337//25
f 1338//25 1340//26 1339//26
f 1340//26 1342//27 1341//27
f 1342//27 1344//28 1343//28
f 1344//28 1346//29 1345//29
f 1346//29 1348//30 1347//30
f 1348//30 1350//31 1349//31
f 1350//31 1352//32 1351//32
f 1352//32 1354//33 1353//33
f 1354//33 1356//34 1355//34
f 1356//34 1358//35 1357//35
f 1358//35 1360//36 1359//36
f 1360//36 1265//37 1267//37
f 1361//3 1539//3 1362//3
f 1364//3 1542//3 1365//3
f 1367//4 1374//4 1368//4
f 1370//4 1376//4 1371//4
f 1373//4 1535//4 1374//4
f 1375//4 1412//4 1376//4
f 1377//4 1537//4 1378//4
f 1380//3 1434//3 1381//3
f 1383//4 1396//4 1384//4
f 1386//3 1399//3 1387//3
f 1389//4 1409//4 1390//4
f 1379//4 1378//4 1392//4
f 1363//3 1362//3 1394//3
f 1396//4 1427//4 1397//4
f 1398//3 1526//3 1399//3
f 1400//3 1446//3 1401//3
f 1403//3 1550//3 1404//3
f 1406//3 1497//3 1407//3
f 1409//4 1524//4 1410//4
f 1411//4 1437//4 1412//4
f 1413//3 1380//3 1382//3
f 1415//3 1464//3 1416//3
f 1408//3 1407//3 1418//3
f 1420//4 1429//4 1421//4
f 1393//4 1392//4 1423//4
f 1402//3 1401//3 1425//3
f 1427//4 1454//4 1428//4
f 1429//4 1465//4 1430//4
f 1431//3 1532//3 1432//3
f 1434//3 1440//3 1435//3
f 1436//4 1514//4 1437//4
f 1438//3 1431//3 1433//3
f 1440//3 1395//3 1394//3
f 1417//3 1416//3 1441//3
f 1424//4 1423//4 1443//4
f 1400//3 1456//3 1445//3
f 1447//3 1405//3 1404//3
f 1438//3 1439//3 1449//3
f 1451//4 1480//4 1452//4
f 1454//4 1541//4 1455//4
f 1456//3 1518//3 1457//3
f 1458//3 1447//3 1448//3
f 1460//4 1548//4 1461//4
f 1415//3 1481//3 1463//3
f 1465//4 1487//4 1466//4
f 1467//3 1547//3 1468//3
f 1470//3 1458//3 1459//3
f 1472//4 1525//4 1473//4
f 1475//4 1462//4 1461//4
f 1477//3 1483//3 1478//3
f 1480//4 1372//4 1371//4
f 1481//3 1536//3 1482//3
f 1483//3 1413//3 1414//3
f 1484//4 1512//4 1485//4
f 1487//4 1474//4 1473//4
f 1488//3 1496//3 1489//3
f 1491//3 1543//3 1492//3
f 1494//4 1451//4 1453//4
f 1496//3 1366//3 1365//3
f 1450//3 1449//3 1497//3
f 1477//3 1479//3 1498//3
f 1500//4 1475//4 1476//4
f 1502//4 1523//4 1503//4
f 1505//3 1515//3 1506//3
f 1508//4 1522//4 1509//4
f 1511//4 1546//4 1512//4
f 1513//4 1552//4 1514//4
f 1442//3 1441//3 1515//3
f 1516//3 1488//3 1490//3
f 1518//3 1470//3 1471//3
f 1519//4 1549//4 1520//4
f 1522//4 1500//4 1501//4
f 1523//4 1420//4 1422//4
f 1524//4 1494//4 1495//4
f 1486//4 1485//4 1525//4
f 1499//3 1498//3 1526//3
f 1527//4 1540//4 1528//4
f 1507//3 1506//3 1530//3
f 1532//3 1491//3 1493//3
f 1369//4 1368//4 1533//4
f 1502//4 1504//4 1535//4
f 1536//3 1516//3 1517//3
f 1519//4 1521//4 1537//4
f 1538//3 1544//3 1539//3
f 1540//4 1383//4 1385//4
f 1444//4 1443//4 1455//4
f 1388//3 1387//3 1542//3
f 1543//3 1467//3 1469//3
f 1426//3 1425//3 1544//3
f 1545//4 1551//4 1546//4
f 1531//3 1530//3 1468//3
f 1534//4 1533//4 1548//4
f 1549//4 1508//4 1510//4
f 1419//3 1418//3 1550//3
f 1389//4 1391//4 1551//4
f 1527//4 1529//4 1552//4
