# Blender v2.82 (sub 7) OBJ File: ''
# www.blender.org
mtllib infantry range attack and arc.mtl
o NurbsPath
v 9.740208 0.249999 -8.496926
v 10.173106 -0.250001 -8.874568
v 10.173106 0.249999 -8.874568
v 9.307310 0.249999 -8.119286
v 9.740208 -0.250001 -8.496926
v 8.874412 0.249999 -7.741645
v 9.307310 -0.250001 -8.119286
v 8.441515 0.249999 -7.364004
v 8.874412 -0.250001 -7.741645
v 8.008614 0.249999 -6.986362
v 8.441515 -0.250001 -7.364004
v 7.575718 0.249999 -6.608721
v 8.008614 -0.250001 -6.986362
v 7.142819 0.249999 -6.231080
v 7.575718 -0.250001 -6.608721
v 6.709921 0.249999 -5.853438
v 7.142819 -0.250001 -6.231080
v 6.277023 0.249999 -5.475798
v 6.709921 -0.250001 -5.853438
v 5.844126 0.249999 -5.098156
v 6.277023 -0.250001 -5.475798
v 5.411228 0.249999 -4.720515
v 5.844126 -0.250001 -5.098156
v 4.978330 0.249999 -4.342875
v 5.411228 -0.250001 -4.720515
v 4.545432 0.249999 -3.965234
v 4.978330 -0.250001 -4.342875
v 4.112534 0.249999 -3.587592
v 4.545432 -0.250001 -3.965233
v 3.679635 0.249999 -3.209950
v 4.112534 -0.250001 -3.587592
v 3.246738 0.250000 -2.832310
v 3.679635 -0.250001 -3.209950
v 2.813839 0.250000 -2.454669
v 3.246738 -0.250000 -2.832310
v 2.380941 0.250000 -2.077027
v 2.813839 -0.250000 -2.454669
v 1.948042 0.250000 -1.699386
v 2.380941 -0.250000 -2.077027
v 1.515144 0.250000 -1.321745
v 1.948042 -0.250000 -1.699386
v 1.082246 0.250000 -0.944104
v 1.515144 -0.250000 -1.321745
v 0.649348 0.250000 -0.566462
v 1.082246 -0.250000 -0.944104
v 0.216450 0.250000 -0.188821
v 0.649348 -0.250000 -0.566462
v -0.216449 0.250000 0.188821
v 0.216450 -0.250000 -0.188821
v -0.649347 0.250000 0.566462
v -0.216449 -0.250000 0.188821
v -1.082246 0.250000 0.944103
v -0.649347 -0.250000 0.566462
v -1.515144 0.250000 1.321744
v -1.082246 -0.250000 0.944103
v -1.948042 0.250000 1.699385
v -1.515144 -0.250000 1.321744
v -2.380940 0.250000 2.077026
v -1.948042 -0.250000 1.699385
v -2.813838 0.250000 2.454667
v -2.380940 -0.250000 2.077026
v -3.246736 0.250000 2.832309
v -2.813838 -0.250000 2.454667
v -3.679634 0.250001 3.209949
v -3.246736 -0.250000 2.832309
v -4.112532 0.250001 3.587590
v -3.679634 -0.249999 3.209949
v -4.545430 0.250001 3.965232
v -4.112532 -0.249999 3.587590
v -4.978328 0.250001 4.342873
v -4.545430 -0.249999 3.965232
v -5.411227 0.250001 4.720514
v -4.978328 -0.249999 4.342873
v -5.844123 0.250001 5.098155
v -5.411227 -0.249999 4.720514
v -6.277022 0.250001 5.475797
v -5.844123 -0.249999 5.098155
v -6.709920 0.250001 5.853437
v -6.277022 -0.249999 5.475797
v -7.142818 0.250001 6.231080
v -6.709920 -0.249999 5.853437
v -7.575716 0.250001 6.608719
v -7.142818 -0.249999 6.231080
v -8.008614 0.250001 6.986362
v -7.575716 -0.249999 6.608719
v -8.441512 0.250001 7.364001
v -8.008614 -0.249999 6.986362
v -8.874411 0.250001 7.741643
v -8.441512 -0.249999 7.364002
v -9.307308 0.250001 8.119285
v -8.874411 -0.249999 7.741643
v -9.740207 0.250001 8.496925
v -9.307308 -0.249999 8.119285
v -10.173105 0.250001 8.874567
v -9.740207 -0.249999 8.496925
v 10.166533 -0.250001 -8.882104
v 9.733634 0.249999 -8.504462
v 10.166533 0.249999 -8.882104
v 9.733634 -0.250001 -8.504462
v 9.300736 0.249999 -8.126822
v 9.300736 -0.250001 -8.126822
v 8.867838 0.249999 -7.749180
v 8.867838 -0.250001 -7.749180
v 8.434941 0.249999 -7.371540
v 8.434941 -0.250001 -7.371540
v 8.002041 0.249999 -6.993897
v 8.002041 -0.250001 -6.993896
v 7.569146 0.249999 -6.616258
v 7.569146 -0.250001 -6.616258
v 7.136247 0.249999 -6.238616
v 7.136247 -0.250001 -6.238616
v 6.703348 0.249999 -5.860973
v 6.703348 -0.250001 -5.860973
v 6.270451 0.249999 -5.483334
v 6.270451 -0.250001 -5.483334
v 5.837553 0.249999 -5.105692
v 5.837553 -0.250001 -5.105692
v 5.404654 0.249999 -4.728051
v 5.404654 -0.250001 -4.728051
v 4.971756 0.249999 -4.350410
v 4.971756 -0.250001 -4.350410
v 4.538857 0.249999 -3.972769
v 4.538857 -0.250001 -3.972768
v 4.105959 0.249999 -3.595128
v 4.105959 -0.250001 -3.595127
v 3.673062 0.249999 -3.217486
v 3.673062 -0.250001 -3.217486
v 3.240164 0.250000 -2.839845
v 3.240164 -0.250000 -2.839845
v 2.807266 0.250000 -2.462204
v 2.807266 -0.250000 -2.462204
v 2.374367 0.250000 -2.084563
v 2.374367 -0.250000 -2.084563
v 1.941469 0.250000 -1.706921
v 1.941469 -0.250000 -1.706921
v 1.508571 0.250000 -1.329280
v 1.508571 -0.250000 -1.329280
v 1.075673 0.250000 -0.951639
v 1.075673 -0.250000 -0.951639
v 0.642774 0.250000 -0.573998
v 0.642774 -0.250000 -0.573998
v 0.209876 0.250000 -0.196357
v 0.209876 -0.250000 -0.196357
v -0.223023 0.250000 0.181285
v -0.223023 -0.250000 0.181285
v -0.655921 0.250000 0.558926
v -0.655921 -0.250000 0.558926
v -1.088819 0.250000 0.936567
v -1.088819 -0.250000 0.936567
v -1.521717 0.250000 1.314208
v -1.521717 -0.250000 1.314208
v -1.954616 0.250000 1.691850
v -1.954616 -0.250000 1.691850
v -2.387513 0.250000 2.069490
v -2.387513 -0.250000 2.069490
v -2.820411 0.250000 2.447131
v -2.820411 -0.250000 2.447131
v -3.253310 0.250000 2.824773
v -3.253310 -0.250000 2.824773
v -3.686208 0.250001 3.202414
v -3.686208 -0.249999 3.202415
v -4.119105 0.250001 3.580055
v -4.119105 -0.249999 3.580055
v -4.552003 0.250001 3.957696
v -4.552003 -0.249999 3.957696
v -4.984901 0.250001 4.335338
v -4.984901 -0.249999 4.335338
v -5.417800 0.250001 4.712979
v -5.417800 -0.249999 4.712979
v -5.850698 0.250001 5.090620
v -5.850698 -0.249999 5.090620
v -6.283597 0.250001 5.468261
v -6.283597 -0.249999 5.468261
v -6.716495 0.250001 5.845901
v -6.716495 -0.249999 5.845901
v -7.149393 0.250001 6.223544
v -7.149393 -0.249999 6.223544
v -7.582291 0.250001 6.601183
v -7.582291 -0.249999 6.601183
v -8.015188 0.250001 6.978827
v -8.015188 -0.249999 6.978827
v -8.448086 0.250001 7.356466
v -8.448086 -0.249999 7.356467
v -8.880984 0.250001 7.734108
v -8.880984 -0.249999 7.734108
v -9.313882 0.250001 8.111749
v -9.313882 -0.249999 8.111749
v -9.746780 0.250001 8.489389
v -9.746780 -0.249999 8.489389
v -10.179679 0.250001 8.867031
v -1.082246 -0.250000 0.944103
v -0.655921 -0.250000 0.558926
v -0.649347 -0.250000 0.566462
v 4.545432 -0.250001 -3.965233
v 4.971756 -0.250001 -4.350410
v 4.978330 -0.250001 -4.342875
v -3.679634 0.250001 3.209949
v -4.119105 0.250001 3.580055
v -4.112532 0.250001 3.587590
v 5.411228 0.249999 -4.720515
v 4.971756 0.249999 -4.350410
v 4.978330 0.249999 -4.342875
v -3.246736 0.250000 2.832309
v -3.686208 0.250001 3.202414
v 5.844126 0.249999 -5.098156
v 5.404654 0.249999 -4.728051
v -8.441512 0.250001 7.364001
v -8.880984 0.250001 7.734108
v -8.874411 0.250001 7.741643
v 0.649348 -0.250000 -0.566462
v 1.075673 -0.250000 -0.951639
v 1.082246 -0.250000 -0.944104
v 8.874412 0.249999 -7.741645
v 8.434941 0.249999 -7.371540
v 8.441515 0.249999 -7.364004
v 3.679635 -0.250001 -3.209950
v 4.105959 -0.250001 -3.595127
v 4.112534 -0.250001 -3.587592
v 2.813839 0.250000 -2.454669
v 2.374367 0.250000 -2.084563
v 2.380941 0.250000 -2.077027
v -9.313882 0.250001 8.111749
v -9.307308 0.250001 8.119285
v -0.223023 -0.250000 0.181285
v -0.216449 -0.250000 0.188821
v 9.307310 0.249999 -8.119286
v 8.867838 0.249999 -7.749180
v 3.246738 -0.250000 -2.832310
v 3.673062 -0.250001 -3.217486
v -2.813838 -0.250000 2.454667
v -2.387513 -0.250000 2.069490
v -2.380940 -0.250000 2.077026
v -5.844123 -0.249999 5.098155
v -5.417800 -0.249999 4.712979
v -5.411227 -0.249999 4.720514
v -7.142818 -0.249999 6.231080
v -6.716495 -0.249999 5.845901
v -6.709920 -0.249999 5.853437
v 3.246738 0.250000 -2.832310
v 2.807266 0.250000 -2.462204
v 6.277023 0.249999 -5.475798
v 5.837553 0.249999 -5.105692
v 1.508571 -0.250000 -1.329280
v 1.515144 -0.250000 -1.321745
v 7.575718 -0.250001 -6.608721
v 8.002041 -0.250001 -6.993896
v 8.008614 -0.250001 -6.986362
v -6.283597 -0.249999 5.468261
v -6.277022 -0.249999 5.475797
v -1.515144 0.250000 1.321744
v -1.954616 0.250000 1.691850
v -1.948042 0.250000 1.699385
v -9.746780 0.250001 8.489389
v -9.740207 0.250001 8.496925
v -1.954616 -0.250000 1.691850
v -1.948042 -0.250000 1.699385
v 9.740208 0.249999 -8.496926
v 9.300736 0.249999 -8.126822
v -1.082246 0.250000 0.944103
v -1.521717 0.250000 1.314208
v -8.874411 -0.249999 7.741643
v -8.448086 -0.249999 7.356467
v -8.441512 -0.249999 7.364002
v 0.216450 -0.250000 -0.188821
v 0.642774 -0.250000 -0.573998
v 6.709921 0.249999 -5.853438
v 6.270451 0.249999 -5.483334
v -8.015188 -0.249999 6.978827
v -8.008614 -0.249999 6.986362
v 0.209876 -0.250000 -0.196357
v 8.434941 -0.250001 -7.371540
v 8.441515 -0.250001 -7.364004
v -10.173105 0.250001 8.874567
v -10.179679 -0.249999 8.867031
v -10.173105 -0.249999 8.874567
v -10.179679 0.250001 8.867031
v -10.173105 0.250001 8.874567
v -3.246736 -0.250000 2.832309
v -2.820411 -0.250000 2.447131
v -4.984901 -0.249999 4.335338
v -4.978328 -0.249999 4.342873
v -7.582291 -0.249999 6.601183
v -7.575716 -0.249999 6.608719
v 4.545432 0.249999 -3.965234
v 4.105959 0.249999 -3.595128
v 4.112534 0.249999 -3.587592
v 10.173106 0.249999 -8.874568
v 9.733634 0.249999 -8.504462
v -3.679634 -0.249999 3.209949
v -3.253310 -0.250000 2.824773
v -4.552003 -0.249999 3.957696
v -4.545430 -0.249999 3.965232
v -4.978328 0.250001 4.342873
v -5.417800 0.250001 4.712979
v -5.411227 0.250001 4.720514
v 10.173106 -0.250001 -8.874568
v 10.166533 0.249999 -8.882104
v 10.173106 0.249999 -8.874568
v 7.142819 -0.250001 -6.231080
v 7.569146 -0.250001 -6.616258
v -0.649347 0.250000 0.566462
v -1.088819 0.250000 0.936567
v -4.119105 -0.249999 3.580055
v -4.112532 -0.249999 3.587590
v 0.216450 0.250000 -0.188821
v -0.223023 0.250000 0.181285
v -0.216449 0.250000 0.188821
v -5.850698 0.250001 5.090620
v -5.844123 0.250001 5.098155
v 1.948042 -0.250000 -1.699386
v 2.374367 -0.250000 -2.084563
v 2.380941 -0.250000 -2.077027
v 4.538857 0.249999 -3.972769
v 6.709921 -0.250001 -5.853438
v 7.136247 -0.250001 -6.238616
v 1.941469 -0.250000 -1.706921
v 1.082246 0.250000 -0.944104
v 0.642774 0.250000 -0.573998
v 0.649348 0.250000 -0.566462
v -0.655921 0.250000 0.558926
v 5.411228 -0.250001 -4.720515
v 5.837553 -0.250001 -5.105692
v 5.844126 -0.250001 -5.098156
v -9.740207 -0.249999 8.496925
v -9.313882 -0.249999 8.111749
v -9.307308 -0.249999 8.119285
v 3.673062 0.249999 -3.217486
v 3.679635 0.249999 -3.209950
v 5.404654 -0.250001 -4.728051
v -7.149393 -0.249999 6.223544
v 2.807266 -0.250000 -2.462204
v 2.813839 -0.250000 -2.454669
v -6.283597 0.250001 5.468261
v -6.277022 0.250001 5.475797
v -2.380940 0.250000 2.077026
v -2.820411 0.250000 2.447131
v -2.813838 0.250000 2.454667
v 8.874412 -0.250001 -7.741645
v 9.300736 -0.250001 -8.126822
v 9.307310 -0.250001 -8.119286
v -6.709920 0.250001 5.853437
v -7.149393 0.250001 6.223544
v -7.142818 0.250001 6.231080
v 1.515144 0.250000 -1.321745
v 1.075673 0.250000 -0.951639
v 7.142819 0.249999 -6.231080
v 6.703348 0.249999 -5.860973
v 8.867838 -0.250001 -7.749180
v 6.270451 -0.250001 -5.483334
v 6.277023 -0.250001 -5.475798
v -3.686208 -0.249999 3.202415
v -7.575716 0.250001 6.608719
v -8.015188 0.250001 6.978827
v -8.008614 0.250001 6.986362
v -6.716495 0.250001 5.845901
v -2.387513 0.250000 2.069490
v 3.240164 0.250000 -2.839845
v 0.209876 0.250000 -0.196357
v 3.240164 -0.250000 -2.839845
v 8.008614 0.249999 -6.986362
v 7.569146 0.249999 -6.616258
v 7.575718 0.249999 -6.608721
v 9.733634 -0.250001 -8.504462
v 9.740208 -0.250001 -8.496926
v -8.880984 -0.249999 7.734108
v -4.552003 0.250001 3.957696
v -4.545430 0.250001 3.965232
v -3.253310 0.250000 2.824773
v 6.703348 -0.250001 -5.860973
v -8.448086 0.250001 7.356466
v -1.515144 -0.250000 1.321744
v -1.088819 -0.250000 0.936567
v 8.002041 0.249999 -6.993897
v 4.538857 -0.250001 -3.972768
v -10.173105 -0.249999 8.874567
v -9.746780 -0.249999 8.489389
v -1.521717 -0.250000 1.314208
v 1.948042 0.250000 -1.699386
v 1.508571 0.250000 -1.329280
v 10.166533 -0.250001 -8.882104
v 10.173106 -0.250001 -8.874568
v -4.984901 0.250001 4.335338
v -7.582291 0.250001 6.601183
v -5.850698 -0.249999 5.090620
v 1.941469 0.250000 -1.706921
v 7.136247 0.249999 -6.238616
v -10.173105 -0.249999 8.874567
v -10.179679 -0.249999 8.867031
v -10.179679 0.250001 8.867031
v 10.166533 0.249999 -8.882104
v 10.166533 -0.250001 -8.882104
v -10.179679 -0.249999 8.867031
v -9.737242 0.249999 -8.500323
v -10.170009 -0.250001 -8.878117
v -10.170009 0.249999 -8.878117
v -9.304477 0.249999 -8.122532
v -9.737242 -0.250001 -8.500323
v -8.871711 0.249999 -7.744740
v -9.304477 -0.250001 -8.122532
v -8.438945 0.249999 -7.366950
v -8.871711 -0.250001 -7.744740
v -8.006177 0.249999 -6.989155
v -8.438945 -0.250001 -7.366949
v -7.573411 0.249999 -6.611364
v -8.006177 -0.250001 -6.989155
v -7.140646 0.249999 -6.233572
v -7.573411 -0.250001 -6.611364
v -6.707879 0.249999 -5.855780
v -7.140646 -0.250001 -6.233572
v -6.275113 0.249999 -5.477987
v -6.707879 -0.250001 -5.855780
v -5.842347 0.249999 -5.100195
v -6.275113 -0.250001 -5.477987
v -5.409579 0.249999 -4.722404
v -5.842347 -0.250001 -5.100195
v -4.976813 0.249999 -4.344612
v -5.409579 -0.250001 -4.722404
v -4.544047 0.249999 -3.966819
v -4.976813 -0.250001 -4.344612
v -4.111280 0.249999 -3.589027
v -4.544047 -0.250001 -3.966819
v -3.678514 0.249999 -3.211235
v -4.111280 -0.250001 -3.589026
v -3.245749 0.250000 -2.833443
v -3.678514 -0.250001 -3.211235
v -2.812982 0.250000 -2.455651
v -3.245749 -0.250000 -2.833443
v -2.380215 0.250000 -2.077858
v -2.812982 -0.250000 -2.455651
v -1.947449 0.250000 -1.700066
v -2.380215 -0.250000 -2.077858
v -1.514683 0.250000 -1.322273
v -1.947449 -0.250000 -1.700066
v -1.081917 0.250000 -0.944481
v -1.514683 -0.250000 -1.322273
v -0.649150 0.250000 -0.566689
v -1.081917 -0.250000 -0.944481
v -0.216384 0.250000 -0.188897
v -0.649150 -0.250000 -0.566689
v 0.216383 0.250000 0.188896
v -0.216384 -0.250000 -0.188897
v 0.649149 0.250000 0.566688
v 0.216383 -0.250000 0.188896
v 1.081916 0.250000 0.944481
v 0.649149 -0.250000 0.566688
v 1.514682 0.250000 1.322273
v 1.081916 -0.250000 0.944481
v 1.947448 0.250000 1.700065
v 1.514682 -0.250000 1.322273
v 2.380214 0.250000 2.077857
v 1.947448 -0.250000 1.700065
v 2.812981 0.250000 2.455649
v 2.380214 -0.250000 2.077857
v 3.245747 0.250000 2.833441
v 2.812981 -0.250000 2.455649
v 3.678513 0.250001 3.211234
v 3.245747 -0.250000 2.833441
v 4.111279 0.250001 3.589025
v 3.678513 -0.249999 3.211234
v 4.544045 0.250001 3.966818
v 4.111279 -0.249999 3.589026
v 4.976811 0.250001 4.344610
v 4.544045 -0.249999 3.966818
v 5.409579 0.250001 4.722403
v 4.976811 -0.249999 4.344610
v 5.842344 0.250001 5.100194
v 5.409579 -0.249999 4.722403
v 6.275112 0.250001 5.477986
v 5.842344 -0.249999 5.100194
v 6.707878 0.250001 5.855779
v 6.275112 -0.249999 5.477986
v 7.140645 0.250001 6.233572
v 6.707878 -0.249999 5.855779
v 7.573410 0.250001 6.611362
v 7.140645 -0.249999 6.233572
v 8.006177 0.250001 6.989155
v 7.573410 -0.249999 6.611362
v 8.438943 0.250001 7.366946
v 8.006177 -0.249999 6.989155
v 8.871709 0.250001 7.744739
v 8.438943 -0.249999 7.366947
v 9.304475 0.250001 8.122531
v 8.871709 -0.249999 7.744739
v 9.737241 0.250001 8.500323
v 9.304475 -0.249999 8.122531
v 10.170008 0.250001 8.878116
v 9.737241 -0.249999 8.500323
v -10.176585 -0.250001 -8.870583
v -9.743818 0.249999 -8.492790
v -10.176585 0.249999 -8.870583
v -9.743818 -0.250001 -8.492790
v -9.311053 0.249999 -8.114999
v -9.311053 -0.250001 -8.114999
v -8.878287 0.249999 -7.737206
v -8.878287 -0.250001 -7.737206
v -8.445521 0.249999 -7.359416
v -8.445521 -0.250001 -7.359415
v -8.012753 0.249999 -6.981622
v -8.012753 -0.250001 -6.981621
v -7.579988 0.249999 -6.603831
v -7.579988 -0.250001 -6.603831
v -7.147222 0.249999 -6.226038
v -7.147222 -0.250001 -6.226038
v -6.714455 0.249999 -5.848246
v -6.714455 -0.250001 -5.848246
v -6.281689 0.249999 -5.470454
v -6.281689 -0.250001 -5.470454
v -5.848924 0.249999 -5.092661
v -5.848924 -0.250001 -5.092661
v -5.416156 0.249999 -4.714869
v -5.416156 -0.250001 -4.714869
v -4.983390 0.249999 -4.337078
v -4.983390 -0.250001 -4.337078
v -4.550623 0.249999 -3.959286
v -4.550623 -0.250001 -3.959285
v -4.117857 0.249999 -3.581494
v -4.117857 -0.250001 -3.581494
v -3.685091 0.249999 -3.203701
v -3.685091 -0.250001 -3.203701
v -3.252325 0.250000 -2.825910
v -3.252325 -0.250000 -2.825910
v -2.819558 0.250000 -2.448117
v -2.819558 -0.250000 -2.448117
v -2.386792 0.250000 -2.070325
v -2.386792 -0.250000 -2.070325
v -1.954025 0.250000 -1.692532
v -1.954025 -0.250000 -1.692532
v -1.521259 0.250000 -1.314740
v -1.521259 -0.250000 -1.314740
v -1.088493 0.250000 -0.936948
v -1.088493 -0.250000 -0.936948
v -0.655727 0.250000 -0.559156
v -0.655727 -0.250000 -0.559156
v -0.222960 0.250000 -0.181363
v -0.222960 -0.250000 -0.181363
v 0.209807 0.250000 0.196429
v 0.209807 -0.250000 0.196429
v 0.642573 0.250000 0.574221
v 0.642573 -0.250000 0.574221
v 1.075339 0.250000 0.952014
v 1.075339 -0.250000 0.952014
v 1.508106 0.250000 1.329806
v 1.508106 -0.250000 1.329806
v 1.940872 0.250000 1.707598
v 1.940872 -0.250000 1.707598
v 2.373638 0.250000 2.085390
v 2.373638 -0.250000 2.085390
v 2.806404 0.250000 2.463182
v 2.806404 -0.250000 2.463182
v 3.239171 0.250000 2.840975
v 3.239171 -0.250000 2.840975
v 3.671937 0.250001 3.218766
v 3.671937 -0.249999 3.218767
v 4.104703 0.250001 3.596559
v 4.104703 -0.249999 3.596559
v 4.537469 0.250001 3.974350
v 4.537469 -0.249999 3.974351
v 4.970235 0.250001 4.352142
v 4.970235 -0.249999 4.352142
v 5.403002 0.250001 4.729936
v 5.403002 -0.249999 4.729936
v 5.835767 0.250001 5.107728
v 5.835767 -0.249999 5.107728
v 6.268535 0.250001 5.485519
v 6.268535 -0.249999 5.485519
v 6.701301 0.250001 5.863311
v 6.701301 -0.249999 5.863311
v 7.134068 0.250001 6.241105
v 7.134068 -0.249999 6.241105
v 7.566833 0.250001 6.618896
v 7.566833 -0.249999 6.618896
v 7.999599 0.250001 6.996688
v 7.999599 -0.249999 6.996688
v 8.432366 0.250001 7.374480
v 8.432366 -0.249999 7.374481
v 8.865132 0.250001 7.752272
v 8.865132 -0.249999 7.752272
v 9.297898 0.250001 8.130064
v 9.297898 -0.249999 8.130064
v 9.730664 0.250001 8.507856
v 9.730664 -0.249999 8.507856
v 10.163431 0.250001 8.885649
v 1.081916 -0.250000 0.944481
v 0.642573 -0.250000 0.574221
v 0.649149 -0.250000 0.566688
v -4.544047 -0.250001 -3.966819
v -4.983390 -0.250001 -4.337078
v -4.976813 -0.250001 -4.344612
v 3.678513 0.250001 3.211234
v 4.104703 0.250001 3.596559
v 4.111279 0.250001 3.589025
v -5.409579 0.249999 -4.722404
v -4.983390 0.249999 -4.337078
v -4.976813 0.249999 -4.344612
v 3.245747 0.250000 2.833441
v 3.671937 0.250001 3.218766
v -5.842347 0.249999 -5.100195
v -5.416156 0.249999 -4.714869
v 8.438943 0.250001 7.366946
v 8.865132 0.250001 7.752272
v 8.871709 0.250001 7.744739
v -0.649150 -0.250000 -0.566689
v -1.088493 -0.250000 -0.936948
v -1.081917 -0.250000 -0.944481
v -8.871711 0.249999 -7.744740
v -8.445521 0.249999 -7.359416
v -8.438945 0.249999 -7.366950
v -3.678514 -0.250001 -3.211235
v -4.117857 -0.250001 -3.581494
v -4.111280 -0.250001 -3.589026
v -2.812982 0.250000 -2.455651
v -2.386792 0.250000 -2.070325
v -2.380215 0.250000 -2.077858
v 9.297898 0.250001 8.130064
v 9.304475 0.250001 8.122531
v 0.209807 -0.250000 0.196429
v 0.216383 -0.250000 0.188896
v -9.304477 0.249999 -8.122532
v -8.878287 0.249999 -7.737206
v -3.245749 -0.250000 -2.833443
v -3.685091 -0.250001 -3.203701
v 2.812981 -0.250000 2.455649
v 2.373638 -0.250000 2.085390
v 2.380214 -0.250000 2.077857
v 5.842344 -0.249999 5.100194
v 5.403002 -0.249999 4.729936
v 5.409579 -0.249999 4.722403
v 7.140645 -0.249999 6.233572
v 6.701301 -0.249999 5.863311
v 6.707878 -0.249999 5.855779
v -3.245749 0.250000 -2.833443
v -2.819558 0.250000 -2.448117
v -6.275113 0.249999 -5.477987
v -5.848924 0.249999 -5.092661
v -1.521259 -0.250000 -1.314740
v -1.514683 -0.250000 -1.322273
v -7.573411 -0.250001 -6.611364
v -8.012753 -0.250001 -6.981621
v -8.006177 -0.250001 -6.989155
v 6.268535 -0.249999 5.485519
v 6.275112 -0.249999 5.477986
v 1.514682 0.250000 1.322273
v 1.940872 0.250000 1.707598
v 1.947448 0.250000 1.700065
v 9.730664 0.250001 8.507856
v 9.737241 0.250001 8.500323
v 1.940872 -0.250000 1.707598
v 1.947448 -0.250000 1.700065
v -9.737242 0.249999 -8.500323
v -9.311053 0.249999 -8.114999
v 1.081916 0.250000 0.944481
v 1.508106 0.250000 1.329806
v 8.871709 -0.249999 7.744739
v 8.432366 -0.249999 7.374481
v 8.438943 -0.249999 7.366947
v -0.216384 -0.250000 -0.188897
v -0.655727 -0.250000 -0.559156
v -6.707879 0.249999 -5.855780
v -6.281689 0.249999 -5.470454
v 7.999599 -0.249999 6.996688
v 8.006177 -0.249999 6.989155
v -0.222960 -0.250000 -0.181363
v -8.445521 -0.250001 -7.359415
v -8.438945 -0.250001 -7.366949
v 10.170008 0.250001 8.878116
v 10.163431 -0.249999 8.885649
v 10.170008 -0.249999 8.878116
v 10.163431 0.250001 8.885649
v 10.170008 0.250001 8.878116
v 3.245747 -0.250000 2.833441
v 2.806404 -0.250000 2.463182
v 4.970235 -0.249999 4.352142
v 4.976811 -0.249999 4.344610
v 7.566833 -0.249999 6.618896
v 7.573410 -0.249999 6.611362
v -4.544047 0.249999 -3.966819
v -4.117857 0.249999 -3.581494
v -4.111280 0.249999 -3.589027
v -10.170009 0.249999 -8.878117
v -9.743818 0.249999 -8.492790
v 3.678513 -0.249999 3.211234
v 3.239171 -0.250000 2.840975
v 4.537469 -0.249999 3.974351
v 4.544045 -0.249999 3.966818
v 4.976811 0.250001 4.344610
v 5.403002 0.250001 4.729936
v 5.409579 0.250001 4.722403
v -10.170009 -0.250001 -8.878117
v -10.176585 0.249999 -8.870583
v -10.170009 0.249999 -8.878117
v -7.140646 -0.250001 -6.233572
v -7.579988 -0.250001 -6.603831
v 0.649149 0.250000 0.566688
v 1.075339 0.250000 0.952014
v 4.104703 -0.249999 3.596559
v 4.111279 -0.249999 3.589026
v -0.216384 0.250000 -0.188897
v 0.209807 0.250000 0.196429
v 0.216383 0.250000 0.188896
v 5.835767 0.250001 5.107728
v 5.842344 0.250001 5.100194
v -1.947449 -0.250000 -1.700066
v -2.386792 -0.250000 -2.070325
v -2.380215 -0.250000 -2.077858
v -4.550623 0.249999 -3.959286
v -6.707879 -0.250001 -5.855780
v -7.147222 -0.250001 -6.226038
v -1.954025 -0.250000 -1.692532
v -1.081917 0.250000 -0.944481
v -0.655727 0.250000 -0.559156
v -0.649150 0.250000 -0.566689
v 0.642573 0.250000 0.574221
v -5.409579 -0.250001 -4.722404
v -5.848924 -0.250001 -5.092661
v -5.842347 -0.250001 -5.100195
v 9.737241 -0.249999 8.500323
v 9.297898 -0.249999 8.130064
v 9.304475 -0.249999 8.122531
v -3.685091 0.249999 -3.203701
v -3.678514 0.249999 -3.211235
v -5.416156 -0.250001 -4.714869
v 7.134068 -0.249999 6.241105
v -2.819558 -0.250000 -2.448117
v -2.812982 -0.250000 -2.455651
v 6.268535 0.250001 5.485519
v 6.275112 0.250001 5.477986
v 2.380214 0.250000 2.077857
v 2.806404 0.250000 2.463182
v 2.812981 0.250000 2.455649
v -8.871711 -0.250001 -7.744740
v -9.311053 -0.250001 -8.114999
v -9.304477 -0.250001 -8.122532
v 6.707878 0.250001 5.855779
v 7.134068 0.250001 6.241105
v 7.140645 0.250001 6.233572
v -1.514683 0.250000 -1.322273
v -1.088493 0.250000 -0.936948
v -7.140646 0.249999 -6.233572
v -6.714455 0.249999 -5.848246
v -8.878287 -0.250001 -7.737206
v -6.281689 -0.250001 -5.470454
v -6.275113 -0.250001 -5.477987
v 3.671937 -0.249999 3.218767
v 7.573410 0.250001 6.611362
v 7.999599 0.250001 6.996688
v 8.006177 0.250001 6.989155
v 6.701301 0.250001 5.863311
v 2.373638 0.250000 2.085390
v -3.252325 0.250000 -2.825910
v -0.222960 0.250000 -0.181363
v -3.252325 -0.250000 -2.825910
v -8.006177 0.249999 -6.989155
v -7.579988 0.249999 -6.603831
v -7.573411 0.249999 -6.611364
v -9.743818 -0.250001 -8.492790
v -9.737242 -0.250001 -8.500323
v 8.865132 -0.249999 7.752272
v 4.537469 0.250001 3.974350
v 4.544045 0.250001 3.966818
v 3.239171 0.250000 2.840975
v -6.714455 -0.250001 -5.848246
v 8.432366 0.250001 7.374480
v 1.514682 -0.250000 1.322273
v 1.075339 -0.250000 0.952014
v -8.012753 0.249999 -6.981622
v -4.550623 -0.250001 -3.959285
v 10.170008 -0.249999 8.878116
v 9.730664 -0.249999 8.507856
v 1.508106 -0.250000 1.329806
v -1.947449 0.250000 -1.700066
v -1.521259 0.250000 -1.314740
v -10.176585 -0.250001 -8.870583
v -10.170009 -0.250001 -8.878117
v 4.970235 0.250001 4.352142
v 7.566833 0.250001 6.618896
v 5.835767 -0.249999 5.107728
v -1.954025 0.250000 -1.692532
v -7.147222 0.249999 -6.226038
v 10.170008 -0.249999 8.878116
v 10.163431 -0.249999 8.885649
v 10.163431 0.250001 8.885649
v -10.176585 0.249999 -8.870583
v -10.176585 -0.250001 -8.870583
v 10.163431 -0.249999 8.885649
v 0.813963 0.259999 -3.545208
v -0.000000 -0.260001 -3.600000
v -0.000000 0.259999 -3.600000
v 1.594705 0.259999 -3.385607
v 0.813963 -0.260001 -3.545208
v 2.335067 0.259999 -3.128355
v 1.594705 -0.260001 -3.385607
v 3.027889 0.260000 -2.780611
v 2.335067 -0.260000 -3.128355
v 3.666014 0.260000 -2.349534
v 3.027889 -0.260000 -2.780611
v 4.242281 0.260000 -1.842281
v 3.666014 -0.260000 -2.349533
v 4.749534 0.260000 -1.266014
v 4.242281 -0.260000 -1.842281
v 5.180611 0.260000 -0.627889
v 4.749534 -0.260000 -1.266013
v 5.528355 0.260000 0.064933
v 5.180611 -0.260000 -0.627889
v 5.785607 0.260000 0.805294
v 5.528355 -0.260000 0.064934
v 5.945208 0.260000 1.586036
v 5.785607 -0.260000 0.805295
v 6.000000 0.260000 2.400000
v 5.945208 -0.260000 1.586037
v 5.945210 0.260001 3.213964
v 6.000000 -0.260000 2.400000
v 5.785607 0.260001 3.994704
v 5.945210 -0.259999 3.213964
v 5.528356 0.260001 4.735066
v 5.785607 -0.259999 3.994704
v 5.180612 0.260001 5.427888
v 5.528356 -0.259999 4.735066
v 4.749534 0.260001 6.066013
v 5.180612 -0.259999 5.427888
v 4.242281 0.260001 6.642282
v 4.749534 -0.259999 6.066013
v 3.666014 0.260001 7.149534
v 4.242281 -0.259999 6.642282
v 3.027890 0.260001 7.580611
v 3.666014 -0.259999 7.149534
v 2.335067 0.260001 7.928355
v 3.027890 -0.259999 7.580611
v 1.594706 0.260001 8.185607
v 2.335067 -0.259999 7.928355
v 0.813964 0.260001 8.345207
v 1.594706 -0.259999 8.185607
v 0.000001 0.260001 8.400000
v 0.813964 -0.259999 8.345207
v -0.813962 0.260001 8.345209
v 0.000001 -0.259999 8.400000
v -1.594704 0.260001 8.185608
v -0.813962 -0.259999 8.345209
v -2.335066 0.260001 7.928355
v -1.594704 -0.259999 8.185608
v -3.027888 0.260001 7.580611
v -2.335066 -0.259999 7.928356
v -3.666013 0.260001 7.149533
v -3.027888 -0.259999 7.580612
v -4.242280 0.260001 6.642282
v -3.666013 -0.259999 7.149533
v -4.749534 0.260001 6.066013
v -4.242280 -0.259999 6.642282
v -5.180611 0.260001 5.427889
v -4.749534 -0.259999 6.066013
v -5.528355 0.260001 4.735066
v -5.180611 -0.259999 5.427889
v -5.785606 0.260001 3.994705
v -5.528355 -0.259999 4.735066
v -5.945208 0.260001 3.213964
v -5.785606 -0.259999 3.994705
v -6.000000 0.260000 2.400001
v -5.945208 -0.259999 3.213964
v -5.945209 0.260000 1.586038
v -6.000000 -0.260000 2.400001
v -5.785607 0.260000 0.805295
v -5.945209 -0.260000 1.586038
v -5.528355 0.260000 0.064933
v -5.785607 -0.260000 0.805296
v -5.180611 0.260000 -0.627889
v -5.528355 -0.260000 0.064934
v -4.749533 0.260000 -1.266014
v -5.180611 -0.260000 -0.627889
v -4.242281 0.260000 -1.842281
v -4.749533 -0.260000 -1.266014
v -3.666013 0.260000 -2.349534
v -4.242281 -0.260000 -1.842281
v -3.027889 0.260000 -2.780611
v -3.666013 -0.260000 -2.349534
v -2.335066 0.259999 -3.128355
v -3.027889 -0.260000 -2.780611
v -1.594705 0.259999 -3.385607
v -2.335066 -0.260000 -3.128355
v -0.813963 0.259999 -3.545208
v -1.594705 -0.260001 -3.385607
v -0.813963 -0.260001 -3.545208
v -0.000000 -0.260001 -3.590000
v 0.812623 0.259999 -3.535299
v -0.000000 0.259999 -3.590000
v 0.812623 -0.260001 -3.535299
v 1.592057 0.259999 -3.375964
v 1.592057 -0.260001 -3.375964
v 2.331174 0.259999 -3.119144
v 2.331174 -0.260000 -3.119144
v 3.022837 0.260000 -2.771981
v 3.022837 -0.260000 -2.771981
v 3.659899 0.260000 -2.341621
v 3.659899 -0.260000 -2.341621
v 4.235210 0.260000 -1.835210
v 4.235210 -0.260000 -1.835210
v 4.741621 0.260000 -1.259898
v 4.741621 -0.260000 -1.259898
v 5.171981 0.260000 -0.622837
v 5.171981 -0.260000 -0.622837
v 5.519144 0.260000 0.068825
v 5.519144 -0.260000 0.068826
v 5.775964 0.260000 0.807942
v 5.775964 -0.260000 0.807943
v 5.935298 0.260000 1.587376
v 5.935298 -0.260000 1.587376
v 5.990000 0.260000 2.400000
v 5.990000 -0.260000 2.400000
v 5.935299 0.260001 3.212622
v 5.935299 -0.259999 3.212622
v 5.775964 0.260001 3.992057
v 5.775964 -0.259999 3.992057
v 5.519145 0.260001 4.731174
v 5.519145 -0.259999 4.731174
v 5.171981 0.260001 5.422836
v 5.171981 -0.259999 5.422836
v 4.741621 0.260001 6.059898
v 4.741621 -0.259999 6.059898
v 4.235210 0.260001 6.635211
v 4.235210 -0.259999 6.635211
v 3.659900 0.260001 7.141622
v 3.659900 -0.259999 7.141622
v 3.022838 0.260001 7.571980
v 3.022838 -0.259999 7.571981
v 2.331175 0.260001 7.919144
v 2.331175 -0.259999 7.919144
v 1.592058 0.260001 8.175964
v 1.592058 -0.259999 8.175964
v 0.812624 0.260001 8.335299
v 0.812624 -0.259999 8.335299
v 0.000001 0.260001 8.389999
v 0.000001 -0.259999 8.389999
v -0.812622 0.260001 8.335299
v -0.812622 -0.259999 8.335299
v -1.592056 0.260001 8.175964
v -1.592056 -0.259999 8.175964
v -2.331173 0.260001 7.919144
v -2.331173 -0.259999 7.919145
v -3.022836 0.260001 7.571981
v -3.022836 -0.259999 7.571981
v -3.659898 0.260001 7.141622
v -3.659898 -0.259999 7.141622
v -4.235209 0.260001 6.635211
v -4.235209 -0.259999 6.635211
v -4.741621 0.260001 6.059898
v -4.741621 -0.259999 6.059898
v -5.171980 0.260001 5.422837
v -5.171980 -0.259999 5.422837
v -5.519144 0.260001 4.731174
v -5.519144 -0.259999 4.731174
v -5.775963 0.260001 3.992058
v -5.775963 -0.259999 3.992058
v -5.935297 0.260001 3.212623
v -5.935297 -0.259999 3.212623
v -5.990000 0.260000 2.400001
v -5.990000 -0.260000 2.400001
v -5.935299 0.260000 1.587377
v -5.935299 -0.260000 1.587378
v -5.775964 0.260000 0.807943
v -5.775964 -0.260000 0.807944
v -5.519144 0.260000 0.068826
v -5.519144 -0.260000 0.068827
v -5.171981 0.260000 -0.622837
v -5.171981 -0.260000 -0.622837
v -4.741621 0.260000 -1.259899
v -4.741621 -0.260000 -1.259899
v -4.235210 0.260000 -1.835210
v -4.235210 -0.260000 -1.835210
v -3.659899 0.260000 -2.341621
v -3.659899 -0.260000 -2.341620
v -3.022837 0.260000 -2.771981
v -3.022837 -0.260000 -2.771981
v -2.331174 0.259999 -3.119144
v -2.331174 -0.260000 -3.119144
v -1.592057 0.259999 -3.375964
v -1.592057 -0.260001 -3.375964
v -0.812623 0.259999 -3.535298
v -0.812623 -0.260001 -3.535298
v -1.594704 -0.259999 8.185608
v -0.812622 -0.259999 8.335299
v -0.813962 -0.259999 8.345209
v 5.945210 -0.259999 3.213964
v 5.990000 -0.260000 2.400000
v 6.000000 -0.260000 2.400000
v -5.180611 0.260001 5.427889
v -5.519144 0.260001 4.731174
v -5.528355 0.260001 4.735066
v 5.945208 0.260000 1.586036
v 5.990000 0.260000 2.400000
v 6.000000 0.260000 2.400000
v -4.749534 0.260001 6.066013
v -5.171980 0.260001 5.422837
v 5.785607 0.260000 0.805294
v 5.935298 0.260000 1.587376
v -3.666013 0.260000 -2.349534
v -3.022837 0.260000 -2.771981
v -3.027889 0.260000 -2.780611
v 2.335067 -0.259999 7.928355
v 1.592058 -0.259999 8.175964
v 2.331175 -0.259999 7.919144
v 3.027889 0.260000 -2.780611
v 2.331174 0.259999 -3.119144
v 3.022837 0.260000 -2.771981
v 5.528356 -0.259999 4.735066
v 5.775964 -0.259999 3.992057
v 5.785607 -0.259999 3.994704
v 4.242281 0.260001 6.642282
v 4.741621 0.260001 6.059898
v 4.235210 0.260001 6.635211
v -2.331174 0.259999 -3.119144
v -2.335066 0.259999 -3.128355
v 0.000001 -0.259999 8.389999
v 0.000001 -0.259999 8.400000
v 2.335067 0.259999 -3.128355
v 1.592057 0.259999 -3.375964
v 5.180612 -0.259999 5.427888
v 5.519145 -0.259999 4.731174
v -4.242280 -0.259999 6.642282
v -3.659898 -0.259999 7.141622
v -3.666013 -0.259999 7.149533
v -5.945209 -0.260000 1.586038
v -5.990000 -0.260000 2.400001
v -6.000000 -0.260000 2.400001
v -5.180611 -0.260000 -0.627889
v -5.519144 -0.260000 0.068827
v -5.528355 -0.260000 0.064934
v 4.749534 0.260001 6.066013
v 5.171981 0.260001 5.422836
v 5.528355 0.260000 0.064933
v 5.775964 0.260000 0.807942
v 3.027890 -0.259999 7.580611
v 3.022838 -0.259999 7.571981
v 4.242281 -0.260000 -1.842281
v 3.659899 -0.260000 -2.341621
v 3.666014 -0.260000 -2.349533
v -5.775964 -0.260000 0.807944
v -5.785607 -0.260000 0.805296
v -3.027888 0.260001 7.580611
v -2.331173 0.260001 7.919144
v -3.022836 0.260001 7.571981
v -1.592057 0.259999 -3.375964
v -1.594705 0.259999 -3.385607
v -3.022836 -0.259999 7.571981
v -3.027888 -0.259999 7.580612
v 1.594705 0.259999 -3.385607
v 0.812623 0.259999 -3.535299
v -2.335066 0.260001 7.928355
v -1.592056 0.260001 8.175964
v -3.666013 -0.260000 -2.349534
v -3.022837 -0.260000 -2.771981
v -3.659899 -0.260000 -2.341620
v 1.594706 -0.259999 8.185607
v 0.812624 -0.259999 8.335299
v 5.180611 0.260000 -0.627889
v 5.519144 0.260000 0.068825
v -4.242281 -0.260000 -1.842281
v -4.235210 -0.260000 -1.835210
v 0.813964 -0.259999 8.345207
v 3.022837 -0.260000 -2.771981
v 3.027889 -0.260000 -2.780611
v -0.812623 0.259999 -3.535298
v -0.813963 0.259999 -3.545208
v -4.741621 -0.259999 6.059898
v -4.235209 -0.259999 6.635211
v -5.945208 -0.259999 3.213964
v -5.935297 -0.259999 3.212623
v -4.741621 -0.260000 -1.259899
v -4.749533 -0.260000 -1.266014
v 5.785607 0.260001 3.994704
v 5.935299 0.260001 3.212622
v 5.775964 0.260001 3.992057
v 0.813963 0.259999 -3.545208
v -0.000000 0.259999 -3.590000
v -4.749534 -0.259999 6.066013
v -5.171980 -0.259999 5.422837
v -5.785606 -0.259999 3.994705
v -5.775963 -0.259999 3.992058
v -5.945208 0.260001 3.213964
v -5.990000 0.260000 2.400001
v -6.000000 0.260000 2.400001
v 4.741621 -0.260000 -1.259898
v 4.235210 -0.260000 -1.835210
v -1.594704 0.260001 8.185608
v -0.812622 0.260001 8.335299
v -0.813963 -0.260001 -3.545208
v -0.000000 -0.260001 -3.590000
v -0.812623 -0.260001 -3.535298
v -5.528355 -0.259999 4.735066
v -5.519144 -0.259999 4.731174
v 0.813964 0.260001 8.345207
v 0.000001 0.260001 8.389999
v 0.000001 0.260001 8.400000
v -5.945209 0.260000 1.586038
v -5.935299 0.260000 1.587377
v 4.242281 -0.259999 6.642282
v 3.659900 -0.259999 7.141622
v 4.235210 -0.259999 6.635211
v 5.945210 0.260001 3.213964
v 4.749534 -0.260000 -1.266013
v 5.171981 -0.260000 -0.622837
v 3.666014 -0.259999 7.149534
v 2.335067 0.260001 7.928355
v 1.592058 0.260001 8.175964
v 1.594706 0.260001 8.185607
v -0.813962 0.260001 8.345209
v 5.785607 -0.260000 0.805295
v 5.935298 -0.260000 1.587376
v 5.775964 -0.260000 0.807943
v -2.335066 -0.260000 -3.128355
v -1.592057 -0.260001 -3.375964
v -2.331174 -0.260000 -3.119144
v 5.528356 0.260001 4.735066
v 5.519145 0.260001 4.731174
v 5.945208 -0.260000 1.586037
v -5.171981 -0.260000 -0.622837
v 4.741621 -0.259999 6.059898
v 4.749534 -0.259999 6.066013
v -5.785607 0.260000 0.805295
v -5.775964 0.260000 0.807943
v -4.242280 0.260001 6.642282
v -3.659898 0.260001 7.141622
v -4.235209 0.260001 6.635211
v 2.335067 -0.260000 -3.128355
v 1.592057 -0.260001 -3.375964
v 1.594705 -0.260001 -3.385607
v -5.180611 0.260000 -0.627889
v -5.519144 0.260000 0.068826
v -5.171981 0.260000 -0.622837
v 3.027890 0.260001 7.580611
v 2.331175 0.260001 7.919144
v 4.749534 0.260000 -1.266014
v 5.171981 0.260000 -0.622837
v 2.331174 -0.260000 -3.119144
v 5.528355 -0.260000 0.064934
v 5.519144 -0.260000 0.068826
v -5.180611 -0.259999 5.427889
v -4.242281 0.260000 -1.842281
v -4.741621 0.260000 -1.259899
v -4.235210 0.260000 -1.835210
v -5.528355 0.260000 0.064933
v -3.666013 0.260001 7.149533
v 5.180612 0.260001 5.427888
v 0.812624 0.260001 8.335299
v 5.171981 -0.259999 5.422836
v 4.242281 0.260000 -1.842281
v 3.659899 0.260000 -2.341621
v 4.235210 0.260000 -1.835210
v 0.812623 -0.260001 -3.535299
v 0.813963 -0.260001 -3.545208
v -3.027889 -0.260000 -2.780611
v -5.775963 0.260001 3.992058
v -5.785606 0.260001 3.994705
v -4.741621 0.260001 6.059898
v 5.180611 -0.260000 -0.627889
v -3.659899 0.260000 -2.341621
v -2.335066 -0.259999 7.928356
v -1.592056 -0.259999 8.175964
v 3.666014 0.260000 -2.349534
v -0.000000 0.259999 -3.600000
v 5.935299 -0.259999 3.212622
v -1.594705 -0.260001 -3.385607
v -2.331173 -0.259999 7.919145
v 3.666014 0.260001 7.149534
v 3.022838 0.260001 7.571980
v -0.000000 -0.260001 -3.600000
v -5.935297 0.260001 3.212623
v -4.749533 0.260000 -1.266014
v -5.935299 -0.260000 1.587378
v 3.659900 0.260001 7.141622
v 4.741621 0.260000 -1.259898
v 1.627926 0.249998 -9.490417
v -0.000001 -0.250002 -9.600000
v -0.000001 0.249998 -9.600000
v 3.189409 0.249999 -9.171215
v 1.627926 -0.250002 -9.490417
v 4.670133 0.249999 -8.656710
v 3.189409 -0.250001 -9.171215
v 6.055779 0.249999 -7.961222
v 4.670133 -0.250001 -8.656710
v 7.332026 0.249999 -7.099066
v 6.055779 -0.250001 -7.961222
v 8.484562 0.249999 -6.084563
v 7.332026 -0.250001 -7.099066
v 9.499067 0.249999 -4.932027
v 8.484562 -0.250001 -6.084562
v 10.361222 0.249999 -3.655778
v 9.499067 -0.250001 -4.932027
v 11.056710 0.250000 -2.270134
v 10.361222 -0.250001 -3.655778
v 11.571214 0.250000 -0.789411
v 11.056710 -0.250000 -2.270134
v 11.890415 0.250000 0.772073
v 11.571214 -0.250000 -0.789411
v 12.000000 0.250000 2.399999
v 11.890415 -0.250000 0.772073
v 11.890417 0.250001 4.027925
v 12.000000 -0.250000 2.399999
v 11.571216 0.250001 5.589409
v 11.890417 -0.249999 4.027925
v 11.056711 0.250001 7.070133
v 11.571216 -0.249999 5.589409
v 10.361222 0.250001 8.455777
v 11.056711 -0.249999 7.070133
v 9.499067 0.250002 9.732026
v 10.361222 -0.249999 8.455777
v 8.484563 0.250002 10.884562
v 9.499067 -0.249998 9.732026
v 7.332027 0.250002 11.899066
v 8.484563 -0.249998 10.884562
v 6.055779 0.250002 12.761222
v 7.332027 -0.249998 11.899066
v 4.670134 0.250002 13.456711
v 6.055779 -0.249998 12.761222
v 3.189411 0.250002 13.971214
v 4.670134 -0.249998 13.456711
v 1.627927 0.250002 14.290415
v 3.189411 -0.249998 13.971214
v 0.000001 0.250002 14.400000
v 1.627927 -0.249998 14.290415
v -1.627926 0.250002 14.290417
v 0.000001 -0.249998 14.400000
v -3.189409 0.250002 13.971214
v -1.627926 -0.249998 14.290417
v -4.670133 0.250002 13.456711
v -3.189409 -0.249998 13.971214
v -6.055778 0.250002 12.761222
v -4.670133 -0.249998 13.456711
v -7.332026 0.250002 11.899068
v -6.055778 -0.249998 12.761222
v -8.484562 0.250002 10.884562
v -7.332026 -0.249998 11.899068
v -9.499066 0.250002 9.732028
v -8.484562 -0.249998 10.884562
v -10.361221 0.250001 8.455779
v -9.499066 -0.249998 9.732028
v -11.056709 0.250001 7.070134
v -10.361221 -0.249999 8.455779
v -11.571213 0.250001 5.589411
v -11.056709 -0.249999 7.070134
v -11.890415 0.250001 4.027927
v -11.571213 -0.249999 5.589411
v -12.000000 0.250000 2.400001
v -11.890415 -0.249999 4.027927
v -11.890417 0.250000 0.772075
v -12.000000 -0.250000 2.400001
v -11.571215 0.250000 -0.789409
v -11.890417 -0.250000 0.772075
v -11.056710 0.250000 -2.270132
v -11.571215 -0.250000 -0.789409
v -10.361221 0.249999 -3.655777
v -11.056710 -0.250000 -2.270132
v -9.499066 0.249999 -4.932026
v -10.361221 -0.250001 -3.655777
v -8.484563 0.249999 -6.084562
v -9.499066 -0.250001 -4.932026
v -7.332026 0.249999 -7.099067
v -8.484563 -0.250001 -6.084562
v -6.055779 0.249999 -7.961222
v -7.332026 -0.250001 -7.099067
v -4.670134 0.249999 -8.656710
v -6.055779 -0.250001 -7.961222
v -3.189411 0.249999 -9.171213
v -4.670134 -0.250001 -8.656710
v -1.627927 0.249998 -9.490416
v -3.189411 -0.250001 -9.171213
v -1.627927 -0.250002 -9.490416
v -0.000001 -0.250002 -9.590000
v 1.626586 0.249998 -9.480507
v -0.000001 0.249998 -9.590000
v 1.626586 -0.250002 -9.480507
v 3.186761 0.249999 -9.161572
v 3.186761 -0.250001 -9.161572
v 4.666240 0.249999 -8.647499
v 4.666240 -0.250001 -8.647499
v 6.050725 0.249999 -7.952591
v 6.050725 -0.250001 -7.952591
v 7.325912 0.249999 -7.091155
v 7.325912 -0.250001 -7.091155
v 8.477491 0.249999 -6.077492
v 8.477491 -0.250001 -6.077491
v 9.491155 0.249999 -4.925913
v 9.491155 -0.250001 -4.925913
v 10.352592 0.249999 -3.650726
v 10.352592 -0.250001 -3.650726
v 11.047499 0.250000 -2.266241
v 11.047499 -0.250000 -2.266241
v 11.561571 0.250000 -0.786763
v 11.561571 -0.250000 -0.786763
v 11.880506 0.250000 0.773413
v 11.880506 -0.250000 0.773413
v 11.990001 0.250000 2.399999
v 11.990001 -0.250000 2.399999
v 11.880507 0.250001 4.026586
v 11.880507 -0.249999 4.026586
v 11.561573 0.250001 5.586761
v 11.561573 -0.249999 5.586761
v 11.047500 0.250001 7.066240
v 11.047500 -0.249999 7.066240
v 10.352593 0.250001 8.450727
v 10.352593 -0.249999 8.450727
v 9.491155 0.250002 9.725912
v 9.491155 -0.249998 9.725912
v 8.477492 0.250002 10.877492
v 8.477492 -0.249998 10.877492
v 7.325913 0.250002 11.891154
v 7.325913 -0.249998 11.891154
v 6.050726 0.250002 12.752591
v 6.050726 -0.249998 12.752591
v 4.666241 0.250002 13.447498
v 4.666241 -0.249998 13.447498
v 3.186763 0.250002 13.961571
v 3.186763 -0.249998 13.961571
v 1.626587 0.250002 14.280506
v 1.626587 -0.249998 14.280506
v 0.000001 0.250002 14.389999
v 0.000001 -0.249998 14.389999
v -1.626586 0.250002 14.280508
v -1.626586 -0.249998 14.280508
v -3.186761 0.250002 13.961573
v -3.186761 -0.249998 13.961573
v -4.666240 0.250002 13.447498
v -4.666240 -0.249998 13.447498
v -6.050725 0.250002 12.752593
v -6.050725 -0.249998 12.752593
v -7.325912 0.250002 11.891154
v -7.325912 -0.249998 11.891154
v -8.477491 0.250002 10.877492
v -8.477491 -0.249998 10.877492
v -9.491154 0.250002 9.725913
v -9.491154 -0.249998 9.725913
v -10.352592 0.250001 8.450727
v -10.352592 -0.249999 8.450727
v -11.047498 0.250001 7.066241
v -11.047498 -0.249999 7.066241
v -11.561570 0.250001 5.586762
v -11.561570 -0.249999 5.586762
v -11.880506 0.250001 4.026588
v -11.880506 -0.249999 4.026588
v -11.990001 0.250000 2.400001
v -11.990001 -0.250000 2.400001
v -11.880507 0.250000 0.773415
v -11.880507 -0.250000 0.773415
v -11.561572 0.250000 -0.786761
v -11.561572 -0.250000 -0.786761
v -11.047499 0.250000 -2.266240
v -11.047499 -0.250000 -2.266240
v -10.352592 0.249999 -3.650725
v -10.352592 -0.250001 -3.650725
v -9.491154 0.249999 -4.925912
v -9.491154 -0.250001 -4.925912
v -8.477492 0.249999 -6.077492
v -8.477492 -0.250001 -6.077491
v -7.325912 0.249999 -7.091155
v -7.325912 -0.250001 -7.091155
v -6.050725 0.249999 -7.952591
v -6.050725 -0.250001 -7.952591
v -4.666241 0.249999 -8.647499
v -4.666241 -0.250001 -8.647499
v -3.186763 0.249999 -9.161572
v -3.186763 -0.250001 -9.161572
v -1.626587 0.249998 -9.480505
v -1.626587 -0.250002 -9.480505
v -3.189409 -0.249998 13.971214
v -1.626586 -0.249998 14.280508
v -1.627926 -0.249998 14.290417
v 11.890417 -0.249999 4.027925
v 11.990001 -0.250000 2.399999
v 12.000000 -0.250000 2.399999
v -10.361221 0.250001 8.455779
v -11.047498 0.250001 7.066241
v -11.056709 0.250001 7.070134
v 11.890415 0.250000 0.772073
v 11.990001 0.250000 2.399999
v 12.000000 0.250000 2.399999
v -9.499066 0.250002 9.732028
v -10.352592 0.250001 8.450727
v 11.571214 0.250000 -0.789411
v 11.880506 0.250000 0.773413
v -7.332026 0.249999 -7.099067
v -6.050725 0.249999 -7.952591
v -6.055779 0.249999 -7.961222
v 4.670134 -0.249998 13.456711
v 3.186763 -0.249998 13.961571
v 4.666241 -0.249998 13.447498
v 6.055779 0.249999 -7.961222
v 4.666240 0.249999 -8.647499
v 6.050725 0.249999 -7.952591
v 11.056711 -0.249999 7.070133
v 11.561573 -0.249999 5.586761
v 11.571216 -0.249999 5.589409
v 8.484563 0.250002 10.884562
v 9.491155 0.250002 9.725912
v 8.477492 0.250002 10.877492
v -4.666241 0.249999 -8.647499
v -4.670134 0.249999 -8.656710
v 0.000001 -0.249998 14.389999
v 0.000001 -0.249998 14.400000
v 4.670133 0.249999 -8.656710
v 3.186761 0.249999 -9.161572
v 10.361222 -0.249999 8.455777
v 11.047500 -0.249999 7.066240
v -8.484562 -0.249998 10.884562
v -7.325912 -0.249998 11.891154
v -7.332026 -0.249998 11.899068
v -11.890417 -0.250000 0.772075
v -11.990001 -0.250000 2.400001
v -12.000000 -0.250000 2.400001
v -10.361221 -0.250001 -3.655777
v -11.047499 -0.250000 -2.266240
v -11.056710 -0.250000 -2.270132
v 9.499067 0.250002 9.732026
v 10.352593 0.250001 8.450727
v 11.056710 0.250000 -2.270134
v 11.561571 0.250000 -0.786763
v 6.055779 -0.249998 12.761222
v 6.050726 -0.249998 12.752591
v 8.484562 -0.250001 -6.084562
v 7.325912 -0.250001 -7.091155
v 7.332026 -0.250001 -7.099066
v -11.561572 -0.250000 -0.786761
v -11.571215 -0.250000 -0.789409
v -6.055778 0.250002 12.761222
v -4.666240 0.250002 13.447498
v -6.050725 0.250002 12.752593
v -3.186763 0.249999 -9.161572
v -3.189411 0.249999 -9.171213
v -6.050725 -0.249998 12.752593
v -6.055778 -0.249998 12.761222
v 3.189409 0.249999 -9.171215
v 1.626586 0.249998 -9.480507
v -4.670133 0.250002 13.456711
v -3.186761 0.250002 13.961573
v -7.332026 -0.250001 -7.099067
v -6.050725 -0.250001 -7.952591
v -7.325912 -0.250001 -7.091155
v 3.189411 -0.249998 13.971214
v 1.626587 -0.249998 14.280506
v 10.361222 0.249999 -3.655778
v 11.047499 0.250000 -2.266241
v -8.484563 -0.250001 -6.084562
v -8.477492 -0.250001 -6.077491
v 1.627927 -0.249998 14.290415
v 6.050725 -0.250001 -7.952591
v 6.055779 -0.250001 -7.961222
v -1.626587 0.249998 -9.480505
v -1.627927 0.249998 -9.490416
v -9.491154 -0.249998 9.725913
v -8.477491 -0.249998 10.877492
v -11.890415 -0.249999 4.027927
v -11.880506 -0.249999 4.026588
v -9.491154 -0.250001 -4.925912
v -9.499066 -0.250001 -4.932026
v 11.571216 0.250001 5.589409
v 11.880507 0.250001 4.026586
v 11.561573 0.250001 5.586761
v 1.627926 0.249998 -9.490417
v -0.000001 0.249998 -9.590000
v -9.499066 -0.249998 9.732028
v -10.352592 -0.249999 8.450727
v -11.571213 -0.249999 5.589411
v -11.561570 -0.249999 5.586762
v -11.890415 0.250001 4.027927
v -11.990001 0.250000 2.400001
v -12.000000 0.250000 2.400001
v 9.491155 -0.250001 -4.925913
v 8.477491 -0.250001 -6.077491
v -3.189409 0.250002 13.971214
v -1.626586 0.250002 14.280508
v -1.627927 -0.250002 -9.490416
v -0.000001 -0.250002 -9.590000
v -1.626587 -0.250002 -9.480505
v -11.056709 -0.249999 7.070134
v -11.047498 -0.249999 7.066241
v 1.627927 0.250002 14.290415
v 0.000001 0.250002 14.389999
v 0.000001 0.250002 14.400000
v -11.890417 0.250000 0.772075
v -11.880507 0.250000 0.773415
v 8.484563 -0.249998 10.884562
v 7.325913 -0.249998 11.891154
v 8.477492 -0.249998 10.877492
v 11.890417 0.250001 4.027925
v 9.499067 -0.250001 -4.932027
v 10.352592 -0.250001 -3.650726
v 7.332027 -0.249998 11.899066
v 4.670134 0.250002 13.456711
v 3.186763 0.250002 13.961571
v 3.189411 0.250002 13.971214
v -1.627926 0.250002 14.290417
v 11.571214 -0.250000 -0.789411
v 11.880506 -0.250000 0.773413
v 11.561571 -0.250000 -0.786763
v -4.670134 -0.250001 -8.656710
v -3.186763 -0.250001 -9.161572
v -4.666241 -0.250001 -8.647499
v 11.056711 0.250001 7.070133
v 11.047500 0.250001 7.066240
v 11.890415 -0.250000 0.772073
v -10.352592 -0.250001 -3.650725
v 9.491155 -0.249998 9.725912
v 9.499067 -0.249998 9.732026
v -11.571215 0.250000 -0.789409
v -11.561572 0.250000 -0.786761
v -8.484562 0.250002 10.884562
v -7.325912 0.250002 11.891154
v -8.477491 0.250002 10.877492
v 4.670133 -0.250001 -8.656710
v 3.186761 -0.250001 -9.161572
v 3.189409 -0.250001 -9.171215
v -10.361221 0.249999 -3.655777
v -11.047499 0.250000 -2.266240
v -10.352592 0.249999 -3.650725
v 6.055779 0.250002 12.761222
v 4.666241 0.250002 13.447498
v 9.499067 0.249999 -4.932027
v 10.352592 0.249999 -3.650726
v 4.666240 -0.250001 -8.647499
v 11.056710 -0.250000 -2.270134
v 11.047499 -0.250000 -2.266241
v -10.361221 -0.249999 8.455779
v -8.484563 0.249999 -6.084562
v -9.491154 0.249999 -4.925912
v -8.477492 0.249999 -6.077492
v -11.056710 0.250000 -2.270132
v -7.332026 0.250002 11.899068
v 10.361222 0.250001 8.455777
v 1.626587 0.250002 14.280506
v 10.352593 -0.249999 8.450727
v 8.484562 0.249999 -6.084563
v 7.325912 0.249999 -7.091155
v 8.477491 0.249999 -6.077492
v 1.626586 -0.250002 -9.480507
v 1.627926 -0.250002 -9.490417
v -6.055779 -0.250001 -7.961222
v -11.561570 0.250001 5.586762
v -11.571213 0.250001 5.589411
v -9.491154 0.250002 9.725913
v 10.361222 -0.250001 -3.655778
v -7.325912 0.249999 -7.091155
v -4.670133 -0.249998 13.456711
v -3.186761 -0.249998 13.961573
v 7.332026 0.249999 -7.099066
v -0.000001 0.249998 -9.600000
v 11.880507 -0.249999 4.026586
v -3.189411 -0.250001 -9.171213
v -4.666240 -0.249998 13.447498
v 7.332027 0.250002 11.899066
v 6.050726 0.250002 12.752591
v -0.000001 -0.250002 -9.600000
v -11.880506 0.250001 4.026588
v -9.499066 0.249999 -4.932026
v -11.880507 -0.250000 0.773415
v 7.325913 0.250002 11.891154
v 9.491155 0.249999 -4.925913
vn 0.6574 0.0000 0.7536
vn -0.6574 0.0000 -0.7536
vn -0.0000 -1.0000 -0.0000
vn 0.0000 1.0000 -0.0000
vn -0.7535 0.0000 0.6574
vn -0.7536 0.0000 0.6574
vn 0.7536 0.0000 -0.6574
vn -0.7535 0.0000 0.6575
vn 0.6576 0.0000 -0.7533
vn -0.6576 0.0000 0.7533
vn 0.7534 0.0000 0.6576
vn 0.7533 0.0000 0.6577
vn -0.7533 0.0000 -0.6577
vn -0.7534 0.0000 -0.6576
vn 0.1340 0.0000 -0.9910
vn 0.0000 0.0000 -1.0000
vn 0.2648 -0.0000 -0.9643
vn 0.3892 -0.0000 -0.9211
vn 0.5052 0.0000 -0.8630
vn 0.6115 -0.0000 -0.7912
vn 0.7071 -0.0000 -0.7071
vn 0.7912 -0.0000 -0.6115
vn 0.8630 0.0000 -0.5052
vn 0.9211 -0.0000 -0.3892
vn 0.9643 -0.0000 -0.2648
vn 0.9910 -0.0000 -0.1340
vn 1.0000 -0.0000 -0.0000
vn 0.9910 0.0000 0.1340
vn 0.9643 0.0000 0.2648
vn 0.9211 0.0000 0.3892
vn 0.8630 0.0000 0.5052
vn 0.7912 0.0000 0.6115
vn 0.7071 0.0000 0.7071
vn 0.6115 0.0000 0.7912
vn 0.5052 0.0000 0.8630
vn 0.3892 0.0000 0.9211
vn 0.2648 0.0000 0.9643
vn 0.1340 0.0000 0.9910
vn 0.0000 0.0000 1.0000
vn -0.1340 0.0000 0.9910
vn -0.2648 0.0000 0.9643
vn -0.3892 0.0000 0.9211
vn -0.5052 0.0000 0.8630
vn -0.6115 0.0000 0.7912
vn -0.7071 0.0000 0.7071
vn -0.7912 0.0000 0.6115
vn -0.8630 0.0000 0.5052
vn -0.9211 0.0000 0.3892
vn -0.9643 0.0000 0.2648
vn -0.9910 0.0000 0.1340
vn -1.0000 0.0000 0.0000
vn -0.9910 -0.0000 -0.1340
vn -0.9643 0.0000 -0.2648
vn -0.9211 0.0000 -0.3892
vn -0.8630 0.0000 -0.5052
vn -0.7912 -0.0000 -0.6115
vn -0.7071 -0.0000 -0.7071
vn -0.6115 -0.0000 -0.7912
vn -0.5052 -0.0000 -0.8630
vn -0.3892 0.0000 -0.9211
vn -0.2648 -0.0000 -0.9643
vn -0.1340 -0.0000 -0.9910
usemtl None
s 1
f 1//1 2//1 3//1
f 4//1 5//1 1//1
f 6//1 7//1 4//1
f 8//1 9//1 6//1
f 10//1 11//1 8//1
f 12//1 13//1 10//1
f 14//1 15//1 12//1
f 16//1 17//1 14//1
f 18//1 19//1 16//1
f 20//1 21//1 18//1
f 22//1 23//1 20//1
f 24//1 25//1 22//1
f 26//1 27//1 24//1
f 28//1 29//1 26//1
f 30//1 31//1 28//1
f 32//1 33//1 30//1
f 34//1 35//1 32//1
f 36//1 37//1 34//1
f 38//1 39//1 36//1
f 40//1 41//1 38//1
f 42//1 43//1 40//1
f 44//1 45//1 42//1
f 46//1 47//1 44//1
f 48//1 49//1 46//1
f 50//1 51//1 48//1
f 52//1 53//1 50//1
f 54//1 55//1 52//1
f 56//1 57//1 54//1
f 58//1 59//1 56//1
f 60//1 61//1 58//1
f 62//1 63//1 60//1
f 64//1 65//1 62//1
f 66//1 67//1 64//1
f 68//1 69//1 66//1
f 70//1 71//1 68//1
f 72//1 73//1 70//1
f 74//1 75//1 72//1
f 76//1 77//1 74//1
f 78//1 79//1 76//1
f 80//1 81//1 78//1
f 82//1 83//1 80//1
f 84//1 85//1 82//1
f 86//1 87//1 84//1
f 88//1 89//1 86//1
f 90//1 91//1 88//1
f 92//1 93//1 90//1
f 94//1 95//1 92//1
f 96//2 97//2 98//2
f 99//2 100//2 97//2
f 101//2 102//2 100//2
f 103//2 104//2 102//2
f 105//2 106//2 104//2
f 107//2 108//2 106//2
f 109//2 110//2 108//2
f 111//2 112//2 110//2
f 113//2 114//2 112//2
f 115//2 116//2 114//2
f 117//2 118//2 116//2
f 119//2 120//2 118//2
f 121//2 122//2 120//2
f 123//2 124//2 122//2
f 125//2 126//2 124//2
f 127//2 128//2 126//2
f 129//2 130//2 128//2
f 131//2 132//2 130//2
f 133//2 134//2 132//2
f 135//2 136//2 134//2
f 137//2 138//2 136//2
f 139//2 140//2 138//2
f 141//2 142//2 140//2
f 143//2 144//2 142//2
f 145//2 146//2 144//2
f 147//2 148//2 146//2
f 149//2 150//2 148//2
f 151//2 152//2 150//2
f 153//2 154//2 152//2
f 155//2 156//2 154//2
f 157//2 158//2 156//2
f 159//2 160//2 158//2
f 161//2 162//2 160//2
f 163//2 164//2 162//2
f 165//2 166//2 164//2
f 167//2 168//2 166//2
f 169//2 170//2 168//2
f 171//2 172//2 170//2
f 173//2 174//2 172//2
f 175//2 176//2 174//2
f 177//2 178//2 176//2
f 179//2 180//2 178//2
f 181//2 182//2 180//2
f 183//2 184//2 182//2
f 185//2 186//2 184//2
f 187//2 188//2 186//2
f 189//2 190//2 188//2
f 191//3 192//3 193//3
f 194//3 195//3 196//3
f 197//4 198//4 199//4
f 200//4 201//4 202//4
f 203//4 204//4 197//4
f 205//4 206//4 200//4
f 207//4 208//4 209//4
f 210//3 211//3 212//3
f 213//4 214//4 215//4
f 216//3 217//3 218//3
f 219//4 220//4 221//4
f 209//4 222//4 223//4
f 193//3 224//3 225//3
f 226//4 227//4 213//4
f 228//3 229//3 216//3
f 230//3 231//3 232//3
f 233//3 234//3 235//3
f 236//3 237//3 238//3
f 239//4 240//4 219//4
f 241//4 242//4 205//4
f 212//3 243//3 244//3
f 245//3 246//3 247//3
f 238//3 248//3 249//3
f 250//4 251//4 252//4
f 223//4 253//4 254//4
f 232//3 255//3 256//3
f 257//4 258//4 226//4
f 259//4 260//4 250//4
f 261//3 262//3 263//3
f 264//3 265//3 210//3
f 266//4 267//4 241//4
f 263//3 268//3 269//3
f 225//3 270//3 264//3
f 247//3 271//3 272//3
f 273//5 274//6 275//6
f 254//4 276//4 277//4
f 278//3 279//3 230//3
f 235//3 280//3 281//3
f 269//3 282//3 283//3
f 284//4 285//4 286//4
f 287//4 288//4 257//4
f 289//3 290//3 278//3
f 281//3 291//3 292//3
f 293//4 294//4 295//4
f 296//7 297//7 298//7
f 299//3 300//3 245//3
f 301//4 302//4 259//4
f 292//3 303//3 304//3
f 305//4 306//4 307//4
f 295//4 308//4 309//4
f 310//3 311//3 312//3
f 202//4 313//4 284//4
f 314//3 315//3 299//3
f 244//3 316//3 310//3
f 317//4 318//4 319//4
f 307//4 320//4 301//4
f 321//3 322//3 323//3
f 324//3 325//3 326//3
f 286//4 327//4 328//4
f 196//3 329//3 321//3
f 283//3 330//3 236//3
f 312//3 331//3 332//3
f 309//4 333//4 334//4
f 335//4 336//4 337//4
f 338//3 339//3 340//3
f 341//4 342//4 343//4
f 344//4 345//4 317//4
f 346//4 347//4 266//4
f 272//3 348//3 338//3
f 323//3 349//3 350//3
f 304//3 351//3 289//3
f 352//4 353//4 354//4
f 334//4 355//4 341//4
f 252//4 356//4 335//4
f 328//4 357//4 239//4
f 319//4 358//4 305//4
f 332//3 359//3 228//3
f 360//4 361//4 362//4
f 340//3 363//3 364//3
f 326//3 365//3 261//3
f 199//4 366//4 367//4
f 337//4 368//4 203//4
f 350//3 369//3 314//3
f 354//4 370//4 207//4
f 371//3 372//3 191//3
f 215//4 373//4 360//4
f 218//3 374//3 194//3
f 375//3 376//3 324//3
f 256//3 377//3 371//3
f 378//4 379//4 344//4
f 364//3 380//3 381//3
f 367//4 382//4 293//4
f 343//4 383//4 352//4
f 249//3 384//3 233//3
f 221//4 385//4 378//4
f 362//4 386//4 346//4
f 1//1 5//1 2//1
f 4//1 7//1 5//1
f 6//1 9//1 7//1
f 8//1 11//1 9//1
f 10//1 13//1 11//1
f 12//1 15//1 13//1
f 14//1 17//1 15//1
f 16//1 19//1 17//1
f 18//1 21//1 19//1
f 20//1 23//1 21//1
f 22//1 25//1 23//1
f 24//1 27//1 25//1
f 26//1 29//1 27//1
f 28//1 31//1 29//1
f 30//1 33//1 31//1
f 32//1 35//1 33//1
f 34//1 37//1 35//1
f 36//1 39//1 37//1
f 38//1 41//1 39//1
f 40//1 43//1 41//1
f 42//1 45//1 43//1
f 44//1 47//1 45//1
f 46//1 49//1 47//1
f 48//1 51//1 49//1
f 50//1 53//1 51//1
f 52//1 55//1 53//1
f 54//1 57//1 55//1
f 56//1 59//1 57//1
f 58//1 61//1 59//1
f 60//1 63//1 61//1
f 62//1 65//1 63//1
f 64//1 67//1 65//1
f 66//1 69//1 67//1
f 68//1 71//1 69//1
f 70//1 73//1 71//1
f 72//1 75//1 73//1
f 74//1 77//1 75//1
f 76//1 79//1 77//1
f 78//1 81//1 79//1
f 80//1 83//1 81//1
f 82//1 85//1 83//1
f 84//1 87//1 85//1
f 86//1 89//1 87//1
f 88//1 91//1 89//1
f 90//1 93//1 91//1
f 92//1 95//1 93//1
f 94//1 387//1 95//1
f 96//2 99//2 97//2
f 99//2 101//2 100//2
f 101//2 103//2 102//2
f 103//2 105//2 104//2
f 105//2 107//2 106//2
f 107//2 109//2 108//2
f 109//2 111//2 110//2
f 111//2 113//2 112//2
f 113//2 115//2 114//2
f 115//2 117//2 116//2
f 117//2 119//2 118//2
f 119//2 121//2 120//2
f 121//2 123//2 122//2
f 123//2 125//2 124//2
f 125//2 127//2 126//2
f 127//2 129//2 128//2
f 129//2 131//2 130//2
f 131//2 133//2 132//2
f 133//2 135//2 134//2
f 135//2 137//2 136//2
f 137//2 139//2 138//2
f 139//2 141//2 140//2
f 141//2 143//2 142//2
f 143//2 145//2 144//2
f 145//2 147//2 146//2
f 147//2 149//2 148//2
f 149//2 151//2 150//2
f 151//2 153//2 152//2
f 153//2 155//2 154//2
f 155//2 157//2 156//2
f 157//2 159//2 158//2
f 159//2 161//2 160//2
f 161//2 163//2 162//2
f 163//2 165//2 164//2
f 165//2 167//2 166//2
f 167//2 169//2 168//2
f 169//2 171//2 170//2
f 171//2 173//2 172//2
f 173//2 175//2 174//2
f 175//2 177//2 176//2
f 177//2 179//2 178//2
f 179//2 181//2 180//2
f 181//2 183//2 182//2
f 183//2 185//2 184//2
f 185//2 187//2 186//2
f 187//2 189//2 188//2
f 189//2 388//2 190//2
f 191//3 372//3 192//3
f 194//3 374//3 195//3
f 197//4 204//4 198//4
f 200//4 206//4 201//4
f 203//4 368//4 204//4
f 205//4 242//4 206//4
f 207//4 370//4 208//4
f 210//3 265//3 211//3
f 213//4 227//4 214//4
f 216//3 229//3 217//3
f 219//4 240//4 220//4
f 209//4 208//4 222//4
f 193//3 192//3 224//3
f 226//4 258//4 227//4
f 228//3 359//3 229//3
f 230//3 279//3 231//3
f 233//3 384//3 234//3
f 236//3 330//3 237//3
f 239//4 357//4 240//4
f 241//4 267//4 242//4
f 212//3 211//3 243//3
f 245//3 300//3 246//3
f 238//3 237//3 248//3
f 250//4 260//4 251//4
f 223//4 222//4 253//4
f 232//3 231//3 255//3
f 257//4 288//4 258//4
f 259//4 302//4 260//4
f 261//3 365//3 262//3
f 264//3 270//3 265//3
f 266//4 347//4 267//4
f 263//3 262//3 268//3
f 225//3 224//3 270//3
f 247//3 246//3 271//3
f 273//5 389//8 274//6
f 254//4 253//4 276//4
f 278//3 290//3 279//3
f 235//3 234//3 280//3
f 269//3 268//3 282//3
f 284//4 313//4 285//4
f 287//4 390//4 288//4
f 289//3 351//3 290//3
f 281//3 280//3 291//3
f 293//4 382//4 294//4
f 296//7 391//7 297//7
f 299//3 315//3 300//3
f 301//4 320//4 302//4
f 292//3 291//3 303//3
f 305//4 358//4 306//4
f 295//4 294//4 308//4
f 310//3 316//3 311//3
f 202//4 201//4 313//4
f 314//3 369//3 315//3
f 244//3 243//3 316//3
f 317//4 345//4 318//4
f 307//4 306//4 320//4
f 321//3 329//3 322//3
f 324//3 376//3 325//3
f 286//4 285//4 327//4
f 196//3 195//3 329//3
f 283//3 282//3 330//3
f 312//3 311//3 331//3
f 309//4 308//4 333//4
f 335//4 356//4 336//4
f 338//3 348//3 339//3
f 341//4 355//4 342//4
f 344//4 379//4 345//4
f 346//4 386//4 347//4
f 272//3 271//3 348//3
f 323//3 322//3 349//3
f 304//3 303//3 351//3
f 352//4 383//4 353//4
f 334//4 333//4 355//4
f 252//4 251//4 356//4
f 328//4 327//4 357//4
f 319//4 318//4 358//4
f 332//3 331//3 359//3
f 360//4 373//4 361//4
f 340//3 339//3 363//3
f 326//3 325//3 365//3
f 199//4 198//4 366//4
f 337//4 336//4 368//4
f 350//3 349//3 369//3
f 354//4 353//4 370//4
f 371//3 377//3 372//3
f 215//4 214//4 373//4
f 218//3 217//3 374//3
f 375//3 392//3 376//3
f 256//3 255//3 377//3
f 378//4 385//4 379//4
f 364//3 363//3 380//3
f 367//4 366//4 382//4
f 343//4 342//4 383//4
f 249//3 248//3 384//3
f 221//4 220//4 385//4
f 362//4 361//4 386//4
f 393//9 394//9 395//9
f 396//9 397//9 393//9
f 398//9 399//9 396//9
f 400//9 401//9 398//9
f 402//9 403//9 400//9
f 404//9 405//9 402//9
f 406//9 407//9 404//9
f 408//9 409//9 406//9
f 410//9 411//9 408//9
f 412//9 413//9 410//9
f 414//9 415//9 412//9
f 416//9 417//9 414//9
f 418//9 419//9 416//9
f 420//9 421//9 418//9
f 422//9 423//9 420//9
f 424//9 425//9 422//9
f 426//9 427//9 424//9
f 428//9 429//9 426//9
f 430//9 431//9 428//9
f 432//9 433//9 430//9
f 434//9 435//9 432//9
f 436//9 437//9 434//9
f 438//9 439//9 436//9
f 440//9 441//9 438//9
f 442//9 443//9 440//9
f 444//9 445//9 442//9
f 446//9 447//9 444//9
f 448//9 449//9 446//9
f 450//9 451//9 448//9
f 452//9 453//9 450//9
f 454//9 455//9 452//9
f 456//9 457//9 454//9
f 458//9 459//9 456//9
f 460//9 461//9 458//9
f 462//9 463//9 460//9
f 464//9 465//9 462//9
f 466//9 467//9 464//9
f 468//9 469//9 466//9
f 470//9 471//9 468//9
f 472//9 473//9 470//9
f 474//9 475//9 472//9
f 476//9 477//9 474//9
f 478//9 479//9 476//9
f 480//9 481//9 478//9
f 482//9 483//9 480//9
f 484//9 485//9 482//9
f 486//9 487//9 484//9
f 488//10 489//10 490//10
f 491//10 492//10 489//10
f 493//10 494//10 492//10
f 495//10 496//10 494//10
f 497//10 498//10 496//10
f 499//10 500//10 498//10
f 501//10 502//10 500//10
f 503//10 504//10 502//10
f 505//10 506//10 504//10
f 507//10 508//10 506//10
f 509//10 510//10 508//10
f 511//10 512//10 510//10
f 513//10 514//10 512//10
f 515//10 516//10 514//10
f 517//10 518//10 516//10
f 519//10 520//10 518//10
f 521//10 522//10 520//10
f 523//10 524//10 522//10
f 525//10 526//10 524//10
f 527//10 528//10 526//10
f 529//10 530//10 528//10
f 531//10 532//10 530//10
f 533//10 534//10 532//10
f 535//10 536//10 534//10
f 537//10 538//10 536//10
f 539//10 540//10 538//10
f 541//10 542//10 540//10
f 543//10 544//10 542//10
f 545//10 546//10 544//10
f 547//10 548//10 546//10
f 549//10 550//10 548//10
f 551//10 552//10 550//10
f 553//10 554//10 552//10
f 555//10 556//10 554//10
f 557//10 558//10 556//10
f 559//10 560//10 558//10
f 561//10 562//10 560//10
f 563//10 564//10 562//10
f 565//10 566//10 564//10
f 567//10 568//10 566//10
f 569//10 570//10 568//10
f 571//10 572//10 570//10
f 573//10 574//10 572//10
f 575//10 576//10 574//10
f 577//10 578//10 576//10
f 579//10 580//10 578//10
f 581//10 582//10 580//10
f 583//3 584//3 585//3
f 586//3 587//3 588//3
f 589//4 590//4 591//4
f 592//4 593//4 594//4
f 595//4 596//4 589//4
f 597//4 598//4 592//4
f 599//4 600//4 601//4
f 602//3 603//3 604//3
f 605//4 606//4 607//4
f 608//3 609//3 610//3
f 611//4 612//4 613//4
f 601//4 614//4 615//4
f 585//3 616//3 617//3
f 618//4 619//4 605//4
f 620//3 621//3 608//3
f 622//3 623//3 624//3
f 625//3 626//3 627//3
f 628//3 629//3 630//3
f 631//4 632//4 611//4
f 633//4 634//4 597//4
f 604//3 635//3 636//3
f 637//3 638//3 639//3
f 630//3 640//3 641//3
f 642//4 643//4 644//4
f 615//4 645//4 646//4
f 624//3 647//3 648//3
f 649//4 650//4 618//4
f 651//4 652//4 642//4
f 653//3 654//3 655//3
f 656//3 657//3 602//3
f 658//4 659//4 633//4
f 655//3 660//3 661//3
f 617//3 662//3 656//3
f 639//3 663//3 664//3
f 665//11 666//12 667//12
f 646//4 668//4 669//4
f 670//3 671//3 622//3
f 627//3 672//3 673//3
f 661//3 674//3 675//3
f 676//4 677//4 678//4
f 679//4 680//4 649//4
f 681//3 682//3 670//3
f 673//3 683//3 684//3
f 685//4 686//4 687//4
f 688//13 689//14 690//14
f 691//3 692//3 637//3
f 693//4 694//4 651//4
f 684//3 695//3 696//3
f 697//4 698//4 699//4
f 687//4 700//4 701//4
f 702//3 703//3 704//3
f 594//4 705//4 676//4
f 706//3 707//3 691//3
f 636//3 708//3 702//3
f 709//4 710//4 711//4
f 699//4 712//4 693//4
f 713//3 714//3 715//3
f 716//3 717//3 718//3
f 678//4 719//4 720//4
f 588//3 721//3 713//3
f 675//3 722//3 628//3
f 704//3 723//3 724//3
f 701//4 725//4 726//4
f 727//4 728//4 729//4
f 730//3 731//3 732//3
f 733//4 734//4 735//4
f 736//4 737//4 709//4
f 738//4 739//4 658//4
f 664//3 740//3 730//3
f 715//3 741//3 742//3
f 696//3 743//3 681//3
f 744//4 745//4 746//4
f 726//4 747//4 733//4
f 644//4 748//4 727//4
f 720//4 749//4 631//4
f 711//4 750//4 697//4
f 724//3 751//3 620//3
f 752//4 753//4 754//4
f 732//3 755//3 756//3
f 718//3 757//3 653//3
f 591//4 758//4 759//4
f 729//4 760//4 595//4
f 742//3 761//3 706//3
f 746//4 762//4 599//4
f 763//3 764//3 583//3
f 607//4 765//4 752//4
f 610//3 766//3 586//3
f 767//3 768//3 716//3
f 648//3 769//3 763//3
f 770//4 771//4 736//4
f 756//3 772//3 773//3
f 759//4 774//4 685//4
f 735//4 775//4 744//4
f 641//3 776//3 625//3
f 613//4 777//4 770//4
f 754//4 778//4 738//4
f 393//9 397//9 394//9
f 396//9 399//9 397//9
f 398//9 401//9 399//9
f 400//9 403//9 401//9
f 402//9 405//9 403//9
f 404//9 407//9 405//9
f 406//9 409//9 407//9
f 408//9 411//9 409//9
f 410//9 413//9 411//9
f 412//9 415//9 413//9
f 414//9 417//9 415//9
f 416//9 419//9 417//9
f 418//9 421//9 419//9
f 420//9 423//9 421//9
f 422//9 425//9 423//9
f 424//9 427//9 425//9
f 426//9 429//9 427//9
f 428//9 431//9 429//9
f 430//9 433//9 431//9
f 432//9 435//9 433//9
f 434//9 437//9 435//9
f 436//9 439//9 437//9
f 438//9 441//9 439//9
f 440//9 443//9 441//9
f 442//9 445//9 443//9
f 444//9 447//9 445//9
f 446//9 449//9 447//9
f 448//9 451//9 449//9
f 450//9 453//9 451//9
f 452//9 455//9 453//9
f 454//9 457//9 455//9
f 456//9 459//9 457//9
f 458//9 461//9 459//9
f 460//9 463//9 461//9
f 462//9 465//9 463//9
f 464//9 467//9 465//9
f 466//9 469//9 467//9
f 468//9 471//9 469//9
f 470//9 473//9 471//9
f 472//9 475//9 473//9
f 474//9 477//9 475//9
f 476//9 479//9 477//9
f 478//9 481//9 479//9
f 480//9 483//9 481//9
f 482//9 485//9 483//9
f 484//9 487//9 485//9
f 486//9 779//9 487//9
f 488//10 491//10 489//10
f 491//10 493//10 492//10
f 493//10 495//10 494//10
f 495//10 497//10 496//10
f 497//10 499//10 498//10
f 499//10 501//10 500//10
f 501//10 503//10 502//10
f 503//10 505//10 504//10
f 505//10 507//10 506//10
f 507//10 509//10 508//10
f 509//10 511//10 510//10
f 511//10 513//10 512//10
f 513//10 515//10 514//10
f 515//10 517//10 516//10
f 517//10 519//10 518//10
f 519//10 521//10 520//10
f 521//10 523//10 522//10
f 523//10 525//10 524//10
f 525//10 527//10 526//10
f 527//10 529//10 528//10
f 529//10 531//10 530//10
f 531//10 533//10 532//10
f 533//10 535//10 534//10
f 535//10 537//10 536//10
f 537//10 539//10 538//10
f 539//10 541//10 540//10
f 541//10 543//10 542//10
f 543//10 545//10 544//10
f 545//10 547//10 546//10
f 547//10 549//10 548//10
f 549//10 551//10 550//10
f 551//10 553//10 552//10
f 553//10 555//10 554//10
f 555//10 557//10 556//10
f 557//10 559//10 558//10
f 559//10 561//10 560//10
f 561//10 563//10 562//10
f 563//10 565//10 564//10
f 565//10 567//10 566//10
f 567//10 569//10 568//10
f 569//10 571//10 570//10
f 571//10 573//10 572//10
f 573//10 575//10 574//10
f 575//10 577//10 576//10
f 577//10 579//10 578//10
f 579//10 581//10 580//10
f 581//10 780//10 582//10
f 583//3 764//3 584//3
f 586//3 766//3 587//3
f 589//4 596//4 590//4
f 592//4 598//4 593//4
f 595//4 760//4 596//4
f 597//4 634//4 598//4
f 599//4 762//4 600//4
f 602//3 657//3 603//3
f 605//4 619//4 606//4
f 608//3 621//3 609//3
f 611//4 632//4 612//4
f 601//4 600//4 614//4
f 585//3 584//3 616//3
f 618//4 650//4 619//4
f 620//3 751//3 621//3
f 622//3 671//3 623//3
f 625//3 776//3 626//3
f 628//3 722//3 629//3
f 631//4 749//4 632//4
f 633//4 659//4 634//4
f 604//3 603//3 635//3
f 637//3 692//3 638//3
f 630//3 629//3 640//3
f 642//4 652//4 643//4
f 615//4 614//4 645//4
f 624//3 623//3 647//3
f 649//4 680//4 650//4
f 651//4 694//4 652//4
f 653//3 757//3 654//3
f 656//3 662//3 657//3
f 658//4 739//4 659//4
f 655//3 654//3 660//3
f 617//3 616//3 662//3
f 639//3 638//3 663//3
f 665//11 781//11 666//12
f 646//4 645//4 668//4
f 670//3 682//3 671//3
f 627//3 626//3 672//3
f 661//3 660//3 674//3
f 676//4 705//4 677//4
f 679//4 782//4 680//4
f 681//3 743//3 682//3
f 673//3 672//3 683//3
f 685//4 774//4 686//4
f 688//13 783//13 689//14
f 691//3 707//3 692//3
f 693//4 712//4 694//4
f 684//3 683//3 695//3
f 697//4 750//4 698//4
f 687//4 686//4 700//4
f 702//3 708//3 703//3
f 594//4 593//4 705//4
f 706//3 761//3 707//3
f 636//3 635//3 708//3
f 709//4 737//4 710//4
f 699//4 698//4 712//4
f 713//3 721//3 714//3
f 716//3 768//3 717//3
f 678//4 677//4 719//4
f 588//3 587//3 721//3
f 675//3 674//3 722//3
f 704//3 703//3 723//3
f 701//4 700//4 725//4
f 727//4 748//4 728//4
f 730//3 740//3 731//3
f 733//4 747//4 734//4
f 736//4 771//4 737//4
f 738//4 778//4 739//4
f 664//3 663//3 740//3
f 715//3 714//3 741//3
f 696//3 695//3 743//3
f 744//4 775//4 745//4
f 726//4 725//4 747//4
f 644//4 643//4 748//4
f 720//4 719//4 749//4
f 711//4 710//4 750//4
f 724//3 723//3 751//3
f 752//4 765//4 753//4
f 732//3 731//3 755//3
f 718//3 717//3 757//3
f 591//4 590//4 758//4
f 729//4 728//4 760//4
f 742//3 741//3 761//3
f 746//4 745//4 762//4
f 763//3 769//3 764//3
f 607//4 606//4 765//4
f 610//3 609//3 766//3
f 767//3 784//3 768//3
f 648//3 647//3 769//3
f 770//4 777//4 771//4
f 756//3 755//3 772//3
f 759//4 758//4 774//4
f 735//4 734//4 775//4
f 641//3 640//3 776//3
f 613//4 612//4 777//4
f 754//4 753//4 778//4
f 785//15 786//16 787//16
f 788//17 789//15 785//15
f 790//18 791//17 788//17
f 792//19 793//18 790//18
f 794//20 795//19 792//19
f 796//21 797//20 794//20
f 798//22 799//21 796//21
f 800//23 801//22 798//22
f 802//24 803//23 800//23
f 804//25 805//24 802//24
f 806//26 807//25 804//25
f 808//27 809//26 806//26
f 810//28 811//27 808//27
f 812//29 813//28 810//28
f 814//30 815//29 812//29
f 816//31 817//30 814//30
f 818//32 819//31 816//31
f 820//33 821//32 818//32
f 822//34 823//33 820//33
f 824//35 825//34 822//34
f 826//36 827//35 824//35
f 828//37 829//36 826//36
f 830//38 831//37 828//37
f 832//39 833//38 830//38
f 834//40 835//39 832//39
f 836//41 837//40 834//40
f 838//42 839//41 836//41
f 840//43 841//42 838//42
f 842//44 843//43 840//43
f 844//45 845//44 842//44
f 846//46 847//45 844//45
f 848//47 849//46 846//46
f 850//48 851//47 848//47
f 852//49 853//48 850//48
f 854//50 855//49 852//49
f 856//51 857//50 854//50
f 858//52 859//51 856//51
f 860//53 861//52 858//52
f 862//54 863//53 860//53
f 864//55 865//54 862//54
f 866//56 867//55 864//55
f 868//57 869//56 866//56
f 870//58 871//57 868//57
f 872//59 873//58 870//58
f 874//60 875//59 872//59
f 876//61 877//60 874//60
f 878//62 879//61 876//61
f 787//16 880//62 878//62
f 881//39 882//40 883//39
f 884//40 885//41 882//40
f 886//41 887//42 885//41
f 888//42 889//43 887//42
f 890//43 891//44 889//43
f 892//44 893//45 891//44
f 894//45 895//46 893//45
f 896//46 897//47 895//46
f 898//47 899//48 897//47
f 900//48 901//49 899//48
f 902//49 903//50 901//49
f 904//50 905//51 903//50
f 906//51 907//52 905//51
f 908//52 909//53 907//52
f 910//53 911//54 909//53
f 912//54 913//55 911//54
f 914//55 915//56 913//55
f 916//56 917//57 915//56
f 918//57 919//58 917//57
f 920//58 921//59 919//58
f 922//59 923//60 921//59
f 924//60 925//61 923//60
f 926//61 927//62 925//61
f 928//62 929//16 927//62
f 930//16 931//15 929//16
f 932//15 933//17 931//15
f 934//17 935//18 933//17
f 936//18 937//19 935//18
f 938//19 939//20 937//19
f 940//20 941//21 939//20
f 942//21 943//22 941//21
f 944//22 945//23 943//22
f 946//23 947//24 945//23
f 948//24 949//25 947//24
f 950//25 951//26 949//25
f 952//26 953//27 951//26
f 954//27 955//28 953//27
f 956//28 957//29 955//28
f 958//29 959//30 957//29
f 960//30 961//31 959//30
f 962//31 963//32 961//31
f 964//32 965//33 963//32
f 966//33 967//34 965//33
f 968//34 969//35 967//34
f 970//35 971//36 969//35
f 972//36 973//37 971//36
f 974//37 975//38 973//37
f 976//38 883//39 975//38
f 977//3 978//3 979//3
f 980//3 981//3 982//3
f 983//4 984//4 985//4
f 986//4 987//4 988//4
f 989//4 990//4 983//4
f 991//4 992//4 986//4
f 993//4 994//4 995//4
f 996//3 997//3 998//3
f 999//4 1000//4 1001//4
f 1002//3 1003//3 1004//3
f 1005//4 1006//4 1007//4
f 995//4 1008//4 1009//4
f 979//3 1010//3 1011//3
f 1012//4 1013//4 1000//4
f 1014//3 1015//3 1002//3
f 1016//3 1017//3 1018//3
f 1019//3 1020//3 1021//3
f 1022//3 1023//3 1024//3
f 1025//4 1026//4 1006//4
f 1027//4 1028//4 991//4
f 1029//3 998//3 1030//3
f 1031//3 1032//3 1033//3
f 1024//3 1034//3 1035//3
f 1036//4 1037//4 1038//4
f 1009//4 1039//4 1040//4
f 1018//3 1041//3 1042//3
f 1043//4 1044//4 1013//4
f 1045//4 1046//4 1037//4
f 1047//3 1048//3 1049//3
f 1050//3 1051//3 997//3
f 1052//4 1053//4 1027//4
f 1054//3 1049//3 1055//3
f 1056//3 1010//3 1051//3
f 1033//3 1057//3 1058//3
f 1040//4 1059//4 1060//4
f 1016//3 1061//3 1062//3
f 1063//3 1020//3 1064//3
f 1054//3 1065//3 1066//3
f 1067//4 1068//4 1069//4
f 1070//4 1071//4 1044//4
f 1072//3 1073//3 1061//3
f 1074//3 1064//3 1075//3
f 1076//4 1077//4 1078//4
f 1031//3 1079//3 1080//3
f 1081//4 1082//4 1046//4
f 1083//3 1084//3 1085//3
f 1086//3 1075//3 1087//3
f 1088//4 1089//4 1090//4
f 1091//4 1077//4 1092//4
f 1093//3 1094//3 1095//3
f 1096//4 987//4 1068//4
f 1097//3 1098//3 1079//3
f 1099//3 1030//3 1094//3
f 1100//4 1101//4 1102//4
f 1103//4 1089//4 1082//4
f 1104//3 1105//3 1106//3
f 1107//3 1108//3 1109//3
f 1110//4 1069//4 1111//4
f 1112//3 981//3 1105//3
f 1066//3 1113//3 1022//3
f 1093//3 1114//3 1115//3
f 1116//4 1092//4 1117//4
f 1118//4 1119//4 1120//4
f 1121//3 1122//3 1123//3
f 1124//4 1125//4 1126//4
f 1127//4 1128//4 1100//4
f 1129//4 1130//4 1052//4
f 1058//3 1131//3 1121//3
f 1132//3 1106//3 1133//3
f 1134//3 1087//3 1073//3
f 1135//4 1136//4 1137//4
f 1138//4 1117//4 1125//4
f 1139//4 1038//4 1119//4
f 1140//4 1111//4 1026//4
f 1102//4 1141//4 1088//4
f 1115//3 1142//3 1014//3
f 1143//4 1144//4 1145//4
f 1123//3 1146//3 1147//3
f 1148//3 1109//3 1048//3
f 985//4 1149//4 1150//4
f 1118//4 1151//4 989//4
f 1152//3 1133//3 1098//3
f 1135//4 1153//4 993//4
f 1154//3 1155//3 977//3
f 1156//4 1001//4 1144//4
f 1060//4 1071//4 1157//4
f 1004//3 1158//3 980//3
f 1159//3 1085//3 1108//3
f 1042//3 1160//3 1154//3
f 1161//4 1162//4 1127//4
f 1147//3 1084//3 1163//3
f 1150//4 1164//4 1076//4
f 1165//4 1126//4 1136//4
f 1035//3 1166//3 1019//3
f 1005//4 1167//4 1161//4
f 1143//4 1168//4 1129//4
f 785//15 789//15 786//16
f 788//17 791//17 789//15
f 790//18 793//18 791//17
f 792//19 795//19 793//18
f 794//20 797//20 795//19
f 796//21 799//21 797//20
f 798//22 801//22 799//21
f 800//23 803//23 801//22
f 802//24 805//24 803//23
f 804//25 807//25 805//24
f 806//26 809//26 807//25
f 808//27 811//27 809//26
f 810//28 813//28 811//27
f 812//29 815//29 813//28
f 814//30 817//30 815//29
f 816//31 819//31 817//30
f 818//32 821//32 819//31
f 820//33 823//33 821//32
f 822//34 825//34 823//33
f 824//35 827//35 825//34
f 826//36 829//36 827//35
f 828//37 831//37 829//36
f 830//38 833//38 831//37
f 832//39 835//39 833//38
f 834//40 837//40 835//39
f 836//41 839//41 837//40
f 838//42 841//42 839//41
f 840//43 843//43 841//42
f 842//44 845//44 843//43
f 844//45 847//45 845//44
f 846//46 849//46 847//45
f 848//47 851//47 849//46
f 850//48 853//48 851//47
f 852//49 855//49 853//48
f 854//50 857//50 855//49
f 856//51 859//51 857//50
f 858//52 861//52 859//51
f 860//53 863//53 861//52
f 862//54 865//54 863//53
f 864//55 867//55 865//54
f 866//56 869//56 867//55
f 868//57 871//57 869//56
f 870//58 873//58 871//57
f 872//59 875//59 873//58
f 874//60 877//60 875//59
f 876//61 879//61 877//60
f 878//62 880//62 879//61
f 787//16 786//16 880//62
f 881//39 884//40 882//40
f 884//40 886//41 885//41
f 886//41 888//42 887//42
f 888//42 890//43 889//43
f 890//43 892//44 891//44
f 892//44 894//45 893//45
f 894//45 896//46 895//46
f 896//46 898//47 897//47
f 898//47 900//48 899//48
f 900//48 902//49 901//49
f 902//49 904//50 903//50
f 904//50 906//51 905//51
f 906//51 908//52 907//52
f 908//52 910//53 909//53
f 910//53 912//54 911//54
f 912//54 914//55 913//55
f 914//55 916//56 915//56
f 916//56 918//57 917//57
f 918//57 920//58 919//58
f 920//58 922//59 921//59
f 922//59 924//60 923//60
f 924//60 926//61 925//61
f 926//61 928//62 927//62
f 928//62 930//16 929//16
f 930//16 932//15 931//15
f 932//15 934//17 933//17
f 934//17 936//18 935//18
f 936//18 938//19 937//19
f 938//19 940//20 939//20
f 940//20 942//21 941//21
f 942//21 944//22 943//22
f 944//22 946//23 945//23
f 946//23 948//24 947//24
f 948//24 950//25 949//25
f 950//25 952//26 951//26
f 952//26 954//27 953//27
f 954//27 956//28 955//28
f 956//28 958//29 957//29
f 958//29 960//30 959//30
f 960//30 962//31 961//31
f 962//31 964//32 963//32
f 964//32 966//33 965//33
f 966//33 968//34 967//34
f 968//34 970//35 969//35
f 970//35 972//36 971//36
f 972//36 974//37 973//37
f 974//37 976//38 975//38
f 976//38 881//39 883//39
f 977//3 1155//3 978//3
f 980//3 1158//3 981//3
f 983//4 990//4 984//4
f 986//4 992//4 987//4
f 989//4 1151//4 990//4
f 991//4 1028//4 992//4
f 993//4 1153//4 994//4
f 996//3 1050//3 997//3
f 999//4 1012//4 1000//4
f 1002//3 1015//3 1003//3
f 1005//4 1025//4 1006//4
f 995//4 994//4 1008//4
f 979//3 978//3 1010//3
f 1012//4 1043//4 1013//4
f 1014//3 1142//3 1015//3
f 1016//3 1062//3 1017//3
f 1019//3 1166//3 1020//3
f 1022//3 1113//3 1023//3
f 1025//4 1140//4 1026//4
f 1027//4 1053//4 1028//4
f 1029//3 996//3 998//3
f 1031//3 1080//3 1032//3
f 1024//3 1023//3 1034//3
f 1036//4 1045//4 1037//4
f 1009//4 1008//4 1039//4
f 1018//3 1017//3 1041//3
f 1043//4 1070//4 1044//4
f 1045//4 1081//4 1046//4
f 1047//3 1148//3 1048//3
f 1050//3 1056//3 1051//3
f 1052//4 1130//4 1053//4
f 1054//3 1047//3 1049//3
f 1056//3 1011//3 1010//3
f 1033//3 1032//3 1057//3
f 1040//4 1039//4 1059//4
f 1016//3 1072//3 1061//3
f 1063//3 1021//3 1020//3
f 1054//3 1055//3 1065//3
f 1067//4 1096//4 1068//4
f 1070//4 1157//4 1071//4
f 1072//3 1134//3 1073//3
f 1074//3 1063//3 1064//3
f 1076//4 1164//4 1077//4
f 1031//3 1097//3 1079//3
f 1081//4 1103//4 1082//4
f 1083//3 1163//3 1084//3
f 1086//3 1074//3 1075//3
f 1088//4 1141//4 1089//4
f 1091//4 1078//4 1077//4
f 1093//3 1099//3 1094//3
f 1096//4 988//4 987//4
f 1097//3 1152//3 1098//3
f 1099//3 1029//3 1030//3
f 1100//4 1128//4 1101//4
f 1103//4 1090//4 1089//4
f 1104//3 1112//3 1105//3
f 1107//3 1159//3 1108//3
f 1110//4 1067//4 1069//4
f 1112//3 982//3 981//3
f 1066//3 1065//3 1113//3
f 1093//3 1095//3 1114//3
f 1116//4 1091//4 1092//4
f 1118//4 1139//4 1119//4
f 1121//3 1131//3 1122//3
f 1124//4 1138//4 1125//4
f 1127//4 1162//4 1128//4
f 1129//4 1168//4 1130//4
f 1058//3 1057//3 1131//3
f 1132//3 1104//3 1106//3
f 1134//3 1086//3 1087//3
f 1135//4 1165//4 1136//4
f 1138//4 1116//4 1117//4
f 1139//4 1036//4 1038//4
f 1140//4 1110//4 1111//4
f 1102//4 1101//4 1141//4
f 1115//3 1114//3 1142//3
f 1143//4 1156//4 1144//4
f 1123//3 1122//3 1146//3
f 1148//3 1107//3 1109//3
f 985//4 984//4 1149//4
f 1118//4 1120//4 1151//4
f 1152//3 1132//3 1133//3
f 1135//4 1137//4 1153//4
f 1154//3 1160//3 1155//3
f 1156//4 999//4 1001//4
f 1060//4 1059//4 1071//4
f 1004//3 1003//3 1158//3
f 1159//3 1083//3 1085//3
f 1042//3 1041//3 1160//3
f 1161//4 1167//4 1162//4
f 1147//3 1146//3 1084//3
f 1150//4 1149//4 1164//4
f 1165//4 1124//4 1126//4
f 1035//3 1034//3 1166//3
f 1005//4 1007//4 1167//4
f 1143//4 1145//4 1168//4
f 1169//15 1170//16 1171//16
f 1172//17 1173//15 1169//15
f 1174//18 1175//17 1172//17
f 1176//19 1177//18 1174//18
f 1178//20 1179//19 1176//19
f 1180//21 1181//20 1178//20
f 1182//22 1183//21 1180//21
f 1184//23 1185//22 1182//22
f 1186//24 1187//23 1184//23
f 1188//25 1189//24 1186//24
f 1190//26 1191//25 1188//25
f 1192//27 1193//26 1190//26
f 1194//28 1195//27 1192//27
f 1196//29 1197//28 1194//28
f 1198//30 1199//29 1196//29
f 1200//31 1201//30 1198//30
f 1202//32 1203//31 1200//31
f 1204//33 1205//32 1202//32
f 1206//34 1207//33 1204//33
f 1208//35 1209//34 1206//34
f 1210//36 1211//35 1208//35
f 1212//37 1213//36 1210//36
f 1214//38 1215//37 1212//37
f 1216//39 1217//38 1214//38
f 1218//40 1219//39 1216//39
f 1220//41 1221//40 1218//40
f 1222//42 1223//41 1220//41
f 1224//43 1225//42 1222//42
f 1226//44 1227//43 1224//43
f 1228//45 1229//44 1226//44
f 1230//46 1231//45 1228//45
f 1232//47 1233//46 1230//46
f 1234//48 1235//47 1232//47
f 1236//49 1237//48 1234//48
f 1238//50 1239//49 1236//49
f 1240//51 1241//50 1238//50
f 1242//52 1243//51 1240//51
f 1244//53 1245//52 1242//52
f 1246//54 1247//53 1244//53
f 1248//55 1249//54 1246//54
f 1250//56 1251//55 1248//55
f 1252//57 1253//56 1250//56
f 1254//58 1255//57 1252//57
f 1256//59 1257//58 1254//58
f 1258//60 1259//59 1256//59
f 1260//61 1261//60 1258//60
f 1262//62 1263//61 1260//61
f 1171//16 1264//62 1262//62
f 1265//39 1266//40 1267//39
f 1268//40 1269//41 1266//40
f 1270//41 1271//42 1269//41
f 1272//42 1273//43 1271//42
f 1274//43 1275//44 1273//43
f 1276//44 1277//45 1275//44
f 1278//45 1279//46 1277//45
f 1280//46 1281//47 1279//46
f 1282//47 1283//48 1281//47
f 1284//48 1285//49 1283//48
f 1286//49 1287//50 1285//49
f 1288//50 1289//51 1287//50
f 1290//51 1291//52 1289//51
f 1292//52 1293//53 1291//52
f 1294//53 1295//54 1293//53
f 1296//54 1297//55 1295//54
f 1298//55 1299//56 1297//55
f 1300//56 1301//57 1299//56
f 1302//57 1303//58 1301//57
f 1304//58 1305//59 1303//58
f 1306//59 1307//60 1305//59
f 1308//60 1309//61 1307//60
f 1310//61 1311//62 1309//61
f 1312//62 1313//16 1311//62
f 1314//16 1315//15 1313//16
f 1316//15 1317//17 1315//15
f 1318//17 1319//18 1317//17
f 1320//18 1321//19 1319//18
f 1322//19 1323//20 1321//19
f 1324//20 1325//21 1323//20
f 1326//21 1327//22 1325//21
f 1328//22 1329//23 1327//22
f 1330//23 1331//24 1329//23
f 1332//24 1333//25 1331//24
f 1334//25 1335//26 1333//25
f 1336//26 1337//27 1335//26
f 1338//27 1339//28 1337//27
f 1340//28 1341//29 1339//28
f 1342//29 1343//30 1341//29
f 1344//30 1345//31 1343//30
f 1346//31 1347//32 1345//31
f 1348//32 1349//33 1347//32
f 1350//33 1351//34 1349//33
f 1352//34 1353//35 1351//34
f 1354//35 1355//36 1353//35
f 1356//36 1357//37 1355//36
f 1358//37 1359//38 1357//37
f 1360//38 1267//39 1359//38
f 1361//3 1362//3 1363//3
f 1364//3 1365//3 1366//3
f 1367//4 1368//4 1369//4
f 1370//4 1371//4 1372//4
f 1373//4 1374//4 1367//4
f 1375//4 1376//4 1370//4
f 1377//4 1378//4 1379//4
f 1380//3 1381//3 1382//3
f 1383//4 1384//4 1385//4
f 1386//3 1387//3 1388//3
f 1389//4 1390//4 1391//4
f 1379//4 1392//4 1393//4
f 1363//3 1394//3 1395//3
f 1396//4 1397//4 1384//4
f 1398//3 1399//3 1386//3
f 1400//3 1401//3 1402//3
f 1403//3 1404//3 1405//3
f 1406//3 1407//3 1408//3
f 1409//4 1410//4 1390//4
f 1411//4 1412//4 1375//4
f 1413//3 1382//3 1414//3
f 1415//3 1416//3 1417//3
f 1408//3 1418//3 1419//3
f 1420//4 1421//4 1422//4
f 1393//4 1423//4 1424//4
f 1402//3 1425//3 1426//3
f 1427//4 1428//4 1397//4
f 1429//4 1430//4 1421//4
f 1431//3 1432//3 1433//3
f 1434//3 1435//3 1381//3
f 1436//4 1437//4 1411//4
f 1438//3 1433//3 1439//3
f 1440//3 1394//3 1435//3
f 1417//3 1441//3 1442//3
f 1424//4 1443//4 1444//4
f 1400//3 1445//3 1446//3
f 1447//3 1404//3 1448//3
f 1438//3 1449//3 1450//3
f 1451//4 1452//4 1453//4
f 1454//4 1455//4 1428//4
f 1456//3 1457//3 1445//3
f 1458//3 1448//3 1459//3
f 1460//4 1461//4 1462//4
f 1415//3 1463//3 1464//3
f 1465//4 1466//4 1430//4
f 1467//3 1468//3 1469//3
f 1470//3 1459//3 1471//3
f 1472//4 1473//4 1474//4
f 1475//4 1461//4 1476//4
f 1477//3 1478//3 1479//3
f 1480//4 1371//4 1452//4
f 1481//3 1482//3 1463//3
f 1483//3 1414//3 1478//3
f 1484//4 1485//4 1486//4
f 1487//4 1473//4 1466//4
f 1488//3 1489//3 1490//3
f 1491//3 1492//3 1493//3
f 1494//4 1453//4 1495//4
f 1496//3 1365//3 1489//3
f 1450//3 1497//3 1406//3
f 1477//3 1498//3 1499//3
f 1500//4 1476//4 1501//4
f 1502//4 1503//4 1504//4
f 1505//3 1506//3 1507//3
f 1508//4 1509//4 1510//4
f 1511//4 1512//4 1484//4
f 1513//4 1514//4 1436//4
f 1442//3 1515//3 1505//3
f 1516//3 1490//3 1517//3
f 1518//3 1471//3 1457//3
f 1519//4 1520//4 1521//4
f 1522//4 1501//4 1509//4
f 1523//4 1422//4 1503//4
f 1524//4 1495//4 1410//4
f 1486//4 1525//4 1472//4
f 1499//3 1526//3 1398//3
f 1527//4 1528//4 1529//4
f 1507//3 1530//3 1531//3
f 1532//3 1493//3 1432//3
f 1369//4 1533//4 1534//4
f 1502//4 1535//4 1373//4
f 1536//3 1517//3 1482//3
f 1519//4 1537//4 1377//4
f 1538//3 1539//3 1361//3
f 1540//4 1385//4 1528//4
f 1444//4 1455//4 1541//4
f 1388//3 1542//3 1364//3
f 1543//3 1469//3 1492//3
f 1426//3 1544//3 1538//3
f 1545//4 1546//4 1511//4
f 1531//3 1468//3 1547//3
f 1534//4 1548//4 1460//4
f 1549//4 1510//4 1520//4
f 1419//3 1550//3 1403//3
f 1389//4 1551//4 1545//4
f 1527//4 1552//4 1513//4
f 1169//15 1173//15 1170//16
f 1172//17 1175//17 1173//15
f 1174//18 1177//18 1175//17
f 1176//19 1179//19 1177//18
f 1178//20 1181//20 1179//19
f 1180//21 1183//21 1181//20
f 1182//22 1185//22 1183//21
f 1184//23 1187//23 1185//22
f 1186//24 1189//24 1187//23
f 1188//25 1191//25 1189//24
f 1190//26 1193//26 1191//25
f 1192//27 1195//27 1193//26
f 1194//28 1197//28 1195//27
f 1196//29 1199//29 1197//28
f 1198//30 1201//30 1199//29
f 1200//31 1203//31 1201//30
f 1202//32 1205//32 1203//31
f 1204//33 1207//33 1205//32
f 1206//34 1209//34 1207//33
f 1208//35 1211//35 1209//34
f 1210//36 1213//36 1211//35
f 1212//37 1215//37 1213//36
f 1214//38 1217//38 1215//37
f 1216//39 1219//39 1217//38
f 1218//40 1221//40 1219//39
f 1220//41 1223//41 1221//40
f 1222//42 1225//42 1223//41
f 1224//43 1227//43 1225//42
f 1226//44 1229//44 1227//43
f 1228//45 1231//45 1229//44
f 1230//46 1233//46 1231//45
f 1232//47 1235//47 1233//46
f 1234//48 1237//48 1235//47
f 1236//49 1239//49 1237//48
f 1238//50 1241//50 1239//49
f 1240//51 1243//51 1241//50
f 1242//52 1245//52 1243//51
f 1244//53 1247//53 1245//52
f 1246//54 1249//54 1247//53
f 1248//55 1251//55 1249//54
f 1250//56 1253//56 1251//55
f 1252//57 1255//57 1253//56
f 1254//58 1257//58 1255//57
f 1256//59 1259//59 1257//58
f 1258//60 1261//60 1259//59
f 1260//61 1263//61 1261//60
f 1262//62 1264//62 1263//61
f 1171//16 1170//16 1264//62
f 1265//39 1268//40 1266//40
f 1268//40 1270//41 1269//41
f 1270//41 1272//42 1271//42
f 1272//42 1274//43 1273//43
f 1274//43 1276//44 1275//44
f 1276//44 1278//45 1277//45
f 1278//45 1280//46 1279//46
f 1280//46 1282//47 1281//47
f 1282//47 1284//48 1283//48
f 1284//48 1286//49 1285//49
f 1286//49 1288//50 1287//50
f 1288//50 1290//51 1289//51
f 1290//51 1292//52 1291//52
f 1292//52 1294//53 1293//53
f 1294//53 1296//54 1295//54
f 1296//54 1298//55 1297//55
f 1298//55 1300//56 1299//56
f 1300//56 1302//57 1301//57
f 1302//57 1304//58 1303//58
f 1304//58 1306//59 1305//59
f 1306//59 1308//60 1307//60
f 1308//60 1310//61 1309//61
f 1310//61 1312//62 1311//62
f 1312//62 1314//16 1313//16
f 1314//16 1316//15 1315//15
f 1316//15 1318//17 1317//17
f 1318//17 1320//18 1319//18
f 1320//18 1322//19 1321//19
f 1322//19 1324//20 1323//20
f 1324//20 1326//21 1325//21
f 1326//21 1328//22 1327//22
f 1328//22 1330//23 1329//23
f 1330//23 1332//24 1331//24
f 1332//24 1334//25 1333//25
f 1334//25 1336//26 1335//26
f 1336//26 1338//27 1337//27
f 1338//27 1340//28 1339//28
f 1340//28 1342//29 1341//29
f 1342//29 1344//30 1343//30
f 1344//30 1346//31 1345//31
f 1346//31 1348//32 1347//32
f 1348//32 1350//33 1349//33
f 1350//33 1352//34 1351//34
f 1352//34 1354//35 1353//35
f 1354//35 1356//36 1355//36
f 1356//36 1358//37 1357//37
f 1358//37 1360//38 1359//38
f 1360//38 1265//39 1267//39
f 1361//3 1539//3 1362//3
f 1364//3 1542//3 1365//3
f 1367//4 1374//4 1368//4
f 1370//4 1376//4 1371//4
f 1373//4 1535//4 1374//4
f 1375//4 1412//4 1376//4
f 1377//4 1537//4 1378//4
f 1380//3 1434//3 1381//3
f 1383//4 1396//4 1384//4
f 1386//3 1399//3 1387//3
f 1389//4 1409//4 1390//4
f 1379//4 1378//4 1392//4
f 1363//3 1362//3 1394//3
f 1396//4 1427//4 1397//4
f 1398//3 1526//3 1399//3
f 1400//3 1446//3 1401//3
f 1403//3 1550//3 1404//3
f 1406//3 1497//3 1407//3
f 1409//4 1524//4 1410//4
f 1411//4 1437//4 1412//4
f 1413//3 1380//3 1382//3
f 1415//3 1464//3 1416//3
f 1408//3 1407//3 1418//3
f 1420//4 1429//4 1421//4
f 1393//4 1392//4 1423//4
f 1402//3 1401//3 1425//3
f 1427//4 1454//4 1428//4
f 1429//4 1465//4 1430//4
f 1431//3 1532//3 1432//3
f 1434//3 1440//3 1435//3
f 1436//4 1514//4 1437//4
f 1438//3 1431//3 1433//3
f 1440//3 1395//3 1394//3
f 1417//3 1416//3 1441//3
f 1424//4 1423//4 1443//4
f 1400//3 1456//3 1445//3
f 1447//3 1405//3 1404//3
f 1438//3 1439//3 1449//3
f 1451//4 1480//4 1452//4
f 1454//4 1541//4 1455//4
f 1456//3 1518//3 1457//3
f 1458//3 1447//3 1448//3
f 1460//4 1548//4 1461//4
f 1415//3 1481//3 1463//3
f 1465//4 1487//4 1466//4
f 1467//3 1547//3 1468//3
f 1470//3 1458//3 1459//3
f 1472//4 1525//4 1473//4
f 1475//4 1462//4 1461//4
f 1477//3 1483//3 1478//3
f 1480//4 1372//4 1371//4
f 1481//3 1536//3 1482//3
f 1483//3 1413//3 1414//3
f 1484//4 1512//4 1485//4
f 1487//4 1474//4 1473//4
f 1488//3 1496//3 1489//3
f 1491//3 1543//3 1492//3
f 1494//4 1451//4 1453//4
f 1496//3 1366//3 1365//3
f 1450//3 1449//3 1497//3
f 1477//3 1479//3 1498//3
f 1500//4 1475//4 1476//4
f 1502//4 1523//4 1503//4
f 1505//3 1515//3 1506//3
f 1508//4 1522//4 1509//4
f 1511//4 1546//4 1512//4
f 1513//4 1552//4 1514//4
f 1442//3 1441//3 1515//3
f 1516//3 1488//3 1490//3
f 1518//3 1470//3 1471//3
f 1519//4 1549//4 1520//4
f 1522//4 1500//4 1501//4
f 1523//4 1420//4 1422//4
f 1524//4 1494//4 1495//4
f 1486//4 1485//4 1525//4
f 1499//3 1498//3 1526//3
f 1527//4 1540//4 1528//4
f 1507//3 1506//3 1530//3
f 1532//3 1491//3 1493//3
f 1369//4 1368//4 1533//4
f 1502//4 1504//4 1535//4
f 1536//3 1516//3 1517//3
f 1519//4 1521//4 1537//4
f 1538//3 1544//3 1539//3
f 1540//4 1383//4 1385//4
f 1444//4 1443//4 1455//4
f 1388//3 1387//3 1542//3
f 1543//3 1467//3 1469//3
f 1426//3 1425//3 1544//3
f 1545//4 1551//4 1546//4
f 1531//3 1530//3 1468//3
f 1534//4 1533//4 1548//4
f 1549//4 1508//4 1510//4
f 1419//3 1418//3 1550//3
f 1389//4 1391//4 1551//4
f 1527//4 1529//4 1552//4
