# Blender v2.79 (sub 0) OBJ File: 'pviot direction sign.blend'
# www.blender.org
mtllib pviot direction sign.mtl
o NurbsPath.001
v 0.000001 -0.250000 12.000000
v 0.000001 0.250000 12.000000
v 0.000001 -0.250000 11.489361
v 0.000001 0.250000 11.489361
v 0.000000 -0.250000 10.978724
v 0.000000 0.250000 10.978724
v 0.000000 -0.250000 10.468085
v 0.000000 0.250000 10.468085
v 0.000000 -0.250000 9.957448
v 0.000000 0.250000 9.957448
v 0.000000 -0.250000 9.446808
v 0.000000 0.250000 9.446808
v 0.000000 -0.250000 8.936172
v 0.000000 0.250000 8.936172
v 0.000000 -0.250000 8.425532
v 0.000000 0.250000 8.425532
v 0.000000 -0.250000 7.914894
v 0.000000 0.250000 7.914894
v 0.000000 -0.250000 7.404256
v 0.000000 0.250000 7.404256
v 0.000000 -0.250000 6.893618
v 0.000000 0.250000 6.893618
v 0.000000 -0.250000 6.382979
v 0.000000 0.250000 6.382979
v 0.000000 -0.250000 5.872342
v 0.000000 0.250000 5.872342
v 0.000000 -0.250000 5.361703
v 0.000000 0.250000 5.361703
v 0.000000 -0.250000 4.851065
v 0.000000 0.250000 4.851065
v 0.000000 -0.250000 4.340426
v 0.000000 0.250000 4.340426
v 0.000000 -0.250000 3.829789
v 0.000000 0.250000 3.829789
v 0.000000 -0.250000 3.319150
v 0.000000 0.250000 3.319150
v 0.000000 -0.250000 2.808511
v 0.000000 0.250000 2.808511
v 0.000000 -0.250000 2.297873
v 0.000000 0.250000 2.297873
v 0.000000 -0.250000 1.787235
v 0.000000 0.250000 1.787235
v 0.000000 -0.250000 1.276597
v 0.000000 0.250000 1.276597
v 0.000000 -0.250000 0.765958
v 0.000000 0.250000 0.765958
v 0.000000 -0.250000 0.255320
v 0.000000 0.250000 0.255320
v -0.000000 -0.250000 -0.255319
v -0.000000 0.250000 -0.255319
v -0.000000 -0.250000 -0.765957
v -0.000000 0.250000 -0.765957
v -0.000000 -0.250000 -1.276596
v -0.000000 0.250000 -1.276596
v -0.000000 -0.250000 -1.787234
v -0.000000 0.250000 -1.787234
v -0.000000 -0.250000 -2.297872
v -0.000000 0.250000 -2.297872
v -0.000000 -0.250000 -2.808510
v -0.000000 0.250000 -2.808510
v -0.000000 -0.250000 -3.319149
v -0.000000 0.250000 -3.319149
v -0.000000 -0.250000 -3.829787
v -0.000000 0.250000 -3.829787
v -0.000000 -0.250000 -4.340425
v -0.000000 0.250000 -4.340425
v -0.000000 -0.250000 -4.851063
v -0.000000 0.250000 -4.851063
v -0.000000 -0.250000 -5.361701
v -0.000000 0.250000 -5.361701
v -0.000000 -0.250000 -5.872339
v -0.000000 0.250000 -5.872339
v -0.000000 -0.250000 -6.382978
v -0.000000 0.250000 -6.382978
v -0.000000 -0.250000 -6.893616
v -0.000000 0.250000 -6.893616
v -0.000000 -0.250000 -7.404254
v -0.000000 0.250000 -7.404254
v -0.000000 -0.250000 -7.914892
v -0.000000 0.250000 -7.914892
v -0.000000 -0.250000 -8.425531
v -0.000000 0.250000 -8.425531
v -0.000000 -0.250000 -8.936169
v -0.000000 0.250000 -8.936169
v -0.000000 -0.250000 -9.446808
v -0.000000 0.250000 -9.446808
v -0.000000 -0.250000 -9.957445
v -0.000000 0.250000 -9.957445
v -0.000000 -0.250000 -10.468083
v -0.000000 0.250000 -10.468083
v -0.000000 -0.250000 -10.978722
v -0.000000 0.250000 -10.978722
v -0.000001 -0.250000 -11.489360
v -0.000001 0.250000 -11.489360
v -0.000001 -0.250000 -11.999998
v -0.000001 0.250000 -11.999998
v 0.010001 -0.250000 12.000000
v 0.010001 0.250000 12.000000
v 0.010001 -0.250000 11.489361
v 0.010001 0.250000 11.489361
v 0.010000 -0.250000 10.978724
v 0.010000 0.250000 10.978724
v 0.010000 -0.250000 10.468085
v 0.010000 0.250000 10.468085
v 0.010000 -0.250000 9.957448
v 0.010000 0.250000 9.957448
v 0.010000 -0.250000 9.446808
v 0.010000 0.250000 9.446808
v 0.010000 -0.250000 8.936172
v 0.010000 0.250000 8.936172
v 0.010000 -0.250000 8.425532
v 0.010000 0.250000 8.425532
v 0.010000 -0.250000 7.914894
v 0.010000 0.250000 7.914894
v 0.010000 -0.250000 7.404256
v 0.010000 0.250000 7.404256
v 0.010000 -0.250000 6.893618
v 0.010000 0.250000 6.893618
v 0.010000 -0.250000 6.382979
v 0.010000 0.250000 6.382979
v 0.010000 -0.250000 5.872342
v 0.010000 0.250000 5.872342
v 0.010000 -0.250000 5.361703
v 0.010000 0.250000 5.361703
v 0.010000 -0.250000 4.851065
v 0.010000 0.250000 4.851065
v 0.010000 -0.250000 4.340426
v 0.010000 0.250000 4.340426
v 0.010000 -0.250000 3.829789
v 0.010000 0.250000 3.829789
v 0.010000 -0.250000 3.319150
v 0.010000 0.250000 3.319150
v 0.010000 -0.250000 2.808511
v 0.010000 0.250000 2.808511
v 0.010000 -0.250000 2.297873
v 0.010000 0.250000 2.297873
v 0.010000 -0.250000 1.787235
v 0.010000 0.250000 1.787235
v 0.010000 -0.250000 1.276597
v 0.010000 0.250000 1.276597
v 0.010000 -0.250000 0.765958
v 0.010000 0.250000 0.765958
v 0.010000 -0.250000 0.255320
v 0.010000 0.250000 0.255320
v 0.010000 -0.250000 -0.255319
v 0.010000 0.250000 -0.255319
v 0.010000 -0.250000 -0.765957
v 0.010000 0.250000 -0.765957
v 0.010000 -0.250000 -1.276596
v 0.010000 0.250000 -1.276596
v 0.010000 -0.250000 -1.787234
v 0.010000 0.250000 -1.787234
v 0.010000 -0.250000 -2.297872
v 0.010000 0.250000 -2.297872
v 0.010000 -0.250000 -2.808510
v 0.010000 0.250000 -2.808510
v 0.010000 -0.250000 -3.319149
v 0.010000 0.250000 -3.319149
v 0.010000 -0.250000 -3.829787
v 0.010000 0.250000 -3.829787
v 0.010000 -0.250000 -4.340425
v 0.010000 0.250000 -4.340425
v 0.010000 -0.250000 -4.851063
v 0.010000 0.250000 -4.851063
v 0.010000 -0.250000 -5.361701
v 0.010000 0.250000 -5.361701
v 0.010000 -0.250000 -5.872339
v 0.010000 0.250000 -5.872339
v 0.010000 -0.250000 -6.382978
v 0.010000 0.250000 -6.382978
v 0.010000 -0.250000 -6.893616
v 0.010000 0.250000 -6.893616
v 0.010000 -0.250000 -7.404254
v 0.010000 0.250000 -7.404254
v 0.010000 -0.250000 -7.914892
v 0.010000 0.250000 -7.914892
v 0.010000 -0.250000 -8.425531
v 0.010000 0.250000 -8.425531
v 0.010000 -0.250000 -8.936169
v 0.010000 0.250000 -8.936169
v 0.010000 -0.250000 -9.446808
v 0.010000 0.250000 -9.446808
v 0.010000 -0.250000 -9.957445
v 0.010000 0.250000 -9.957445
v 0.010000 -0.250000 -10.468083
v 0.010000 0.250000 -10.468083
v 0.010000 -0.250000 -10.978722
v 0.010000 0.250000 -10.978722
v 0.009999 -0.250000 -11.489360
v 0.009999 0.250000 -11.489360
v 0.009999 -0.250000 -11.999998
v 0.009999 0.250000 -11.999998
v -0.000000 -0.250000 -0.765957
v -0.000000 -0.250000 -1.276596
v 0.000000 -0.250000 5.872342
v 0.000000 -0.250000 5.361703
v -0.000000 0.250000 -4.340425
v -0.000000 0.250000 -4.851063
v 0.000000 0.250000 6.382979
v 0.000000 0.250000 5.872342
v -0.000000 0.250000 -3.829787
v 0.000000 0.250000 6.893618
v -0.000000 0.250000 -9.957445
v -0.000000 0.250000 -10.468083
v 0.000000 -0.250000 1.276597
v 0.000000 -0.250000 0.765958
v 0.000000 0.250000 10.468085
v 0.000000 0.250000 9.957448
v 0.000000 -0.250000 4.851065
v 0.000000 -0.250000 4.340426
v 0.000000 0.250000 3.319150
v 0.000000 0.250000 2.808511
v -0.000000 0.250000 -10.978722
v -0.000000 -0.250000 -0.255319
v 0.000000 0.250000 10.978724
v 0.000000 -0.250000 3.829789
v -0.000000 -0.250000 -2.808510
v -0.000000 -0.250000 -3.319149
v -0.000000 -0.250000 -6.382978
v -0.000000 -0.250000 -6.893616
v -0.000000 -0.250000 -7.914892
v -0.000000 -0.250000 -8.425531
v 0.000000 0.250000 3.829789
v 0.000000 0.250000 7.404256
v 0.000000 -0.250000 1.787235
v 0.000000 -0.250000 9.446808
v 0.000000 -0.250000 8.936172
v -0.000000 -0.250000 -7.404254
v -0.000000 0.250000 -1.787234
v -0.000000 0.250000 -2.297872
v -0.000001 0.250000 -11.489360
v -0.000000 -0.250000 -2.297872
v 0.000001 0.250000 11.489361
v -0.000000 0.250000 -1.276596
v -0.000000 -0.250000 -9.957445
v -0.000000 -0.250000 -10.468083
v 0.000000 -0.250000 0.255320
v 0.000000 0.250000 7.914894
v -0.000000 -0.250000 -9.446808
v 0.000000 -0.250000 9.957448
v -0.000001 -0.250000 -11.999998
v -0.000001 -0.250000 -11.999998
v -0.000001 0.250000 -11.999998
v -0.000001 0.250000 -11.999998
v -0.000000 -0.250000 -3.829787
v -0.000000 -0.250000 -5.872339
v -0.000000 -0.250000 -8.936169
v 0.000000 0.250000 5.361703
v 0.000000 0.250000 4.851065
v 0.000001 0.250000 12.000000
v 0.000001 0.250000 12.000000
v -0.000000 -0.250000 -4.340425
v -0.000000 -0.250000 -5.361701
v -0.000000 0.250000 -5.872339
v -0.000000 0.250000 -6.382978
v 0.000001 -0.250000 12.000000
v 0.000001 -0.250000 12.000000
v 0.000000 -0.250000 8.425532
v -0.000000 0.250000 -0.765957
v -0.000000 -0.250000 -4.851063
v 0.000000 0.250000 0.255320
v -0.000000 0.250000 -0.255319
v -0.000000 0.250000 -6.893616
v 0.000000 -0.250000 2.808511
v 0.000000 -0.250000 2.297873
v 0.000000 -0.250000 7.914894
v 0.000000 0.250000 1.276597
v 0.000000 0.250000 0.765958
v 0.000000 -0.250000 6.893618
v 0.000000 -0.250000 6.382979
v -0.000000 -0.250000 -10.978722
v -0.000001 -0.250000 -11.489360
v 0.000000 0.250000 4.340426
v 0.000000 -0.250000 3.319150
v -0.000000 0.250000 -7.404254
v -0.000000 0.250000 -2.808510
v -0.000000 0.250000 -3.319149
v 0.000000 -0.250000 10.978724
v 0.000000 -0.250000 10.468085
v -0.000000 0.250000 -7.914892
v -0.000000 0.250000 -8.425531
v 0.000000 0.250000 1.787235
v 0.000000 0.250000 8.425532
v 0.000000 -0.250000 7.404256
v -0.000000 0.250000 -8.936169
v -0.000000 0.250000 -9.446808
v 0.000000 0.250000 9.446808
v 0.000000 0.250000 8.936172
v 0.000001 -0.250000 11.489361
v -0.000000 0.250000 -5.361701
v -0.000000 -0.250000 -1.787234
v 0.000000 0.250000 2.297873
v 0.010000 -0.250000 -0.765957
v 0.010000 -0.250000 -1.276596
v 0.010000 -0.250000 5.872342
v 0.010000 -0.250000 5.361703
v 0.010000 0.250000 -4.340425
v 0.010000 0.250000 -4.851063
v 0.010000 0.250000 6.382979
v 0.010000 0.250000 5.872342
v 0.010000 0.250000 -3.829787
v 0.010000 0.250000 6.893618
v 0.010000 0.250000 -9.957445
v 0.010000 0.250000 -10.468083
v 0.010000 -0.250000 1.276597
v 0.010000 -0.250000 0.765958
v 0.010000 0.250000 10.468085
v 0.010000 0.250000 9.957448
v 0.010000 -0.250000 4.851065
v 0.010000 -0.250000 4.340426
v 0.010000 0.250000 3.319150
v 0.010000 0.250000 2.808511
v 0.010000 0.250000 -10.978722
v 0.010000 -0.250000 -0.255319
v 0.010000 0.250000 10.978724
v 0.010000 -0.250000 3.829789
v 0.010000 -0.250000 -2.808510
v 0.010000 -0.250000 -3.319149
v 0.010000 -0.250000 -6.382978
v 0.010000 -0.250000 -6.893616
v 0.010000 -0.250000 -7.914892
v 0.010000 -0.250000 -8.425531
v 0.010000 0.250000 3.829789
v 0.010000 0.250000 7.404256
v 0.010000 -0.250000 1.787235
v 0.010000 -0.250000 9.446808
v 0.010000 -0.250000 8.936172
v 0.010000 -0.250000 -7.404254
v 0.010000 0.250000 -1.787234
v 0.010000 0.250000 -2.297872
v 0.009999 0.250000 -11.489360
v 0.010000 -0.250000 -2.297872
v 0.010001 0.250000 11.489361
v 0.010000 0.250000 -1.276596
v 0.010000 -0.250000 -9.957445
v 0.010000 -0.250000 -10.468083
v 0.010000 -0.250000 0.255320
v 0.010000 0.250000 7.914894
v 0.010000 -0.250000 -9.446808
v 0.010000 -0.250000 9.957448
v 0.009999 -0.250000 -11.999998
v 0.009999 -0.250000 -11.999998
v 0.009999 0.250000 -11.999998
v 0.009999 0.250000 -11.999998
v 0.010000 -0.250000 -3.829787
v 0.010000 -0.250000 -5.872339
v 0.010000 -0.250000 -8.936169
v 0.010000 0.250000 5.361703
v 0.010000 0.250000 4.851065
v 0.010001 0.250000 12.000000
v 0.010001 0.250000 12.000000
v 0.010000 -0.250000 -4.340425
v 0.010000 -0.250000 -5.361701
v 0.010000 0.250000 -5.872339
v 0.010000 0.250000 -6.382978
v 0.010001 -0.250000 12.000000
v 0.010001 -0.250000 12.000000
v 0.010000 -0.250000 8.425532
v 0.010000 0.250000 -0.765957
v 0.010000 -0.250000 -4.851063
v 0.010000 0.250000 0.255320
v 0.010000 0.250000 -0.255319
v 0.010000 0.250000 -6.893616
v 0.010000 -0.250000 2.808511
v 0.010000 -0.250000 2.297873
v 0.010000 -0.250000 7.914894
v 0.010000 0.250000 1.276597
v 0.010000 0.250000 0.765958
v 0.010000 -0.250000 6.893618
v 0.010000 -0.250000 6.382979
v 0.010000 -0.250000 -10.978722
v 0.009999 -0.250000 -11.489360
v 0.010000 0.250000 4.340426
v 0.010000 -0.250000 3.319150
v 0.010000 0.250000 -7.404254
v 0.010000 0.250000 -2.808510
v 0.010000 0.250000 -3.319149
v 0.010000 -0.250000 10.978724
v 0.010000 -0.250000 10.468085
v 0.010000 0.250000 -7.914892
v 0.010000 0.250000 -8.425531
v 0.010000 0.250000 1.787235
v 0.010000 0.250000 8.425532
v 0.010000 -0.250000 7.404256
v 0.010000 0.250000 -8.936169
v 0.010000 0.250000 -9.446808
v 0.010000 0.250000 9.446808
v 0.010000 0.250000 8.936172
v 0.010001 -0.250000 11.489361
v 0.010000 0.250000 -5.361701
v 0.010000 -0.250000 -1.787234
v 0.010000 0.250000 2.297873
vn -1.0000 0.0000 0.0000
vn 1.0000 0.0000 0.0000
vn 0.0000 -1.0000 0.0000
vn 0.0000 1.0000 0.0000
vn 0.0000 0.0000 -1.0000
vn 0.0000 0.0000 1.0000
usemtl None
s 1
f 233//1 256//1 250//1
f 215//1 289//1 233//1
f 207//1 278//1 215//1
f 208//1 279//1 207//1
f 287//1 9//1 208//1
f 288//1 11//1 287//1
f 283//1 227//1 288//1
f 238//1 258//1 283//1
f 224//1 266//1 238//1
f 202//1 284//1 224//1
f 199//1 269//1 202//1
f 200//1 270//1 199//1
f 248//1 25//1 200//1
f 249//1 27//1 248//1
f 273//1 29//1 249//1
f 223//1 31//1 273//1
f 211//1 33//1 223//1
f 212//1 274//1 211//1
f 292//1 264//1 212//1
f 282//1 265//1 292//1
f 267//1 41//1 282//1
f 268//1 43//1 267//1
f 261//1 45//1 268//1
f 262//1 47//1 261//1
f 259//1 49//1 262//1
f 234//1 51//1 259//1
f 229//1 53//1 234//1
f 230//1 291//1 229//1
f 276//1 57//1 230//1
f 277//1 59//1 276//1
f 201//1 61//1 277//1
f 197//1 245//1 201//1
f 198//1 252//1 197//1
f 290//1 260//1 198//1
f 254//1 69//1 290//1
f 255//1 71//1 254//1
f 263//1 73//1 255//1
f 275//1 75//1 263//1
f 280//1 77//1 275//1
f 281//1 79//1 280//1
f 285//1 222//1 281//1
f 286//1 83//1 285//1
f 203//1 85//1 286//1
f 204//1 87//1 203//1
f 213//1 89//1 204//1
f 231//1 271//1 213//1
f 244//1 272//1 231//1
f 356//2 333//2 350//2
f 389//2 315//2 333//2
f 378//2 307//2 315//2
f 379//2 308//2 307//2
f 340//2 387//2 308//2
f 326//2 388//2 387//2
f 327//2 383//2 388//2
f 358//2 338//2 383//2
f 366//2 324//2 338//2
f 384//2 302//2 324//2
f 369//2 299//2 302//2
f 370//2 300//2 299//2
f 295//2 348//2 300//2
f 296//2 349//2 348//2
f 309//2 373//2 349//2
f 310//2 323//2 373//2
f 316//2 311//2 323//2
f 374//2 312//2 311//2
f 364//2 392//2 312//2
f 365//2 382//2 392//2
f 325//2 367//2 382//2
f 305//2 368//2 367//2
f 306//2 361//2 368//2
f 337//2 362//2 361//2
f 314//2 359//2 362//2
f 293//2 334//2 359//2
f 294//2 329//2 334//2
f 391//2 330//2 329//2
f 332//2 376//2 330//2
f 317//2 377//2 376//2
f 318//2 301//2 377//2
f 345//2 297//2 301//2
f 352//2 298//2 297//2
f 360//2 390//2 298//2
f 353//2 354//2 390//2
f 346//2 355//2 354//2
f 319//2 363//2 355//2
f 320//2 375//2 363//2
f 328//2 380//2 375//2
f 321//2 381//2 380//2
f 322//2 385//2 381//2
f 347//2 386//2 385//2
f 339//2 303//2 386//2
f 335//2 304//2 303//2
f 336//2 313//2 304//2
f 371//2 331//2 313//2
f 372//2 343//2 331//2
f 194//3 147//3 193//3
f 196//3 121//3 195//3
f 66//4 164//4 68//4
f 24//4 122//4 26//4
f 64//4 162//4 66//4
f 22//4 120//4 24//4
f 88//4 186//4 90//4
f 206//3 139//3 205//3
f 8//4 106//4 10//4
f 210//3 125//3 209//3
f 36//4 134//4 38//4
f 90//4 188//4 92//4
f 193//3 145//3 214//3
f 6//4 104//4 8//4
f 216//3 127//3 210//3
f 218//3 155//3 217//3
f 220//3 169//3 219//3
f 81//3 175//3 221//3
f 34//4 132//4 36//4
f 20//4 118//4 22//4
f 205//3 137//3 225//3
f 13//3 107//3 226//3
f 221//3 173//3 228//3
f 56//4 154//4 58//4
f 92//4 190//4 94//4
f 217//3 153//3 232//3
f 4//4 102//4 6//4
f 54//4 152//4 56//4
f 236//3 183//3 235//3
f 237//3 141//3 206//3
f 18//4 116//4 20//4
f 235//3 181//3 239//3
f 214//3 143//3 237//3
f 226//3 105//3 240//3
f 243//5 342//5 241//5
f 94//4 344//4 96//4
f 63//3 157//3 218//3
f 219//3 167//3 246//3
f 239//3 179//3 247//3
f 28//4 126//4 30//4
f 2//4 100//4 4//4
f 65//3 159//3 63//3
f 246//3 165//3 253//3
f 72//4 170//4 74//4
f 1//6 351//6 251//6
f 15//3 109//3 13//3
f 52//4 150//4 54//4
f 253//3 163//3 67//3
f 48//4 146//4 50//4
f 74//4 172//4 76//4
f 39//3 133//3 37//3
f 26//4 124//4 28//4
f 17//3 111//3 15//3
f 225//3 135//3 39//3
f 44//4 142//4 46//4
f 50//4 148//4 52//4
f 23//3 117//3 21//3
f 93//3 187//3 91//3
f 30//4 128//4 32//4
f 195//3 119//3 23//3
f 247//3 177//3 81//3
f 37//3 131//3 35//3
f 76//4 174//4 78//4
f 60//4 158//4 62//4
f 7//3 101//3 5//3
f 80//4 178//4 82//4
f 42//4 140//4 44//4
f 16//4 114//4 18//4
f 240//3 103//3 7//3
f 21//3 115//3 19//3
f 67//3 161//3 65//3
f 84//4 182//4 86//4
f 78//4 176//4 80//4
f 58//4 156//4 60//4
f 32//4 130//4 34//4
f 46//4 144//4 48//4
f 35//3 129//3 216//3
f 12//4 110//4 14//4
f 5//3 99//3 3//3
f 91//3 185//3 236//3
f 68//4 166//4 70//4
f 62//4 160//4 64//4
f 19//3 113//3 17//3
f 86//4 184//4 88//4
f 55//3 149//3 194//3
f 10//4 108//4 12//4
f 209//3 123//3 196//3
f 242//3 189//3 93//3
f 232//3 151//3 55//3
f 40//4 138//4 42//4
f 3//3 357//3 257//3
f 70//4 168//4 72//4
f 82//4 180//4 84//4
f 228//3 171//3 220//3
f 38//4 136//4 40//4
f 14//4 112//4 16//4
f 233//1 289//1 256//1
f 215//1 278//1 289//1
f 207//1 279//1 278//1
f 208//1 9//1 279//1
f 287//1 11//1 9//1
f 288//1 227//1 11//1
f 283//1 258//1 227//1
f 238//1 266//1 258//1
f 224//1 284//1 266//1
f 202//1 269//1 284//1
f 199//1 270//1 269//1
f 200//1 25//1 270//1
f 248//1 27//1 25//1
f 249//1 29//1 27//1
f 273//1 31//1 29//1
f 223//1 33//1 31//1
f 211//1 274//1 33//1
f 212//1 264//1 274//1
f 292//1 265//1 264//1
f 282//1 41//1 265//1
f 267//1 43//1 41//1
f 268//1 45//1 43//1
f 261//1 47//1 45//1
f 262//1 49//1 47//1
f 259//1 51//1 49//1
f 234//1 53//1 51//1
f 229//1 291//1 53//1
f 230//1 57//1 291//1
f 276//1 59//1 57//1
f 277//1 61//1 59//1
f 201//1 245//1 61//1
f 197//1 252//1 245//1
f 198//1 260//1 252//1
f 290//1 69//1 260//1
f 254//1 71//1 69//1
f 255//1 73//1 71//1
f 263//1 75//1 73//1
f 275//1 77//1 75//1
f 280//1 79//1 77//1
f 281//1 222//1 79//1
f 285//1 83//1 222//1
f 286//1 85//1 83//1
f 203//1 87//1 85//1
f 204//1 89//1 87//1
f 213//1 271//1 89//1
f 231//1 272//1 271//1
f 244//1 95//1 272//1
f 356//2 389//2 333//2
f 389//2 378//2 315//2
f 378//2 379//2 307//2
f 379//2 340//2 308//2
f 340//2 326//2 387//2
f 326//2 327//2 388//2
f 327//2 358//2 383//2
f 358//2 366//2 338//2
f 366//2 384//2 324//2
f 384//2 369//2 302//2
f 369//2 370//2 299//2
f 370//2 295//2 300//2
f 295//2 296//2 348//2
f 296//2 309//2 349//2
f 309//2 310//2 373//2
f 310//2 316//2 323//2
f 316//2 374//2 311//2
f 374//2 364//2 312//2
f 364//2 365//2 392//2
f 365//2 325//2 382//2
f 325//2 305//2 367//2
f 305//2 306//2 368//2
f 306//2 337//2 361//2
f 337//2 314//2 362//2
f 314//2 293//2 359//2
f 293//2 294//2 334//2
f 294//2 391//2 329//2
f 391//2 332//2 330//2
f 332//2 317//2 376//2
f 317//2 318//2 377//2
f 318//2 345//2 301//2
f 345//2 352//2 297//2
f 352//2 360//2 298//2
f 360//2 353//2 390//2
f 353//2 346//2 354//2
f 346//2 319//2 355//2
f 319//2 320//2 363//2
f 320//2 328//2 375//2
f 328//2 321//2 380//2
f 321//2 322//2 381//2
f 322//2 347//2 385//2
f 347//2 339//2 386//2
f 339//2 335//2 303//2
f 335//2 336//2 304//2
f 336//2 371//2 313//2
f 371//2 372//2 331//2
f 372//2 341//2 343//2
f 194//3 149//3 147//3
f 196//3 123//3 121//3
f 66//4 162//4 164//4
f 24//4 120//4 122//4
f 64//4 160//4 162//4
f 22//4 118//4 120//4
f 88//4 184//4 186//4
f 206//3 141//3 139//3
f 8//4 104//4 106//4
f 210//3 127//3 125//3
f 36//4 132//4 134//4
f 90//4 186//4 188//4
f 193//3 147//3 145//3
f 6//4 102//4 104//4
f 216//3 129//3 127//3
f 218//3 157//3 155//3
f 220//3 171//3 169//3
f 81//3 177//3 175//3
f 34//4 130//4 132//4
f 20//4 116//4 118//4
f 205//3 139//3 137//3
f 13//3 109//3 107//3
f 221//3 175//3 173//3
f 56//4 152//4 154//4
f 92//4 188//4 190//4
f 217//3 155//3 153//3
f 4//4 100//4 102//4
f 54//4 150//4 152//4
f 236//3 185//3 183//3
f 237//3 143//3 141//3
f 18//4 114//4 116//4
f 235//3 183//3 181//3
f 214//3 145//3 143//3
f 226//3 107//3 105//3
f 243//5 192//5 342//5
f 94//4 190//4 344//4
f 63//3 159//3 157//3
f 219//3 169//3 167//3
f 239//3 181//3 179//3
f 28//4 124//4 126//4
f 2//4 98//4 100//4
f 65//3 161//3 159//3
f 246//3 167//3 165//3
f 72//4 168//4 170//4
f 1//6 97//6 351//6
f 15//3 111//3 109//3
f 52//4 148//4 150//4
f 253//3 165//3 163//3
f 48//4 144//4 146//4
f 74//4 170//4 172//4
f 39//3 135//3 133//3
f 26//4 122//4 124//4
f 17//3 113//3 111//3
f 225//3 137//3 135//3
f 44//4 140//4 142//4
f 50//4 146//4 148//4
f 23//3 119//3 117//3
f 93//3 189//3 187//3
f 30//4 126//4 128//4
f 195//3 121//3 119//3
f 247//3 179//3 177//3
f 37//3 133//3 131//3
f 76//4 172//4 174//4
f 60//4 156//4 158//4
f 7//3 103//3 101//3
f 80//4 176//4 178//4
f 42//4 138//4 140//4
f 16//4 112//4 114//4
f 240//3 105//3 103//3
f 21//3 117//3 115//3
f 67//3 163//3 161//3
f 84//4 180//4 182//4
f 78//4 174//4 176//4
f 58//4 154//4 156//4
f 32//4 128//4 130//4
f 46//4 142//4 144//4
f 35//3 131//3 129//3
f 12//4 108//4 110//4
f 5//3 101//3 99//3
f 91//3 187//3 185//3
f 68//4 164//4 166//4
f 62//4 158//4 160//4
f 19//3 115//3 113//3
f 86//4 182//4 184//4
f 55//3 151//3 149//3
f 10//4 106//4 108//4
f 209//3 125//3 123//3
f 242//3 191//3 189//3
f 232//3 153//3 151//3
f 40//4 136//4 138//4
f 3//3 99//3 357//3
f 70//4 166//4 168//4
f 82//4 178//4 180//4
f 228//3 173//3 171//3
f 38//4 134//4 136//4
f 14//4 110//4 112//4
o NurbsPath
v -12.000000 -0.250000 0.000000
v -12.000000 0.250000 0.000000
v -11.489361 -0.250000 0.000000
v -11.489361 0.250000 0.000000
v -10.978724 -0.250000 0.000000
v -10.978724 0.250000 0.000000
v -10.468085 -0.250000 0.000000
v -10.468085 0.250000 0.000000
v -9.957448 -0.250000 0.000000
v -9.957448 0.250000 0.000000
v -9.446808 -0.250000 0.000000
v -9.446808 0.250000 0.000000
v -8.936172 -0.250000 0.000000
v -8.936172 0.250000 0.000000
v -8.425532 -0.250000 0.000000
v -8.425532 0.250000 0.000000
v -7.914894 -0.250000 0.000000
v -7.914894 0.250000 0.000000
v -7.404256 -0.250000 0.000000
v -7.404256 0.250000 0.000000
v -6.893618 -0.250000 0.000000
v -6.893618 0.250000 0.000000
v -6.382979 -0.250000 0.000000
v -6.382979 0.250000 0.000000
v -5.872342 -0.250000 0.000000
v -5.872342 0.250000 0.000000
v -5.361703 -0.250000 0.000000
v -5.361703 0.250000 0.000000
v -4.851065 -0.250000 0.000000
v -4.851065 0.250000 0.000000
v -4.340426 -0.250000 0.000000
v -4.340426 0.250000 0.000000
v -3.829789 -0.250000 0.000000
v -3.829789 0.250000 0.000000
v -3.319150 -0.250000 0.000000
v -3.319150 0.250000 0.000000
v -2.808511 -0.250000 0.000000
v -2.808511 0.250000 0.000000
v -2.297873 -0.250000 0.000000
v -2.297873 0.250000 0.000000
v -1.787235 -0.250000 0.000000
v -1.787235 0.250000 0.000000
v -1.276597 -0.250000 0.000000
v -1.276597 0.250000 0.000000
v -0.765958 -0.250000 0.000000
v -0.765958 0.250000 0.000000
v -0.255320 -0.250000 0.000000
v -0.255320 0.250000 0.000000
v 0.255319 -0.250000 0.000000
v 0.255319 0.250000 0.000000
v 0.765957 -0.250000 0.000000
v 0.765957 0.250000 0.000000
v 1.276596 -0.250000 0.000000
v 1.276596 0.250000 0.000000
v 1.787234 -0.250000 0.000000
v 1.787234 0.250000 0.000000
v 2.297872 -0.250000 0.000000
v 2.297872 0.250000 0.000000
v 2.808510 -0.250000 0.000000
v 2.808510 0.250000 0.000000
v 3.319149 -0.250000 0.000000
v 3.319149 0.250000 0.000000
v 3.829787 -0.250000 0.000000
v 3.829787 0.250000 0.000000
v 4.340425 -0.250000 0.000000
v 4.340425 0.250000 0.000000
v 4.851063 -0.250000 0.000000
v 4.851063 0.250000 0.000000
v 5.361701 -0.250000 0.000000
v 5.361701 0.250000 0.000000
v 5.872339 -0.250000 0.000000
v 5.872339 0.250000 0.000000
v 6.382978 -0.250000 0.000000
v 6.382978 0.250000 0.000000
v 6.893616 -0.250000 0.000000
v 6.893616 0.250000 0.000000
v 7.404254 -0.250000 0.000000
v 7.404254 0.250000 0.000000
v 7.914892 -0.250000 0.000000
v 7.914892 0.250000 0.000000
v 8.425531 -0.250000 0.000000
v 8.425531 0.250000 0.000000
v 8.936169 -0.250000 0.000000
v 8.936169 0.250000 0.000000
v 9.446808 -0.250000 0.000000
v 9.446808 0.250000 0.000000
v 9.957445 -0.250000 0.000000
v 9.957445 0.250000 0.000000
v 10.468083 -0.250000 0.000000
v 10.468083 0.250000 0.000000
v 10.978722 -0.250000 0.000000
v 10.978722 0.250000 0.000000
v 11.489360 -0.250000 0.000000
v 11.489360 0.250000 0.000000
v 11.999998 -0.250000 0.000000
v 11.999998 0.250000 0.000000
v -12.000000 -0.250000 0.010000
v -12.000000 0.250000 0.010000
v -11.489361 -0.250000 0.010000
v -11.489361 0.250000 0.010000
v -10.978724 -0.250000 0.010000
v -10.978724 0.250000 0.010000
v -10.468085 -0.250000 0.010000
v -10.468085 0.250000 0.010000
v -9.957448 -0.250000 0.010000
v -9.957448 0.250000 0.010000
v -9.446808 -0.250000 0.010000
v -9.446808 0.250000 0.010000
v -8.936172 -0.250000 0.010000
v -8.936172 0.250000 0.010000
v -8.425532 -0.250000 0.010000
v -8.425532 0.250000 0.010000
v -7.914894 -0.250000 0.010000
v -7.914894 0.250000 0.010000
v -7.404256 -0.250000 0.010000
v -7.404256 0.250000 0.010000
v -6.893618 -0.250000 0.010000
v -6.893618 0.250000 0.010000
v -6.382979 -0.250000 0.010000
v -6.382979 0.250000 0.010000
v -5.872342 -0.250000 0.010000
v -5.872342 0.250000 0.010000
v -5.361703 -0.250000 0.010000
v -5.361703 0.250000 0.010000
v -4.851065 -0.250000 0.010000
v -4.851065 0.250000 0.010000
v -4.340426 -0.250000 0.010000
v -4.340426 0.250000 0.010000
v -3.829789 -0.250000 0.010000
v -3.829789 0.250000 0.010000
v -3.319150 -0.250000 0.010000
v -3.319150 0.250000 0.010000
v -2.808511 -0.250000 0.010000
v -2.808511 0.250000 0.010000
v -2.297873 -0.250000 0.010000
v -2.297873 0.250000 0.010000
v -1.787235 -0.250000 0.010000
v -1.787235 0.250000 0.010000
v -1.276597 -0.250000 0.010000
v -1.276597 0.250000 0.010000
v -0.765958 -0.250000 0.010000
v -0.765958 0.250000 0.010000
v -0.255320 -0.250000 0.010000
v -0.255320 0.250000 0.010000
v 0.255319 -0.250000 0.010000
v 0.255319 0.250000 0.010000
v 0.765957 -0.250000 0.010000
v 0.765957 0.250000 0.010000
v 1.276596 -0.250000 0.010000
v 1.276596 0.250000 0.010000
v 1.787234 -0.250000 0.010000
v 1.787234 0.250000 0.010000
v 2.297872 -0.250000 0.010000
v 2.297872 0.250000 0.010000
v 2.808510 -0.250000 0.010000
v 2.808510 0.250000 0.010000
v 3.319149 -0.250000 0.010000
v 3.319149 0.250000 0.010000
v 3.829787 -0.250000 0.010000
v 3.829787 0.250000 0.010000
v 4.340425 -0.250000 0.010000
v 4.340425 0.250000 0.010000
v 4.851063 -0.250000 0.010000
v 4.851063 0.250000 0.010000
v 5.361701 -0.250000 0.010000
v 5.361701 0.250000 0.010000
v 5.872339 -0.250000 0.010000
v 5.872339 0.250000 0.010000
v 6.382978 -0.250000 0.010000
v 6.382978 0.250000 0.010000
v 6.893616 -0.250000 0.010000
v 6.893616 0.250000 0.010000
v 7.404254 -0.250000 0.010000
v 7.404254 0.250000 0.010000
v 7.914892 -0.250000 0.010000
v 7.914892 0.250000 0.010000
v 8.425531 -0.250000 0.010000
v 8.425531 0.250000 0.010000
v 8.936169 -0.250000 0.010000
v 8.936169 0.250000 0.010000
v 9.446808 -0.250000 0.010000
v 9.446808 0.250000 0.010000
v 9.957445 -0.250000 0.010000
v 9.957445 0.250000 0.010000
v 10.468083 -0.250000 0.010000
v 10.468083 0.250000 0.010000
v 10.978722 -0.250000 0.010000
v 10.978722 0.250000 0.010000
v 11.489360 -0.250000 0.010000
v 11.489360 0.250000 0.010000
v 11.999998 -0.250000 0.010000
v 11.999998 0.250000 0.010000
v 0.765957 -0.250000 0.000000
v 1.276596 -0.250000 0.000000
v -5.872342 -0.250000 0.000000
v -5.361703 -0.250000 0.000000
v 4.340425 0.250000 0.000000
v 4.851063 0.250000 0.000000
v -6.382979 0.250000 0.000000
v -5.872342 0.250000 0.000000
v 3.829787 0.250000 0.000000
v -6.893618 0.250000 0.000000
v 9.957445 0.250000 0.000000
v 10.468083 0.250000 0.000000
v -1.276597 -0.250000 0.000000
v -0.765958 -0.250000 0.000000
v -10.468085 0.250000 0.000000
v -9.957448 0.250000 0.000000
v -4.851065 -0.250000 0.000000
v -4.340426 -0.250000 0.000000
v -3.319150 0.250000 0.000000
v -2.808511 0.250000 0.000000
v 10.978722 0.250000 0.000000
v 0.255319 -0.250000 0.000000
v -10.978724 0.250000 0.000000
v -3.829789 -0.250000 0.000000
v 2.808510 -0.250000 0.000000
v 3.319149 -0.250000 0.000000
v 6.382978 -0.250000 0.000000
v 6.893616 -0.250000 0.000000
v 7.914892 -0.250000 0.000000
v 8.425531 -0.250000 0.000000
v -3.829789 0.250000 0.000000
v -7.404256 0.250000 0.000000
v -1.787235 -0.250000 0.000000
v -9.446808 -0.250000 0.000000
v -8.936172 -0.250000 0.000000
v 7.404254 -0.250000 0.000000
v 1.787234 0.250000 0.000000
v 2.297872 0.250000 0.000000
v 11.489360 0.250000 0.000000
v 2.297872 -0.250000 0.000000
v -11.489361 0.250000 0.000000
v 1.276596 0.250000 0.000000
v 9.957445 -0.250000 0.000000
v 10.468083 -0.250000 0.000000
v -0.255320 -0.250000 0.000000
v -7.914894 0.250000 0.000000
v 9.446808 -0.250000 0.000000
v -9.957448 -0.250000 0.000000
v 11.999998 -0.250000 0.000000
v 11.999998 -0.250000 0.000000
v 11.999998 0.250000 0.000000
v 11.999998 0.250000 0.000000
v 3.829787 -0.250000 0.000000
v 5.872339 -0.250000 0.000000
v 8.936169 -0.250000 0.000000
v -5.361703 0.250000 0.000000
v -4.851065 0.250000 0.000000
v -12.000000 0.250000 0.000000
v -12.000000 0.250000 0.000000
v 4.340425 -0.250000 0.000000
v 5.361701 -0.250000 0.000000
v 5.872339 0.250000 0.000000
v 6.382978 0.250000 0.000000
v -12.000000 -0.250000 0.000000
v -12.000000 -0.250000 0.000000
v -8.425532 -0.250000 0.000000
v 0.765957 0.250000 0.000000
v 4.851063 -0.250000 0.000000
v -0.255320 0.250000 0.000000
v 0.255319 0.250000 0.000000
v 6.893616 0.250000 0.000000
v -2.808511 -0.250000 0.000000
v -2.297873 -0.250000 0.000000
v -7.914894 -0.250000 0.000000
v -1.276597 0.250000 0.000000
v -0.765958 0.250000 0.000000
v -6.893618 -0.250000 0.000000
v -6.382979 -0.250000 0.000000
v 10.978722 -0.250000 0.000000
v 11.489360 -0.250000 0.000000
v -4.340426 0.250000 0.000000
v -3.319150 -0.250000 0.000000
v 7.404254 0.250000 0.000000
v 2.808510 0.250000 0.000000
v 3.319149 0.250000 0.000000
v -10.978724 -0.250000 0.000000
v -10.468085 -0.250000 0.000000
v 7.914892 0.250000 0.000000
v 8.425531 0.250000 0.000000
v -1.787235 0.250000 0.000000
v -8.425532 0.250000 0.000000
v -7.404256 -0.250000 0.000000
v 8.936169 0.250000 0.000000
v 9.446808 0.250000 0.000000
v -9.446808 0.250000 0.000000
v -8.936172 0.250000 0.000000
v -11.489361 -0.250000 0.000000
v 5.361701 0.250000 0.000000
v 1.787234 -0.250000 0.000000
v -2.297873 0.250000 0.000000
v 0.765957 -0.250000 0.010000
v 1.276596 -0.250000 0.010000
v -5.872342 -0.250000 0.010000
v -5.361703 -0.250000 0.010000
v 4.340425 0.250000 0.010000
v 4.851063 0.250000 0.010000
v -6.382979 0.250000 0.010000
v -5.872342 0.250000 0.010000
v 3.829787 0.250000 0.010000
v -6.893618 0.250000 0.010000
v 9.957445 0.250000 0.010000
v 10.468083 0.250000 0.010000
v -1.276597 -0.250000 0.010000
v -0.765958 -0.250000 0.010000
v -10.468085 0.250000 0.010000
v -9.957448 0.250000 0.010000
v -4.851065 -0.250000 0.010000
v -4.340426 -0.250000 0.010000
v -3.319150 0.250000 0.010000
v -2.808511 0.250000 0.010000
v 10.978722 0.250000 0.010000
v 0.255319 -0.250000 0.010000
v -10.978724 0.250000 0.010000
v -3.829789 -0.250000 0.010000
v 2.808510 -0.250000 0.010000
v 3.319149 -0.250000 0.010000
v 6.382978 -0.250000 0.010000
v 6.893616 -0.250000 0.010000
v 7.914892 -0.250000 0.010000
v 8.425531 -0.250000 0.010000
v -3.829789 0.250000 0.010000
v -7.404256 0.250000 0.010000
v -1.787235 -0.250000 0.010000
v -9.446808 -0.250000 0.010000
v -8.936172 -0.250000 0.010000
v 7.404254 -0.250000 0.010000
v 1.787234 0.250000 0.010000
v 2.297872 0.250000 0.010000
v 11.489360 0.250000 0.010000
v 2.297872 -0.250000 0.010000
v -11.489361 0.250000 0.010000
v 1.276596 0.250000 0.010000
v 9.957445 -0.250000 0.010000
v 10.468083 -0.250000 0.010000
v -0.255320 -0.250000 0.010000
v -7.914894 0.250000 0.010000
v 9.446808 -0.250000 0.010000
v -9.957448 -0.250000 0.010000
v 11.999998 -0.250000 0.010000
v 11.999998 -0.250000 0.010000
v 11.999998 0.250000 0.010000
v 11.999998 0.250000 0.010000
v 3.829787 -0.250000 0.010000
v 5.872339 -0.250000 0.010000
v 8.936169 -0.250000 0.010000
v -5.361703 0.250000 0.010000
v -4.851065 0.250000 0.010000
v -12.000000 0.250000 0.010000
v -12.000000 0.250000 0.010000
v 4.340425 -0.250000 0.010000
v 5.361701 -0.250000 0.010000
v 5.872339 0.250000 0.010000
v 6.382978 0.250000 0.010000
v -12.000000 -0.250000 0.010000
v -12.000000 -0.250000 0.010000
v -8.425532 -0.250000 0.010000
v 0.765957 0.250000 0.010000
v 4.851063 -0.250000 0.010000
v -0.255320 0.250000 0.010000
v 0.255319 0.250000 0.010000
v 6.893616 0.250000 0.010000
v -2.808511 -0.250000 0.010000
v -2.297873 -0.250000 0.010000
v -7.914894 -0.250000 0.010000
v -1.276597 0.250000 0.010000
v -0.765958 0.250000 0.010000
v -6.893618 -0.250000 0.010000
v -6.382979 -0.250000 0.010000
v 10.978722 -0.250000 0.010000
v 11.489360 -0.250000 0.010000
v -4.340426 0.250000 0.010000
v -3.319150 -0.250000 0.010000
v 7.404254 0.250000 0.010000
v 2.808510 0.250000 0.010000
v 3.319149 0.250000 0.010000
v -10.978724 -0.250000 0.010000
v -10.468085 -0.250000 0.010000
v 7.914892 0.250000 0.010000
v 8.425531 0.250000 0.010000
v -1.787235 0.250000 0.010000
v -8.425532 0.250000 0.010000
v -7.404256 -0.250000 0.010000
v 8.936169 0.250000 0.010000
v 9.446808 0.250000 0.010000
v -9.446808 0.250000 0.010000
v -8.936172 0.250000 0.010000
v -11.489361 -0.250000 0.010000
v 5.361701 0.250000 0.010000
v 1.787234 -0.250000 0.010000
v -2.297873 0.250000 0.010000
vn 0.0000 0.0000 -1.0000
vn 0.0000 0.0000 1.0000
vn 0.0000 -1.0000 0.0000
vn 0.0000 1.0000 0.0000
vn 1.0000 0.0000 0.0000
vn -1.0000 0.0000 0.0000
usemtl None
s 1
f 625//7 648//7 642//7
f 607//7 681//7 625//7
f 599//7 670//7 607//7
f 600//7 671//7 599//7
f 679//7 401//7 600//7
f 680//7 403//7 679//7
f 675//7 619//7 680//7
f 630//7 650//7 675//7
f 616//7 658//7 630//7
f 594//7 676//7 616//7
f 591//7 661//7 594//7
f 592//7 662//7 591//7
f 640//7 417//7 592//7
f 641//7 419//7 640//7
f 665//7 421//7 641//7
f 615//7 423//7 665//7
f 603//7 425//7 615//7
f 604//7 666//7 603//7
f 684//7 656//7 604//7
f 674//7 657//7 684//7
f 659//7 433//7 674//7
f 660//7 435//7 659//7
f 653//7 437//7 660//7
f 654//7 439//7 653//7
f 651//7 441//7 654//7
f 626//7 443//7 651//7
f 621//7 445//7 626//7
f 622//7 683//7 621//7
f 668//7 449//7 622//7
f 669//7 451//7 668//7
f 593//7 453//7 669//7
f 589//7 637//7 593//7
f 590//7 644//7 589//7
f 682//7 652//7 590//7
f 646//7 461//7 682//7
f 647//7 463//7 646//7
f 655//7 465//7 647//7
f 667//7 467//7 655//7
f 672//7 469//7 667//7
f 673//7 471//7 672//7
f 677//7 614//7 673//7
f 678//7 475//7 677//7
f 595//7 477//7 678//7
f 596//7 479//7 595//7
f 605//7 481//7 596//7
f 623//7 663//7 605//7
f 636//7 664//7 623//7
f 748//8 725//8 742//8
f 781//8 707//8 725//8
f 770//8 699//8 707//8
f 771//8 700//8 699//8
f 732//8 779//8 700//8
f 718//8 780//8 779//8
f 719//8 775//8 780//8
f 750//8 730//8 775//8
f 758//8 716//8 730//8
f 776//8 694//8 716//8
f 761//8 691//8 694//8
f 762//8 692//8 691//8
f 687//8 740//8 692//8
f 688//8 741//8 740//8
f 701//8 765//8 741//8
f 702//8 715//8 765//8
f 708//8 703//8 715//8
f 766//8 704//8 703//8
f 756//8 784//8 704//8
f 757//8 774//8 784//8
f 717//8 759//8 774//8
f 697//8 760//8 759//8
f 698//8 753//8 760//8
f 729//8 754//8 753//8
f 706//8 751//8 754//8
f 685//8 726//8 751//8
f 686//8 721//8 726//8
f 783//8 722//8 721//8
f 724//8 768//8 722//8
f 709//8 769//8 768//8
f 710//8 693//8 769//8
f 737//8 689//8 693//8
f 744//8 690//8 689//8
f 752//8 782//8 690//8
f 745//8 746//8 782//8
f 738//8 747//8 746//8
f 711//8 755//8 747//8
f 712//8 767//8 755//8
f 720//8 772//8 767//8
f 713//8 773//8 772//8
f 714//8 777//8 773//8
f 739//8 778//8 777//8
f 731//8 695//8 778//8
f 727//8 696//8 695//8
f 728//8 705//8 696//8
f 763//8 723//8 705//8
f 764//8 735//8 723//8
f 586//9 539//9 585//9
f 588//9 513//9 587//9
f 458//10 556//10 460//10
f 416//10 514//10 418//10
f 456//10 554//10 458//10
f 414//10 512//10 416//10
f 480//10 578//10 482//10
f 598//9 531//9 597//9
f 400//10 498//10 402//10
f 602//9 517//9 601//9
f 428//10 526//10 430//10
f 482//10 580//10 484//10
f 585//9 537//9 606//9
f 398//10 496//10 400//10
f 608//9 519//9 602//9
f 610//9 547//9 609//9
f 612//9 561//9 611//9
f 473//9 567//9 613//9
f 426//10 524//10 428//10
f 412//10 510//10 414//10
f 597//9 529//9 617//9
f 405//9 499//9 618//9
f 613//9 565//9 620//9
f 448//10 546//10 450//10
f 484//10 582//10 486//10
f 609//9 545//9 624//9
f 396//10 494//10 398//10
f 446//10 544//10 448//10
f 628//9 575//9 627//9
f 629//9 533//9 598//9
f 410//10 508//10 412//10
f 627//9 573//9 631//9
f 606//9 535//9 629//9
f 618//9 497//9 632//9
f 635//11 734//11 633//11
f 486//10 736//10 488//10
f 455//9 549//9 610//9
f 611//9 559//9 638//9
f 631//9 571//9 639//9
f 420//10 518//10 422//10
f 394//10 492//10 396//10
f 457//9 551//9 455//9
f 638//9 557//9 645//9
f 464//10 562//10 466//10
f 393//12 743//12 643//12
f 407//9 501//9 405//9
f 444//10 542//10 446//10
f 645//9 555//9 459//9
f 440//10 538//10 442//10
f 466//10 564//10 468//10
f 431//9 525//9 429//9
f 418//10 516//10 420//10
f 409//9 503//9 407//9
f 617//9 527//9 431//9
f 436//10 534//10 438//10
f 442//10 540//10 444//10
f 415//9 509//9 413//9
f 485//9 579//9 483//9
f 422//10 520//10 424//10
f 587//9 511//9 415//9
f 639//9 569//9 473//9
f 429//9 523//9 427//9
f 468//10 566//10 470//10
f 452//10 550//10 454//10
f 399//9 493//9 397//9
f 472//10 570//10 474//10
f 434//10 532//10 436//10
f 408//10 506//10 410//10
f 632//9 495//9 399//9
f 413//9 507//9 411//9
f 459//9 553//9 457//9
f 476//10 574//10 478//10
f 470//10 568//10 472//10
f 450//10 548//10 452//10
f 424//10 522//10 426//10
f 438//10 536//10 440//10
f 427//9 521//9 608//9
f 404//10 502//10 406//10
f 397//9 491//9 395//9
f 483//9 577//9 628//9
f 460//10 558//10 462//10
f 454//10 552//10 456//10
f 411//9 505//9 409//9
f 478//10 576//10 480//10
f 447//9 541//9 586//9
f 402//10 500//10 404//10
f 601//9 515//9 588//9
f 634//9 581//9 485//9
f 624//9 543//9 447//9
f 432//10 530//10 434//10
f 395//9 749//9 649//9
f 462//10 560//10 464//10
f 474//10 572//10 476//10
f 620//9 563//9 612//9
f 430//10 528//10 432//10
f 406//10 504//10 408//10
f 625//7 681//7 648//7
f 607//7 670//7 681//7
f 599//7 671//7 670//7
f 600//7 401//7 671//7
f 679//7 403//7 401//7
f 680//7 619//7 403//7
f 675//7 650//7 619//7
f 630//7 658//7 650//7
f 616//7 676//7 658//7
f 594//7 661//7 676//7
f 591//7 662//7 661//7
f 592//7 417//7 662//7
f 640//7 419//7 417//7
f 641//7 421//7 419//7
f 665//7 423//7 421//7
f 615//7 425//7 423//7
f 603//7 666//7 425//7
f 604//7 656//7 666//7
f 684//7 657//7 656//7
f 674//7 433//7 657//7
f 659//7 435//7 433//7
f 660//7 437//7 435//7
f 653//7 439//7 437//7
f 654//7 441//7 439//7
f 651//7 443//7 441//7
f 626//7 445//7 443//7
f 621//7 683//7 445//7
f 622//7 449//7 683//7
f 668//7 451//7 449//7
f 669//7 453//7 451//7
f 593//7 637//7 453//7
f 589//7 644//7 637//7
f 590//7 652//7 644//7
f 682//7 461//7 652//7
f 646//7 463//7 461//7
f 647//7 465//7 463//7
f 655//7 467//7 465//7
f 667//7 469//7 467//7
f 672//7 471//7 469//7
f 673//7 614//7 471//7
f 677//7 475//7 614//7
f 678//7 477//7 475//7
f 595//7 479//7 477//7
f 596//7 481//7 479//7
f 605//7 663//7 481//7
f 623//7 664//7 663//7
f 636//7 487//7 664//7
f 748//8 781//8 725//8
f 781//8 770//8 707//8
f 770//8 771//8 699//8
f 771//8 732//8 700//8
f 732//8 718//8 779//8
f 718//8 719//8 780//8
f 719//8 750//8 775//8
f 750//8 758//8 730//8
f 758//8 776//8 716//8
f 776//8 761//8 694//8
f 761//8 762//8 691//8
f 762//8 687//8 692//8
f 687//8 688//8 740//8
f 688//8 701//8 741//8
f 701//8 702//8 765//8
f 702//8 708//8 715//8
f 708//8 766//8 703//8
f 766//8 756//8 704//8
f 756//8 757//8 784//8
f 757//8 717//8 774//8
f 717//8 697//8 759//8
f 697//8 698//8 760//8
f 698//8 729//8 753//8
f 729//8 706//8 754//8
f 706//8 685//8 751//8
f 685//8 686//8 726//8
f 686//8 783//8 721//8
f 783//8 724//8 722//8
f 724//8 709//8 768//8
f 709//8 710//8 769//8
f 710//8 737//8 693//8
f 737//8 744//8 689//8
f 744//8 752//8 690//8
f 752//8 745//8 782//8
f 745//8 738//8 746//8
f 738//8 711//8 747//8
f 711//8 712//8 755//8
f 712//8 720//8 767//8
f 720//8 713//8 772//8
f 713//8 714//8 773//8
f 714//8 739//8 777//8
f 739//8 731//8 778//8
f 731//8 727//8 695//8
f 727//8 728//8 696//8
f 728//8 763//8 705//8
f 763//8 764//8 723//8
f 764//8 733//8 735//8
f 586//9 541//9 539//9
f 588//9 515//9 513//9
f 458//10 554//10 556//10
f 416//10 512//10 514//10
f 456//10 552//10 554//10
f 414//10 510//10 512//10
f 480//10 576//10 578//10
f 598//9 533//9 531//9
f 400//10 496//10 498//10
f 602//9 519//9 517//9
f 428//10 524//10 526//10
f 482//10 578//10 580//10
f 585//9 539//9 537//9
f 398//10 494//10 496//10
f 608//9 521//9 519//9
f 610//9 549//9 547//9
f 612//9 563//9 561//9
f 473//9 569//9 567//9
f 426//10 522//10 524//10
f 412//10 508//10 510//10
f 597//9 531//9 529//9
f 405//9 501//9 499//9
f 613//9 567//9 565//9
f 448//10 544//10 546//10
f 484//10 580//10 582//10
f 609//9 547//9 545//9
f 396//10 492//10 494//10
f 446//10 542//10 544//10
f 628//9 577//9 575//9
f 629//9 535//9 533//9
f 410//10 506//10 508//10
f 627//9 575//9 573//9
f 606//9 537//9 535//9
f 618//9 499//9 497//9
f 635//11 584//11 734//11
f 486//10 582//10 736//10
f 455//9 551//9 549//9
f 611//9 561//9 559//9
f 631//9 573//9 571//9
f 420//10 516//10 518//10
f 394//10 490//10 492//10
f 457//9 553//9 551//9
f 638//9 559//9 557//9
f 464//10 560//10 562//10
f 393//12 489//12 743//12
f 407//9 503//9 501//9
f 444//10 540//10 542//10
f 645//9 557//9 555//9
f 440//10 536//10 538//10
f 466//10 562//10 564//10
f 431//9 527//9 525//9
f 418//10 514//10 516//10
f 409//9 505//9 503//9
f 617//9 529//9 527//9
f 436//10 532//10 534//10
f 442//10 538//10 540//10
f 415//9 511//9 509//9
f 485//9 581//9 579//9
f 422//10 518//10 520//10
f 587//9 513//9 511//9
f 639//9 571//9 569//9
f 429//9 525//9 523//9
f 468//10 564//10 566//10
f 452//10 548//10 550//10
f 399//9 495//9 493//9
f 472//10 568//10 570//10
f 434//10 530//10 532//10
f 408//10 504//10 506//10
f 632//9 497//9 495//9
f 413//9 509//9 507//9
f 459//9 555//9 553//9
f 476//10 572//10 574//10
f 470//10 566//10 568//10
f 450//10 546//10 548//10
f 424//10 520//10 522//10
f 438//10 534//10 536//10
f 427//9 523//9 521//9
f 404//10 500//10 502//10
f 397//9 493//9 491//9
f 483//9 579//9 577//9
f 460//10 556//10 558//10
f 454//10 550//10 552//10
f 411//9 507//9 505//9
f 478//10 574//10 576//10
f 447//9 543//9 541//9
f 402//10 498//10 500//10
f 601//9 517//9 515//9
f 634//9 583//9 581//9
f 624//9 545//9 543//9
f 432//10 528//10 530//10
f 395//9 491//9 749//9
f 462//10 558//10 560//10
f 474//10 570//10 572//10
f 620//9 565//9 563//9
f 430//10 526//10 528//10
f 406//10 502//10 504//10
