# Blender v2.82 (sub 7) OBJ File: 'DiceTray2.blend'
# www.blender.org
mtllib New Dice Tray.mtl
o Cube.001
v 5.000000 -0.618286 -6.579482
v 5.000000 -0.618288 6.594717
v -5.000000 -0.618288 6.594716
v -4.999999 -0.618286 -6.579483
v -5.000000 0.604230 -6.579482
v -5.000001 0.604228 6.594715
v -4.621951 0.604228 6.216663
v -4.621948 0.604230 -6.201430
v 5.000003 0.604230 -6.579479
v 4.999998 0.604228 6.594720
v 4.621945 0.604228 6.216668
v 4.621952 0.604230 -6.201428
v 4.621945 -0.393802 6.216668
v -4.621951 -0.393802 6.216663
v -4.621948 -0.393800 -6.201430
v 4.621952 -0.393800 -6.201428
v 2.500001 -0.618286 -6.579483
v 0.000001 -0.618286 -6.579483
v -2.499999 -0.618286 -6.579482
v 5.000000 -0.618286 -3.285932
v 5.000000 -0.618287 0.007617
v 5.000000 -0.618288 3.301167
v 2.500000 -0.618288 6.594716
v 0.000000 -0.618288 6.594717
v -2.500000 -0.618288 6.594716
v -5.000000 -0.618288 3.301166
v -5.000000 -0.618287 0.007616
v -4.999999 -0.618287 -3.285933
v -4.905488 0.604230 -6.484969
v -4.810974 0.604230 -6.390456
v -4.716461 0.604230 -6.295942
v -5.000000 0.604230 -3.285932
v -5.000001 0.604229 0.007617
v -5.000001 0.604228 3.301165
v -4.905488 0.604228 6.500202
v -4.810976 0.604228 6.405689
v -4.716463 0.604228 6.311176
v -4.621950 0.604228 3.112140
v -4.621949 0.604229 0.007617
v -4.621949 0.604230 -3.096906
v -2.499999 0.604230 -6.579481
v 0.000001 0.604230 -6.579480
v 2.500003 0.604230 -6.579479
v 5.000001 -0.312657 -6.579481
v 5.000002 -0.007028 -6.579480
v 5.000002 0.298601 -6.579479
v -4.999999 -0.312657 -6.579482
v -5.000000 -0.007028 -6.579483
v -5.000000 0.298601 -6.579482
v -2.500001 0.604228 6.594715
v -0.000002 0.604228 6.594718
v 2.499998 0.604228 6.594718
v 4.905484 0.604228 6.500207
v 4.810971 0.604228 6.405694
v 4.716458 0.604228 6.311181
v -2.310977 0.604228 6.216664
v -0.000003 0.604228 6.216665
v 2.310971 0.604228 6.216667
v 4.905491 0.604230 -6.484966
v 4.810977 0.604230 -6.390453
v 4.716464 0.604230 -6.295940
v -2.310973 0.604230 -6.201429
v 0.000002 0.604230 -6.201429
v 2.310977 0.604230 -6.201428
v 5.000001 0.604230 -3.285928
v 5.000000 0.604229 0.007621
v 4.999999 0.604228 3.301169
v 4.621947 0.604228 3.112144
v 4.621948 0.604229 0.007620
v 4.621950 0.604230 -3.096904
v -4.621951 0.354721 6.216663
v -4.621951 0.105213 6.216663
v -4.621950 -0.144295 6.216662
v 4.621945 0.354720 6.216668
v 4.621945 0.105213 6.216668
v 4.621945 -0.144295 6.216668
v 2.310971 -0.393802 6.216667
v -0.000003 -0.393802 6.216665
v -2.310977 -0.393802 6.216664
v 4.621952 0.354723 -6.201428
v 4.621952 0.105215 -6.201428
v 4.621951 -0.144292 -6.201427
v -4.621948 0.354722 -6.201429
v -4.621948 0.105215 -6.201430
v -4.621948 -0.144293 -6.201429
v -2.310973 -0.393800 -6.201429
v 0.000002 -0.393800 -6.201429
v 2.310977 -0.393800 -6.201428
v 4.621947 -0.393802 3.112144
v 4.621948 -0.393801 0.007620
v 4.621950 -0.393801 -3.096904
v -4.621950 -0.393802 3.112140
v -4.621949 -0.393801 0.007616
v -4.621949 -0.393801 -3.096906
v 5.000000 -0.312659 6.594717
v 4.999999 -0.007030 6.594718
v 4.999998 0.298599 6.594719
v -5.000000 -0.312659 6.594716
v -5.000001 -0.007030 6.594716
v -5.000001 0.298599 6.594715
v 2.500000 -0.618287 -3.285932
v 2.500000 -0.618287 0.007617
v 2.500000 -0.618288 3.301167
v 0.000001 -0.618287 -3.285933
v 0.000001 -0.618287 0.007617
v 0.000000 -0.618288 3.301167
v -2.499999 -0.618286 -3.285933
v -2.499999 -0.618287 0.007617
v -2.500000 -0.618288 3.301166
v -4.905488 0.604230 -3.238676
v -4.905488 0.604229 0.007617
v -4.905488 0.604228 3.253909
v -4.810975 0.604230 -3.191419
v -4.810975 0.604229 0.007617
v -4.810976 0.604228 3.206652
v -4.716462 0.604230 -3.144163
v -4.716463 0.604229 0.007617
v -4.716462 0.604228 3.159396
v 2.500001 0.298601 -6.579480
v 2.500001 -0.007028 -6.579481
v 2.500001 -0.312657 -6.579481
v 0.000001 0.298601 -6.579481
v 0.000001 -0.007028 -6.579481
v 0.000001 -0.312657 -6.579482
v -2.499999 0.298601 -6.579481
v -2.499999 -0.007028 -6.579482
v -2.499999 -0.312657 -6.579482
v -2.452745 0.604228 6.500203
v -0.000002 0.604228 6.500204
v 2.452741 0.604228 6.500205
v -2.405489 0.604228 6.405690
v -0.000002 0.604228 6.405691
v 2.405484 0.604228 6.405692
v -2.358232 0.604228 6.311177
v -0.000003 0.604228 6.311178
v 2.358228 0.604228 6.311179
v 2.452746 0.604230 -6.484967
v 0.000001 0.604230 -6.484967
v -2.452743 0.604230 -6.484968
v 2.405489 0.604230 -6.390454
v 0.000001 0.604230 -6.390454
v -2.405486 0.604230 -6.390455
v 2.358233 0.604230 -6.295940
v 0.000002 0.604230 -6.295941
v -2.358229 0.604230 -6.295942
v 4.905486 0.604228 3.253913
v 4.905487 0.604229 0.007620
v 4.905488 0.604230 -3.238672
v 4.810973 0.604228 3.206657
v 4.810975 0.604229 0.007620
v 4.810976 0.604230 -3.191416
v 4.716460 0.604228 3.159400
v 4.716461 0.604229 0.007620
v 4.716463 0.604230 -3.144160
v -2.310976 0.354720 6.216663
v -0.000002 0.354720 6.216665
v 2.310971 0.354720 6.216666
v -2.310977 0.105213 6.216664
v -0.000003 0.105213 6.216665
v 2.310971 0.105213 6.216667
v -2.310976 -0.144295 6.216664
v -0.000003 -0.144295 6.216665
v 2.310971 -0.144295 6.216666
v 2.310977 0.354722 -6.201428
v 0.000001 0.354722 -6.201428
v -2.310973 0.354722 -6.201429
v 2.310977 0.105215 -6.201428
v 0.000002 0.105215 -6.201428
v -2.310973 0.105215 -6.201429
v 2.310977 -0.144292 -6.201428
v 0.000002 -0.144293 -6.201428
v -2.310973 -0.144292 -6.201429
v 2.310975 -0.393801 -3.096904
v 0.000000 -0.393801 -3.096905
v -2.310974 -0.393801 -3.096906
v 2.310974 -0.393801 0.007619
v -0.000001 -0.393801 0.007618
v -2.310975 -0.393801 0.007618
v 2.310972 -0.393802 3.112143
v -0.000002 -0.393802 3.112142
v -2.310975 -0.393802 3.112140
v 5.000000 -0.312658 -3.285931
v 5.000001 -0.007028 -3.285931
v 5.000001 0.298600 -3.285930
v 5.000000 -0.312658 0.007618
v 5.000000 -0.007029 0.007619
v 5.000000 0.298600 0.007620
v 5.000000 -0.312659 3.301167
v 5.000000 -0.007030 3.301168
v 4.999999 0.298599 3.301169
v 2.499999 -0.312659 6.594717
v 2.499999 -0.007030 6.594717
v 2.499998 0.298599 6.594718
v -0.000001 -0.312659 6.594717
v -0.000001 -0.007030 6.594717
v -0.000001 0.298599 6.594717
v -2.500000 -0.312659 6.594716
v -2.500001 -0.007030 6.594716
v -2.500001 0.298599 6.594716
v -5.000000 -0.312659 3.301166
v -5.000000 -0.007030 3.301166
v -5.000000 0.298599 3.301166
v -5.000000 -0.312658 0.007617
v -5.000000 -0.007029 0.007617
v -5.000000 0.298600 0.007617
v -4.999999 -0.312657 -3.285933
v -5.000000 -0.007029 -3.285933
v -5.000000 0.298600 -3.285933
v -4.621949 0.354722 -3.096906
v -4.621949 0.354721 0.007617
v -4.621950 0.354721 3.112139
v -4.621949 0.105214 -3.096906
v -4.621949 0.105214 0.007617
v -4.621950 0.105213 3.112140
v -4.621949 -0.144293 -3.096906
v -4.621950 -0.144294 0.007617
v -4.621950 -0.144294 3.112139
v 4.621946 0.354721 3.112144
v 4.621948 0.354721 0.007620
v 4.621950 0.354722 -3.096903
v 4.621947 0.105213 3.112144
v 4.621948 0.105214 0.007620
v 4.621950 0.105215 -3.096904
v 4.621947 -0.144294 3.112144
v 4.621948 -0.144294 0.007620
v 4.621950 -0.144293 -3.096903
vt 0.109511 0.001600
vt 0.001600 0.001600
vt 0.001600 0.109511
vt 0.109511 0.109511
vt 0.109511 0.112711
vt 0.001600 0.112711
vt 0.001600 0.220622
vt 0.109511 0.220622
vt 0.220622 0.001600
vt 0.112711 0.001600
vt 0.112711 0.109511
vt 0.220622 0.109511
vt 0.220622 0.112711
vt 0.112711 0.112711
vt 0.112711 0.220622
vt 0.220622 0.220622
vt 0.109511 0.223822
vt 0.001600 0.223822
vt 0.001600 0.331733
vt 0.109511 0.331733
vt 0.331733 0.001600
vt 0.223822 0.001600
vt 0.223822 0.109511
vt 0.331733 0.109511
vt 0.331733 0.112711
vt 0.223822 0.112711
vt 0.223822 0.220622
vt 0.331733 0.220622
vt 0.220622 0.223822
vt 0.112711 0.223822
vt 0.112711 0.331733
vt 0.220622 0.331733
vt 0.331733 0.223822
vt 0.223822 0.223822
vt 0.223822 0.331733
vt 0.331733 0.331733
vt 0.109511 0.334933
vt 0.001600 0.334933
vt 0.001600 0.442844
vt 0.109511 0.442844
vt 0.442844 0.001600
vt 0.334933 0.001600
vt 0.334933 0.109511
vt 0.442844 0.109511
vt 0.220622 0.334933
vt 0.112711 0.334933
vt 0.112711 0.442844
vt 0.220622 0.442844
vt 0.442844 0.112711
vt 0.334933 0.112711
vt 0.334933 0.220622
vt 0.442844 0.220622
vt 0.331733 0.334933
vt 0.223822 0.334933
vt 0.223822 0.442844
vt 0.331733 0.442844
vt 0.442844 0.223822
vt 0.334933 0.223822
vt 0.334933 0.331733
vt 0.442844 0.331733
vt 0.442844 0.334933
vt 0.334933 0.334933
vt 0.334933 0.442844
vt 0.442844 0.442844
vt 0.887289 0.220622
vt 0.887289 0.112711
vt 0.862711 0.112711
vt 0.862711 0.220622
vt 0.557156 0.859511
vt 0.665067 0.859511
vt 0.665067 0.834933
vt 0.557156 0.834933
vt 0.887289 0.109511
vt 0.887289 0.001600
vt 0.862711 0.001600
vt 0.862711 0.109511
vt 0.446044 0.859511
vt 0.553956 0.859511
vt 0.553956 0.834933
vt 0.446044 0.834933
vt 0.859511 0.776178
vt 0.859511 0.668267
vt 0.834933 0.668267
vt 0.834933 0.776178
vt 0.334933 0.859511
vt 0.442844 0.859511
vt 0.442844 0.834933
vt 0.334933 0.834933
vt 0.859511 0.665067
vt 0.859511 0.557156
vt 0.834933 0.557156
vt 0.834933 0.665067
vt 0.223822 0.859511
vt 0.331733 0.859511
vt 0.331733 0.834933
vt 0.223822 0.834933
vt 0.859511 0.553956
vt 0.859511 0.446044
vt 0.834933 0.446044
vt 0.834933 0.553956
vt 0.112711 0.859511
vt 0.220622 0.859511
vt 0.220622 0.834933
vt 0.112711 0.834933
vt 0.859511 0.442844
vt 0.859511 0.334933
vt 0.834933 0.334933
vt 0.834933 0.442844
vt 0.001600 0.859511
vt 0.109511 0.859511
vt 0.109511 0.834933
vt 0.001600 0.834933
vt 0.859511 0.331733
vt 0.859511 0.223822
vt 0.834933 0.223822
vt 0.834933 0.331733
vt 0.668267 0.831733
vt 0.776178 0.831733
vt 0.776178 0.807156
vt 0.668267 0.807156
vt 0.859511 0.220622
vt 0.859511 0.112711
vt 0.834933 0.112711
vt 0.834933 0.220622
vt 0.001600 0.748400
vt 0.109511 0.748400
vt 0.109511 0.723822
vt 0.001600 0.723822
vt 0.581733 0.334933
vt 0.557156 0.334933
vt 0.557156 0.442844
vt 0.581733 0.442844
vt 0.553956 0.581733
vt 0.553956 0.557156
vt 0.446044 0.557156
vt 0.446044 0.581733
vt 0.581733 0.446044
vt 0.557156 0.446044
vt 0.557156 0.553956
vt 0.581733 0.553956
vt 0.553956 0.609511
vt 0.553956 0.584933
vt 0.446044 0.584933
vt 0.446044 0.609511
vt 0.609511 0.334933
vt 0.584933 0.334933
vt 0.584933 0.442844
vt 0.609511 0.442844
vt 0.553956 0.637289
vt 0.553956 0.612711
vt 0.446044 0.612711
vt 0.446044 0.637289
vt 0.609511 0.446044
vt 0.584933 0.446044
vt 0.584933 0.553956
vt 0.609511 0.553956
vt 0.553956 0.665067
vt 0.553956 0.640489
vt 0.446044 0.640489
vt 0.446044 0.665067
vt 0.637289 0.334933
vt 0.612711 0.334933
vt 0.612711 0.442844
vt 0.637289 0.442844
vt 0.665067 0.581733
vt 0.665067 0.557156
vt 0.557156 0.557156
vt 0.557156 0.581733
vt 0.637289 0.446044
vt 0.612711 0.446044
vt 0.612711 0.553956
vt 0.637289 0.553956
vt 0.665067 0.609511
vt 0.665067 0.584933
vt 0.557156 0.584933
vt 0.557156 0.609511
vt 0.665067 0.334933
vt 0.640489 0.334933
vt 0.640489 0.442844
vt 0.665067 0.442844
vt 0.665067 0.637289
vt 0.665067 0.612711
vt 0.557156 0.612711
vt 0.557156 0.637289
vt 0.665067 0.446044
vt 0.640489 0.446044
vt 0.640489 0.553956
vt 0.665067 0.553956
vt 0.665067 0.665067
vt 0.665067 0.640489
vt 0.557156 0.640489
vt 0.557156 0.665067
vt 0.692844 0.109511
vt 0.692844 0.001600
vt 0.668267 0.001600
vt 0.668267 0.109511
vt 0.001600 0.692844
vt 0.109511 0.692844
vt 0.109511 0.668267
vt 0.001600 0.668267
vt 0.692844 0.220622
vt 0.692844 0.112711
vt 0.668267 0.112711
vt 0.668267 0.220622
vt 0.112711 0.692844
vt 0.220622 0.692844
vt 0.220622 0.668267
vt 0.112711 0.668267
vt 0.692844 0.331733
vt 0.692844 0.223822
vt 0.668267 0.223822
vt 0.668267 0.331733
vt 0.223822 0.692844
vt 0.331733 0.692844
vt 0.331733 0.668267
vt 0.223822 0.668267
vt 0.692844 0.442844
vt 0.692844 0.334933
vt 0.668267 0.334933
vt 0.668267 0.442844
vt 0.334933 0.692844
vt 0.442844 0.692844
vt 0.442844 0.668267
vt 0.334933 0.668267
vt 0.692844 0.553956
vt 0.692844 0.446044
vt 0.668267 0.446044
vt 0.668267 0.553956
vt 0.446044 0.692844
vt 0.553956 0.692844
vt 0.553956 0.668267
vt 0.446044 0.668267
vt 0.692844 0.665067
vt 0.692844 0.557156
vt 0.668267 0.557156
vt 0.668267 0.665067
vt 0.557156 0.692844
vt 0.665067 0.692844
vt 0.665067 0.668267
vt 0.557156 0.668267
vt 0.720622 0.109511
vt 0.720622 0.001600
vt 0.696044 0.001600
vt 0.696044 0.109511
vt 0.001600 0.720622
vt 0.109511 0.720622
vt 0.109511 0.696044
vt 0.001600 0.696044
vt 0.720622 0.220622
vt 0.720622 0.112711
vt 0.696044 0.112711
vt 0.696044 0.220622
vt 0.112711 0.720622
vt 0.220622 0.720622
vt 0.220622 0.696044
vt 0.112711 0.696044
vt 0.720622 0.331733
vt 0.720622 0.223822
vt 0.696044 0.223822
vt 0.696044 0.331733
vt 0.223822 0.720622
vt 0.331733 0.720622
vt 0.331733 0.696044
vt 0.223822 0.696044
vt 0.720622 0.442844
vt 0.720622 0.334933
vt 0.696044 0.334933
vt 0.696044 0.442844
vt 0.334933 0.720622
vt 0.442844 0.720622
vt 0.442844 0.696044
vt 0.334933 0.696044
vt 0.720622 0.553956
vt 0.720622 0.446044
vt 0.696044 0.446044
vt 0.696044 0.553956
vt 0.446044 0.720622
vt 0.553956 0.720622
vt 0.553956 0.696044
vt 0.446044 0.696044
vt 0.720622 0.665067
vt 0.720622 0.557156
vt 0.696044 0.557156
vt 0.696044 0.665067
vt 0.557156 0.720622
vt 0.665067 0.720622
vt 0.665067 0.696044
vt 0.557156 0.696044
vt 0.887289 0.331733
vt 0.887289 0.223822
vt 0.862711 0.223822
vt 0.862711 0.331733
vt 0.112711 0.748400
vt 0.220622 0.748400
vt 0.220622 0.723822
vt 0.112711 0.723822
vt 0.748400 0.109511
vt 0.748400 0.001600
vt 0.723822 0.001600
vt 0.723822 0.109511
vt 0.223822 0.748400
vt 0.331733 0.748400
vt 0.331733 0.723822
vt 0.223822 0.723822
vt 0.748400 0.220622
vt 0.748400 0.112711
vt 0.723822 0.112711
vt 0.723822 0.220622
vt 0.334933 0.748400
vt 0.442844 0.748400
vt 0.442844 0.723822
vt 0.334933 0.723822
vt 0.748400 0.331733
vt 0.748400 0.223822
vt 0.723822 0.223822
vt 0.723822 0.331733
vt 0.446044 0.748400
vt 0.553956 0.748400
vt 0.553956 0.723822
vt 0.446044 0.723822
vt 0.748400 0.442844
vt 0.748400 0.334933
vt 0.723822 0.334933
vt 0.723822 0.442844
vt 0.557156 0.748400
vt 0.665067 0.748400
vt 0.665067 0.723822
vt 0.557156 0.723822
vt 0.748400 0.553956
vt 0.748400 0.446044
vt 0.723822 0.446044
vt 0.723822 0.553956
vt 0.001600 0.776178
vt 0.109511 0.776178
vt 0.109511 0.751600
vt 0.001600 0.751600
vt 0.748400 0.665067
vt 0.748400 0.557156
vt 0.723822 0.557156
vt 0.723822 0.665067
vt 0.112711 0.776178
vt 0.220622 0.776178
vt 0.220622 0.751600
vt 0.112711 0.751600
vt 0.776178 0.109511
vt 0.776178 0.001600
vt 0.751600 0.001600
vt 0.751600 0.109511
vt 0.223822 0.776178
vt 0.331733 0.776178
vt 0.331733 0.751600
vt 0.223822 0.751600
vt 0.776178 0.220622
vt 0.776178 0.112711
vt 0.751600 0.112711
vt 0.751600 0.220622
vt 0.334933 0.776178
vt 0.442844 0.776178
vt 0.442844 0.751600
vt 0.334933 0.751600
vt 0.776178 0.331733
vt 0.776178 0.223822
vt 0.751600 0.223822
vt 0.751600 0.331733
vt 0.446044 0.776178
vt 0.553956 0.776178
vt 0.553956 0.751600
vt 0.446044 0.751600
vt 0.776178 0.442844
vt 0.776178 0.334933
vt 0.751600 0.334933
vt 0.751600 0.442844
vt 0.557156 0.776178
vt 0.665067 0.776178
vt 0.665067 0.751600
vt 0.557156 0.751600
vt 0.776178 0.553956
vt 0.776178 0.446044
vt 0.751600 0.446044
vt 0.751600 0.553956
vt 0.668267 0.692844
vt 0.776178 0.692844
vt 0.776178 0.668267
vt 0.668267 0.668267
vt 0.776178 0.665067
vt 0.776178 0.557156
vt 0.751600 0.557156
vt 0.751600 0.665067
vt 0.668267 0.720622
vt 0.776178 0.720622
vt 0.776178 0.696044
vt 0.668267 0.696044
vt 0.803956 0.109511
vt 0.803956 0.001600
vt 0.779378 0.001600
vt 0.779378 0.109511
vt 0.668267 0.748400
vt 0.776178 0.748400
vt 0.776178 0.723822
vt 0.668267 0.723822
vt 0.803956 0.220622
vt 0.803956 0.112711
vt 0.779378 0.112711
vt 0.779378 0.220622
vt 0.668267 0.776178
vt 0.776178 0.776178
vt 0.776178 0.751600
vt 0.668267 0.751600
vt 0.803956 0.331733
vt 0.803956 0.223822
vt 0.779378 0.223822
vt 0.779378 0.331733
vt 0.001600 0.803956
vt 0.109511 0.803956
vt 0.109511 0.779378
vt 0.001600 0.779378
vt 0.803956 0.442844
vt 0.803956 0.334933
vt 0.779378 0.334933
vt 0.779378 0.442844
vt 0.112711 0.803956
vt 0.220622 0.803956
vt 0.220622 0.779378
vt 0.112711 0.779378
vt 0.803956 0.553956
vt 0.803956 0.446044
vt 0.779378 0.446044
vt 0.779378 0.553956
vt 0.223822 0.803956
vt 0.331733 0.803956
vt 0.331733 0.779378
vt 0.223822 0.779378
vt 0.803956 0.665067
vt 0.803956 0.557156
vt 0.779378 0.557156
vt 0.779378 0.665067
vt 0.334933 0.803956
vt 0.442844 0.803956
vt 0.442844 0.779378
vt 0.334933 0.779378
vt 0.803956 0.776178
vt 0.803956 0.668267
vt 0.779378 0.668267
vt 0.779378 0.776178
vt 0.446044 0.803956
vt 0.553956 0.803956
vt 0.553956 0.779378
vt 0.446044 0.779378
vt 0.831733 0.109511
vt 0.831733 0.001600
vt 0.807156 0.001600
vt 0.807156 0.109511
vt 0.557156 0.803956
vt 0.665067 0.803956
vt 0.665067 0.779378
vt 0.557156 0.779378
vt 0.831733 0.220622
vt 0.831733 0.112711
vt 0.807156 0.112711
vt 0.807156 0.220622
vt 0.668267 0.803956
vt 0.776178 0.803956
vt 0.776178 0.779378
vt 0.668267 0.779378
vt 0.831733 0.331733
vt 0.831733 0.223822
vt 0.807156 0.223822
vt 0.807156 0.331733
vt 0.001600 0.831733
vt 0.109511 0.831733
vt 0.109511 0.807156
vt 0.001600 0.807156
vt 0.831733 0.442844
vt 0.831733 0.334933
vt 0.807156 0.334933
vt 0.807156 0.442844
vt 0.112711 0.831733
vt 0.220622 0.831733
vt 0.220622 0.807156
vt 0.112711 0.807156
vt 0.831733 0.553956
vt 0.831733 0.446044
vt 0.807156 0.446044
vt 0.807156 0.553956
vt 0.223822 0.831733
vt 0.331733 0.831733
vt 0.331733 0.807156
vt 0.223822 0.807156
vt 0.831733 0.665067
vt 0.831733 0.557156
vt 0.807156 0.557156
vt 0.807156 0.665067
vt 0.334933 0.831733
vt 0.442844 0.831733
vt 0.442844 0.807156
vt 0.334933 0.807156
vt 0.831733 0.776178
vt 0.831733 0.668267
vt 0.807156 0.668267
vt 0.807156 0.776178
vt 0.446044 0.831733
vt 0.553956 0.831733
vt 0.553956 0.807156
vt 0.446044 0.807156
vt 0.859511 0.109511
vt 0.859511 0.001600
vt 0.834933 0.001600
vt 0.834933 0.109511
vt 0.557156 0.831733
vt 0.665067 0.831733
vt 0.665067 0.807156
vt 0.557156 0.807156
vt 0.665067 0.223822
vt 0.557156 0.223822
vt 0.557156 0.331733
vt 0.665067 0.331733
vt 0.331733 0.557156
vt 0.223822 0.557156
vt 0.223822 0.665067
vt 0.331733 0.665067
vt 0.220622 0.557156
vt 0.112711 0.557156
vt 0.112711 0.665067
vt 0.220622 0.665067
vt 0.665067 0.112711
vt 0.557156 0.112711
vt 0.557156 0.220622
vt 0.665067 0.220622
vt 0.109511 0.557156
vt 0.001600 0.557156
vt 0.001600 0.665067
vt 0.109511 0.665067
vt 0.665067 0.001600
vt 0.557156 0.001600
vt 0.557156 0.109511
vt 0.665067 0.109511
vt 0.553956 0.446044
vt 0.446044 0.446044
vt 0.446044 0.553956
vt 0.553956 0.553956
vt 0.442844 0.446044
vt 0.334933 0.446044
vt 0.334933 0.553956
vt 0.442844 0.553956
vt 0.553956 0.334933
vt 0.446044 0.334933
vt 0.446044 0.442844
vt 0.553956 0.442844
vt 0.553956 0.223822
vt 0.446044 0.223822
vt 0.446044 0.331733
vt 0.553956 0.331733
vt 0.331733 0.446044
vt 0.223822 0.446044
vt 0.223822 0.553956
vt 0.331733 0.553956
vt 0.220622 0.446044
vt 0.112711 0.446044
vt 0.112711 0.553956
vt 0.220622 0.553956
vt 0.553956 0.112711
vt 0.446044 0.112711
vt 0.446044 0.220622
vt 0.553956 0.220622
vt 0.553956 0.001600
vt 0.446044 0.001600
vt 0.446044 0.109511
vt 0.553956 0.109511
vt 0.109511 0.446044
vt 0.001600 0.446044
vt 0.001600 0.553956
vt 0.109511 0.553956
vt 0.442844 0.557156
vt 0.334933 0.557156
vt 0.334933 0.665067
vt 0.442844 0.665067
vt 0.887289 0.334933
vt 0.862711 0.334933
vt 0.862711 0.442844
vt 0.887289 0.442844
vt 0.776178 0.859511
vt 0.776178 0.834933
vt 0.668267 0.834933
vt 0.668267 0.859511
vt 0.887289 0.446044
vt 0.862711 0.446044
vt 0.862711 0.553956
vt 0.887289 0.553956
vt 0.109511 0.887289
vt 0.109511 0.862711
vt 0.001600 0.862711
vt 0.001600 0.887289
vt 0.887289 0.557156
vt 0.862711 0.557156
vt 0.862711 0.665067
vt 0.887289 0.665067
vt 0.220622 0.887289
vt 0.220622 0.862711
vt 0.112711 0.862711
vt 0.112711 0.887289
vt 0.887289 0.668267
vt 0.862711 0.668267
vt 0.862711 0.776178
vt 0.887289 0.776178
vt 0.331733 0.887289
vt 0.331733 0.862711
vt 0.223822 0.862711
vt 0.223822 0.887289
vt 0.803956 0.779378
vt 0.779378 0.779378
vt 0.779378 0.887289
vt 0.803956 0.887289
vt 0.442844 0.887289
vt 0.442844 0.862711
vt 0.334933 0.862711
vt 0.334933 0.887289
vt 0.831733 0.779378
vt 0.807156 0.779378
vt 0.807156 0.887289
vt 0.831733 0.887289
vt 0.553956 0.887289
vt 0.553956 0.862711
vt 0.446044 0.862711
vt 0.446044 0.887289
vt 0.859511 0.779378
vt 0.834933 0.779378
vt 0.834933 0.887289
vt 0.859511 0.887289
vt 0.665067 0.887289
vt 0.665067 0.862711
vt 0.557156 0.862711
vt 0.557156 0.887289
vt 0.887289 0.779378
vt 0.862711 0.779378
vt 0.862711 0.887289
vt 0.887289 0.887289
vt 0.776178 0.887289
vt 0.776178 0.862711
vt 0.668267 0.862711
vt 0.668267 0.887289
vt 0.915067 0.001600
vt 0.890489 0.001600
vt 0.890489 0.109511
vt 0.915067 0.109511
vt 0.109511 0.915067
vt 0.109511 0.890489
vt 0.001600 0.890489
vt 0.001600 0.915067
vt 0.915067 0.112711
vt 0.890489 0.112711
vt 0.890489 0.220622
vt 0.915067 0.220622
vt 0.220622 0.915067
vt 0.220622 0.890489
vt 0.112711 0.890489
vt 0.112711 0.915067
vt 0.915067 0.223822
vt 0.890489 0.223822
vt 0.890489 0.331733
vt 0.915067 0.331733
vt 0.331733 0.915067
vt 0.331733 0.890489
vt 0.223822 0.890489
vt 0.223822 0.915067
vt 0.915067 0.334933
vt 0.890489 0.334933
vt 0.890489 0.442844
vt 0.915067 0.442844
vt 0.442844 0.915067
vt 0.442844 0.890489
vt 0.334933 0.890489
vt 0.334933 0.915067
vt 0.915067 0.446044
vt 0.890489 0.446044
vt 0.890489 0.553956
vt 0.915067 0.553956
vt 0.553956 0.915067
vt 0.553956 0.890489
vt 0.446044 0.890489
vt 0.446044 0.915067
vt 0.915067 0.557156
vt 0.890489 0.557156
vt 0.890489 0.665067
vt 0.915067 0.665067
vt 0.665067 0.915067
vt 0.665067 0.890489
vt 0.557156 0.890489
vt 0.557156 0.915067
vt 0.915067 0.668267
vt 0.890489 0.668267
vt 0.890489 0.776178
vt 0.915067 0.776178
vt 0.776178 0.915067
vt 0.776178 0.890489
vt 0.668267 0.890489
vt 0.668267 0.915067
vt 0.915067 0.779378
vt 0.890489 0.779378
vt 0.890489 0.887289
vt 0.915067 0.887289
vt 0.887289 0.915067
vt 0.887289 0.890489
vt 0.779378 0.890489
vt 0.779378 0.915067
vt 0.942844 0.001600
vt 0.918267 0.001600
vt 0.918267 0.109511
vt 0.942844 0.109511
vt 0.109511 0.942844
vt 0.109511 0.918267
vt 0.001600 0.918267
vt 0.001600 0.942844
vt 0.942844 0.112711
vt 0.918267 0.112711
vt 0.918267 0.220622
vt 0.942844 0.220622
vt 0.220622 0.942844
vt 0.220622 0.918267
vt 0.112711 0.918267
vt 0.112711 0.942844
vt 0.942844 0.223822
vt 0.918267 0.223822
vt 0.918267 0.331733
vt 0.942844 0.331733
vt 0.331733 0.942844
vt 0.331733 0.918267
vt 0.223822 0.918267
vt 0.223822 0.942844
vt 0.942844 0.334933
vt 0.918267 0.334933
vt 0.918267 0.442844
vt 0.942844 0.442844
vt 0.442844 0.942844
vt 0.442844 0.918267
vt 0.334933 0.918267
vt 0.334933 0.942844
vt 0.942844 0.446044
vt 0.918267 0.446044
vt 0.918267 0.553956
vt 0.942844 0.553956
vt 0.553956 0.942844
vt 0.553956 0.918267
vt 0.446044 0.918267
vt 0.446044 0.942844
vt 0.942844 0.557156
vt 0.918267 0.557156
vt 0.918267 0.665067
vt 0.942844 0.665067
vt 0.665067 0.942844
vt 0.665067 0.918267
vt 0.557156 0.918267
vt 0.557156 0.942844
vt 0.942844 0.668267
vt 0.918267 0.668267
vt 0.918267 0.776178
vt 0.942844 0.776178
vt 0.776178 0.942844
vt 0.776178 0.918267
vt 0.668267 0.918267
vt 0.668267 0.942844
vt 0.942844 0.779378
vt 0.918267 0.779378
vt 0.918267 0.887289
vt 0.942844 0.887289
vt 0.887289 0.942844
vt 0.887289 0.918267
vt 0.779378 0.918267
vt 0.779378 0.942844
vt 0.970622 0.109511
vt 0.970622 0.001600
vt 0.946044 0.001600
vt 0.946044 0.109511
vt 0.001600 0.970622
vt 0.109511 0.970622
vt 0.109511 0.946044
vt 0.001600 0.946044
vt 0.970622 0.220622
vt 0.970622 0.112711
vt 0.946044 0.112711
vt 0.946044 0.220622
vt 0.112711 0.970622
vt 0.220622 0.970622
vt 0.220622 0.946044
vt 0.112711 0.946044
vt 0.970622 0.331733
vt 0.970622 0.223822
vt 0.946044 0.223822
vt 0.946044 0.331733
vt 0.223822 0.970622
vt 0.331733 0.970622
vt 0.331733 0.946044
vt 0.223822 0.946044
vt 0.970622 0.442844
vt 0.970622 0.334933
vt 0.946044 0.334933
vt 0.946044 0.442844
vt 0.334933 0.970622
vt 0.442844 0.970622
vt 0.442844 0.946044
vt 0.334933 0.946044
vt 0.970622 0.553956
vt 0.970622 0.446044
vt 0.946044 0.446044
vt 0.946044 0.553956
vt 0.446044 0.970622
vt 0.553956 0.970622
vt 0.553956 0.946044
vt 0.446044 0.946044
vt 0.970622 0.665067
vt 0.970622 0.557156
vt 0.946044 0.557156
vt 0.946044 0.665067
vt 0.557156 0.970622
vt 0.665067 0.970622
vt 0.665067 0.946044
vt 0.557156 0.946044
vt 0.970622 0.776178
vt 0.970622 0.668267
vt 0.946044 0.668267
vt 0.946044 0.776178
vt 0.668267 0.970622
vt 0.776178 0.970622
vt 0.776178 0.946044
vt 0.668267 0.946044
vt 0.970622 0.887289
vt 0.970622 0.779378
vt 0.946044 0.779378
vt 0.946044 0.887289
vt 0.779378 0.970622
vt 0.887289 0.970622
vt 0.887289 0.946044
vt 0.779378 0.946044
vt 0.998400 0.109511
vt 0.998400 0.001600
vt 0.973822 0.001600
vt 0.973822 0.109511
vt 0.001600 0.998400
vt 0.109511 0.998400
vt 0.109511 0.973822
vt 0.001600 0.973822
vt 0.998400 0.220622
vt 0.998400 0.112711
vt 0.973822 0.112711
vt 0.973822 0.220622
vt 0.112711 0.998400
vt 0.220622 0.998400
vt 0.220622 0.973822
vt 0.112711 0.973822
vt 0.998400 0.331733
vt 0.998400 0.223822
vt 0.973822 0.223822
vt 0.973822 0.331733
vt 0.223822 0.998400
vt 0.331733 0.998400
vt 0.331733 0.973822
vt 0.223822 0.973822
vt 0.998400 0.442844
vt 0.998400 0.334933
vt 0.973822 0.334933
vt 0.973822 0.442844
vt 0.334933 0.998400
vt 0.442844 0.998400
vt 0.442844 0.973822
vt 0.334933 0.973822
vt 0.998400 0.553956
vt 0.998400 0.446044
vt 0.973822 0.446044
vt 0.973822 0.553956
vt 0.446044 0.998400
vt 0.553956 0.998400
vt 0.553956 0.973822
vt 0.446044 0.973822
vt 0.998400 0.665067
vt 0.998400 0.557156
vt 0.973822 0.557156
vt 0.973822 0.665067
vt 0.557156 0.998400
vt 0.665067 0.998400
vt 0.665067 0.973822
vt 0.557156 0.973822
vt 0.998400 0.776178
vt 0.998400 0.668267
vt 0.973822 0.668267
vt 0.973822 0.776178
vt 0.668267 0.998400
vt 0.776178 0.998400
vt 0.776178 0.973822
vt 0.668267 0.973822
vt 0.998400 0.887289
vt 0.998400 0.779378
vt 0.973822 0.779378
vt 0.973822 0.887289
vt 0.779378 0.998400
vt 0.887289 0.998400
vt 0.887289 0.973822
vt 0.779378 0.973822
vn 0.0000 -1.0000 0.0000
vn 0.5773 -0.5773 -0.5773
vn 0.7071 -0.7071 0.0000
vn 0.0000 -0.7071 -0.7071
vn 0.5773 -0.5773 0.5773
vn 0.0000 -0.7071 0.7071
vn -0.5773 -0.5773 0.5773
vn -0.7071 -0.7071 0.0000
vn -0.5773 -0.5773 -0.5773
vn 0.0000 1.0000 0.0000
vn -0.5773 0.5773 -0.5773
vn -0.7071 0.7071 0.0000
vn -0.5773 0.5773 0.5773
vn 0.3015 0.9045 -0.3015
vn 0.7071 0.7071 0.0000
vn 0.3015 0.9045 0.3015
vn 0.0000 0.0000 -1.0000
vn 0.5773 0.5773 -0.5773
vn 0.7071 0.0000 -0.7071
vn 0.0000 0.7071 -0.7071
vn -0.7071 0.0000 -0.7071
vn 0.0000 0.7071 0.7071
vn 0.5773 0.5773 0.5773
vn -0.3015 0.9045 -0.3015
vn -0.3015 0.9045 0.3015
vn 0.0000 0.0000 1.0000
vn -0.7071 0.0000 0.7071
vn 0.7071 0.0000 0.7071
vn 1.0000 0.0000 0.0000
vn -1.0000 0.0000 0.0000
usemtl Material.001
s 1
f 101/1/1 102/2/1 105/3/1 104/4/1
f 102/5/1 103/6/1 106/7/1 105/8/1
f 104/9/1 105/10/1 108/11/1 107/12/1
f 105/13/1 106/14/1 109/15/1 108/16/1
f 1/17/2 20/18/3 101/19/1 17/20/4
f 20/21/3 21/22/3 102/23/1 101/24/1
f 21/25/3 22/26/3 103/27/1 102/28/1
f 22/29/3 2/30/5 23/31/6 103/32/1
f 103/33/1 23/34/6 24/35/6 106/36/1
f 106/37/1 24/38/6 25/39/6 109/40/1
f 109/41/1 25/42/6 3/43/7 26/44/8
f 108/45/1 109/46/1 26/47/8 27/48/8
f 107/49/1 108/50/1 27/51/8 28/52/8
f 19/53/4 107/54/1 28/55/8 4/56/9
f 18/57/4 104/58/1 107/59/1 19/60/4
f 17/61/4 101/62/1 104/63/1 18/64/4
f 110/65/10 111/66/10 114/67/10 113/68/10
f 111/69/10 112/70/10 115/71/10 114/72/10
f 113/73/10 114/74/10 117/75/10 116/76/10
f 114/77/10 115/78/10 118/79/10 117/80/10
f 5/81/11 32/82/12 110/83/10 29/84/10
f 32/85/12 33/86/12 111/87/10 110/88/10
f 33/89/12 34/90/12 112/91/10 111/92/10
f 34/93/12 6/94/13 35/95/10 112/96/10
f 112/97/10 35/98/10 36/99/10 115/100/10
f 115/101/10 36/102/10 37/103/10 118/104/10
f 118/105/10 37/106/10 7/107/14 38/108/15
f 117/109/10 118/110/10 38/111/15 39/112/15
f 116/113/10 117/114/10 39/115/15 40/116/15
f 31/117/10 116/118/10 40/119/15 8/120/16
f 30/121/10 113/122/10 116/123/10 31/124/10
f 29/125/10 110/126/10 113/127/10 30/128/10
f 119/129/17 120/130/17 123/131/17 122/132/17
f 120/133/17 121/134/17 124/135/17 123/136/17
f 122/137/17 123/138/17 126/139/17 125/140/17
f 123/141/17 124/142/17 127/143/17 126/144/17
f 9/145/18 46/146/19 119/147/17 43/148/20
f 46/149/19 45/150/19 120/151/17 119/152/17
f 45/153/19 44/154/19 121/155/17 120/156/17
f 44/157/19 1/158/2 17/159/4 121/160/17
f 121/161/17 17/162/4 18/163/4 124/164/17
f 124/165/17 18/166/4 19/167/4 127/168/17
f 127/169/17 19/170/4 4/171/9 47/172/21
f 126/173/17 127/174/17 47/175/21 48/176/21
f 125/177/17 126/178/17 48/179/21 49/180/21
f 41/181/20 125/182/17 49/183/21 5/184/11
f 42/185/20 122/186/17 125/187/17 41/188/20
f 43/189/20 119/190/17 122/191/17 42/192/20
f 128/193/10 129/194/10 132/195/10 131/196/10
f 129/197/10 130/198/10 133/199/10 132/200/10
f 131/201/10 132/202/10 135/203/10 134/204/10
f 132/205/10 133/206/10 136/207/10 135/208/10
f 6/209/13 50/210/22 128/211/10 35/212/10
f 50/213/22 51/214/22 129/215/10 128/216/10
f 51/217/22 52/218/22 130/219/10 129/220/10
f 52/221/22 10/222/23 53/223/10 130/224/10
f 130/225/10 53/226/10 54/227/10 133/228/10
f 133/229/10 54/230/10 55/231/10 136/232/10
f 136/233/10 55/234/10 11/235/24 58/236/20
f 135/237/10 136/238/10 58/239/20 57/240/20
f 134/241/10 135/242/10 57/243/20 56/244/20
f 37/245/10 134/246/10 56/247/20 7/248/14
f 36/249/10 131/250/10 134/251/10 37/252/10
f 35/253/10 128/254/10 131/255/10 36/256/10
f 137/257/10 138/258/10 141/259/10 140/260/10
f 138/261/10 139/262/10 142/263/10 141/264/10
f 140/265/10 141/266/10 144/267/10 143/268/10
f 141/269/10 142/270/10 145/271/10 144/272/10
f 9/273/18 43/274/20 137/275/10 59/276/10
f 43/277/20 42/278/20 138/279/10 137/280/10
f 42/281/20 41/282/20 139/283/10 138/284/10
f 41/285/20 5/286/11 29/287/10 139/288/10
f 139/289/10 29/290/10 30/291/10 142/292/10
f 142/293/10 30/294/10 31/295/10 145/296/10
f 145/297/10 31/298/10 8/299/16 62/300/22
f 144/301/10 145/302/10 62/303/22 63/304/22
f 143/305/10 144/306/10 63/307/22 64/308/22
f 61/309/10 143/310/10 64/311/22 12/312/25
f 60/313/10 140/314/10 143/315/10 61/316/10
f 59/317/10 137/318/10 140/319/10 60/320/10
f 146/321/10 147/322/10 150/323/10 149/324/10
f 147/325/10 148/326/10 151/327/10 150/328/10
f 149/329/10 150/330/10 153/331/10 152/332/10
f 150/333/10 151/334/10 154/335/10 153/336/10
f 10/337/23 67/338/15 146/339/10 53/340/10
f 67/341/15 66/342/15 147/343/10 146/344/10
f 66/345/15 65/346/15 148/347/10 147/348/10
f 65/349/15 9/350/18 59/351/10 148/352/10
f 148/353/10 59/354/10 60/355/10 151/356/10
f 151/357/10 60/358/10 61/359/10 154/360/10
f 154/361/10 61/362/10 12/363/25 70/364/12
f 153/365/10 154/366/10 70/367/12 69/368/12
f 152/369/10 153/370/10 69/371/12 68/372/12
f 55/373/10 152/374/10 68/375/12 11/376/24
f 54/377/10 149/378/10 152/379/10 55/380/10
f 53/381/10 146/382/10 149/383/10 54/384/10
f 155/385/17 156/386/17 159/387/17 158/388/17
f 156/389/17 157/390/17 160/391/17 159/392/17
f 158/393/17 159/394/17 162/395/17 161/396/17
f 159/397/17 160/398/17 163/399/17 162/400/17
f 7/401/14 56/402/20 155/403/17 71/404/19
f 56/405/20 57/406/20 156/407/17 155/408/17
f 57/409/20 58/410/20 157/411/17 156/412/17
f 58/413/20 11/414/24 74/415/21 157/416/17
f 157/417/17 74/418/21 75/419/21 160/420/17
f 160/421/17 75/422/21 76/423/21 163/424/17
f 163/425/17 76/426/21 13/427/11 77/428/20
f 162/429/17 163/430/17 77/431/20 78/432/20
f 161/433/17 162/434/17 78/435/20 79/436/20
f 73/437/19 161/438/17 79/439/20 14/440/18
f 72/441/19 158/442/17 161/443/17 73/444/19
f 71/445/19 155/446/17 158/447/17 72/448/19
f 164/449/26 165/450/26 168/451/26 167/452/26
f 165/453/26 166/454/26 169/455/26 168/456/26
f 167/457/26 168/458/26 171/459/26 170/460/26
f 168/461/26 169/462/26 172/463/26 171/464/26
f 12/465/25 64/466/22 164/467/26 80/468/27
f 64/469/22 63/470/22 165/471/26 164/472/26
f 63/473/22 62/474/22 166/475/26 165/476/26
f 62/477/22 8/478/16 83/479/28 166/480/26
f 166/481/26 83/482/28 84/483/28 169/484/26
f 169/485/26 84/486/28 85/487/28 172/488/26
f 172/489/26 85/490/28 15/491/23 86/492/22
f 171/493/26 172/494/26 86/495/22 87/496/22
f 170/497/26 171/498/26 87/499/22 88/500/22
f 82/501/27 170/502/26 88/503/22 16/504/13
f 81/505/27 167/506/26 170/507/26 82/508/27
f 80/509/27 164/510/26 167/511/26 81/512/27
f 173/513/10 174/514/10 177/515/10 176/516/10
f 174/517/10 175/518/10 178/519/10 177/520/10
f 176/521/10 177/522/10 180/523/10 179/524/10
f 177/525/10 178/526/10 181/527/10 180/528/10
f 16/529/13 88/530/22 173/531/10 91/532/12
f 88/533/22 87/534/22 174/535/10 173/536/10
f 87/537/22 86/538/22 175/539/10 174/540/10
f 86/541/22 15/542/23 94/543/15 175/544/10
f 175/545/10 94/546/15 93/547/15 178/548/10
f 178/549/10 93/550/15 92/551/15 181/552/10
f 181/553/10 92/554/15 14/555/18 79/556/20
f 180/557/10 181/558/10 79/559/20 78/560/20
f 179/561/10 180/562/10 78/563/20 77/564/20
f 89/565/12 179/566/10 77/567/20 13/568/11
f 90/569/12 176/570/10 179/571/10 89/572/12
f 91/573/12 173/574/10 176/575/10 90/576/12
f 182/577/29 183/578/29 186/579/29 185/580/29
f 183/581/29 184/582/29 187/583/29 186/584/29
f 185/585/29 186/586/29 189/587/29 188/588/29
f 186/589/29 187/590/29 190/591/29 189/592/29
f 1/593/2 44/594/19 182/595/29 20/596/3
f 44/597/19 45/598/19 183/599/29 182/600/29
f 45/601/19 46/602/19 184/603/29 183/604/29
f 46/605/19 9/606/18 65/607/15 184/608/29
f 184/609/29 65/610/15 66/611/15 187/612/29
f 187/613/29 66/614/15 67/615/15 190/616/29
f 190/617/29 67/618/15 10/619/23 97/620/28
f 189/621/29 190/622/29 97/623/28 96/624/28
f 188/625/29 189/626/29 96/627/28 95/628/28
f 22/629/3 188/630/29 95/631/28 2/632/5
f 21/633/3 185/634/29 188/635/29 22/636/3
f 20/637/3 182/638/29 185/639/29 21/640/3
f 191/641/26 192/642/26 195/643/26 194/644/26
f 192/645/26 193/646/26 196/647/26 195/648/26
f 194/649/26 195/650/26 198/651/26 197/652/26
f 195/653/26 196/654/26 199/655/26 198/656/26
f 2/657/5 95/658/28 191/659/26 23/660/6
f 95/661/28 96/662/28 192/663/26 191/664/26
f 96/665/28 97/666/28 193/667/26 192/668/26
f 97/669/28 10/670/23 52/671/22 193/672/26
f 193/673/26 52/674/22 51/675/22 196/676/26
f 196/677/26 51/678/22 50/679/22 199/680/26
f 199/681/26 50/682/22 6/683/13 100/684/27
f 198/685/26 199/686/26 100/687/27 99/688/27
f 197/689/26 198/690/26 99/691/27 98/692/27
f 25/693/6 197/694/26 98/695/27 3/696/7
f 24/697/6 194/698/26 197/699/26 25/700/6
f 23/701/6 191/702/26 194/703/26 24/704/6
f 200/705/30 201/706/30 204/707/30 203/708/30
f 201/709/30 202/710/30 205/711/30 204/712/30
f 203/713/30 204/714/30 207/715/30 206/716/30
f 204/717/30 205/718/30 208/719/30 207/720/30
f 3/721/7 98/722/27 200/723/30 26/724/8
f 98/725/27 99/726/27 201/727/30 200/728/30
f 99/729/27 100/730/27 202/731/30 201/732/30
f 100/733/27 6/734/13 34/735/12 202/736/30
f 202/737/30 34/738/12 33/739/12 205/740/30
f 205/741/30 33/742/12 32/743/12 208/744/30
f 208/745/30 32/746/12 5/747/11 49/748/21
f 207/749/30 208/750/30 49/751/21 48/752/21
f 206/753/30 207/754/30 48/755/21 47/756/21
f 28/757/8 206/758/30 47/759/21 4/760/9
f 27/761/8 203/762/30 206/763/30 28/764/8
f 26/765/8 200/766/30 203/767/30 27/768/8
f 209/769/29 210/770/29 213/771/29 212/772/29
f 210/773/29 211/774/29 214/775/29 213/776/29
f 212/777/29 213/778/29 216/779/29 215/780/29
f 213/781/29 214/782/29 217/783/29 216/784/29
f 8/785/16 40/786/15 209/787/29 83/788/28
f 40/789/15 39/790/15 210/791/29 209/792/29
f 39/793/15 38/794/15 211/795/29 210/796/29
f 38/797/15 7/798/14 71/799/19 211/800/29
f 211/801/29 71/802/19 72/803/19 214/804/29
f 214/805/29 72/806/19 73/807/19 217/808/29
f 217/809/29 73/810/19 14/811/18 92/812/15
f 216/813/29 217/814/29 92/815/15 93/816/15
f 215/817/29 216/818/29 93/819/15 94/820/15
f 85/821/28 215/822/29 94/823/15 15/824/23
f 84/825/28 212/826/29 215/827/29 85/828/28
f 83/829/28 209/830/29 212/831/29 84/832/28
f 218/833/30 219/834/30 222/835/30 221/836/30
f 219/837/30 220/838/30 223/839/30 222/840/30
f 221/841/30 222/842/30 225/843/30 224/844/30
f 222/845/30 223/846/30 226/847/30 225/848/30
f 11/849/24 68/850/12 218/851/30 74/852/21
f 68/853/12 69/854/12 219/855/30 218/856/30
f 69/857/12 70/858/12 220/859/30 219/860/30
f 70/861/12 12/862/25 80/863/27 220/864/30
f 220/865/30 80/866/27 81/867/27 223/868/30
f 223/869/30 81/870/27 82/871/27 226/872/30
f 226/873/30 82/874/27 16/875/13 91/876/12
f 225/877/30 226/878/30 91/879/12 90/880/12
f 224/881/30 225/882/30 90/883/12 89/884/12
f 76/885/21 224/886/30 89/887/12 13/888/11
f 75/889/21 221/890/30 224/891/30 76/892/21
f 74/893/21 218/894/30 221/895/30 75/896/21
